<?xml version="1.0" encoding="UTF-8"?>
<svg id="_2023" data-name="2023" width="120" height="120" xmlns="http://www.w3.org/2000/svg" xmlns:xlink="http://www.w3.org/1999/xlink" viewBox="0 0 118.67 119.41">
  <defs>
    <style>
      .cls-1 {
        fill-rule: evenodd;
      }

      .cls-1, .cls-2, .cls-3 {
        fill: #8c9091;
      }

      .cls-4 {
        fill: #1a236f;
      }

      .cls-5 {
        fill: #fff;
      }

      .cls-2 {
        stroke: #8c9091;
        stroke-miterlimit: 3.86;
      }

      .cls-2, .cls-6 {
        stroke-width: .75px;
      }

      .cls-6 {
        fill: none;
        stroke: #fff;
        stroke-miterlimit: 10;
      }

      .cls-7 {
        clip-path: url(#clippath-1);
      }

      .cls-8 {
        clip-path: url(#clippath);
      }
    </style>
    <clipPath id="clippath">
      <polygon class="cls-3" points="31.93 26.47 32.16 22.52 35.84 21.07 32.18 19.84 32.22 16.11 29.99 19.19 25.86 17.92 28.35 21.46 26.11 24.54 29.64 23.35 31.93 26.47 31.93 26.47"/>
    </clipPath>
    <clipPath id="clippath-1">
      <polygon class="cls-3" points="82.81 21.4 86.51 22.78 86.82 26.74 89.07 23.58 92.6 24.71 90.33 21.67 92.74 18.07 88.64 19.43 86.36 16.38 86.47 20.12 82.81 21.4 82.81 21.4"/>
    </clipPath>
  </defs>
  <g id="bta23-a08_africa_med_sil">
    <path class="cls-4" d="M98.53,78.68h14.16c3.04,0,5.93,2.95,5.93,5.9v28.85c0,2.95-2.99,5.94-5.93,5.94H5.97c-2.99,0-5.93-2.98-5.93-5.94v-28.85c0-2.94,2.94-5.9,5.93-5.9h14.39c2.46,0,4.45-1.99,4.45-4.45,0-1.1-.22-2.08-.88-2.85h0c-5.63-7.46-8.97-16.75-8.97-26.82C14.95,19.98,34.86.05,59.42.05s44.47,19.93,44.47,44.51c0,10.06-3.33,19.34-8.96,26.79h0c-.66.77-.84,1.78-.84,2.88,0,2.46,1.99,4.45,4.45,4.45"/>
    <g>
      <path class="cls-2" d="M59.39,78.93c-19.02-.1-34.42-15.6-34.42-34.72,0-3.27.45-6.43,1.3-9.43-.85,3-1.53,6.16-1.53,9.43,0,19.12,15.62,35.08,34.65,35.18"/>
      <path class="cls-2" d="M59.28,78.92c19.02-.09,34.42-15.6,34.42-34.72,0-3.27-.45-6.43-1.31-9.43.85,3,1.53,6.16,1.53,9.43,0,19.12-15.62,35.08-34.65,35.18"/>
      <path class="cls-1" d="M24.96,47.29c.25-3.47,2.33-4.19,3.81-4.62.44-.13.82-.31,1.09-.46.11-.06.28-.17.43-.28,0,0,0,.31-.06.76-.07.46-.23,1.08-.55,1.72-.64,1.26-1.96,2.61-4.72,2.89h0Z"/>
      <path class="cls-3" d="M26.99,54.28l.21.11.03.13c-.11.12-.24.24-.38.38-.1.11-.24.08-.32,0-.08-.08-.1-.22,0-.32.23-.23.41-.42.59-.61,0,0,0,0,.09-.09l-.22.41h0ZM28,52.88c.09-.12.22-.12.32-.05.1.07.14.2.05.32-.27.38-.5.67-.74.95l-.12-.06-.3-.16c.27-.29.5-.59.79-.99h0Z"/>
      <path class="cls-1" d="M36.26,68.5c1.55-.39,2.44-1.12,2.94-1.9l.05.02c-.31,1.07-.92,2.22-1.96,3.42-.43-.54-.77-1.05-1.03-1.54h0ZM37.76,60.1c.36.42,1.24,1.58,1.6,3.21-.13.1-.28.22-.39.29-.22.14-.53.31-.9.44-.85.29-1.97.72-2.55,1.8-.02-1.28.45-2.35.94-3.25.92-.78,1.22-1.72,1.29-2.49h0Z"/>
      <path class="cls-3" d="M36.26,68.5c1.55-.39,2.44-1.12,2.94-1.9l.05.02c-.31,1.07-.92,2.22-1.96,3.42-.43-.54-.77-1.05-1.03-1.54h0Z"/>
      <path class="cls-1" d="M37.52,70.68c-2.71,2.53-5.22,2.69-7.05,2.23-.92-.23-1.68-.62-2.2-.95-.26-.17-.47-.32-.6-.43-.18-.14-.36,0-.36,0l.16-.17c.22-.06.47-.13.66-.2.39-.14.91-.36,1.42-.69,1.37-.89,3.25-1.98,5.79-1.03l.07.14.77.62.27-.23c.35.2.71.44,1.08.72h0Z"/>
      <path class="cls-3" d="M29.11,66.02c-2.42.49-4.25-.27-5.46-1.16-.61-.45-1.06-.92-1.37-1.29-.15-.18-.27-.34-.34-.45-.07-.11-.11-.17-.11-.17.22,0,.49,0,.68,0,.41-.03.98-.1,1.56-.27,1.88-.57,4.56-1.23,7.22,1.92-.47-.11-.92-.16-1.33-.21-.43-.04-.82-.14-1.1-.23-.12-.04-.3-.1-.47-.17l-.45-.17.14.46s.07.22.23.54c.16.32.42.75.8,1.2h0Z"/>
      <path class="cls-1" d="M29.56,57.52c-.41.34-.88.68-1.42.99-.41-1.12-.54-2.07-.49-2.88.37.62.96,1.34,1.92,1.89h0ZM31.85,53.49c-.08.63-.26,1.29-.61,1.96-.82-.59-1.73-.8-2.46-.95-.32-.07-.62-.17-.85-.26.41-1.08,1.16-1.84,1.85-2.45.42.61,1.07,1.24,2.06,1.7h0ZM31.21,50.25"/>
      <path class="cls-3" d="M29.56,57.52c-.41.34-.88.68-1.42.99-.41-1.12-.54-2.07-.49-2.88.37.62.96,1.34,1.92,1.89h0Z"/>
      <path class="cls-3" d="M31.85,53.49c-.08.63-.26,1.29-.61,1.96-.82-.59-1.73-.8-2.46-.95-.32-.07-.62-.17-.85-.26.41-1.08.95-1.81,1.77-2.55.92-.82,1.54-1.92,1.54-1.92,0,0,.75,1.52.61,3.72h0Z"/>
      <path class="cls-3" d="M27.48,58.25c-6.05,2.7-8.76-2.38-8.76-2.38.21.02.44.02.62.02.37,0,.88-.04,1.41-.17,1.81-.44,4.4-.94,6.73,2.53h0Z"/>
      <path class="cls-3" d="M30.06,45.39c.08.35.19.86.2,1.32.02.79-.11,1.84-.66,2.88.03-.06-.31.53-.48.74-.68.79-1.62,1.6-3.1,2.17-.72-3.7,1.25-5.04,2.68-5.91.42-.26.77-.56,1.01-.79.11-.1.24-.26.36-.4h0Z"/>
      <path class="cls-1" d="M25.5,51.92c-2.9.78-4.75-.07-5.88-1.1-.57-.52-.96-1.08-1.21-1.52-.12-.22-.21-.41-.27-.54-.08-.19-.3-.13-.3-.13l.22-.08c.19.05.4.09.54.11.33.05.79.09,1.28.05,1.67-.14,4.04-.21,5.63,3.2h0Z"/>
      <path class="cls-3" d="M24.49,46.59c-2.7-.09-4.07-1.32-4.78-2.5-.36-.6-.54-1.19-.65-1.63-.1-.44-.11-.73-.11-.73.15.09.32.18.44.24.27.13.66.28,1.09.38,1.47.32,3.53.89,4,4.24h0Z"/>
      <path class="cls-1" d="M25.38,41.97c.48-3.01,2.34-3.49,3.67-3.75.39-.08.74-.21.99-.32.1-.04.26-.13.4-.21,0,0-.02.27-.11.66-.1.4-.28.93-.61,1.46-.65,1.05-1.9,2.13-4.34,2.17h0Z"/>
      <path class="cls-3" d="M25.08,41.49c-4.81-.42-4.74-4.63-4.74-4.63.14.09.28.18.38.23.24.13.58.29.96.39,1.31.36,3.14.96,3.4,4h0Z"/>
      <path class="cls-3" d="M25.07,37.68c-3.89-2.44-2.03-5.97-2.03-5.97.08.14.17.28.22.36.15.21.36.49.64.75.95.87,2.24,2.17,1.16,4.86h0Z"/>
      <path class="cls-3" d="M25.59,37.33c1.7-2.34,3.48-1.94,4.72-1.59.36.1.71.14.97.15.1,0,.27,0,.43,0,.06.04.09.05.09.06,0,0-.11-.01-.18.09-.06.09-.16.22-.28.37-.25.29-.63.67-1.14.97-1,.61-2.52.98-4.6-.04h0Z"/>
      <path class="cls-3" d="M29.01,30.4c.04.18.07.39.08.54.02.33,0,.78-.13,1.28-.26.98-.99,2.12-2.86,2.73-.34-2.46,1-3.28,1.97-3.8.28-.15.52-.34.69-.49.06-.06.16-.16.25-.25h0Z"/>
      <path class="cls-3" d="M42.48,74.49c-3.33-3.23-2.29-5.99-1.46-7.88.24-.56.38-1.11.46-1.52.04-.19.06-.46.09-.69.15-.18.04.03.21.18.13.12.31.3.51.53.41.47.91,1.16,1.28,2.03.74,1.74.98,4.26-1.09,7.34h0Z"/>
      <path class="cls-3" d="M42.79,75.1c-4.73,5.66-9.9,1.9-9.9,1.9.21-.08.45-.19.63-.28.37-.19.86-.47,1.33-.86,1.59-1.32,3.94-3.08,7.95-.76h0Z"/>
      <path class="cls-3" d="M49.07,77.22c-3.7-2.79-3-5.66-2.41-7.64.18-.58.25-1.15.27-1.56.01-.2,0-.47,0-.69.13-.19.04.02.23.15.14.11.34.26.57.47.46.41,1.04,1.04,1.52,1.86.94,1.64,1.49,4.1-.19,7.41h0Z"/>
      <path class="cls-1" d="M49.45,77.79c-2.02,3.12-4.42,3.87-6.3,3.87-.95,0-1.78-.2-2.37-.39-.29-.1-.53-.19-.69-.27-.21-.09-.35.08-.35.08l.11-.2c.2-.11.42-.24.59-.35.35-.23.8-.57,1.21-1.02,1.41-1.51,3.53-3.55,7.8-1.73h0Z"/>
      <path class="cls-3" d="M43.51,72.95c.12,0,.23.06.25.21.08,1.15.44,2.06,1.47,2.57.13.06.16.2.11.31-.05.11-.17.17-.31.11-1.2-.59-1.64-1.62-1.73-2.95,0-.15.09-.24.21-.25h0Z"/>
      <path class="cls-3" d="M42.17,76.25c-.04-.11-.01-.24.13-.3.74-.3,1.31-.45,2.14-.48.15,0,.23.1.24.22,0,.12-.07.23-.22.24-.77.03-1.3.17-1.98.44-.14.06-.25-.02-.3-.13h0Z"/>
      <path class="cls-3" d="M38.93,69.85c.12,0,.23.06.24.21.08,1.13.19,1.87.87,2.75.09.12.05.25-.04.32-.09.08-.23.08-.32-.04-.75-.96-.87-1.77-.96-3-.01-.15.09-.24.21-.25h0Z"/>
      <path class="cls-3" d="M37.25,73.07c-.06-.1-.04-.24.09-.31.7-.4,1.24-.49,2.06-.49.15,0,.23.11.23.23s-.08.23-.23.23c-.73,0-1.21.08-1.83.43-.13.07-.25.02-.31-.09h0Z"/>
      <path class="cls-3" d="M30.03,59.54c.04-.08.07-.17.12-.25.07-.13.2-.16.31-.11.11.05.17.17.11.31l-.08.18c-.15-.05-.3-.09-.45-.13h0Z"/>
      <path class="cls-3" d="M30.03,59.54c.04-.08.07-.17.12-.25.07-.13.2-.16.31-.11.11.05.17.17.11.31l-.08.18c-.15-.05-.3-.09-.45-.13h0Z"/>
      <path class="cls-3" d="M27.63,60.55c.15.21.33.43.54.64l-.03.05c-.16-.08-.33-.17-.52-.26-.18-.09-.18-.35.02-.43h0Z"/>
      <path class="cls-3" d="M25.74,54.13c-.22-.21-.47-.36-.84-.41-.15-.02-.21-.14-.19-.26.02-.12.11-.22.26-.2.43.06.74.23,1.01.47.13.12.25.25.37.4.12.15.24.31.37.48.09.12.05.25-.04.32-.09.07-.23.08-.32-.04-.11-.15-.21-.28-.31-.41-.1-.13-.2-.25-.31-.35h0Z"/>
      <path class="cls-3" d="M23.4,47.87c-.14-.05-.17-.19-.13-.3.04-.11.16-.19.3-.13.39.15.68.34.95.55.27.22.53.47.84.75.11.1.1.24.02.33-.08.09-.21.12-.32.02-.29-.26-.52-.5-.77-.7-.25-.21-.52-.38-.88-.52h0Z"/>
      <path class="cls-3" d="M26.12,47.81c.1.06.15.19.07.32-.3.47-.5.77-.66,1.32-.04.14-.17.19-.29.15-.11-.03-.2-.14-.15-.29.18-.6.39-.93.72-1.44.08-.13.22-.13.32-.07h0Z"/>
      <path class="cls-3" d="M26.09,42.41c.12-.09.25-.05.32.05.07.09.07.23-.05.32-.28.21-.49.4-.7.59-.2.19-.4.4-.65.65-.11.11-.24.08-.32,0-.08-.08-.11-.22,0-.33.26-.26.47-.48.68-.68.21-.2.43-.39.72-.61h0Z"/>
      <path class="cls-3" d="M23.67,42.85c-.09-.15-.19-.31-.28-.49-.07-.14,0-.26.1-.31.11-.05.24-.03.31.1.09.19.19.35.28.49.1.15.19.28.29.42.19.27.39.54.57.93.06.13,0,.26-.11.31-.11.05-.24.03-.3-.11-.19-.39-.38-.66-.57-.93-.1-.13-.19-.27-.29-.41h0Z"/>
      <path class="cls-3" d="M27.01,38.03c.04.11.01.24-.13.3-.54.22-.86.43-1.3.87-.11.11-.24.08-.32,0-.09-.09-.11-.22,0-.33.48-.49.85-.73,1.45-.97.14-.05.25.02.3.13h0Z"/>
      <path class="cls-3" d="M24.44,37.28c.07-.09.2-.13.32-.04.44.34.69.69.88,1.26.05.14-.03.25-.15.29-.11.04-.24,0-.29-.15-.16-.47-.36-.75-.73-1.04-.12-.09-.11-.23-.04-.32h0Z"/>
      <path class="cls-3" d="M27.35,35.37c.05.11.03.24-.1.31l-.92.46c-.13.07-.25,0-.31-.1-.05-.11-.03-.24.1-.31l.92-.46c.13-.07.25,0,.31.1h0Z"/>
      <path class="cls-3" d="M25.72,33.98c.12-.03.24.03.27.18.12.53.21.86.23,1.42,0,.15-.1.24-.22.24-.12,0-.23-.07-.24-.22-.03-.53-.11-.84-.22-1.34-.03-.15.06-.25.17-.27h0Z"/>
      <path class="cls-3" d="M33.55,55.44c-1.1,2.75-.39,6.4.56,9.33.81,2.48,1.81,4.5,2.11,5.07l-.06.05-.58-.47c-.16-.33-1.16-2.44-1.92-5.09-.82-2.89-1.38-6.46-.28-9.18,0,0,1.35-2.62.18.28Z"/>
      <path class="cls-3" d="M39.45,63.52s1.1,4.1-4.01,4.9c-.46-2.99,1.38-3.73,2.7-4.18.39-.13.72-.31.95-.46.1-.06.23-.17.36-.26h0Z"/>
      <path class="cls-3" d="M34.83,67.99c-5.25.3-6.53-3.77-6.53-3.77.17.07.36.13.48.17.3.09.7.19,1.15.24,1.5.15,3.64.47,4.9,3.37h0Z"/>
      <path class="cls-3" d="M37.46,58.82s1.05,3.9-3.8,4.66c-.43-2.84,1.31-3.54,2.57-3.97.37-.13.68-.3.9-.44.09-.06.22-.16.34-.25h0Z"/>
      <path class="cls-3" d="M33.36,62.76c-2.51.15-4.05-.76-4.97-1.68-.46-.47-.77-.94-.96-1.3-.1-.18-.16-.33-.21-.44-.04-.1-.06-.16-.06-.16.17.07.34.13.46.16.28.08.67.18,1.09.22,1.43.14,3.46.44,4.65,3.2h0Z"/>
      <path class="cls-3" d="M32.78,58.17c-4.82-.25-5.48-3.96-5.48-3.96.15.08.32.15.42.2.26.11.62.24,1.02.32,1.35.28,3.26.77,4.04,3.45h0Z"/>
      <path class="cls-3" d="M34.95,64.38c.06,0,.11.06.1.13-.09.73-.21,1.16-.4,1.88-.02.07-.08.1-.14.08-.06-.02-.1-.07-.08-.14.19-.71.31-1.12.4-1.85,0-.07.07-.11.13-.1h0Z"/>
      <path class="cls-3" d="M32.97,64.13c-.06-.03-.08-.1-.05-.16.03-.05.09-.08.15-.05.31.16.5.36.67.58.17.22.32.47.54.75.04.06.03.12-.02.16-.05.04-.12.04-.16-.02-.21-.27-.34-.51-.5-.72-.16-.21-.34-.4-.63-.55h0Z"/>
      <path class="cls-3" d="M33.63,60.64c.07-.08.13-.16.2-.27.04-.06.11-.07.16-.03.05.03.07.1.03.16-.06.1-.13.19-.2.26-.07.08-.13.14-.19.21-.13.13-.25.26-.36.47-.03.06-.1.08-.15.05-.06-.03-.08-.09-.05-.16.11-.21.24-.35.36-.48.06-.07.13-.13.19-.21h0Z"/>
      <path class="cls-3" d="M32.03,59.15s.11-.06.16,0c.48.45.66.83.89,1.48.02.07-.01.13-.07.15-.06.02-.12,0-.15-.07-.22-.61-.38-.97-.83-1.39-.05-.05-.05-.12,0-.16h0Z"/>
      <g>
        <polygon class="cls-3" points="31.93 26.47 32.16 22.52 35.84 21.07 32.18 19.84 32.22 16.11 29.99 19.19 25.86 17.92 28.35 21.46 26.11 24.54 29.64 23.35 31.93 26.47 31.93 26.47"/>
        <g class="cls-8">
          <polygon class="cls-3" points="29.96 18.93 30.46 21.28 25.5 17.67 29.96 18.93 29.96 18.93"/>
          <polygon class="cls-3" points="32.41 19.61 30.46 21.28 32.28 15.84 32.41 19.61 32.41 19.61"/>
          <polygon class="cls-3" points="29.96 18.93 30.46 21.28 32.28 15.84 29.96 18.93 29.96 18.93"/>
          <polygon class="cls-3" points="32.41 19.61 30.46 21.28 36.16 21.06 32.41 19.61 32.41 19.61"/>
          <polygon class="cls-3" points="36.16 21.06 30.46 21.28 32.46 22.74 36.16 21.06 36.16 21.06"/>
          <polygon class="cls-3" points="32.46 22.74 30.46 21.28 32.09 27.05 32.46 22.74 32.46 22.74"/>
          <polygon class="cls-3" points="32.09 27.05 30.46 21.28 29.54 23.7 32.09 27.05 32.09 27.05"/>
          <polygon class="cls-3" points="29.54 23.7 30.46 21.28 25.95 24.65 29.54 23.7 29.54 23.7"/>
          <polygon class="cls-3" points="25.95 24.65 30.46 21.28 28.18 21.47 25.95 24.65 25.95 24.65"/>
          <polygon class="cls-3" points="28.18 21.47 30.46 21.28 25.5 17.67 28.18 21.47 28.18 21.47"/>
        </g>
      </g>
      <g>
        <polygon class="cls-3" points="82.81 21.4 86.51 22.78 86.82 26.74 89.07 23.58 92.6 24.71 90.33 21.67 92.74 18.07 88.64 19.43 86.36 16.38 86.47 20.12 82.81 21.4 82.81 21.4"/>
        <g class="cls-7">
          <polygon class="cls-3" points="90.58 21.71 88.19 21.51 93.09 17.81 90.58 21.71 90.58 21.71"/>
          <polygon class="cls-3" points="89.22 23.87 88.19 21.51 92.84 24.84 89.22 23.87 89.22 23.87"/>
          <polygon class="cls-3" points="90.58 21.71 88.19 21.51 92.84 24.84 90.58 21.71 90.58 21.71"/>
          <polygon class="cls-3" points="89.22 23.87 88.19 21.51 86.74 27.05 89.22 23.87 89.22 23.87"/>
          <polygon class="cls-3" points="86.74 27.05 88.19 21.51 86.22 23 86.74 27.05 86.74 27.05"/>
          <polygon class="cls-3" points="86.22 23 88.19 21.51 82.22 21.38 86.22 23 86.22 23"/>
          <polygon class="cls-3" points="82.22 21.38 88.19 21.51 86.16 19.92 82.22 21.38 82.22 21.38"/>
          <polygon class="cls-3" points="86.16 19.92 88.19 21.51 86.3 16.19 86.16 19.92 86.16 19.92"/>
          <polygon class="cls-3" points="86.3 16.19 88.19 21.51 88.68 19.27 86.3 16.19 86.3 16.19"/>
          <polygon class="cls-3" points="88.68 19.27 88.19 21.51 93.09 17.81 88.68 19.27 88.68 19.27"/>
        </g>
      </g>
      <path class="cls-3" d="M57.09,78.98c-4.01-2.32-3.67-5.25-3.32-7.29.1-.6.1-1.17.08-1.58-.01-.2-.05-.46-.08-.68.1-.21.04.01.25.12.15.08.37.22.63.39.51.36,1.16.9,1.73,1.66,1.14,1.51,1.98,3.89.71,7.38h0Z"/>
      <path class="cls-3" d="M48.38,83.75c.18-.13.4-.29.55-.42.31-.27.72-.67,1.08-1.16,1.22-1.67,3.08-3.95,7.53-2.67-3.23,6.64-9.15,4.25-9.15,4.25h0Z"/>
      <path class="cls-3" d="M51.49,75.15c.12-.03.24.02.28.17.3,1.29.59,2.2,1.63,2.97.12.09.12.23.05.32-.07.1-.2.14-.32.05-1.13-.84-1.48-1.83-1.81-3.24-.03-.15.06-.25.17-.27h0Z"/>
      <path class="cls-3" d="M49.99,79.05c-.15.03-.25-.06-.27-.17-.03-.12.03-.24.17-.28.45-.1.8-.2,1.15-.29.35-.08.71-.15,1.17-.18.15-.01.24.09.24.21,0,.12-.06.24-.21.25-.45.03-.8.09-1.14.17-.34.08-.68.18-1.12.28h0Z"/>
      <path class="cls-1" d="M93.7,47.28c-.25-3.47-2.33-4.19-3.81-4.62-.44-.13-.82-.31-1.09-.46-.11-.06-.28-.17-.43-.28,0,0,0,.31.06.76.07.46.23,1.08.55,1.72.64,1.26,1.96,2.61,4.72,2.89h0Z"/>
      <path class="cls-3" d="M91.68,54.28l-.22-.4c.09.1.09.09.09.09.17.19.36.38.59.61.1.11.08.24,0,.32-.08.09-.22.11-.32,0-.14-.14-.26-.26-.38-.38l.03-.13.21-.12h0ZM90.67,52.88c.29.41.53.7.79,1l-.3.16-.12.06c-.25-.28-.47-.57-.74-.95-.09-.12-.04-.25.05-.32.1-.07.23-.07.32.05h0Z"/>
      <path class="cls-1" d="M82.41,68.49c-.26.49-.6,1.01-1.03,1.54-1.04-1.2-1.64-2.35-1.96-3.42l.05-.02c.5.78,1.38,1.51,2.94,1.9h0ZM80.9,60.09c.07.76.36,1.71,1.29,2.49.49.9.96,1.97.94,3.25-.58-1.09-1.69-1.51-2.55-1.81-.37-.13-.68-.3-.9-.44-.11-.07-.26-.18-.39-.29.36-1.63,1.24-2.79,1.6-3.21h0Z"/>
      <path class="cls-3" d="M82.41,68.49c-1.55-.39-2.44-1.11-2.94-1.9l-.05.02c.31,1.07.92,2.22,1.96,3.42.43-.53.77-1.05,1.03-1.54h0Z"/>
      <path class="cls-1" d="M81.15,70.68c2.71,2.53,5.22,2.69,7.05,2.23.92-.23,1.68-.62,2.2-.95.26-.17.47-.32.6-.43.18-.14.36,0,.36,0l-.16-.17c-.22-.06-.47-.13-.65-.2-.39-.14-.91-.36-1.42-.69-1.37-.89-3.25-1.98-5.79-1.03l-.07.14-.77.62-.27-.23c-.35.2-.71.44-1.08.72h0Z"/>
      <path class="cls-3" d="M89.55,66.02c2.42.49,4.25-.27,5.46-1.16.6-.45,1.06-.92,1.37-1.29.15-.18.27-.34.34-.44.08-.11.11-.17.11-.17-.22,0-.49,0-.68,0-.41-.03-.98-.1-1.56-.27-1.88-.57-4.56-1.23-7.22,1.92.47-.11.93-.16,1.33-.21.43-.04.82-.14,1.1-.23.12-.04.3-.1.47-.17l.44-.17-.14.46s-.07.22-.23.54c-.16.32-.42.76-.8,1.2h0Z"/>
      <path class="cls-1" d="M89.11,57.52c.95-.55,1.55-1.27,1.92-1.89.05.81-.08,1.76-.49,2.89-.55-.32-1.02-.65-1.42-1h0ZM86.81,53.48c.99-.47,1.64-1.09,2.06-1.7.69.61,1.45,1.37,1.85,2.45-.23.09-.53.19-.85.26-.73.15-1.64.37-2.46.95-.34-.67-.53-1.34-.61-1.96h0ZM87.46,50.24"/>
      <path class="cls-3" d="M89.11,57.52c.41.34.88.68,1.42,1,.41-1.12.54-2.07.49-2.89-.37.62-.97,1.34-1.92,1.89h0Z"/>
      <path class="cls-3" d="M86.81,53.48c.08.63.26,1.29.61,1.96.82-.59,1.73-.8,2.46-.95.32-.07.62-.17.85-.26-.41-1.08-.95-1.82-1.77-2.55-.92-.82-1.54-1.92-1.54-1.92,0,0-.75,1.52-.61,3.72h0Z"/>
      <path class="cls-3" d="M91.19,58.25c6.05,2.7,8.76-2.38,8.76-2.38-.21.02-.44.02-.62.02-.37,0-.88-.04-1.41-.17-1.8-.44-4.4-.94-6.73,2.53h0Z"/>
      <path class="cls-3" d="M88.61,45.39c-.08.35-.18.86-.2,1.32-.02.79.11,1.84.66,2.88-.03-.06.31.53.48.74.68.8,1.62,1.6,3.1,2.17.72-3.7-1.25-5.04-2.68-5.91-.42-.26-.77-.56-1.01-.79-.11-.1-.24-.26-.36-.4h0Z"/>
      <path class="cls-1" d="M93.17,51.92c2.9.78,4.75-.07,5.88-1.1.57-.52.96-1.08,1.21-1.52.12-.22.21-.41.27-.54.08-.19.3-.12.3-.12l-.22-.08c-.19.05-.4.09-.54.11-.33.05-.79.09-1.28.05-1.66-.14-4.04-.21-5.63,3.2h0Z"/>
      <path class="cls-3" d="M93.99,46.59c2.7-.09,4.07-1.32,4.78-2.5.36-.6.54-1.19.65-1.63.1-.44.11-.73.11-.73-.15.09-.32.18-.44.24-.27.13-.65.28-1.09.38-1.47.32-3.53.89-4,4.24h0Z"/>
      <path class="cls-1" d="M93.29,41.96c-.48-3.01-2.34-3.49-3.67-3.75-.39-.08-.74-.21-.99-.32-.1-.05-.25-.13-.4-.21,0,0,.02.27.11.66.1.4.28.93.61,1.46.65,1.05,1.9,2.13,4.34,2.17h0Z"/>
      <path class="cls-3" d="M93.41,41.49c4.81-.42,4.74-4.63,4.74-4.63-.14.09-.28.18-.38.23-.24.13-.58.29-.96.39-1.31.36-3.14.96-3.4,4h0Z"/>
      <path class="cls-3" d="M93.6,37.68c3.89-2.44,2.03-5.97,2.03-5.97-.08.14-.17.28-.22.36-.15.21-.37.49-.64.75-.95.87-2.24,2.17-1.16,4.86h0Z"/>
      <path class="cls-3" d="M93.08,37.33c-1.7-2.34-3.48-1.94-4.72-1.59-.37.1-.71.14-.97.15-.1,0-.27,0-.43,0-.06.04-.09.05-.09.06,0,.01.11-.01.18.09.06.09.16.22.28.37.25.3.64.67,1.14.97,1,.61,2.52.98,4.6-.04h0Z"/>
      <path class="cls-3" d="M89.66,30.4c-.04.18-.07.39-.08.54-.02.33,0,.78.13,1.28.26.98.99,2.12,2.86,2.73.34-2.46-1-3.28-1.97-3.8-.29-.15-.52-.34-.69-.49-.07-.06-.16-.16-.25-.25h0Z"/>
      <path class="cls-3" d="M76.18,74.48c3.33-3.23,2.29-5.99,1.46-7.88-.24-.56-.38-1.11-.46-1.52-.04-.19-.06-.46-.09-.69-.15-.17-.04.03-.21.18-.13.12-.31.3-.51.53-.41.47-.91,1.15-1.28,2.03-.74,1.74-.98,4.25,1.09,7.33h0Z"/>
      <path class="cls-3" d="M75.87,75.09c4.73,5.66,9.9,1.9,9.9,1.9-.21-.08-.45-.19-.63-.28-.37-.19-.86-.47-1.33-.86-1.59-1.32-3.94-3.08-7.95-.76h0Z"/>
      <path class="cls-3" d="M69.6,77.22c3.7-2.8,3-5.66,2.41-7.64-.18-.58-.25-1.15-.27-1.56-.01-.2,0-.47,0-.69-.13-.19-.04.02-.23.15-.14.1-.34.26-.57.47-.46.41-1.04,1.03-1.52,1.86-.94,1.64-1.49,4.1.19,7.41h0Z"/>
      <path class="cls-1" d="M69.22,77.78c2.02,3.12,4.42,3.87,6.3,3.87.95,0,1.78-.2,2.37-.39.29-.1.53-.2.69-.27.21-.09.35.08.35.08l-.11-.2c-.2-.11-.42-.24-.59-.35-.34-.23-.8-.57-1.21-1.02-1.41-1.51-3.53-3.55-7.8-1.73h0Z"/>
      <path class="cls-3" d="M75.16,72.95c-.12,0-.23.06-.24.21-.08,1.15-.44,2.06-1.48,2.57-.13.06-.16.2-.11.31.05.11.17.17.31.11,1.2-.59,1.64-1.62,1.73-2.95,0-.15-.09-.24-.21-.25h0Z"/>
      <path class="cls-3" d="M76.5,76.25c.04-.11.01-.24-.13-.3-.74-.3-1.31-.45-2.14-.48-.15,0-.23.1-.24.22,0,.12.07.23.22.24.77.03,1.3.17,1.98.44.14.06.25-.02.3-.13h0Z"/>
      <path class="cls-3" d="M79.74,69.84c-.12,0-.23.07-.25.22-.08,1.12-.18,1.87-.87,2.75-.09.12-.05.25.04.32.09.07.23.08.32-.04.75-.96.87-1.77.96-3,.01-.15-.09-.24-.21-.25h0Z"/>
      <path class="cls-3" d="M81.41,73.06c.06-.1.04-.24-.08-.31-.7-.4-1.24-.49-2.06-.49-.15,0-.23.11-.23.23s.08.23.23.23c.73,0,1.21.08,1.83.43.13.07.25.02.31-.08h0Z"/>
      <path class="cls-3" d="M88.64,59.53c-.15.04-.3.08-.45.13l-.08-.18c-.06-.13,0-.25.11-.31.11-.05.24-.03.31.11.04.08.08.17.12.25h0Z"/>
      <path class="cls-3" d="M88.64,59.53c-.04-.08-.08-.17-.12-.25-.07-.14-.2-.16-.31-.11-.11.05-.17.17-.11.31l.08.18c.15-.05.3-.09.45-.13h0Z"/>
      <path class="cls-3" d="M91.03,60.54c-.15.21-.33.43-.54.64l.04.05c.16-.08.33-.17.52-.26.18-.09.18-.35-.01-.43h0Z"/>
      <path class="cls-3" d="M92.92,54.13c.22-.21.47-.36.84-.41.15-.02.21-.14.19-.26-.02-.12-.11-.22-.26-.2-.43.06-.74.23-1,.47-.13.12-.25.25-.37.4-.12.15-.24.31-.37.48-.09.12-.05.25.04.32.09.07.23.08.32-.04.11-.15.21-.29.31-.41.1-.13.2-.25.31-.35h0Z"/>
      <path class="cls-3" d="M95.21,48.07c.14-.05.17-.19.13-.3-.04-.11-.16-.19-.3-.13-.39.15-.68.34-.95.55-.27.22-.53.47-.84.76-.11.1-.1.24-.02.33.08.09.21.12.32.01.29-.26.52-.5.77-.7.25-.21.52-.38.88-.52h0Z"/>
      <path class="cls-3" d="M92.54,47.8c-.1.06-.15.19-.07.32.3.47.5.77.66,1.32.04.14.17.19.29.15.11-.03.2-.14.15-.29-.18-.6-.39-.93-.72-1.44-.08-.13-.22-.13-.32-.07h0Z"/>
      <path class="cls-3" d="M92.58,42.41c-.12-.09-.25-.05-.32.05-.07.09-.07.23.05.32.28.21.49.4.7.59.2.2.4.4.65.65.11.11.24.08.32,0,.08-.08.11-.22,0-.33-.26-.26-.47-.47-.68-.68-.21-.2-.43-.39-.72-.61h0Z"/>
      <path class="cls-3" d="M94.81,42.85c.09-.15.19-.31.28-.49.07-.14,0-.26-.1-.31-.11-.05-.24-.03-.31.1-.09.19-.19.35-.28.49s-.19.28-.29.42c-.19.27-.39.54-.57.93-.07.13,0,.26.11.31.11.05.24.03.3-.11.19-.39.38-.66.57-.93.1-.13.19-.27.29-.41h0Z"/>
      <path class="cls-3" d="M91.65,38.02c-.04.11-.01.24.13.3.54.22.86.43,1.3.87.11.11.24.08.32,0,.08-.09.1-.22,0-.33-.48-.49-.85-.73-1.45-.97-.14-.05-.25.02-.3.13h0Z"/>
      <path class="cls-3" d="M94.22,37.28c-.07-.09-.2-.13-.32-.04-.44.34-.69.69-.88,1.26-.05.14.03.25.14.29.11.04.24,0,.29-.15.16-.47.36-.76.73-1.04.12-.09.11-.23.04-.32h0Z"/>
      <path class="cls-3" d="M91.32,35.36c-.06.11-.03.24.1.31l.92.46c.13.07.25,0,.31-.1.05-.11.03-.24-.1-.31l-.92-.46c-.13-.07-.25,0-.31.1h0Z"/>
      <path class="cls-3" d="M92.95,33.97c-.12-.03-.24.03-.27.18-.12.53-.21.86-.23,1.42,0,.15.1.24.22.24.12,0,.23-.07.24-.22.03-.53.11-.84.22-1.34.03-.15-.06-.25-.17-.27h0Z"/>
      <path class="cls-3" d="M85.11,55.43c1.1,2.75.39,6.4-.56,9.33-.81,2.48-1.81,4.5-2.11,5.07l.06.05.59-.47c.16-.33,1.16-2.44,1.92-5.09.82-2.89,1.38-6.46.28-9.18,0,0-1.35-2.62-.18.28Z"/>
      <path class="cls-3" d="M79.21,63.52s-1.1,4.1,4.01,4.9c.46-2.99-1.37-3.73-2.7-4.18-.39-.13-.72-.31-.95-.46-.1-.06-.23-.17-.36-.27h0Z"/>
      <path class="cls-3" d="M83.83,67.98c5.25.3,6.53-3.77,6.53-3.77-.17.07-.36.13-.48.17-.3.09-.7.19-1.15.24-1.5.15-3.64.47-4.9,3.37h0Z"/>
      <path class="cls-3" d="M81.21,58.81s-1.05,3.9,3.81,4.66c.43-2.84-1.31-3.54-2.57-3.97-.37-.13-.68-.3-.9-.44-.09-.06-.22-.16-.34-.25h0Z"/>
      <path class="cls-3" d="M85.31,62.76c2.51.15,4.05-.76,4.97-1.68.46-.47.77-.94.96-1.3.1-.18.16-.33.21-.44.04-.1.06-.16.06-.16-.17.07-.34.13-.46.16-.28.08-.67.18-1.09.23-1.43.14-3.46.44-4.65,3.2h0Z"/>
      <path class="cls-3" d="M85.89,58.16c4.82-.25,5.48-3.96,5.48-3.96-.16.08-.32.15-.42.2-.26.11-.62.24-1.02.32-1.35.28-3.26.77-4.04,3.45h0Z"/>
      <path class="cls-3" d="M83.72,64.37c-.06,0-.11.06-.1.13.09.73.21,1.16.4,1.88.02.07.08.1.14.08.06-.02.1-.07.08-.14-.19-.71-.31-1.12-.4-1.85,0-.07-.07-.11-.13-.1h0Z"/>
      <path class="cls-3" d="M85.69,64.12c.06-.04.08-.1.05-.16-.03-.06-.09-.08-.16-.05-.3.16-.5.36-.67.58-.17.22-.32.47-.54.75-.04.06-.03.12.02.16.05.04.12.04.16-.02.21-.26.34-.51.5-.72.16-.21.34-.4.63-.55h0Z"/>
      <path class="cls-3" d="M85.04,60.63c-.07-.08-.13-.16-.2-.27-.04-.06-.1-.07-.16-.04-.05.04-.07.1-.03.16.07.1.13.19.2.26.07.08.13.14.19.21.13.13.25.26.36.47.03.06.1.08.15.05.06-.03.08-.09.05-.16-.11-.21-.24-.35-.36-.48-.06-.07-.13-.13-.19-.21h0Z"/>
      <path class="cls-3" d="M86.64,59.14s-.11-.06-.16,0c-.48.45-.66.83-.89,1.48-.02.07.01.13.07.15.06.02.12,0,.15-.07.22-.61.38-.97.83-1.39.05-.05.05-.12,0-.16h0Z"/>
      <path class="cls-3" d="M61.58,78.98c4.01-2.32,3.67-5.25,3.32-7.29-.1-.6-.1-1.17-.08-1.58.01-.2.05-.46.08-.68-.1-.21-.04.01-.25.13-.16.09-.37.22-.63.39-.51.36-1.16.9-1.73,1.66-1.14,1.51-1.98,3.89-.71,7.38h0Z"/>
      <path class="cls-3" d="M70.29,83.74c-.18-.13-.4-.29-.55-.42-.31-.27-.72-.67-1.08-1.16-1.22-1.67-3.08-3.95-7.53-2.67,3.23,6.64,9.15,4.25,9.15,4.25h0Z"/>
      <path class="cls-3" d="M67.18,75.15c-.12-.03-.24.03-.27.17-.3,1.29-.59,2.2-1.63,2.97-.12.09-.12.23-.05.32.07.1.2.14.32.05,1.13-.84,1.48-1.83,1.8-3.24.03-.15-.05-.25-.17-.28h0Z"/>
      <path class="cls-3" d="M68.68,79.04c.15.03.25-.06.27-.17.03-.12-.03-.24-.17-.28-.45-.1-.8-.2-1.15-.29-.35-.08-.71-.15-1.18-.17-.15-.01-.24.09-.24.21,0,.12.07.23.21.24.45.03.8.09,1.14.17.34.08.68.18,1.12.28h0Z"/>
    </g>
    <g>
      <path class="cls-5" d="M40.99,14.97c-.15.01-.24-.07-.31-.21-.3-.6-.42-.89-.5-1.11-.05-.14-.05-.2,0-.22.05-.03.09.04.13.09.04.07.09.13.15.21.43.55,1.16.61,1.74.32.7-.35.74-.83.58-1.15-.16-.31-.35-.54-1.19-.65l-.62-.09c-1.23-.18-1.74-.58-2.07-1.23-.43-.85-.07-1.9,1.12-2.49.32-.16.55-.26.89-.35.13-.04.27-.07.41-.09.09-.02.12,0,.15.06.1.24.16.4.5,1.06.07.13.07.2.01.23-.04.02-.08.01-.15-.1-.04-.07-.16-.24-.35-.36-.26-.17-.73-.25-1.26.02-.61.31-.66.76-.49,1.1.13.25.36.5,1.04.58l.51.06c1.39.17,1.94.46,2.32,1.21.26.51.28,1.13-.11,1.74-.3.48-.74.77-1.13.97-.56.28-.99.4-1.34.42Z"/>
      <path class="cls-5" d="M45.94,8.67c-.4-1.22-.48-1.45-.58-1.7-.09-.22-.22-.33-.41-.3-.06,0-.14.02-.25.05-.09.03-.16.02-.18-.04-.02-.05.02-.08.15-.13.32-.1,1.1-.33,1.16-.35.07-.02.99-.35,1.28-.44.13-.04.18-.03.2.02.02.06-.04.1-.12.13-.08.03-.12.05-.22.1-.19.11-.24.23-.16.52.06.26.13.46.53,1.69l.45,1.39c.2.62.45,1.35.59,1.67.08.2.18.33.43.3.11,0,.26-.05.36-.07.13-.04.18-.02.19.02.01.04-.01.09-.14.13-.54.18-1.39.43-1.46.45-.04.01-.86.31-1.13.4-.13.04-.19.05-.21-.02-.02-.06.04-.1.13-.13.08-.03.15-.07.23-.11.16-.08.16-.27.1-.51-.08-.34-.25-.91-.5-1.69l-.45-1.39Z"/>
      <path class="cls-5" d="M53.5,8.31c.13.83.19,1.42.36,1.57.14.14.3.16.98.05.45-.07.71-.12.92-.28.18-.12.29-.36.32-.75.01-.09.02-.16.08-.17.06,0,.07.03.09.15.03.19.06.98.01,1.23-.03.22-.1.24-.43.29-1.13.17-1.9.24-2.77.37-.39.06-.82.15-1.28.22-.11.02-.18.01-.19-.06,0-.05.04-.08.15-.1.1-.02.19-.04.27-.08.29-.09.27-.24.2-.9-.03-.33-.1-.82-.18-1.33l-.22-1.44c-.21-1.34-.24-1.48-.29-1.74-.05-.23-.13-.36-.34-.38-.08-.01-.2,0-.33,0-.09.01-.17.01-.18-.06-.01-.07.07-.09.23-.12.47-.07.9-.11,1.22-.16.07-.01,1.09-.19,1.38-.24.15-.02.2,0,.21.04.01.07-.07.1-.18.12-.08.02-.16.03-.27.08-.21.08-.25.24-.22.53.02.27.04.43.25,1.78l.21,1.37Z"/>
      <path class="cls-5" d="M58.2,4.75c-.22-.52-.31-.6-.59-.66-.07-.02-.14-.03-.19-.03-.09-.02-.13-.05-.13-.09,0-.06.07-.07.18-.07.45.01.93.05,1.26.06.29,0,.74,0,1.39,0,.12,0,.19.04.19.09,0,.05-.05.08-.13.08-.1,0-.15,0-.22.02-.22.03-.25.12-.25.2,0,.11.04.28.17.64.36,1.02.85,2.27,1.2,3.26.36-.75,1.28-2.77,1.57-3.54.04-.09.07-.2.07-.27,0-.11-.04-.17-.19-.2-.1-.03-.24-.04-.33-.05-.11-.01-.15-.04-.15-.09,0-.05.04-.08.19-.08.55.02.95.05,1.08.05.12,0,.66,0,.92,0,.12,0,.18.03.18.09,0,.06-.04.08-.15.08-.1,0-.23,0-.37.06-.18.08-.3.25-.54.73-.35.71-.67,1.37-1.17,2.41-.56,1.16-.94,1.91-1.17,2.34-.25.48-.34.59-.45.59-.12,0-.18-.12-.33-.51l-2.04-5.12Z"/>
      <path class="cls-5" d="M67.21,7.03c.29-1.32.32-1.49.36-1.75.04-.24,0-.39-.2-.49-.07-.03-.18-.06-.26-.08-.1-.03-.14-.07-.13-.12.01-.05.07-.06.19-.03.46.1.85.21,1.2.29.17.04,2.16.47,2.29.5.16.04.36.06.45.06.06,0,.1-.01.14,0,.04,0,.04.04.03.08,0,.04-.04.12-.12.35-.06.16-.14.44-.26.85-.01.06-.06.11-.11.1-.04,0-.06-.06-.06-.13.02-.09.03-.17.02-.29,0-.2-.08-.32-.46-.44-.26-.08-.96-.26-1.21-.31-.05-.01-.07.01-.08.07l-.4,1.78c-.01.06-.01.1.04.11.23.06.88.2,1.18.25.4.07.51.07.63-.06.07-.06.1-.09.14-.08.05.01.04.06.03.11-.02.08-.12.36-.22.68-.05.18-.14.58-.16.67-.02.11-.06.15-.11.14-.06-.01-.06-.07-.06-.15,0-.07.01-.13.02-.19.02-.24-.06-.41-.46-.52-.22-.07-.88-.23-1.14-.29-.04,0-.06.03-.07.09l-.12.56c-.06.28-.17.75-.24,1.06-.12.57-.03.72.87.92.21.05.53.11.78.07.25-.04.38-.2.54-.55.04-.09.08-.13.13-.12.07.01.05.1.03.19-.07.32-.3.91-.37,1.06-.1.2-.16.19-.46.13-1.12-.25-1.72-.43-2.57-.62-.38-.08-.73-.14-1.17-.23-.15-.03-.19-.07-.18-.12,0-.04.06-.07.18-.05.1.01.18.02.25.02.23.02.34-.28.46-.79.09-.32.2-.8.31-1.3l.32-1.43Z"/>
      <path class="cls-5" d="M74.5,9.03c.52-1.18.57-1.34.67-1.59.12-.32.07-.46-.09-.58-.1-.07-.23-.13-.29-.16-.09-.05-.12-.1-.1-.14.02-.05.08-.05.2,0,.33.14,1.05.49,1.15.53.14.06.89.36,1.24.52.72.31,1.19.6,1.44.94.28.36.44.89.18,1.47-.28.64-.86.97-1.69,1.08.17.87.37,1.93.6,2.67.21.63.33.84.53.96.08.05.12.07.18.11.08.04.12.09.1.13-.03.07-.11.04-.19,0l-.68-.3c-.78-.34-1.08-.57-1.27-.86-.18-.25-.28-.68-.37-1.29-.1-.73-.13-1.12-.18-1.39,0-.03-.03-.07-.07-.09l-.5-.22s-.07-.01-.09.03l-.17.39c-.26.6-.42.96-.52,1.3-.07.2-.09.4.11.55.09.08.18.11.32.2.12.06.12.1.1.14-.02.05-.08.05-.19,0-.51-.22-1.33-.61-1.38-.63-.09-.04-.84-.34-1.1-.45-.11-.05-.14-.09-.12-.14.02-.05.09-.05.17-.02.08.03.18.06.27.08.17.03.29-.08.43-.33.17-.31.41-.84.73-1.57l.59-1.34ZM75.59,10.11c-.03.06-.02.1.02.14.11.14.33.26.54.36.21.09.37.13.53.09.21-.05.49-.32.72-.83.47-1.08-.09-1.66-.48-1.83-.12-.05-.25-.1-.32-.1-.04,0-.06,0-.08.06l-.93,2.12Z"/>
    </g>
    <g>
      <path class="cls-5" d="M48.12,19.73c.25.4.41.52.67.48.14-.02.21-.05.33-.1.1-.03.14-.02.16.03.02.05,0,.08-.11.13-.65.31-1.05.51-1.96.88-.11.05-.16.01-.17-.02-.01-.03,0-.07.04-.1.11-.11.11-.13-.07-.44l-1.24-2.1-.23,3.04c-.03.43-.06.49-.12.51-.08.04-.13,0-.49-.21-.48-.3-1.11-.74-1.65-1.08-.22-.15-.7-.49-.88-.6l.61,1.72c.13.33.19.46.24.56.1.2.2.27.4.22.09-.02.16-.05.25-.08.09-.04.14-.03.16,0,.02.05,0,.1-.11.15-.29.14-.68.29-.9.4-.23.11-.54.28-.8.41-.07.03-.14.05-.17-.02-.02-.04,0-.07.09-.12.06-.04.12-.06.19-.11.18-.13.21-.29.06-.82l-1.26-4.2c-.07-.24-.05-.32.02-.35.07-.03.16,0,.4.15l3.36,2.05.42-3.88c.04-.24.07-.33.13-.36.08-.04.16.04.27.2l2.38,3.65Z"/>
      <path class="cls-5" d="M49.01,17.01c-.3-1.16-.34-1.28-.42-1.5-.06-.17-.16-.27-.34-.25-.07,0-.15.02-.22.03-.11.02-.13-.02-.14-.06,0-.04.02-.08.13-.11.43-.11.78-.18,1.08-.26.13-.03,1.97-.52,2.09-.55.14-.04.29-.08.4-.14.04-.03.08-.05.11-.05.04-.01.07.02.07.06,0,.09,0,.19.03.35.04.18.07.33.16.77.01.06,0,.12-.05.13-.04.01-.08-.01-.11-.08-.04-.09-.06-.15-.11-.25-.08-.15-.2-.22-.55-.17-.27.05-.86.19-1.08.25-.04.01-.05.04-.04.09l.38,1.47s.03.06.07.05c.22-.06.71-.19.99-.27.39-.12.48-.17.53-.33.02-.07.04-.11.07-.11.05-.01.07.03.08.07.02.08.05.4.11.66.03.15.12.53.14.61.03.1,0,.13-.04.14-.04.01-.08-.01-.11-.09-.02-.04-.03-.09-.05-.13-.1-.21-.21-.31-.59-.24-.23.04-.78.18-1,.24-.04.01-.04.03-.03.07l.13.51c.06.23.14.56.22.84.14.49.25.58,1.07.36.18-.05.46-.13.65-.25.18-.13.22-.32.2-.66,0-.09.02-.13.07-.15.06-.01.08.04.1.13.08.3.15.89.16,1.03,0,.19-.06.21-.33.28-1.08.28-1.6.37-2.36.57-.34.09-.68.2-1.09.31-.14.04-.18,0-.19-.04,0-.03,0-.08.13-.11.07-.03.13-.04.2-.08.22-.1.17-.38.07-.88-.07-.26-.16-.65-.26-1.04l-.32-1.22Z"/>
      <path class="cls-5" d="M54.03,15.82c-.09-1.05-.1-1.2-.13-1.43-.03-.2-.07-.42-.4-.43h-.24c-.12-.01-.13-.05-.13-.09,0-.04.01-.08.15-.09.13-.01.86-.04,1.22-.07.25-.02.54-.06,1.21-.12,1.35-.11,2.29.02,2.99.6.41.34.79.91.86,1.76.07.86-.28,1.6-.67,2.03-.34.39-.94.94-2.47,1.06-.4.03-1.22.02-1.52.04-.35.03-.76.09-1.11.12-.12,0-.15-.03-.16-.07,0-.04.04-.09.13-.09.08,0,.11-.02.21-.04.35-.06.27-.58.16-1.92l-.1-1.26ZM55.5,16.52c.06.76.11,1.21.13,1.35.04.33.09.43.17.51.15.15.48.2.75.18.46-.04.86-.13,1.21-.57.33-.38.37-1.08.32-1.66-.05-.65-.28-1.18-.63-1.6-.52-.62-1.22-.7-1.69-.66-.17.01-.33.05-.38.1-.06.06-.07.1.04,1.44l.07.91Z"/>
      <path class="cls-5" d="M61.08,15.54c.08-1.12.09-1.31.08-1.54,0-.19-.04-.33-.22-.37-.05-.02-.13-.03-.23-.05-.1-.01-.14-.04-.14-.09,0-.04.03-.08.17-.07.29.02,1.08.1,1.11.1.04,0,.98.04,1.26.06.13,0,.15.04.14.09,0,.06-.06.07-.15.07-.08,0-.08,0-.17.01-.2.03-.27.1-.32.34-.04.23-.05.4-.13,1.52l-.09,1.26c-.04.55-.07,1.23-.06,1.54,0,.18.05.31.27.38.1.03.22.04.3.05.12,0,.15.06.15.1,0,.03-.04.07-.16.06-.51-.04-1.37-.12-1.41-.12-.02,0-.88-.04-1.11-.05-.12,0-.17-.04-.17-.09,0-.04.05-.08.13-.07.07,0,.14,0,.24,0,.16-.02.24-.17.27-.37.06-.3.1-.79.15-1.51l.09-1.26Z"/>
      <path class="cls-5" d="M65.7,17.16c-.21.96-.16,1.38.21,1.75.25.22.47.28.63.31.21.05.52.07.8-.07.5-.24.65-1.01.81-1.72l.18-.83c.22-1.03.26-1.19.29-1.42.04-.27.01-.41-.22-.5-.09-.04-.1-.04-.26-.09-.1-.03-.12-.08-.11-.12,0-.05.06-.06.18-.03.43.09.85.21,1.01.24.13.03.61.11.99.18.12.03.15.07.14.11,0,.03-.04.06-.14.05-.07,0-.13-.02-.23-.02-.2,0-.28.08-.36.37-.06.22-.11.38-.33,1.41l-.14.67c-.18.81-.39,1.67-1.25,2.08-.51.25-1.11.25-1.61.14-.71-.15-1.31-.41-1.66-.85-.33-.39-.51-.97-.29-1.98l.23-1.07c.24-1.1.27-1.28.31-1.51.02-.18,0-.3-.15-.37-.08-.04-.25-.1-.31-.12-.11-.04-.12-.08-.11-.12,0-.04.05-.07.19-.03.29.06,1.09.26,1.12.27.04,0,1,.19,1.26.24.14.03.17.07.16.11-.01.05-.04.07-.14.06-.07,0-.19-.02-.27-.02-.21,0-.29.14-.36.36-.07.22-.14.57-.32,1.43l-.23,1.06Z"/>
      <path class="cls-5" d="M75.71,22.1c-.14.45-.13.65.07.81.1.09.18.13.29.19.09.06.1.09.08.14-.02.05-.06.05-.17,0-.66-.3-1.06-.47-1.94-.92-.11-.05-.11-.11-.1-.15.01-.03.05-.04.1-.04.15.01.17,0,.29-.34l.79-2.3-2.47,1.8c-.34.26-.41.27-.47.25-.08-.03-.08-.1-.15-.51-.08-.56-.16-1.33-.25-1.96-.03-.26-.08-.85-.12-1.05l-.91,1.58c-.17.32-.23.44-.27.54-.09.2-.08.33.09.45.08.05.14.09.23.14.09.04.12.09.1.13-.02.05-.07.07-.19.02-.3-.13-.66-.33-.88-.43-.23-.11-.56-.23-.83-.35-.07-.03-.13-.08-.1-.14.02-.04.06-.05.15-.01.07.02.13.05.2.07.21.05.36-.02.66-.49l2.38-3.68c.14-.2.21-.24.28-.21.07.03.1.13.15.4l.62,3.89,3.23-2.2c.21-.12.3-.16.36-.13.08.04.07.14.02.34l-1.23,4.17Z"/>
    </g>
    <g>
      <path class="cls-5" d="M18.95,114.7c-.31-.16-.55-.4-.72-.7-.17-.31-.25-.68-.25-1.11v-.45h1.41s0,.43,0,.43c0,.21.06.37.18.5.12.12.28.18.49.18s.37-.06.48-.18.17-.28.17-.49v-.73c0-.15-.04-.29-.13-.4-.09-.11-.2-.21-.33-.29-.14-.08-.32-.18-.55-.3-.02,0-.03-.02-.04-.02s-.03-.02-.04-.02l-.07-.03c-.31-.16-.57-.32-.79-.49-.22-.17-.4-.39-.54-.67s-.22-.62-.22-1.03v-.43c0-.42.08-.79.24-1.09.16-.3.4-.54.71-.7s.68-.24,1.12-.24.79.08,1.09.24.54.39.7.7c.16.31.24.68.24,1.11v.47l-1.41.02v-.47c0-.21-.05-.38-.16-.5-.11-.12-.26-.18-.45-.18-.21,0-.37.05-.48.16-.11.11-.17.26-.17.45v.55c0,.16.04.29.12.41s.19.21.31.29c.12.08.3.17.52.28.04.02.09.04.13.06s.09.05.13.07c0,0,.01,0,.02.01s.01,0,.02.01c.32.17.57.32.77.47.19.14.36.34.5.6s.21.59.21,1v.69c0,.43-.08.8-.24,1.11-.16.31-.4.54-.71.7-.31.16-.68.24-1.11.24s-.81-.08-1.12-.24Z"/>
      <path class="cls-5" d="M23.75,114.69c-.3-.17-.53-.41-.68-.72-.16-.31-.23-.69-.23-1.13v-6.31h1.42v6.35c0,.2.05.36.15.47.1.11.24.17.41.17s.32-.06.42-.17c.1-.11.15-.27.15-.47v-6.35h1.42v6.31c0,.44-.08.82-.24,1.13-.16.32-.39.56-.69.72-.3.17-.66.25-1.07.25s-.77-.08-1.07-.25Z"/>
      <path class="cls-5" d="M27.62,106.54h1.42v8.32h-1.42v-8.32ZM28.43,113.52h1.25c.18,0,.31-.05.41-.14.1-.09.15-.22.15-.39v-1.12c0-.14-.02-.25-.07-.35-.04-.1-.11-.17-.2-.22-.09-.05-.19-.08-.31-.08h-1.22v-1.32h1.19c.17,0,.3-.05.39-.16s.14-.26.14-.46v-.89c0-.17-.05-.3-.14-.39-.09-.09-.22-.14-.39-.14h-1.2v-1.33h1.34c.37,0,.69.07.96.2s.47.33.61.59c.14.26.21.57.21.93v.89c0,.25-.05.47-.14.67-.1.19-.23.35-.41.47-.18.12-.4.21-.66.25.28.04.52.12.71.25s.35.29.45.5c.11.2.16.44.16.71v1.13c0,.37-.07.68-.21.94s-.34.46-.6.59c-.27.13-.58.2-.95.2h-1.46v-1.33Z"/>
      <path class="cls-5" d="M35.65,111.19v1.36h-3.06v-1.36h3.06Z"/>
      <path class="cls-5" d="M37.58,114.7c-.31-.16-.55-.4-.72-.7-.17-.31-.25-.68-.25-1.11v-.45h1.41s0,.43,0,.43c0,.21.06.37.18.5.12.12.28.18.49.18s.37-.06.48-.18.17-.28.17-.49v-.73c0-.15-.04-.29-.13-.4-.09-.11-.2-.21-.33-.29-.14-.08-.32-.18-.55-.3-.02,0-.03-.02-.04-.02s-.03-.02-.04-.02l-.07-.03c-.31-.16-.57-.32-.79-.49-.22-.17-.4-.39-.54-.67s-.22-.62-.22-1.03v-.43c0-.42.08-.79.24-1.09.16-.3.4-.54.71-.7s.68-.24,1.12-.24.79.08,1.09.24.54.39.7.7c.16.31.24.68.24,1.11v.47l-1.41.02v-.47c0-.21-.05-.38-.16-.5-.11-.12-.26-.18-.45-.18-.21,0-.37.05-.48.16-.11.11-.17.26-.17.45v.55c0,.16.04.29.12.41s.19.21.31.29c.12.08.3.17.52.28.04.02.09.04.13.06s.09.05.13.07c0,0,.01,0,.02.01s.01,0,.02.01c.32.17.57.32.77.47.19.14.36.34.5.6s.21.59.21,1v.69c0,.43-.08.8-.24,1.11-.16.31-.4.54-.71.7-.31.16-.68.24-1.11.24s-.81-.08-1.12-.24Z"/>
      <path class="cls-5" d="M43.36,106.54h1l1.99,8.32h-1.41l-1.08-5.45-1.08,5.45h-1.41l1.99-8.32ZM42.73,112.23h2.27v1.33h-2.27v-1.33Z"/>
      <path class="cls-5" d="M46.96,106.54h1.42v8.32h-1.42v-8.32ZM47.64,110.09h2.79v1.33h-2.79v-1.33ZM49.5,106.54h1.42v8.32h-1.42v-8.32Z"/>
      <path class="cls-5" d="M53.41,106.54h1l1.99,8.32h-1.41l-1.08-5.45-1.08,5.45h-1.41l1.99-8.32ZM52.77,112.23h2.27v1.33h-2.27v-1.33Z"/>
      <path class="cls-5" d="M57.01,106.53h1.39v8.32h-1.39v-8.32ZM57.64,109.97h1.5c.12,0,.23-.02.32-.07.09-.04.16-.11.2-.19.05-.08.07-.18.07-.3v-.93c0-.13-.02-.23-.07-.33s-.11-.16-.2-.21c-.09-.05-.2-.07-.32-.07h-1.5v-1.36h1.41c.45,0,.83.07,1.15.22.32.15.56.36.73.65.17.28.25.62.25,1.02v.97c0,.41-.08.76-.25,1.05-.17.29-.41.51-.73.67-.32.15-.7.23-1.15.23h-1.41v-1.36ZM58.8,111.08l1.3-.26,1.33,4.04h-1.52l-1.1-3.78Z"/>
      <path class="cls-5" d="M63.6,106.54h1l1.99,8.32h-1.41l-1.08-5.45-1.08,5.45h-1.41l1.99-8.32ZM62.96,112.23h2.27v1.33h-2.27v-1.33Z"/>
      <path class="cls-5" d="M67.2,106.54h1.12l1.96,5.55-.15.22v-5.77h1.29v8.31h-1.13l-1.93-5.23.15-.23v5.46h-1.3v-8.31Z"/>
      <path class="cls-5" d="M76.37,106.54h1l1.99,8.32h-1.41l-1.08-5.45-1.08,5.45h-1.41l1.99-8.32ZM75.73,112.23h2.27v1.33h-2.27v-1.33Z"/>
      <path class="cls-5" d="M79.97,106.54h1.42v8.32h-1.42v-8.32ZM80.6,106.54h3.07v1.36h-3.07v-1.36ZM80.6,110.12h2.78v1.36h-2.78v-1.36Z"/>
      <path class="cls-5" d="M84.4,106.53h1.39v8.32h-1.39v-8.32ZM85.04,109.97h1.5c.12,0,.23-.02.32-.07.09-.04.16-.11.2-.19.05-.08.07-.18.07-.3v-.93c0-.13-.02-.23-.07-.33s-.11-.16-.2-.21c-.09-.05-.2-.07-.32-.07h-1.5v-1.36h1.41c.45,0,.83.07,1.15.22.32.15.56.36.73.65.17.28.25.62.25,1.02v.97c0,.41-.08.76-.25,1.05-.17.29-.41.51-.73.67s-.7.23-1.15.23h-1.41v-1.36ZM86.19,111.08l1.3-.26,1.33,4.04h-1.52l-1.1-3.78Z"/>
      <path class="cls-5" d="M91,114.85h-1.42v-8.32h1.42v8.32Z"/>
      <path class="cls-5" d="M92.83,114.69c-.3-.17-.53-.41-.68-.72-.16-.32-.24-.7-.24-1.14v-4.26c0-.45.08-.83.24-1.14.16-.32.39-.56.68-.72.3-.17.66-.25,1.08-.25s.78.08,1.08.25c.3.17.53.41.68.73.16.32.23.7.23,1.15v.67h-1.44v-.67c0-.14-.02-.26-.06-.37s-.11-.18-.19-.24c-.09-.06-.19-.08-.31-.08s-.21.03-.3.08-.15.13-.19.23c-.04.1-.07.22-.07.37v4.26c0,.14.02.26.07.36.04.1.11.18.19.23s.18.08.3.08c.12,0,.22-.03.31-.08s.15-.13.19-.23c.04-.1.06-.22.06-.37v-.67h1.44v.67c0,.45-.08.83-.23,1.15-.16.32-.38.56-.68.73-.3.17-.66.25-1.08.25s-.78-.08-1.08-.25Z"/>
      <path class="cls-5" d="M98.04,106.54h1l1.99,8.32h-1.41l-1.08-5.45-1.08,5.45h-1.41l1.99-8.32ZM97.41,112.23h2.27v1.33h-2.27v-1.33Z"/>
    </g>
    <g>
      <path class="cls-5" d="M14.14,87.28h1.42v8.32h-1.42v-8.32ZM14.95,94.27h1.25c.18,0,.31-.05.41-.14.1-.09.15-.22.15-.39v-1.12c0-.14-.02-.25-.07-.35-.04-.1-.11-.17-.2-.22-.09-.05-.19-.08-.31-.08h-1.22v-1.32h1.19c.17,0,.3-.05.39-.16s.14-.26.14-.46v-.89c0-.17-.05-.3-.14-.39-.09-.09-.22-.14-.39-.14h-1.2v-1.33h1.34c.37,0,.69.07.96.2s.47.33.61.59c.14.26.21.57.21.93v.89c0,.25-.05.47-.14.67-.1.19-.23.35-.41.47-.18.12-.4.21-.66.25.28.04.52.12.71.25s.35.29.45.5c.11.2.16.44.16.71v1.13c0,.37-.07.68-.21.94s-.34.46-.6.59c-.27.13-.58.2-.95.2h-1.46v-1.33Z"/>
      <path class="cls-5" d="M19.35,87.28h1.42v8.32h-1.42v-8.32ZM19.98,87.28h3.07v1.38h-3.07v-1.38ZM19.98,90.78h2.78v1.38h-2.78v-1.38ZM19.98,94.22h3.07v1.38h-3.07v-1.38Z"/>
      <path class="cls-5" d="M24.92,95.45c-.31-.16-.55-.4-.72-.7-.17-.31-.25-.68-.25-1.11v-.45h1.41s0,.43,0,.43c0,.21.06.37.18.5.12.12.28.18.49.18s.37-.06.48-.18.17-.28.17-.49v-.73c0-.15-.04-.29-.13-.4-.09-.11-.2-.21-.33-.29-.14-.08-.32-.18-.55-.3-.02,0-.03-.02-.04-.02s-.03-.02-.04-.02l-.07-.03c-.31-.16-.57-.32-.79-.49-.22-.17-.4-.39-.54-.67s-.22-.62-.22-1.03v-.43c0-.42.08-.79.24-1.09.16-.3.4-.54.71-.7s.68-.24,1.12-.24.79.08,1.09.24.54.39.7.7c.16.31.24.68.24,1.11v.47l-1.41.02v-.47c0-.21-.05-.38-.16-.5-.11-.12-.26-.18-.45-.18-.21,0-.37.05-.48.16-.11.11-.17.26-.17.45v.55c0,.16.04.29.12.41s.19.21.31.29c.12.08.3.17.52.28.04.02.09.04.13.06s.09.05.13.07c0,0,.01,0,.02.01s.01,0,.02.01c.32.17.57.32.77.47.19.14.36.34.5.6s.21.59.21,1v.69c0,.43-.08.8-.24,1.11-.16.31-.4.54-.71.7-.31.16-.68.24-1.11.24s-.81-.08-1.12-.24Z"/>
      <path class="cls-5" d="M28.84,87.28h4.17v1.36h-4.17v-1.36ZM30.22,87.98h1.42v7.62h-1.42v-7.62Z"/>
      <path class="cls-5" d="M35.83,87.28h4.17v1.36h-4.17v-1.36ZM37.2,87.98h1.42v7.62h-1.42v-7.62Z"/>
      <path class="cls-5" d="M40.96,87.28h1.39v8.32h-1.39v-8.32ZM41.6,90.72h1.5c.12,0,.23-.02.32-.07.09-.04.16-.11.2-.19.05-.08.07-.18.07-.3v-.93c0-.13-.02-.23-.07-.33s-.11-.16-.2-.21c-.09-.05-.2-.07-.32-.07h-1.5v-1.36h1.41c.45,0,.83.07,1.15.22.32.15.56.36.73.65.17.28.25.62.25,1.02v.97c0,.41-.08.76-.25,1.05-.17.29-.41.51-.73.67s-.7.23-1.15.23h-1.41v-1.36ZM42.75,91.83l1.3-.26,1.33,4.04h-1.52l-1.1-3.78Z"/>
      <path class="cls-5" d="M47.84,87.28h1l1.99,8.32h-1.41l-1.08-5.45-1.08,5.45h-1.41l1.99-8.32ZM47.21,92.98h2.27v1.33h-2.27v-1.33Z"/>
      <path class="cls-5" d="M50.71,87.28h1.5l.8,5.74.8-5.74h1.5l-1.53,8.32h-1.53l-1.53-8.32Z"/>
      <path class="cls-5" d="M56.16,87.28h1.42v8.32h-1.42v-8.32ZM56.79,87.28h3.07v1.38h-3.07v-1.38ZM56.79,90.78h2.78v1.38h-2.78v-1.38ZM56.79,94.22h3.07v1.38h-3.07v-1.38Z"/>
      <path class="cls-5" d="M60.88,87.28h1.42v8.32h-1.42v-8.32ZM61.47,94.24h3v1.36h-3v-1.36Z"/>
      <path class="cls-5" d="M69.06,95.44c-.3-.17-.53-.41-.68-.72-.16-.32-.24-.7-.24-1.14v-4.26c0-.45.08-.83.24-1.14.16-.32.39-.56.68-.72.3-.17.66-.25,1.08-.25s.78.08,1.08.25c.3.17.53.41.68.73.16.32.23.7.23,1.15v.67h-1.44v-.67c0-.14-.02-.26-.06-.37s-.11-.18-.19-.24c-.09-.06-.19-.08-.31-.08s-.21.03-.3.08-.15.13-.19.23c-.04.1-.07.22-.07.37v4.26c0,.14.02.26.07.36.04.1.11.18.19.23s.18.08.3.08c.12,0,.22-.03.31-.08s.15-.13.19-.23c.04-.1.06-.22.06-.37v-.67h1.44v.67c0,.45-.08.83-.23,1.15-.16.32-.38.56-.68.73-.3.17-.66.25-1.08.25s-.78-.08-1.08-.25Z"/>
      <path class="cls-5" d="M74.08,95.46c-.32-.16-.56-.38-.73-.67-.17-.29-.25-.64-.25-1.06v-4.58c0-.41.08-.77.25-1.06s.41-.52.73-.67c.32-.15.7-.23,1.15-.23s.83.08,1.15.23c.32.15.56.38.73.67s.25.65.25,1.06v4.58c0,.41-.08.76-.25,1.06-.17.29-.41.51-.73.67-.32.15-.7.23-1.15.23s-.83-.08-1.15-.23ZM75.6,94.18c.1-.06.18-.14.24-.25s.08-.24.08-.39v-4.22c0-.15-.03-.28-.08-.38s-.13-.19-.24-.25c-.11-.06-.23-.09-.38-.09s-.27.03-.37.09-.18.14-.23.25-.08.23-.08.38v4.22c0,.15.03.28.08.39s.13.19.23.25.23.09.37.09.27-.03.38-.09Z"/>
      <path class="cls-5" d="M82.71,87.28h1.33v8.32h-1.26v-5.81l.09.37-1.21,3.97h-.71l-1.21-3.86.11-.48v5.81h-1.29v-8.32h1.36l1.38,4.52,1.41-4.52Z"/>
      <path class="cls-5" d="M85.35,87.28h1.42v8.32h-1.42v-8.32ZM86.01,91.02h1.47c.11,0,.21-.03.3-.08s.15-.13.19-.23.07-.22.07-.37v-.98c0-.15-.02-.28-.07-.38-.04-.11-.11-.19-.19-.24-.08-.06-.18-.08-.3-.08h-1.47v-1.36h1.51c.41,0,.77.07,1.06.22s.52.36.67.64c.15.28.23.62.23,1.01v1.4c0,.38-.08.71-.23.99-.16.27-.38.48-.67.62-.29.14-.64.21-1.05.21h-1.51v-1.36Z"/>
      <path class="cls-5" d="M91.83,87.28h1l1.99,8.32h-1.41l-1.08-5.45-1.08,5.45h-1.41l1.99-8.32ZM91.2,92.98h2.27v1.33h-2.27v-1.33Z"/>
      <path class="cls-5" d="M95.72,87.28h1.12l1.96,5.55-.15.22v-5.77h1.29v8.31h-1.13l-1.93-5.23.15-.23v5.46h-1.3v-8.31Z"/>
      <path class="cls-5" d="M103.76,92.42v3.19h-1.42v-3.19l-1.56-5.13h1.48l.78,3.44.74-3.44h1.48l-1.5,5.13Z"/>
    </g>
    <g>
      <g>
        <path class="cls-5" d="M56.58,98.74h2.38v.78h-2.38v-.78ZM57.36,99.14h.81v4.35h-.81v-4.35Z"/>
        <path class="cls-5" d="M59.94,103.41c-.18-.09-.32-.22-.42-.38s-.14-.37-.14-.6v-2.62c0-.24.05-.44.14-.6s.23-.3.42-.38.4-.13.66-.13.47.04.66.13c.18.09.32.21.42.38.1.17.14.37.14.6v2.62c0,.24-.05.44-.14.6-.09.17-.23.29-.42.38-.18.09-.4.13-.66.13s-.47-.04-.66-.13ZM60.81,102.69c.06-.03.11-.08.14-.14.03-.06.05-.13.05-.22v-2.41c0-.09-.01-.16-.05-.22-.03-.06-.08-.11-.14-.14-.06-.03-.13-.05-.21-.05s-.15.02-.21.05-.1.08-.13.14-.05.13-.05.22v2.41c0,.09.02.16.05.22s.08.11.13.14.13.05.21.05.15-.02.21-.05Z"/>
      </g>
      <line class="cls-6" x1="32.04" y1="101.02" x2="46.39" y2="101.02"/>
      <line class="cls-6" x1="72.22" y1="101.02" x2="86.56" y2="101.02"/>
    </g>
    <g>
      <path class="cls-5" d="M36.02,29.46c0-1.54-.01-1.83-.02-2.17-.01-.43-.16-.6-.46-.63-.13-.01-.27-.02-.39-.03-.16-.01-.19-.05-.19-.1,0-.08.08-.1.21-.1.64,0,1.16.03,1.68.03.69,0,1.31-.03,1.72-.03,2.21,0,2.63,1.03,2.63,1.61,0,.85-.59,1.39-1.28,1.75,1.1.34,2.03,1.01,2.03,2.27,0,1.16-1.09,2.32-3.18,2.32-.39,0-1.62-.06-1.94-.06-.46,0-.95.03-1.52.03-.15,0-.22-.03-.22-.1s.05-.1.21-.1c.14-.01.23-.02.31-.04.19-.03.3-.19.34-.58.04-.58.06-1.18.06-2.5v-1.55ZM37.83,31.24c0,.5-.01,1.24.02,1.77.02.34.06.47.27.58.23.14.48.17.69.17.54,0,1.19-.38,1.19-1.43,0-.55-.14-1.16-.62-1.61-.28-.27-.65-.38-.97-.4-.17-.01-.42-.01-.52,0-.04,0-.06.02-.06.07v.85ZM37.83,29.58c0,.08.04.09.09.1.17.03.51.04.66.04.24,0,.48-.04.63-.17.22-.18.35-.55.35-1,0-.85-.42-1.56-1.25-1.56-.17,0-.29.02-.38.05-.06.02-.1.04-.1.19v2.34Z"/>
      <path class="cls-5" d="M43.86,29.46c0-1.62-.02-1.83-.03-2.17-.02-.43-.15-.57-.4-.62-.16-.03-.33-.03-.42-.04-.13-.01-.19-.05-.19-.12s.07-.09.23-.09c.45,0,1.46.03,1.6.03.2,0,1.21-.03,1.69-.03.99,0,1.68.09,2.14.36.5.27.95.81.95,1.6,0,.88-.5,1.55-1.4,2.11.64.92,1.4,2.04,2.04,2.78.56.62.81.8,1.1.84.12.02.18.02.26.03.12,0,.18.04.18.1,0,.09-.1.1-.21.1h-.94c-1.08,0-1.54-.1-1.91-.35-.34-.2-.67-.65-1.08-1.31-.48-.8-.72-1.23-.91-1.51-.02-.03-.07-.06-.13-.06h-.69c-.05,0-.08.02-.08.08v.53c0,.83,0,1.32.05,1.76.02.27.09.5.41.58.15.04.26.04.47.06.17.01.19.05.19.12s-.07.09-.22.09c-.7,0-1.84-.03-1.92-.03-.13,0-1.14.03-1.5.03-.16,0-.21-.03-.21-.1s.07-.1.19-.1c.1-.01.24-.02.36-.04.21-.05.29-.24.33-.6.04-.44.05-1.17.05-2.19v-1.84ZM45.66,30.17c0,.08.03.13.09.16.2.1.51.14.81.14s.49-.04.66-.17c.22-.17.41-.62.41-1.32,0-1.49-.94-1.88-1.49-1.88-.17,0-.35.01-.42.04-.04.02-.06.03-.06.12v2.91Z"/>
      <path class="cls-5" d="M52.31,29.46c0-1.62,0-1.93-.03-2.26-.02-.29-.14-.48-.37-.52-.07-.02-.18-.03-.31-.04-.13,0-.2-.04-.2-.12,0-.06.05-.09.23-.09.42,0,1.45.03,1.53.03.09,0,1.33-.03,1.71-.03.18,0,.23.04.23.1,0,.08-.09.1-.2.1-.1.01-.17.01-.3.03-.27.05-.38.19-.4.57-.03.34-.03.61-.03,2.23v1.84c0,.83.01,1.8.05,2.24.02.27.08.46.4.53.14.03.32.04.46.05.18,0,.22.04.22.1,0,.05-.05.1-.22.1-.71,0-1.83-.03-1.93-.03-.05,0-1.15.03-1.51.03-.17,0-.25-.02-.25-.1,0-.07.08-.1.21-.1.1-.01.21-.02.32-.04.22-.03.29-.26.33-.57.04-.44.06-1.19.06-2.22v-1.84Z"/>
      <path class="cls-5" d="M60.61,31.31c0,.82,0,1.79.05,2.23.02.27.09.49.41.55.14.02.26.03.45.05.17.01.21.04.21.12,0,.06-.05.09-.24.09-.71,0-1.73-.03-1.9-.03-.18,0-1.19.03-1.54.03-.17,0-.24-.02-.24-.1,0-.07.08-.1.21-.1.1-.01.22-.02.34-.04.23-.04.3-.27.34-.58.04-.44.06-1.19.06-2.21v-4.11c-.41,0-1.06-.01-1.58.02-.59.03-.82.17-.95.53-.05.12-.07.18-.09.24-.02.08-.05.17-.13.17-.09,0-.09-.08-.08-.21.04-.43.16-1,.23-1.39.02-.16.05-.26.12-.26.07,0,.12.03.36.08.19.04.76.07,1.16.07h4.56c.32,0,.51-.02.66-.04.17-.03.25-.06.33-.06.09,0,.1.06.1.33,0,.15-.06,1.12-.07,1.38-.01.15-.04.21-.1.21-.08,0-.1-.06-.12-.19-.01-.12-.01-.16-.02-.21-.04-.32-.2-.58-.82-.62-.35-.03-.89-.05-1.69-.05v4.11Z"/>
      <path class="cls-5" d="M65.16,29.46c0-1.62,0-1.93-.03-2.26-.02-.29-.14-.48-.37-.52-.07-.02-.18-.03-.31-.04-.13,0-.2-.04-.2-.12,0-.06.05-.09.23-.09.42,0,1.45.03,1.53.03.09,0,1.33-.03,1.71-.03.18,0,.23.04.23.1,0,.08-.09.1-.2.1-.1.01-.17.01-.3.03-.27.05-.38.19-.4.57-.03.34-.03.61-.03,2.23v1.84c0,.83.01,1.8.05,2.24.02.27.08.46.4.53.14.03.32.04.46.05.18,0,.22.04.22.1,0,.05-.05.1-.22.1-.71,0-1.83-.03-1.93-.03-.05,0-1.15.03-1.51.03-.17,0-.25-.02-.25-.1,0-.07.08-.1.21-.1.1-.01.21-.02.32-.04.22-.03.29-.26.33-.57.04-.44.06-1.19.06-2.22v-1.84Z"/>
      <path class="cls-5" d="M69.31,34.2c-.18-.07-.23-.21-.23-.42,0-.85.03-1.25.06-1.54.02-.19.06-.25.13-.25.07,0,.08.09.09.18.01.1.02.2.05.32.18.86.96,1.35,1.78,1.35,1,0,1.3-.51,1.3-.96s-.08-.81-.97-1.41l-.65-.45c-1.28-.9-1.64-1.64-1.64-2.56,0-1.21,1-2.18,2.67-2.18.45,0,.77.02,1.21.1.17.03.35.07.51.13.1.03.14.06.14.15-.02.34-.04.54-.04,1.48,0,.19-.03.26-.12.26-.05,0-.09-.03-.12-.2-.01-.1-.04-.37-.19-.61-.2-.34-.68-.69-1.44-.69-.86,0-1.17.48-1.17.96,0,.36.13.77.84,1.25l.53.36c1.47.97,1.93,1.62,1.93,2.68,0,.72-.33,1.44-1.11,1.9-.61.37-1.28.45-1.82.45-.79,0-1.34-.1-1.75-.29Z"/>
      <path class="cls-5" d="M81.15,29.65s.06-.02.06-.07v-.22c0-1.62,0-1.8-.02-2.14-.02-.3-.1-.48-.45-.56-.08-.01-.24-.02-.37-.03-.15,0-.2-.06-.2-.1,0-.06.05-.1.21-.1.61,0,1.55.03,1.66.03.09,0,1.3-.03,1.75-.03.16,0,.21.04.21.1,0,.05-.05.1-.16.1-.18.02-.24.02-.37.04-.27.04-.36.22-.39.56-.02.34-.02.61-.02,2.23v1.84c0,1,0,1.77.05,2.21.03.35.12.52.43.58.15.02.36.03.46.04.13,0,.18.05.18.1,0,.07-.08.1-.21.1-.72,0-1.78-.03-1.97-.03-.17,0-.98.03-1.5.03-.19,0-.23-.05-.23-.12,0-.05.06-.09.2-.09.1-.01.23-.02.33-.04.25-.05.31-.25.35-.59.04-.44.06-1.1.06-2.1v-.85s-.03-.06-.06-.06h-3.27s-.06.01-.06.06v1.09c0,1,.01,1.43.05,1.88.03.3.13.5.44.56.22.03.33.04.44.05.12,0,.2.03.2.1,0,.05-.05.1-.21.1-.6,0-1.83-.03-1.94-.03-.09,0-1.19.03-1.53.03-.12,0-.23-.02-.23-.09s.04-.12.18-.12c.13-.01.19-.02.33-.04.25-.03.35-.3.37-.62.03-.44.05-1.17.05-2.17v-1.82c0-1.62-.01-1.87-.03-2.2-.02-.37-.14-.57-.5-.62-.13-.02-.18-.02-.29-.03-.19-.01-.21-.06-.21-.12,0-.07.12-.09.23-.09.61,0,1.41.03,1.66.03.4,0,1.28-.03,1.73-.03.19,0,.22.04.22.1,0,.05-.06.1-.19.1-.13.01-.26.02-.37.04-.28.06-.34.3-.36.61-.03.34-.03.77-.03,2.08v.22c0,.05.03.07.06.07h3.27Z"/>
    </g>
    <g>
      <path class="cls-5" d="M42.03,41.79c0,.82,0,1.79.05,2.23.02.27.09.49.41.55.14.02.26.03.45.05.17.01.21.04.21.12,0,.06-.05.09-.24.09-.71,0-1.73-.03-1.9-.03-.18,0-1.19.03-1.54.03-.17,0-.24-.02-.24-.1,0-.07.08-.1.21-.1.1-.01.22-.02.34-.04.23-.04.3-.27.34-.58.04-.44.06-1.19.06-2.21v-4.11c-.41,0-1.06-.01-1.58.02-.59.03-.82.17-.95.53-.05.12-.07.18-.09.24-.02.08-.05.17-.13.17-.09,0-.09-.08-.08-.21.04-.43.16-1,.23-1.39.02-.16.05-.26.12-.26.07,0,.12.03.36.08.19.04.77.07,1.16.07h4.56c.32,0,.51-.02.66-.04.17-.03.25-.06.33-.06.09,0,.1.06.1.33,0,.15-.06,1.12-.07,1.38-.01.15-.04.21-.1.21-.08,0-.1-.06-.12-.19-.01-.12-.01-.16-.02-.21-.04-.32-.2-.58-.82-.62-.35-.03-.89-.05-1.69-.05v4.11Z"/>
      <path class="cls-5" d="M46.58,39.95c0-1.62-.02-1.83-.03-2.17-.02-.43-.15-.57-.4-.62-.16-.03-.33-.03-.42-.04-.13-.01-.19-.05-.19-.12s.07-.09.23-.09c.45,0,1.46.03,1.6.03.2,0,1.21-.03,1.69-.03.98,0,1.68.09,2.14.36.5.27.95.81.95,1.6,0,.88-.5,1.55-1.4,2.11.64.92,1.4,2.04,2.04,2.78.56.62.81.8,1.1.84.12.02.18.02.26.03.12,0,.18.04.18.1,0,.09-.1.1-.21.1h-.94c-1.08,0-1.54-.1-1.91-.35-.34-.2-.67-.65-1.08-1.31-.48-.8-.72-1.23-.91-1.51-.02-.03-.07-.06-.13-.06h-.69c-.05,0-.08.02-.08.08v.53c0,.83,0,1.32.05,1.76.02.27.09.5.41.58.15.04.26.04.47.06.17.01.19.05.19.12s-.07.09-.22.09c-.7,0-1.84-.03-1.92-.03-.13,0-1.14.03-1.5.03-.16,0-.21-.03-.21-.1s.07-.1.19-.1c.1-.01.24-.02.36-.04.21-.05.29-.24.33-.6.04-.44.05-1.17.05-2.19v-1.84ZM48.38,40.65c0,.08.03.13.09.16.2.1.51.14.81.14s.49-.04.66-.17c.22-.17.41-.62.41-1.32,0-1.49-.94-1.88-1.49-1.88-.17,0-.35.01-.42.04-.04.02-.06.03-.06.12v2.91Z"/>
      <path class="cls-5" d="M55.95,42.66c-.05,0-.07.02-.09.07l-.33.86c-.1.27-.17.54-.17.67,0,.2.09.29.31.31.12.02.28.03.37.04.16,0,.19.05.19.1,0,.08-.08.1-.22.1-.47,0-.83-.03-1.38-.03-.12,0-.81.03-1.33.03-.15,0-.21-.04-.21-.1,0-.08.07-.1.2-.1.13-.01.23-.02.34-.04.37-.07.58-.4.8-.9l2.8-6.33c.2-.45.31-.61.43-.61.1,0,.2.15.38.52.27.59,2.03,4.6,2.75,6.19.36.82.59,1.07.95,1.12.12.03.24.03.34.04.14,0,.2.04.2.1,0,.07-.07.1-.27.1-1.03,0-2.22-.02-2.89-.03-.17,0-.23-.03-.23-.09s.05-.1.15-.13c.12-.02.16-.09.13-.19l-.7-1.67s-.05-.06-.08-.06h-2.4ZM58.05,41.82c.06,0,.06-.03.05-.05l-.92-2.24c-.03-.07-.05-.05-.07,0l-.89,2.24s.01.05.04.05h1.79Z"/>
      <path class="cls-5" d="M60.72,37.97c-.29-.65-.41-.74-.77-.82-.08-.02-.18-.03-.24-.03-.12-.02-.17-.06-.17-.12,0-.07.08-.09.22-.09.57,0,1.17.03,1.59.03.37,0,.93-.03,1.75-.03.16,0,.24.04.24.1s-.06.1-.16.1c-.13.01-.19.01-.28.03-.27.04-.31.16-.31.26,0,.14.06.35.24.8.49,1.28,1.15,2.84,1.62,4.07.43-.96,1.52-3.53,1.87-4.52.05-.12.08-.25.08-.35,0-.14-.06-.21-.25-.24-.13-.03-.3-.04-.42-.05-.14-.01-.19-.04-.19-.1s.05-.1.23-.1c.69,0,1.21.03,1.36.03s.84-.03,1.16-.03c.16,0,.23.03.23.1s-.05.1-.19.1c-.13.01-.29.01-.46.09-.22.1-.37.32-.66.94-.42.9-.8,1.75-1.39,3.08-.67,1.49-1.12,2.44-1.39,2.99-.3.62-.41.75-.55.75-.15,0-.23-.15-.43-.63l-2.75-6.38Z"/>
      <path class="cls-5" d="M69.55,39.95c0-1.71-.01-1.92-.03-2.25-.02-.3-.12-.48-.38-.55-.09-.02-.24-.02-.35-.03-.14-.01-.19-.05-.19-.12s.06-.09.23-.09c.6,0,1.1.03,1.56.03.22,0,2.79-.01,2.96-.01.21,0,.46-.02.57-.04.07-.02.13-.04.17-.04.05,0,.06.04.06.09s-.02.16-.05.46c-.03.21-.05.58-.08,1.12,0,.08-.04.15-.1.15-.05,0-.09-.05-.1-.15,0-.12-.01-.22-.05-.37-.05-.24-.19-.38-.69-.42-.35-.03-1.26-.05-1.57-.05-.06,0-.08.03-.08.1v2.31c0,.07.01.13.08.13.29.01,1.14,0,1.52-.01.51-.02.65-.05.76-.24.06-.09.09-.14.15-.14.06,0,.06.06.06.13,0,.1-.05.48-.08.89-.01.24-.01.75-.01.87,0,.14-.03.2-.09.2-.07,0-.09-.07-.12-.17-.01-.08-.02-.16-.03-.24-.04-.3-.19-.48-.7-.51-.29-.02-1.15-.04-1.48-.04-.05,0-.06.05-.06.14v.72c0,.36-.01.97,0,1.37.01.73.16.9,1.32.9.27,0,.68-.01.97-.13.29-.12.42-.35.51-.83.02-.13.06-.19.13-.19.08,0,.09.1.09.23,0,.41-.12,1.21-.17,1.4-.07.27-.15.28-.53.28-1.45,0-2.23-.06-3.33-.06-.49,0-.93.03-1.51.03-.19,0-.25-.03-.25-.1,0-.05.05-.1.21-.1.13-.01.23-.02.31-.04.29-.04.34-.44.36-1.1.02-.42.03-1.04.03-1.69v-1.84Z"/>
      <path class="cls-5" d="M78.28,41.8c0,1.06-.03,1.81.15,2.03.15.2.35.25,1.22.25.58,0,.91-.01,1.21-.17.25-.12.43-.39.54-.88.03-.12.05-.2.14-.2.07,0,.08.05.08.2,0,.24-.12,1.24-.22,1.54-.08.27-.17.28-.59.28-1.45,0-2.42-.06-3.53-.06-.49,0-1.06.03-1.64.03-.15,0-.23-.02-.23-.12,0-.06.06-.09.21-.09.13-.01.24-.02.36-.04.38-.06.39-.25.42-1.09.02-.42.03-1.05.03-1.7v-1.84c0-1.71-.01-1.9-.03-2.23-.02-.29-.09-.47-.36-.55-.09-.03-.25-.04-.41-.05-.12,0-.22-.02-.22-.1s.1-.1.31-.1c.6,0,1.14.03,1.55.03.09,0,1.39-.03,1.77-.03.19,0,.25.03.25.09,0,.09-.1.12-.25.12-.1.01-.21.01-.36.04-.28.05-.36.25-.38.62-.02.34-.03.54-.03,2.27v1.75Z"/>
    </g>
    <g>
      <path class="cls-5" d="M37.34,53.15c-.05,0-.07.02-.09.07l-.32.86c-.1.27-.17.54-.17.67,0,.2.09.29.31.31.12.02.28.03.37.04.16,0,.19.05.19.1,0,.08-.08.1-.22.1-.47,0-.83-.03-1.38-.03-.12,0-.81.03-1.33.03-.15,0-.21-.04-.21-.1,0-.08.07-.1.2-.1.13-.01.23-.02.34-.04.37-.07.58-.4.8-.9l2.8-6.33c.2-.45.31-.61.43-.61.1,0,.2.15.38.52.27.59,2.03,4.6,2.75,6.19.36.82.59,1.07.95,1.12.12.03.24.03.34.04.14,0,.2.04.2.1,0,.07-.07.1-.27.1-1.03,0-2.22-.02-2.89-.03-.17,0-.23-.03-.23-.09s.05-.1.15-.13c.12-.02.16-.09.13-.19l-.7-1.67s-.05-.06-.08-.06h-2.4ZM39.44,52.31c.06,0,.06-.03.05-.05l-.92-2.24c-.03-.07-.05-.05-.07,0l-.89,2.24s.01.05.04.05h1.79Z"/>
      <path class="cls-5" d="M42.22,48.42c-.17-.45-.28-.68-.52-.75-.14-.04-.23-.04-.34-.06-.13-.01-.17-.05-.17-.12s.07-.09.22-.09c.65,0,1.36.03,1.52.03.25,0,1-.03,1.56-.03.15,0,.22.03.22.1s-.07.1-.17.1c-.1.01-.15.01-.26.04-.13.02-.19.1-.19.23,0,.14.1.46.25.94.12.38.9,2.82,1.25,3.72l1.86-4.75c.1-.27.19-.38.29-.38.14,0,.2.19.36.49l2.1,4.64c.3-.88.85-2.66,1.14-3.7.13-.43.21-.74.21-.89,0-.22-.08-.3-.64-.36-.09,0-.18-.04-.18-.09,0-.06.02-.12.22-.12.67,0,1.21.03,1.3.03.07,0,.82-.02,1.18-.02.13,0,.21.01.21.09,0,.06-.04.1-.17.1-.1.01-.18.01-.34.05-.3.06-.46.37-.73,1.11-.45,1.25-1.45,4.07-2.21,6.06-.13.35-.24.64-.42.64-.14,0-.22-.16-.39-.52l-2.1-4.5c-.43,1.07-1.36,3.3-1.89,4.42-.17.38-.29.6-.46.6-.14,0-.21-.16-.4-.65l-2.33-6.39Z"/>
      <path class="cls-5" d="M54.1,53.15c-.05,0-.07.02-.09.07l-.33.86c-.1.27-.17.54-.17.67,0,.2.09.29.31.31.12.02.28.03.37.04.16,0,.19.05.19.1,0,.08-.08.1-.22.1-.47,0-.83-.03-1.38-.03-.12,0-.81.03-1.33.03-.15,0-.21-.04-.21-.1,0-.08.07-.1.2-.1.13-.01.23-.02.34-.04.37-.07.58-.4.8-.9l2.8-6.33c.2-.45.31-.61.43-.61.1,0,.2.15.38.52.27.59,2.03,4.6,2.75,6.19.36.82.59,1.07.95,1.12.12.03.24.03.34.04.14,0,.2.04.2.1,0,.07-.07.1-.27.1-1.03,0-2.22-.02-2.89-.03-.17,0-.23-.03-.23-.09s.05-.1.15-.13c.12-.02.16-.09.13-.19l-.7-1.67s-.05-.06-.08-.06h-2.4ZM56.2,52.31c.06,0,.06-.03.05-.05l-.92-2.24c-.03-.07-.05-.05-.07,0l-.89,2.24s.01.05.04.05h1.79Z"/>
      <path class="cls-5" d="M61.34,50.43c0-1.62-.02-1.83-.03-2.17-.02-.43-.15-.57-.4-.62-.16-.03-.32-.03-.42-.04-.13-.01-.19-.05-.19-.12s.07-.09.23-.09c.45,0,1.46.03,1.6.03.2,0,1.21-.03,1.69-.03.98,0,1.68.09,2.14.36.5.27.95.81.95,1.6,0,.88-.5,1.55-1.4,2.11.64.92,1.4,2.04,2.04,2.78.56.62.81.8,1.1.84.12.02.18.02.26.03.12,0,.18.04.18.1,0,.09-.1.1-.21.1h-.94c-1.08,0-1.54-.1-1.91-.35-.34-.2-.67-.65-1.08-1.31-.48-.8-.72-1.23-.91-1.51-.02-.03-.07-.06-.13-.06h-.69c-.05,0-.08.02-.08.08v.53c0,.83,0,1.32.05,1.76.02.27.09.5.41.58.15.04.26.04.47.06.17.01.19.05.19.12s-.07.09-.22.09c-.7,0-1.84-.03-1.92-.03-.13,0-1.14.03-1.5.03-.16,0-.21-.03-.21-.1s.07-.1.19-.1c.1-.01.24-.02.36-.04.21-.05.29-.24.32-.6.04-.44.05-1.17.05-2.19v-1.84ZM63.14,51.14c0,.08.03.13.09.16.2.1.51.14.81.14s.49-.04.66-.17c.22-.17.41-.62.41-1.32,0-1.49-.94-1.88-1.49-1.88-.17,0-.35.01-.42.04-.04.02-.06.03-.06.12v2.91Z"/>
      <path class="cls-5" d="M69.79,50.43c0-1.54,0-1.83-.02-2.17-.02-.3-.07-.59-.47-.63-.08-.01-.19-.01-.39-.03-.16-.01-.2-.06-.2-.12,0-.06.06-.09.24-.09.26,0,1.23.03,1.69.03.35,0,.82-.01,1.7-.02,1.79.01,3.2.24,4.15,1.22.53.53,1.01,1.41,1.01,2.66s-.56,2.31-1.15,2.87c-.51.52-1.48,1.25-3.58,1.25-.42,0-.78-.01-1.12-.04-.41-.04-.84-.07-1.04-.07-.25,0-.5,0-.8.01-.29.01-.43.02-.72.02-.18,0-.21-.05-.21-.1,0-.07.08-.1.2-.1.14-.01.21-.02.33-.04.21-.03.31-.23.35-.64.03-.5.05-1.25.05-2.15v-1.84ZM71.64,51.61c0,1.11.01,1.83.02,2.03.02.43.06.64.18.75.19.23.62.38,1.08.38.73,0,1.35-.16,1.91-.73.55-.55.68-1.48.68-2.46s-.35-1.8-.79-2.4c-.72-.94-1.72-1.14-2.41-1.14-.23,0-.47.03-.57.08-.08.04-.09.09-.09.19.01.36-.01,1.11-.01,1.96v1.34Z"/>
      <path class="cls-5" d="M78.66,55.17c-.18-.07-.23-.21-.23-.42,0-.85.03-1.25.06-1.54.02-.19.06-.25.13-.25.07,0,.08.09.09.18.01.1.02.2.05.33.18.86.96,1.35,1.78,1.35,1,0,1.3-.51,1.3-.96s-.08-.81-.97-1.41l-.65-.45c-1.28-.9-1.64-1.63-1.64-2.56,0-1.21,1-2.18,2.67-2.18.45,0,.77.02,1.21.1.17.03.35.07.51.13.1.03.14.06.14.15-.02.34-.04.55-.04,1.48,0,.19-.03.26-.12.26-.05,0-.09-.03-.12-.2-.01-.1-.04-.37-.19-.61-.2-.34-.68-.69-1.44-.69-.86,0-1.17.48-1.17.96,0,.36.13.76.84,1.25l.53.36c1.47.97,1.93,1.62,1.93,2.68,0,.72-.33,1.44-1.11,1.9-.61.37-1.28.45-1.82.45-.79,0-1.34-.1-1.75-.29Z"/>
    </g>
    <path class="cls-5" d="M46.56,65.77c-.12,0-.18-.05-.18-.14,0-.09.13-.18.32-.35.75-.65,3.3-2.4,3.3-4.88,0-1.83-.89-2.03-1.4-2.03-.42,0-.79.13-1.06.42-.21.24-.34.59-.36.9-.02.23-.07.29-.14.29s-.1-.06-.12-.26c-.01-.09-.06-1.05-.06-1.32,0-.14.02-.19.13-.26.43-.2,1.08-.41,2.13-.41,2.01,0,2.83.99,2.83,2.33,0,2.13-2.16,3.48-3.33,4.34-.06.04-.03.07.02.07h.58c.18,0,1.25-.02,1.84-.08.73-.07.94-.36,1.08-.84.03-.14.07-.19.14-.19.07,0,.09.05.09.2,0,.14-.17,1.53-.29,1.9-.1.28-.29.31-1.21.31h-4.32Z"/>
    <path class="cls-5" d="M56.34,65.95c-2.47,0-3.12-2.54-3.12-3.94,0-2.48,1.11-4.28,3.27-4.28s3.11,1.87,3.11,3.86c0,2.82-1.28,4.36-3.26,4.36ZM56.28,58.36c-.59,0-1.18.64-1.18,3.26,0,1.68.39,3.71,1.48,3.71.79,0,1.16-1.34,1.16-3.36,0-1.87-.37-3.61-1.46-3.61Z"/>
    <path class="cls-5" d="M60.02,65.77c-.12,0-.18-.05-.18-.14,0-.09.13-.18.32-.35.76-.65,3.3-2.4,3.3-4.88,0-1.83-.89-2.03-1.4-2.03-.42,0-.79.13-1.06.42-.21.24-.34.59-.36.9-.02.23-.07.29-.14.29s-.1-.06-.12-.26c-.01-.09-.06-1.05-.06-1.32,0-.14.02-.19.13-.26.43-.2,1.08-.41,2.13-.41,2.01,0,2.83.99,2.83,2.33,0,2.13-2.16,3.48-3.33,4.34-.06.04-.03.07.02.07h.58c.18,0,1.25-.02,1.84-.08.73-.07.94-.36,1.08-.84.03-.14.07-.19.14-.19.07,0,.09.05.09.2,0,.14-.17,1.53-.29,1.9-.1.28-.29.31-1.21.31h-4.32Z"/>
    <path class="cls-5" d="M66.9,65.67c-.17-.07-.25-.23-.26-.37-.02-.44.03-1.19.06-1.43.02-.15.06-.21.13-.21s.1.06.12.19c.03.89.82,1.47,1.67,1.47.96,0,1.74-.52,1.74-1.73,0-1.29-.82-1.78-1.66-1.93-.23-.04-.34-.12-.34-.21,0-.07.12-.13.2-.15.84-.18,1.51-.54,1.51-1.59,0-.83-.45-1.33-1.36-1.33-1.01,0-1.39.61-1.46,1.12-.01.15-.05.23-.13.23-.06,0-.09-.08-.1-.22-.04-.34-.07-.88-.07-1.12,0-.16.05-.2.19-.26.36-.16,1.18-.4,2.19-.4,2.1,0,2.6.96,2.6,1.7,0,1.08-1.16,1.59-1.74,1.73-.02.01-.02.03,0,.04.9.18,2.1.72,2.1,2.04,0,1.4-1.37,2.7-3.62,2.7-.94,0-1.5-.14-1.76-.28Z"/>
  </g>
</svg>