<?xml version="1.0" encoding="UTF-8"?>
<svg id="_2023" data-name="2023" width="120" height="120" xmlns="http://www.w3.org/2000/svg" xmlns:xlink="http://www.w3.org/1999/xlink" viewBox="0 0 118.67 119.41">
  <defs>
    <style>
      .cls-1 {
        fill: #1a236f;
      }

      .cls-2 {
        fill: #fff;
      }

      .cls-3 {
        stroke: #85754e;
        stroke-miterlimit: 3.86;
      }

      .cls-3, .cls-4 {
        stroke-width: .75px;
      }

      .cls-3, .cls-5, .cls-6 {
        fill: #85754e;
      }

      .cls-4 {
        fill: none;
        stroke: #fff;
        stroke-miterlimit: 10;
      }

      .cls-7 {
        clip-path: url(#clippath-1);
      }

      .cls-5 {
        fill-rule: evenodd;
      }

      .cls-8 {
        clip-path: url(#clippath);
      }
    </style>
    <clipPath id="clippath">
      <polygon class="cls-6" points="31.93 26.56 32.17 22.62 35.85 21.17 32.18 19.95 32.22 16.24 29.99 19.3 25.86 18.04 28.35 21.56 26.11 24.64 29.64 23.44 31.93 26.56 31.93 26.56"/>
    </clipPath>
    <clipPath id="clippath-1">
      <polygon class="cls-6" points="82.86 21.5 86.56 22.88 86.87 26.82 89.12 23.68 92.66 24.8 90.38 21.77 92.79 18.19 88.69 19.54 86.4 16.51 86.52 20.23 82.86 21.5 82.86 21.5"/>
    </clipPath>
  </defs>
  <g id="bta23-sports_med_win">
    <path class="cls-1" d="M98.55,78.69h14.16c3.04,0,5.93,2.95,5.93,5.9v28.86c0,2.95-2.99,5.94-5.93,5.94H5.96c-2.99,0-5.93-2.98-5.93-5.94v-28.86c0-2.95,2.94-5.9,5.93-5.9h14.39c2.46,0,4.45-2,4.45-4.45,0-1.1-.22-2.08-.88-2.85h0c-5.64-7.46-8.98-16.75-8.98-26.83C14.94,19.96,34.85.02,59.42.02s44.48,19.94,44.48,44.53c0,10.06-3.33,19.35-8.96,26.8h0c-.66.78-.84,1.78-.84,2.88,0,2.46,1.99,4.45,4.45,4.45"/>
    <path class="cls-3" d="M59.41,78.79c-19.04-.1-34.45-15.54-34.45-34.58,0-3.26.45-6.4,1.31-9.39-.85,2.98-1.53,6.13-1.53,9.39,0,19.04,15.63,34.94,34.67,35.04"/>
    <path class="cls-3" d="M59.31,78.79c19.04-.09,34.45-15.54,34.45-34.57,0-3.26-.45-6.4-1.31-9.39.86,2.98,1.53,6.13,1.53,9.39,0,19.04-15.63,34.94-34.67,35.04"/>
    <path class="cls-5" d="M24.96,47.29c.25-3.46,2.33-4.18,3.82-4.6.44-.13.82-.31,1.09-.46.11-.06.28-.17.43-.28,0,0,0,.31-.06.76-.07.46-.23,1.08-.55,1.71-.64,1.25-1.96,2.6-4.73,2.88h0Z"/>
    <path class="cls-6" d="M26.99,54.25l.21.11.03.13c-.11.12-.24.24-.38.38-.1.11-.24.08-.32,0-.08-.08-.1-.22,0-.32.23-.23.42-.42.59-.61,0,0,0,0,.09-.09l-.22.4h0ZM28,52.86c.09-.12.22-.12.32-.05.1.07.14.2.05.32-.27.38-.5.66-.74.94l-.12-.06-.3-.16c.27-.29.5-.58.79-.99h0Z"/>
    <path class="cls-5" d="M36.26,68.41c1.56-.39,2.44-1.11,2.94-1.89l.05.02c-.31,1.06-.92,2.21-1.96,3.4-.43-.53-.77-1.04-1.03-1.53h0ZM37.77,60.04c.36.42,1.24,1.57,1.6,3.19-.13.1-.28.22-.39.28-.22.14-.53.31-.9.44-.85.29-1.97.72-2.55,1.8-.02-1.27.45-2.34.94-3.24.92-.77,1.22-1.72,1.29-2.48h0Z"/>
    <path class="cls-6" d="M36.26,68.41c1.56-.39,2.44-1.11,2.94-1.89l.05.02c-.31,1.06-.92,2.21-1.96,3.4-.43-.53-.77-1.04-1.03-1.53h0Z"/>
    <path class="cls-5" d="M37.52,70.58c-2.71,2.52-5.22,2.68-7.05,2.22-.92-.23-1.68-.62-2.2-.95-.26-.17-.47-.32-.6-.43-.18-.14-.36,0-.36,0l.16-.17c.22-.06.47-.13.66-.2.39-.14.91-.36,1.42-.69,1.37-.88,3.25-1.97,5.8-1.03l.07.14.77.62.27-.23c.35.2.71.44,1.08.71h0Z"/>
    <path class="cls-6" d="M29.12,65.94c-2.43.49-4.25-.27-5.47-1.15-.61-.44-1.06-.92-1.37-1.28-.15-.18-.27-.34-.34-.44-.07-.11-.11-.17-.11-.17.22,0,.49,0,.68,0,.41-.03.98-.1,1.56-.27,1.89-.56,4.56-1.22,7.22,1.91-.47-.11-.93-.16-1.33-.2-.43-.04-.82-.14-1.1-.23-.12-.04-.3-.1-.47-.17l-.45-.17.14.46s.07.22.23.54c.16.32.42.75.8,1.2h0Z"/>
    <path class="cls-5" d="M29.56,57.48c-.41.34-.88.67-1.43.99-.41-1.12-.54-2.06-.49-2.87.37.62.97,1.33,1.92,1.88h0ZM31.86,53.46c-.08.62-.27,1.29-.61,1.95-.82-.58-1.73-.8-2.46-.95-.32-.07-.62-.17-.85-.26.41-1.08,1.16-1.84,1.86-2.44.42.61,1.07,1.23,2.06,1.69h0ZM31.21,50.23"/>
    <path class="cls-6" d="M29.56,57.48c-.41.34-.88.67-1.43.99-.41-1.12-.54-2.06-.49-2.87.37.62.97,1.33,1.92,1.88h0Z"/>
    <path class="cls-6" d="M31.86,53.46c-.08.62-.27,1.29-.61,1.95-.82-.58-1.73-.8-2.46-.95-.32-.07-.62-.17-.85-.26.41-1.08.95-1.81,1.77-2.53.92-.82,1.54-1.92,1.54-1.92,0,0,.75,1.51.61,3.71h0Z"/>
    <path class="cls-6" d="M27.48,58.2c-6.05,2.69-8.76-2.37-8.76-2.37.21.02.44.02.62.02.37,0,.88-.04,1.41-.17,1.81-.44,4.4-.93,6.74,2.52h0Z"/>
    <path class="cls-6" d="M30.06,45.4c.08.35.19.85.2,1.31.02.79-.11,1.83-.66,2.87.03-.06-.31.53-.48.73-.68.79-1.62,1.59-3.11,2.16-.72-3.68,1.25-5.02,2.68-5.89.42-.26.77-.55,1.01-.79.11-.1.24-.26.36-.4h0Z"/>
    <path class="cls-5" d="M25.5,51.9c-2.9.78-4.76-.07-5.89-1.09-.57-.51-.96-1.08-1.21-1.51-.12-.22-.21-.4-.27-.53-.08-.19-.3-.12-.3-.12l.22-.07c.19.05.4.09.54.11.33.05.79.08,1.28.05,1.67-.14,4.04-.21,5.63,3.19h0Z"/>
    <path class="cls-6" d="M24.49,46.59c-2.71-.09-4.08-1.31-4.78-2.49-.36-.59-.55-1.18-.65-1.62-.1-.44-.11-.72-.11-.72.15.09.32.18.44.24.27.13.66.28,1.09.38,1.47.32,3.54.88,4.01,4.22h0Z"/>
    <path class="cls-5" d="M25.38,41.99c.48-3,2.34-3.47,3.67-3.74.39-.08.74-.21.99-.32.1-.04.26-.13.4-.21,0,0-.02.27-.11.66-.1.4-.28.92-.61,1.45-.65,1.05-1.9,2.12-4.34,2.16h0Z"/>
    <path class="cls-6" d="M25.08,41.51c-4.81-.42-4.75-4.61-4.75-4.61.14.09.29.18.38.23.24.13.58.28.96.39,1.31.36,3.14.96,3.4,3.98h0Z"/>
    <path class="cls-6" d="M25.07,37.72c-3.89-2.43-2.03-5.94-2.03-5.95.08.14.17.28.22.36.15.21.36.49.64.74.95.87,2.24,2.16,1.16,4.84h0Z"/>
    <path class="cls-6" d="M25.59,37.37c1.7-2.33,3.48-1.93,4.72-1.58.36.1.71.14.97.15.1,0,.27,0,.43,0,.06.04.09.05.09.06,0,0-.11-.01-.18.09-.06.09-.16.22-.28.36-.25.29-.63.66-1.14.97-1,.6-2.53.98-4.61-.04h0Z"/>
    <path class="cls-6" d="M29.01,30.47c.04.18.07.39.08.53.02.33,0,.78-.13,1.27-.26.98-.99,2.11-2.86,2.72-.34-2.45,1-3.26,1.97-3.78.28-.15.52-.34.69-.48.06-.06.16-.16.25-.25h0Z"/>
    <path class="cls-6" d="M42.5,74.37c-3.33-3.22-2.29-5.96-1.46-7.85.24-.56.38-1.1.46-1.51.04-.19.07-.46.09-.68.15-.18.04.03.21.18.13.12.31.3.51.53.41.47.91,1.15,1.28,2.02.74,1.74.98,4.24-1.09,7.31h0Z"/>
    <path class="cls-6" d="M42.8,74.98c-4.73,5.63-9.91,1.89-9.91,1.89.21-.08.45-.19.63-.28.37-.19.86-.47,1.33-.86,1.59-1.32,3.94-3.07,7.96-.76h0Z"/>
    <path class="cls-6" d="M49.08,77.09c-3.7-2.78-3-5.63-2.41-7.61.18-.58.25-1.14.27-1.55.01-.2,0-.46,0-.69.13-.19.04.02.23.15.14.11.34.26.57.47.46.41,1.04,1.03,1.52,1.85.94,1.63,1.49,4.09-.19,7.38h0Z"/>
    <path class="cls-5" d="M49.47,77.66c-2.02,3.1-4.42,3.86-6.31,3.86-.95,0-1.78-.2-2.37-.39-.29-.1-.53-.19-.69-.27-.21-.09-.35.08-.35.08l.11-.2c.2-.11.42-.24.59-.35.35-.23.8-.57,1.21-1.01,1.41-1.5,3.54-3.53,7.8-1.72h0Z"/>
    <path class="cls-6" d="M43.52,72.84c.12,0,.23.06.25.21.08,1.14.44,2.05,1.48,2.56.13.06.16.2.11.3-.05.11-.17.17-.31.11-1.2-.58-1.64-1.62-1.73-2.94,0-.15.09-.24.21-.24h0Z"/>
    <path class="cls-6" d="M42.18,76.13c-.04-.11-.01-.24.13-.3.74-.3,1.31-.45,2.14-.48.15,0,.23.1.24.22,0,.12-.07.23-.22.24-.77.03-1.3.17-1.99.44-.14.06-.25-.02-.3-.13h0Z"/>
    <path class="cls-6" d="M38.94,69.75c.12,0,.23.06.24.21.08,1.12.19,1.86.87,2.74.09.12.05.25-.04.32-.09.07-.23.08-.32-.04-.75-.96-.87-1.76-.96-2.99-.01-.15.09-.24.21-.25h0Z"/>
    <path class="cls-6" d="M37.26,72.95c-.06-.1-.04-.24.09-.31.7-.39,1.24-.49,2.06-.49.15,0,.23.11.23.23s-.08.23-.23.23c-.73,0-1.21.08-1.83.43-.13.07-.25.02-.31-.08h0Z"/>
    <path class="cls-6" d="M30.03,59.48c.04-.08.07-.17.12-.25.07-.13.2-.16.31-.1.11.05.17.17.11.31l-.08.18c-.15-.05-.3-.09-.45-.13h0Z"/>
    <path class="cls-6" d="M30.03,59.48c.04-.08.07-.17.12-.25.07-.13.2-.16.31-.1.11.05.17.17.11.31l-.08.18c-.15-.05-.3-.09-.45-.13h0Z"/>
    <path class="cls-6" d="M27.63,60.49c.15.21.33.42.54.64l-.03.05c-.16-.08-.33-.17-.52-.26-.18-.09-.18-.35.02-.42h0Z"/>
    <path class="cls-6" d="M25.74,54.1c-.22-.21-.47-.36-.84-.41-.15-.02-.21-.14-.19-.26.02-.12.11-.22.26-.19.44.06.74.23,1.01.46.13.12.25.25.37.4.12.15.24.31.37.48.09.12.05.25-.04.32-.09.07-.23.08-.32-.04-.11-.14-.21-.28-.31-.41-.1-.13-.2-.25-.31-.35h0Z"/>
    <path class="cls-6" d="M23.39,47.87c-.14-.05-.17-.18-.13-.3.04-.11.16-.18.3-.13.39.15.68.33.95.55.27.22.53.47.84.75.11.1.1.24.02.32-.08.09-.21.11-.32.02-.29-.26-.52-.5-.77-.7-.25-.21-.52-.38-.88-.52h0Z"/>
    <path class="cls-6" d="M26.12,47.8c.1.06.15.19.07.32-.3.47-.5.77-.66,1.32-.04.14-.17.19-.29.15-.11-.03-.2-.14-.15-.28.18-.6.39-.92.72-1.43.08-.12.22-.13.32-.07h0Z"/>
    <path class="cls-6" d="M26.09,42.43c.12-.09.25-.05.32.05.07.09.07.23-.05.32-.28.21-.49.39-.7.59-.2.19-.4.4-.65.65-.11.11-.24.08-.32,0-.08-.08-.11-.22,0-.32.26-.26.47-.47.68-.67.21-.2.43-.39.72-.61h0Z"/>
    <path class="cls-6" d="M23.67,42.86c-.09-.15-.19-.3-.28-.49-.07-.14,0-.25.1-.31.11-.05.24-.03.31.1.09.19.19.35.28.49.1.15.19.28.29.41.19.27.39.54.58.93.06.13,0,.25-.11.31-.11.05-.24.03-.31-.11-.19-.39-.38-.66-.57-.93-.1-.13-.19-.27-.29-.41h0Z"/>
    <path class="cls-6" d="M27.01,38.06c.04.11.01.24-.13.3-.54.22-.86.43-1.3.87-.11.11-.24.08-.32,0-.09-.08-.11-.22,0-.32.48-.48.85-.72,1.45-.97.14-.05.25.02.3.13h0Z"/>
    <path class="cls-6" d="M24.44,37.32c.07-.09.2-.13.32-.04.44.34.69.69.88,1.25.05.14-.03.25-.15.29-.11.04-.24,0-.29-.15-.16-.47-.36-.75-.73-1.04-.12-.09-.11-.23-.04-.32h0Z"/>
    <path class="cls-6" d="M27.35,35.41c.05.11.03.24-.1.31l-.92.46c-.13.07-.25,0-.31-.1-.05-.11-.03-.24.1-.31l.92-.46c.13-.07.25,0,.31.1h0Z"/>
    <path class="cls-6" d="M25.72,34.03c.12-.03.24.03.27.18.12.53.21.85.23,1.41,0,.15-.1.23-.22.24-.12,0-.23-.07-.24-.22-.03-.53-.11-.84-.22-1.34-.03-.15.06-.25.17-.27h0Z"/>
    <path class="cls-6" d="M33.56,55.4c-1.1,2.74-.39,6.38.56,9.29.81,2.47,1.81,4.48,2.11,5.05l-.06.05-.59-.47c-.16-.33-1.17-2.43-1.92-5.07-.83-2.87-1.38-6.43-.29-9.14,0,0,1.35-2.61.18.28Z"/>
    <path class="cls-6" d="M39.46,63.45s1.1,4.08-4.01,4.88c-.46-2.97,1.38-3.71,2.71-4.16.39-.13.72-.31.95-.46.1-.06.23-.17.36-.26h0Z"/>
    <path class="cls-6" d="M34.84,67.9c-5.26.3-6.53-3.76-6.53-3.76.17.07.36.13.48.17.3.09.7.19,1.15.23,1.5.15,3.65.47,4.9,3.36h0Z"/>
    <path class="cls-6" d="M37.47,58.77s1.05,3.88-3.81,4.64c-.44-2.82,1.31-3.52,2.57-3.95.37-.12.68-.3.9-.43.09-.06.22-.16.34-.25h0Z"/>
    <path class="cls-6" d="M33.36,62.69c-2.51.15-4.06-.75-4.98-1.68-.46-.47-.77-.94-.96-1.3-.1-.18-.16-.33-.21-.43-.04-.1-.06-.16-.06-.16.17.07.34.13.46.16.28.08.67.18,1.09.22,1.43.14,3.46.44,4.66,3.19h0Z"/>
    <path class="cls-6" d="M32.78,58.12c-4.83-.25-5.48-3.95-5.48-3.95.15.08.32.15.42.2.26.11.62.24,1.02.32,1.35.28,3.27.77,4.04,3.43h0Z"/>
    <path class="cls-6" d="M34.95,64.3c.06,0,.11.06.1.13-.09.73-.21,1.15-.4,1.87-.02.07-.08.1-.14.08-.06-.02-.1-.07-.08-.14.19-.7.31-1.12.4-1.84,0-.07.07-.11.13-.1h0Z"/>
    <path class="cls-6" d="M32.98,64.06c-.06-.03-.08-.1-.05-.16.03-.05.09-.08.16-.05.31.16.5.35.67.58.17.22.32.47.54.75.04.06.03.12-.02.16-.05.04-.12.03-.16-.02-.21-.26-.34-.5-.5-.71-.16-.21-.34-.4-.63-.55h0Z"/>
    <path class="cls-6" d="M33.64,60.58c.07-.08.13-.16.2-.27.04-.06.11-.07.16-.03.05.03.07.1.03.16-.06.1-.13.19-.2.26-.07.07-.13.14-.19.21-.13.13-.25.26-.36.47-.03.06-.1.08-.15.05-.06-.03-.08-.09-.05-.16.11-.21.24-.34.36-.48.06-.07.13-.13.19-.21h0Z"/>
    <path class="cls-6" d="M32.03,59.09s.11-.06.16,0c.48.45.66.82.89,1.48.02.07-.01.13-.07.14-.06.02-.12,0-.15-.07-.22-.61-.38-.97-.83-1.39-.05-.05-.05-.12,0-.16h0Z"/>
    <g>
      <polygon class="cls-6" points="31.93 26.56 32.17 22.62 35.85 21.17 32.18 19.95 32.22 16.24 29.99 19.3 25.86 18.04 28.35 21.56 26.11 24.64 29.64 23.44 31.93 26.56 31.93 26.56"/>
      <g class="cls-8">
        <polygon class="cls-6" points="29.96 19.05 30.46 21.39 25.5 17.79 29.96 19.05 29.96 19.05"/>
        <polygon class="cls-6" points="32.42 19.72 30.46 21.39 32.28 15.97 32.42 19.72 32.42 19.72"/>
        <polygon class="cls-6" points="29.96 19.05 30.46 21.39 32.28 15.97 29.96 19.05 29.96 19.05"/>
        <polygon class="cls-6" points="32.42 19.72 30.46 21.39 36.17 21.16 32.42 19.72 32.42 19.72"/>
        <polygon class="cls-6" points="36.17 21.16 30.46 21.39 32.47 22.84 36.17 21.16 36.17 21.16"/>
        <polygon class="cls-6" points="32.47 22.84 30.46 21.39 32.09 27.13 32.47 22.84 32.47 22.84"/>
        <polygon class="cls-6" points="32.09 27.13 30.46 21.39 29.54 23.79 32.09 27.13 32.09 27.13"/>
        <polygon class="cls-6" points="29.54 23.79 30.46 21.39 25.95 24.74 29.54 23.79 29.54 23.79"/>
        <polygon class="cls-6" points="25.95 24.74 30.46 21.39 28.18 21.57 25.95 24.74 25.95 24.74"/>
        <polygon class="cls-6" points="28.18 21.57 30.46 21.39 25.5 17.79 28.18 21.57 28.18 21.57"/>
      </g>
    </g>
    <g>
      <polygon class="cls-6" points="82.86 21.5 86.56 22.88 86.87 26.82 89.12 23.68 92.66 24.8 90.38 21.77 92.79 18.19 88.69 19.54 86.4 16.51 86.52 20.23 82.86 21.5 82.86 21.5"/>
      <g class="cls-7">
        <polygon class="cls-6" points="90.63 21.81 88.24 21.61 93.14 17.93 90.63 21.81 90.63 21.81"/>
        <polygon class="cls-6" points="89.27 23.97 88.24 21.61 92.9 24.93 89.27 23.97 89.27 23.97"/>
        <polygon class="cls-6" points="90.63 21.81 88.24 21.61 92.9 24.93 90.63 21.81 90.63 21.81"/>
        <polygon class="cls-6" points="89.27 23.97 88.24 21.61 86.78 27.13 89.27 23.97 89.27 23.97"/>
        <polygon class="cls-6" points="86.78 27.13 88.24 21.61 86.26 23.1 86.78 27.13 86.78 27.13"/>
        <polygon class="cls-6" points="86.26 23.1 88.24 21.61 82.26 21.49 86.26 23.1 86.26 23.1"/>
        <polygon class="cls-6" points="82.26 21.49 88.24 21.61 86.21 20.03 82.26 21.49 82.26 21.49"/>
        <polygon class="cls-6" points="86.21 20.03 88.24 21.61 86.35 16.32 86.21 20.03 86.21 20.03"/>
        <polygon class="cls-6" points="86.35 16.32 88.24 21.61 88.73 19.38 86.35 16.32 86.35 16.32"/>
        <polygon class="cls-6" points="88.73 19.38 88.24 21.61 93.14 17.93 88.73 19.38 88.73 19.38"/>
      </g>
    </g>
    <path class="cls-6" d="M57.11,78.85c-4.01-2.31-3.67-5.23-3.32-7.26.1-.6.1-1.16.08-1.58-.01-.2-.05-.46-.08-.68.1-.21.04.01.25.12.15.08.37.21.63.39.51.35,1.16.9,1.74,1.65,1.14,1.5,1.98,3.87.71,7.35h0Z"/>
    <path class="cls-6" d="M48.4,83.59c.18-.13.4-.29.55-.42.31-.27.72-.66,1.08-1.15,1.22-1.66,3.08-3.93,7.54-2.66-3.23,6.61-9.16,4.23-9.16,4.23h0Z"/>
    <path class="cls-6" d="M51.51,75.03c.12-.03.24.02.28.17.3,1.29.59,2.19,1.63,2.96.12.09.12.23.05.32-.07.1-.2.14-.32.05-1.14-.84-1.48-1.82-1.81-3.23-.03-.14.06-.25.17-.27h0Z"/>
    <path class="cls-6" d="M50.01,78.91c-.15.03-.25-.06-.27-.17-.03-.12.03-.24.17-.28.45-.1.8-.2,1.15-.29.35-.08.71-.15,1.18-.18.15-.01.24.09.24.21,0,.12-.06.23-.21.24-.45.03-.8.09-1.14.17-.34.08-.68.18-1.12.28h0Z"/>
    <path class="cls-5" d="M93.76,47.28c-.25-3.46-2.33-4.18-3.82-4.61-.44-.13-.82-.31-1.09-.46-.11-.06-.28-.17-.43-.28,0,0,0,.31.06.76.07.46.23,1.08.55,1.71.64,1.25,1.96,2.59,4.73,2.88h0Z"/>
    <path class="cls-6" d="M91.73,54.25l-.22-.4c.09.1.09.09.09.09.17.19.36.38.59.6.1.11.08.24,0,.32-.08.08-.22.11-.32,0-.14-.14-.26-.26-.38-.38l.03-.12.21-.11h0ZM90.72,52.85c.29.41.53.7.79.99l-.3.16-.12.06c-.25-.28-.47-.56-.74-.94-.09-.12-.04-.25.05-.32.1-.07.23-.07.32.05h0Z"/>
    <path class="cls-5" d="M82.46,68.4c-.26.49-.6,1-1.03,1.53-1.04-1.19-1.65-2.34-1.96-3.4l.05-.02c.5.78,1.38,1.5,2.94,1.89h0ZM80.95,60.04c.07.76.36,1.7,1.29,2.48.49.89.96,1.97.94,3.24-.58-1.08-1.69-1.51-2.55-1.8-.37-.13-.68-.3-.9-.44-.11-.07-.26-.18-.39-.29.36-1.62,1.24-2.77,1.6-3.19h0Z"/>
    <path class="cls-6" d="M82.46,68.4c-1.56-.39-2.44-1.11-2.94-1.89l-.05.02c.31,1.06.92,2.21,1.96,3.4.43-.53.77-1.04,1.03-1.53h0Z"/>
    <path class="cls-5" d="M81.19,70.58c2.71,2.52,5.22,2.68,7.05,2.22.92-.23,1.68-.62,2.2-.95.26-.17.47-.32.6-.42.18-.14.36,0,.36,0l-.16-.17c-.22-.06-.47-.13-.65-.2-.39-.14-.91-.36-1.42-.69-1.37-.88-3.25-1.97-5.8-1.02l-.07.14-.77.62-.27-.23c-.35.2-.71.44-1.08.71h0Z"/>
    <path class="cls-6" d="M89.6,65.94c2.43.49,4.25-.27,5.47-1.16.61-.44,1.06-.92,1.37-1.28.15-.18.27-.34.34-.44.08-.11.11-.17.11-.17-.22,0-.49,0-.68,0-.41-.03-.98-.1-1.56-.27-1.89-.56-4.56-1.22-7.22,1.91.47-.11.93-.16,1.33-.2.43-.04.82-.14,1.11-.23.12-.04.3-.1.47-.17l.45-.17-.14.46s-.07.22-.23.54c-.16.32-.42.75-.8,1.2h0Z"/>
    <path class="cls-5" d="M89.16,57.47c.95-.55,1.55-1.26,1.92-1.88.05.81-.09,1.75-.49,2.87-.55-.32-1.02-.65-1.42-.99h0ZM86.86,53.45c.99-.46,1.64-1.09,2.06-1.69.69.6,1.45,1.36,1.86,2.44-.23.09-.53.19-.85.26-.73.15-1.64.37-2.46.95-.35-.67-.53-1.33-.61-1.95h0ZM87.51,50.23"/>
    <path class="cls-6" d="M89.16,57.47c.41.34.88.68,1.42.99.41-1.12.54-2.06.49-2.87-.37.62-.97,1.33-1.92,1.88h0Z"/>
    <path class="cls-6" d="M86.86,53.45c.08.62.27,1.29.61,1.95.82-.59,1.73-.8,2.46-.95.32-.07.62-.17.85-.26-.41-1.08-.95-1.81-1.77-2.54-.92-.82-1.54-1.92-1.54-1.92,0,0-.75,1.51-.61,3.71h0Z"/>
    <path class="cls-6" d="M91.24,58.2c6.05,2.69,8.76-2.37,8.76-2.37-.21.02-.44.02-.62.02-.37,0-.88-.04-1.41-.17-1.81-.44-4.4-.93-6.74,2.52h0Z"/>
    <path class="cls-6" d="M88.66,45.39c-.08.35-.18.86-.2,1.31-.02.79.11,1.83.66,2.87-.03-.06.31.53.48.73.68.79,1.62,1.59,3.11,2.16.72-3.68-1.25-5.02-2.68-5.89-.42-.26-.77-.55-1.01-.79-.11-.1-.24-.26-.36-.4h0Z"/>
    <path class="cls-5" d="M93.22,51.9c2.9.78,4.76-.07,5.89-1.09.57-.51.96-1.08,1.21-1.51.12-.22.21-.4.27-.53.08-.19.3-.12.3-.12l-.22-.07c-.19.05-.4.08-.54.11-.33.05-.79.09-1.28.05-1.67-.14-4.04-.21-5.63,3.19h0Z"/>
    <path class="cls-6" d="M94.05,46.59c2.7-.09,4.08-1.31,4.78-2.49.36-.59.54-1.18.65-1.62.1-.44.11-.72.11-.72-.15.09-.32.18-.44.24-.27.13-.66.28-1.09.38-1.47.32-3.54.88-4.01,4.22h0Z"/>
    <path class="cls-5" d="M93.34,41.98c-.48-3-2.34-3.47-3.67-3.74-.39-.08-.74-.21-.99-.32-.1-.05-.26-.13-.4-.21,0,0,.02.27.11.66.1.4.28.92.61,1.45.65,1.05,1.9,2.12,4.34,2.16h0Z"/>
    <path class="cls-6" d="M93.46,41.51c4.81-.42,4.75-4.61,4.75-4.61-.14.09-.28.18-.38.23-.24.13-.58.28-.96.39-1.31.36-3.14.96-3.4,3.98h0Z"/>
    <path class="cls-6" d="M93.65,37.71c3.89-2.43,2.03-5.94,2.03-5.95-.08.14-.17.28-.22.36-.15.21-.37.49-.64.74-.95.87-2.24,2.16-1.16,4.84h0Z"/>
    <path class="cls-6" d="M93.13,37.36c-1.7-2.33-3.48-1.93-4.72-1.58-.37.1-.71.14-.98.15-.1,0-.27,0-.43,0-.06.04-.09.05-.09.06,0,.01.11-.01.18.09.06.09.16.22.28.36.25.29.64.66,1.14.97,1,.6,2.53.98,4.61-.04h0Z"/>
    <path class="cls-6" d="M89.71,30.47c-.04.18-.07.39-.08.53-.02.33,0,.78.13,1.27.26.98.99,2.11,2.86,2.72.34-2.45-1-3.26-1.97-3.78-.29-.15-.52-.34-.69-.48-.07-.06-.16-.16-.25-.25h0Z"/>
    <path class="cls-6" d="M76.22,74.37c3.33-3.22,2.29-5.96,1.46-7.85-.24-.56-.38-1.1-.46-1.51-.04-.19-.06-.46-.09-.68-.15-.17-.04.03-.21.18-.13.12-.31.3-.51.53-.41.47-.91,1.15-1.28,2.03-.74,1.73-.98,4.24,1.09,7.3h0Z"/>
    <path class="cls-6" d="M75.91,74.97c4.73,5.64,9.91,1.89,9.91,1.89-.21-.08-.45-.19-.63-.28-.37-.19-.86-.47-1.33-.86-1.59-1.32-3.94-3.07-7.96-.76h0Z"/>
    <path class="cls-6" d="M69.63,77.09c3.7-2.78,3-5.64,2.41-7.61-.18-.58-.25-1.14-.27-1.55-.01-.2,0-.46,0-.69-.13-.19-.04.02-.23.15-.14.1-.34.26-.57.47-.46.41-1.04,1.03-1.52,1.85-.94,1.63-1.49,4.09.19,7.38h0Z"/>
    <path class="cls-5" d="M69.25,77.65c2.02,3.1,4.42,3.86,6.31,3.86.95,0,1.78-.2,2.37-.39.29-.1.53-.19.69-.27.21-.09.35.08.35.08l-.11-.2c-.2-.11-.42-.24-.59-.35-.35-.23-.8-.57-1.21-1.01-1.41-1.5-3.54-3.53-7.8-1.72h0Z"/>
    <path class="cls-6" d="M75.2,72.84c-.12,0-.23.06-.24.21-.08,1.14-.44,2.05-1.48,2.56-.13.06-.16.2-.11.3.05.11.17.17.31.11,1.2-.58,1.64-1.62,1.73-2.94,0-.15-.09-.24-.21-.25h0Z"/>
    <path class="cls-6" d="M76.54,76.13c.04-.11.01-.24-.13-.3-.74-.3-1.31-.45-2.14-.48-.15,0-.23.1-.24.22,0,.12.07.23.22.24.77.03,1.3.17,1.99.44.14.06.25-.02.3-.13h0Z"/>
    <path class="cls-6" d="M79.78,69.74c-.12,0-.23.07-.25.21-.08,1.12-.18,1.86-.87,2.74-.09.12-.05.25.04.32.09.07.23.08.32-.04.75-.96.87-1.76.96-2.99.01-.15-.09-.24-.21-.25h0Z"/>
    <path class="cls-6" d="M81.46,72.95c.06-.1.04-.24-.09-.31-.7-.39-1.24-.49-2.06-.49-.15,0-.23.11-.23.23s.08.23.23.23c.73,0,1.21.08,1.84.43.13.07.25.02.31-.08h0Z"/>
    <path class="cls-6" d="M88.69,59.48c-.15.04-.3.08-.45.13l-.08-.18c-.06-.13,0-.25.11-.31.11-.05.24-.03.31.11.04.08.08.17.12.25h0Z"/>
    <path class="cls-6" d="M88.69,59.48c-.04-.08-.08-.17-.12-.25-.07-.14-.2-.16-.31-.11-.11.05-.17.17-.11.31l.08.18c.15-.05.3-.09.45-.13h0Z"/>
    <path class="cls-6" d="M91.09,60.48c-.15.21-.33.42-.54.64l.04.05c.16-.08.33-.17.52-.26.18-.09.18-.35-.01-.42h0Z"/>
    <path class="cls-6" d="M92.98,54.09c.22-.21.47-.36.84-.41.15-.02.21-.14.19-.26-.02-.12-.11-.22-.26-.2-.44.06-.74.23-1.01.46-.13.12-.25.25-.37.4-.12.15-.24.31-.37.48-.09.12-.05.25.04.32.09.07.23.08.32-.04.11-.14.21-.28.31-.41.1-.13.2-.25.31-.35h0Z"/>
    <path class="cls-6" d="M95.26,48.06c.14-.05.17-.19.13-.3-.04-.11-.16-.19-.3-.13-.39.15-.68.33-.95.55-.27.22-.53.47-.84.75-.11.1-.1.24-.02.32.08.09.21.12.32.01.29-.26.52-.5.77-.7.25-.21.52-.38.88-.52h0Z"/>
    <path class="cls-6" d="M92.6,47.8c-.1.06-.15.19-.07.31.3.47.5.77.66,1.32.04.14.17.19.29.15.11-.03.2-.14.15-.28-.18-.6-.39-.92-.72-1.43-.08-.12-.22-.13-.32-.07h0Z"/>
    <path class="cls-6" d="M92.63,42.43c-.12-.09-.25-.05-.32.05-.07.09-.07.23.05.32.28.21.49.39.7.59.2.19.4.4.65.65.11.1.24.08.32,0,.09-.08.11-.22,0-.32-.26-.26-.47-.47-.68-.67-.21-.2-.43-.39-.72-.61h0Z"/>
    <path class="cls-6" d="M94.87,42.86c.09-.15.19-.3.28-.49.07-.14,0-.25-.1-.31-.11-.05-.24-.03-.31.1-.09.19-.19.35-.28.49s-.19.28-.29.41c-.19.27-.39.54-.57.93-.07.13,0,.25.11.31.11.05.24.03.31-.11.19-.39.38-.66.57-.93.1-.13.19-.27.29-.41h0Z"/>
    <path class="cls-6" d="M91.71,38.06c-.04.11-.01.24.13.3.54.22.86.43,1.3.87.11.11.24.08.32,0,.09-.08.1-.22,0-.32-.48-.48-.85-.72-1.45-.97-.14-.05-.25.02-.3.13h0Z"/>
    <path class="cls-6" d="M94.28,37.32c-.07-.09-.2-.13-.32-.04-.44.34-.69.69-.88,1.25-.05.14.03.25.14.29.11.04.24,0,.29-.15.16-.47.36-.75.73-1.04.12-.09.11-.23.04-.32h0Z"/>
    <path class="cls-6" d="M91.37,35.41c-.06.11-.03.24.1.31l.92.46c.13.07.25,0,.31-.1.05-.11.03-.24-.1-.31l-.92-.46c-.13-.07-.26,0-.31.1h0Z"/>
    <path class="cls-6" d="M93,34.03c-.12-.03-.24.03-.27.18-.12.53-.21.85-.23,1.41,0,.15.1.23.22.24.12,0,.23-.07.24-.22.03-.53.11-.84.22-1.34.03-.15-.06-.25-.17-.27h0Z"/>
    <path class="cls-6" d="M85.16,55.4c1.1,2.74.39,6.38-.56,9.29-.81,2.47-1.81,4.48-2.11,5.05l.06.05.59-.47c.16-.33,1.16-2.43,1.92-5.07.82-2.88,1.38-6.43.28-9.14,0,0-1.35-2.61-.18.28Z"/>
    <path class="cls-6" d="M79.26,63.45s-1.1,4.08,4.01,4.88c.46-2.97-1.38-3.71-2.71-4.16-.39-.13-.72-.31-.95-.46-.1-.06-.23-.17-.36-.26h0Z"/>
    <path class="cls-6" d="M83.88,67.89c5.26.3,6.53-3.76,6.53-3.76-.18.07-.36.13-.48.17-.3.09-.7.19-1.15.24-1.5.15-3.65.47-4.9,3.35h0Z"/>
    <path class="cls-6" d="M81.25,58.76s-1.05,3.88,3.81,4.64c.44-2.82-1.31-3.52-2.57-3.95-.37-.12-.68-.3-.9-.43-.09-.06-.22-.16-.34-.25h0Z"/>
    <path class="cls-6" d="M85.36,62.69c2.51.14,4.05-.75,4.98-1.68.46-.47.77-.94.96-1.3.1-.18.16-.33.21-.43.04-.1.06-.16.06-.16-.17.07-.35.13-.46.16-.28.08-.67.18-1.09.22-1.43.14-3.46.44-4.66,3.19h0Z"/>
    <path class="cls-6" d="M85.93,58.11c4.83-.25,5.48-3.95,5.48-3.95-.16.08-.32.15-.42.2-.26.11-.62.24-1.02.32-1.35.28-3.26.77-4.04,3.43h0Z"/>
    <path class="cls-6" d="M83.77,64.3c-.06,0-.11.06-.1.13.09.73.21,1.15.4,1.87.02.07.08.1.14.08.06-.02.1-.07.08-.14-.19-.71-.31-1.12-.4-1.84,0-.07-.07-.11-.13-.1h0Z"/>
    <path class="cls-6" d="M85.74,64.05c.06-.04.08-.1.05-.15-.03-.06-.09-.08-.16-.05-.31.16-.5.35-.67.58-.17.22-.32.47-.54.75-.04.06-.03.12.02.16.05.04.12.04.16-.02.21-.26.35-.5.5-.71.16-.21.34-.4.63-.55h0Z"/>
    <path class="cls-6" d="M85.08,60.57c-.07-.07-.13-.16-.2-.26-.04-.06-.1-.07-.16-.04-.05.04-.07.1-.03.16.07.1.13.19.2.26.07.07.13.14.19.21.13.13.25.26.36.47.03.06.1.08.15.05.06-.03.08-.09.05-.16-.11-.21-.24-.35-.36-.48-.06-.07-.13-.13-.19-.21h0Z"/>
    <path class="cls-6" d="M86.68,59.09s-.11-.06-.16,0c-.48.45-.66.82-.89,1.48-.02.07.01.12.07.15.06.02.12,0,.15-.07.22-.61.38-.97.83-1.39.05-.05.05-.12,0-.16h0Z"/>
    <path class="cls-6" d="M61.61,78.84c4.01-2.31,3.67-5.23,3.32-7.26-.1-.6-.1-1.16-.08-1.58.01-.2.05-.46.08-.68-.1-.21-.04.01-.25.12-.16.08-.37.21-.63.39-.51.35-1.16.9-1.74,1.65-1.14,1.5-1.98,3.87-.71,7.35h0Z"/>
    <path class="cls-6" d="M70.32,83.59c-.18-.13-.4-.29-.55-.42-.31-.27-.72-.66-1.08-1.15-1.22-1.66-3.08-3.93-7.54-2.66,3.23,6.61,9.16,4.23,9.16,4.23h0Z"/>
    <path class="cls-6" d="M67.21,75.03c-.12-.03-.24.03-.27.17-.3,1.29-.59,2.19-1.63,2.96-.12.09-.12.23-.05.32.07.1.2.14.32.05,1.14-.84,1.48-1.82,1.81-3.22.03-.14-.05-.25-.17-.28h0Z"/>
    <path class="cls-6" d="M68.71,78.91c.15.03.25-.06.27-.17.03-.12-.03-.24-.17-.28-.45-.1-.8-.2-1.15-.29-.36-.08-.71-.15-1.18-.17-.15-.01-.24.09-.24.21,0,.12.07.23.22.24.45.03.8.09,1.14.17.34.08.68.18,1.12.28h0Z"/>
    <g>
      <path class="cls-2" d="M34.57,11.89c-.29-.24-.46-.36-.66-.31-.11.02-.17.06-.26.09-.09.04-.14.03-.16-.01-.02-.04.01-.09.11-.15.45-.26.95-.52,1.06-.58.17-.1.67-.41,1.06-.64.1-.06.16-.07.19-.01.03.05,0,.1-.07.14-.07.05-.1.07-.16.13-.08.06-.09.15-.04.23.05.09.25.28.54.55.23.21,1.73,1.58,2.32,2.07l-.59-3.99c-.04-.23-.02-.33.05-.37.09-.05.21.05.44.2l3.27,2.37c-.14-.72-.46-2.16-.67-2.99-.08-.35-.15-.59-.21-.7-.09-.15-.18-.18-.58,0-.07.04-.14.04-.16,0-.02-.04-.03-.09.11-.17.46-.26.84-.45.91-.49.05-.03.55-.34.81-.48.09-.05.15-.08.18-.02.02.04.01.09-.07.14-.07.05-.12.08-.21.17-.18.16-.17.43-.07,1.05.18,1.03.61,3.36.87,5.03.05.29.09.53-.04.6-.09.05-.21-.02-.47-.21l-3.21-2.26c.13.9.36,2.8.44,3.78.03.33.03.53-.08.59-.09.05-.21-.03-.53-.29l-4.12-3.48Z"/>
      <path class="cls-2" d="M46.12,7.97c-.39-1.23-.47-1.45-.57-1.7-.09-.22-.22-.33-.4-.31-.06,0-.14.02-.25.04-.09.03-.16.02-.18-.04-.01-.05.02-.08.15-.13.32-.1,1.1-.33,1.16-.35.07-.02,1-.35,1.28-.44.13-.04.18-.02.2.02.02.06-.05.1-.12.13-.08.03-.12.05-.22.1-.19.11-.24.23-.16.52.06.26.12.47.52,1.69l.45,1.39c.2.62.45,1.36.58,1.68.08.2.17.33.43.31.11,0,.26-.05.36-.07.13-.04.18-.02.19.03.01.04-.01.09-.14.13-.54.17-1.39.42-1.46.44-.04.01-.86.3-1.13.39-.13.04-.19.05-.22-.02-.02-.06.04-.1.13-.13.08-.03.15-.07.24-.11.16-.08.16-.27.11-.51-.07-.34-.24-.92-.49-1.69l-.45-1.39Z"/>
      <path class="cls-2" d="M51.67,4.24c-.02-.25,0-.4.09-.41.07,0,.11.01.34.16.38.25.86.61,2.95,2.12.93.68,1.57,1.16,1.81,1.33l-.42-3.09c-.07-.46-.14-.67-.47-.69-.12-.01-.25,0-.37,0-.11.01-.15-.02-.16-.06,0-.06.06-.09.15-.1.33-.04.87-.08,1.2-.12.18-.02.59-.1.94-.14.12-.01.18,0,.19.05,0,.04-.03.1-.13.11-.11.02-.15.03-.2.05-.27.07-.33.22-.3.73.13,1.67.33,3.32.49,4.98.05.42,0,.52-.1.53-.13.02-.41-.15-1-.56-.62-.43-1.42-.99-1.97-1.39-.51-.37-1.43-1.04-2.1-1.56l.42,2.8c.09.59.15.81.39.86.13.03.28,0,.44,0,.12,0,.17.01.17.06,0,.07-.06.09-.19.11-.29.03-.55.05-1.07.1-.19.02-.8.12-1.12.16-.12.01-.18,0-.19-.06,0-.05.03-.09.15-.1.07-.02.18-.03.27-.06.32-.09.33-.3.27-1.07-.16-1.7-.41-3.69-.49-4.76Z"/>
      <path class="cls-2" d="M62.09,3.58c.04-.25.09-.39.19-.38.07,0,.1.04.3.24.31.33.69.79,2.38,2.74.75.87,1.26,1.49,1.45,1.72l.31-3.1c.04-.46.02-.68-.3-.78-.11-.04-.24-.06-.36-.08-.11-.01-.14-.06-.14-.1,0-.06.08-.07.17-.06.33.04.86.13,1.19.16.18.02.6.04.94.08.12.01.18.05.17.1,0,.04-.05.09-.15.07-.11,0-.15,0-.21,0-.28,0-.38.13-.46.64-.26,1.65-.45,3.3-.68,4.95-.05.42-.12.5-.22.49-.13-.02-.36-.24-.85-.78-.5-.56-1.15-1.3-1.59-1.81-.41-.47-1.15-1.35-1.68-2l-.25,2.82c-.05.6-.05.82.18.93.12.06.27.07.43.11.12.02.16.05.16.1,0,.07-.08.08-.21.06-.29-.03-.55-.08-1.06-.15-.19-.02-.8-.07-1.12-.11-.12-.01-.18-.04-.17-.1,0-.05.05-.08.17-.06.08,0,.18.01.28,0,.33-.01.39-.21.51-.98.24-1.69.46-3.68.63-4.74Z"/>
      <path class="cls-2" d="M71.7,7.46c.44-1.28.48-1.44.55-1.7.06-.23.04-.39-.14-.5-.07-.04-.17-.08-.25-.11-.1-.04-.13-.09-.11-.13.02-.05.07-.05.2-.01.45.15.82.3,1.16.42.17.06,2.09.7,2.22.75.16.05.35.1.44.11.06,0,.1,0,.14.01.04.01.04.05.02.09-.01.04-.06.11-.16.33-.08.15-.19.42-.35.82-.02.06-.07.1-.12.08-.04-.01-.06-.06-.04-.14.03-.09.05-.17.05-.29.02-.19-.04-.33-.41-.49-.25-.11-.93-.36-1.17-.44-.05-.02-.07,0-.09.06l-.59,1.73c-.02.05-.02.1.03.12.22.08.86.29,1.14.38.39.12.5.13.64.01.07-.05.1-.08.14-.07.05.02.03.06.01.11-.03.08-.16.35-.29.65-.07.18-.2.56-.23.65-.04.1-.07.14-.12.13-.05-.02-.05-.08-.04-.15.01-.07.02-.12.04-.19.05-.24-.02-.41-.39-.56-.22-.09-.85-.33-1.1-.41-.04-.01-.06.02-.08.09l-.18.54c-.09.27-.26.73-.35,1.03-.18.55-.11.72.76,1.01.2.07.51.17.76.15.25-.01.4-.15.6-.49.05-.09.09-.13.14-.11.06.02.04.1.01.2-.1.31-.39.87-.48,1.01-.13.19-.18.17-.47.08-1.09-.37-1.66-.62-2.48-.9-.37-.13-.71-.22-1.14-.36-.14-.05-.18-.09-.16-.14.01-.04.07-.07.18-.02.1.02.18.04.25.05.23.04.36-.24.55-.73.12-.31.29-.77.46-1.26l.47-1.38Z"/>
      <path class="cls-2" d="M78.7,10.26c.64-1.12.71-1.27.84-1.5.16-.3.12-.45-.03-.58-.1-.08-.21-.15-.27-.19-.08-.06-.11-.11-.08-.15.02-.04.09-.04.2.03.31.18.99.6,1.09.66.14.08.84.45,1.17.64.68.39,1.11.73,1.33,1.09.24.39.34.93.02,1.48-.35.6-.96.87-1.8.89.07.89.16,1.96.31,2.71.14.64.24.87.42,1.01.07.06.11.08.17.13.08.05.11.1.08.14-.04.06-.11.03-.18-.01l-.65-.37c-.74-.43-1.02-.68-1.17-.99-.15-.27-.2-.71-.22-1.33-.02-.74-.01-1.13-.03-1.4,0-.03-.03-.07-.06-.09l-.48-.27s-.07-.02-.09.02l-.21.37c-.33.57-.52.91-.66,1.23-.09.2-.13.38.05.56.08.09.16.13.3.23.11.07.11.11.08.15-.03.04-.09.04-.19-.02-.48-.28-1.25-.75-1.3-.78-.09-.05-.8-.43-1.04-.57-.11-.06-.13-.1-.1-.15s.09-.04.17,0c.08.03.17.08.26.11.16.05.3-.05.46-.28.2-.29.5-.79.9-1.48l.73-1.27ZM79.66,11.45c-.03.06-.03.1,0,.15.1.15.3.3.5.41.19.11.35.17.52.15.22-.03.52-.26.8-.75.59-1.02.09-1.66-.28-1.88-.12-.07-.24-.13-.3-.14-.04,0-.06,0-.09.05l-1.15,2Z"/>
    </g>
    <g>
      <path class="cls-2" d="M48.12,19.09c.25.4.41.52.67.48.14-.02.21-.05.33-.1.1-.03.14-.02.16.03.02.05,0,.08-.11.13-.65.31-1.05.51-1.96.88-.11.05-.16.01-.17-.02-.01-.03,0-.07.04-.1.11-.11.11-.13-.07-.44l-1.24-2.1-.23,3.04c-.03.43-.06.49-.12.51-.08.04-.13,0-.49-.21-.48-.3-1.11-.74-1.65-1.08-.22-.15-.7-.49-.88-.6l.61,1.72c.13.33.19.46.24.56.1.2.2.27.4.22.09-.02.16-.05.25-.08.09-.04.14-.03.16,0,.02.05,0,.1-.11.15-.29.14-.68.29-.9.4-.23.11-.54.28-.8.41-.07.03-.14.05-.17-.02-.02-.04,0-.07.09-.12.06-.04.12-.06.19-.11.18-.13.22-.29.06-.82l-1.26-4.2c-.07-.24-.05-.32.02-.35.07-.03.16,0,.4.15l3.36,2.05.42-3.89c.04-.24.07-.33.13-.36.08-.04.16.04.27.2l2.38,3.65Z"/>
      <path class="cls-2" d="M49,16.37c-.3-1.16-.34-1.28-.42-1.5-.06-.17-.16-.27-.34-.25-.07,0-.15.02-.22.03-.11.02-.13-.02-.14-.06,0-.04.02-.08.13-.11.43-.11.78-.18,1.08-.26.13-.03,1.97-.52,2.09-.55.14-.04.29-.08.4-.14.04-.03.08-.05.11-.05.04-.01.07.02.07.06,0,.09,0,.19.03.35.04.18.07.33.16.77.01.06,0,.12-.05.13-.04.01-.08-.01-.11-.08-.04-.09-.06-.15-.11-.25-.08-.15-.2-.22-.55-.17-.27.05-.86.19-1.09.25-.04.01-.05.04-.04.09l.38,1.47s.03.06.07.05c.22-.06.71-.19.99-.27.39-.12.48-.17.53-.33.02-.07.04-.11.07-.11.05-.01.07.03.08.07.02.08.05.4.11.66.03.15.12.53.14.61.03.1,0,.13-.04.14-.04.01-.08-.01-.11-.09-.02-.04-.03-.09-.05-.13-.1-.21-.21-.31-.59-.24-.23.04-.78.18-1,.24-.04.01-.04.03-.03.07l.13.51c.06.23.14.56.22.84.14.49.25.58,1.07.36.18-.05.46-.13.65-.25.18-.13.22-.32.2-.66,0-.09.02-.13.07-.15.06-.01.08.04.1.13.08.3.15.89.16,1.03,0,.19-.06.21-.33.28-1.08.28-1.6.37-2.36.57-.34.09-.68.2-1.09.31-.14.04-.18,0-.19-.04,0-.03,0-.08.13-.11.07-.03.13-.04.2-.08.22-.1.17-.38.07-.88-.07-.26-.16-.65-.26-1.04l-.32-1.22Z"/>
      <path class="cls-2" d="M54.03,15.18c-.09-1.05-.1-1.2-.13-1.43-.03-.2-.07-.42-.4-.43h-.24c-.12-.01-.13-.05-.13-.09,0-.04.01-.08.15-.09.13-.01.86-.04,1.22-.07.25-.02.54-.06,1.22-.12,1.35-.11,2.29.02,2.99.6.41.34.79.91.86,1.76.07.86-.28,1.6-.67,2.03-.34.39-.94.94-2.47,1.06-.4.03-1.22.02-1.52.04-.35.03-.76.09-1.11.12-.12,0-.15-.03-.16-.07,0-.04.04-.09.13-.09.08,0,.11-.02.21-.04.35-.06.27-.58.16-1.92l-.1-1.26ZM55.5,15.88c.06.76.11,1.21.13,1.35.04.33.09.43.17.51.15.15.48.2.75.18.46-.04.86-.13,1.21-.57.33-.39.37-1.08.32-1.66-.05-.65-.28-1.18-.63-1.6-.52-.62-1.22-.7-1.69-.66-.17.01-.33.05-.38.1-.06.06-.07.1.04,1.44l.07.91Z"/>
      <path class="cls-2" d="M61.08,14.9c.08-1.12.09-1.31.08-1.54,0-.19-.04-.33-.22-.37-.05-.02-.13-.03-.23-.05-.1-.01-.14-.04-.14-.09,0-.04.03-.08.17-.07.29.02,1.08.1,1.11.1.04,0,.98.04,1.26.06.13,0,.15.04.14.09,0,.06-.06.07-.15.07-.08,0-.08,0-.17.01-.2.03-.27.1-.32.34-.04.23-.05.4-.13,1.52l-.09,1.26c-.04.55-.07,1.23-.06,1.54,0,.18.05.31.27.38.1.03.22.04.3.05.12,0,.15.06.15.1,0,.03-.04.07-.16.06-.51-.04-1.37-.12-1.41-.12-.02,0-.88-.04-1.11-.05-.12,0-.17-.04-.17-.09,0-.04.05-.08.13-.07.07,0,.14,0,.24,0,.16-.02.24-.17.27-.37.06-.3.1-.79.15-1.51l.09-1.26Z"/>
      <path class="cls-2" d="M65.7,16.53c-.21.96-.16,1.39.21,1.75.25.22.48.28.63.31.21.05.52.07.8-.07.5-.24.65-1.01.81-1.72l.18-.83c.22-1.03.26-1.19.29-1.42.04-.27.01-.41-.22-.5-.09-.04-.1-.04-.26-.09-.1-.03-.12-.08-.11-.12,0-.05.06-.06.18-.03.43.09.86.21,1.01.24.13.03.61.11.99.18.12.03.15.07.14.11,0,.03-.04.06-.14.05-.07,0-.13-.02-.23-.02-.2,0-.28.08-.36.37-.06.22-.11.38-.33,1.41l-.14.67c-.18.81-.39,1.67-1.25,2.08-.51.25-1.11.25-1.61.14-.71-.15-1.31-.41-1.66-.85-.33-.39-.51-.97-.29-1.98l.23-1.07c.24-1.1.27-1.28.31-1.51.02-.18,0-.3-.15-.37-.08-.04-.25-.1-.31-.12-.11-.04-.12-.08-.11-.12,0-.04.05-.07.19-.03.29.06,1.09.26,1.12.27.04,0,1,.19,1.26.24.14.03.17.07.16.11-.01.05-.04.07-.14.06-.07,0-.19-.02-.27-.02-.21,0-.29.14-.36.36-.07.22-.14.57-.32,1.43l-.23,1.06Z"/>
      <path class="cls-2" d="M75.72,21.47c-.14.45-.13.65.07.82.1.09.18.13.29.19.09.06.1.09.08.14-.02.05-.06.05-.17,0-.66-.3-1.06-.47-1.94-.92-.11-.05-.11-.11-.1-.15.01-.03.05-.04.1-.04.15.01.17,0,.29-.34l.79-2.3-2.47,1.8c-.34.26-.41.27-.47.25-.08-.03-.08-.1-.15-.51-.08-.57-.16-1.33-.25-1.96-.03-.26-.08-.85-.12-1.05l-.91,1.58c-.17.32-.23.44-.27.54-.09.2-.08.33.09.45.08.05.14.09.23.14.09.04.12.09.1.13-.02.05-.07.07-.19.02-.3-.13-.66-.33-.88-.43-.23-.11-.56-.23-.83-.35-.07-.03-.13-.08-.1-.14.02-.04.06-.05.15-.01.07.02.13.05.2.07.21.05.36-.02.66-.49l2.38-3.69c.14-.2.21-.24.28-.21.07.03.1.13.15.4l.62,3.89,3.23-2.2c.21-.12.3-.16.36-.13.08.04.07.14.02.34l-1.23,4.17Z"/>
    </g>
    <g>
      <path class="cls-2" d="M11.17,114.72c-.31-.16-.55-.4-.72-.7-.17-.31-.25-.68-.25-1.11v-.45h1.41s0,.43,0,.43c0,.21.06.37.18.5.12.12.28.18.49.18s.37-.06.48-.18.17-.28.17-.49v-.73c0-.15-.04-.29-.13-.4-.09-.11-.2-.21-.33-.29-.14-.08-.32-.18-.55-.3-.02,0-.03-.02-.04-.02s-.03-.02-.04-.02l-.07-.03c-.31-.16-.57-.32-.79-.49-.22-.17-.4-.39-.54-.67s-.22-.62-.22-1.03v-.43c0-.42.08-.79.24-1.09.16-.3.4-.54.71-.7s.68-.24,1.12-.24.79.08,1.09.24.54.39.7.7c.16.31.24.68.24,1.11v.47l-1.41.02v-.48c0-.21-.05-.38-.16-.5-.11-.12-.26-.18-.46-.18-.21,0-.37.05-.48.16-.11.11-.17.26-.17.45v.56c0,.16.04.29.12.41s.19.21.31.29c.12.08.3.17.52.28.04.02.09.04.13.06s.09.05.13.07c0,0,.01,0,.02.01s.01,0,.02.01c.32.17.57.32.77.47.19.14.36.35.5.6s.21.59.21,1v.69c0,.43-.08.8-.24,1.11-.16.31-.4.54-.71.7-.31.16-.68.24-1.11.24s-.81-.08-1.12-.24Z"/>
      <path class="cls-2" d="M15.55,106.55h1.42v8.32h-1.42v-8.32ZM16.21,110.28h1.47c.11,0,.21-.03.3-.08s.15-.13.19-.23.07-.22.07-.37v-.98c0-.15-.02-.28-.07-.38s-.11-.19-.19-.24c-.08-.06-.19-.08-.3-.08h-1.47v-1.36h1.51c.41,0,.76.07,1.06.22s.52.36.67.64c.15.28.23.62.23,1.01v1.4c0,.39-.08.71-.23.99-.15.27-.38.48-.67.62-.29.14-.64.21-1.05.21h-1.51v-1.36Z"/>
      <path class="cls-2" d="M21.83,114.73c-.32-.16-.56-.38-.73-.67-.17-.29-.25-.64-.25-1.06v-4.58c0-.41.08-.77.25-1.06s.41-.52.73-.67.7-.23,1.15-.23.83.08,1.15.23.56.38.73.67.25.65.25,1.06v4.58c0,.41-.08.76-.25,1.06-.17.29-.41.52-.73.67-.32.15-.7.23-1.15.23s-.83-.08-1.15-.23ZM23.35,113.45c.11-.06.18-.14.24-.25s.08-.24.08-.39v-4.22c0-.15-.03-.28-.08-.38s-.13-.19-.24-.25-.23-.09-.37-.09-.27.03-.37.09-.18.14-.23.25-.08.23-.08.38v4.22c0,.15.03.28.08.39s.13.19.23.25.23.09.37.09.27-.03.37-.09Z"/>
      <path class="cls-2" d="M26.31,106.55h1.39v8.33h-1.39v-8.33ZM26.94,109.99h1.5c.12,0,.23-.02.32-.07.09-.04.16-.11.2-.19.05-.08.07-.18.07-.3v-.93c0-.13-.02-.23-.07-.33s-.11-.16-.2-.21c-.09-.05-.2-.07-.32-.07h-1.5v-1.36h1.41c.45,0,.83.07,1.15.22.32.15.56.36.73.65.17.28.25.62.25,1.02v.97c0,.41-.08.76-.25,1.05-.17.29-.41.51-.73.67s-.7.23-1.15.23h-1.41v-1.36ZM28.1,111.1l1.3-.26,1.33,4.04h-1.52l-1.1-3.78Z"/>
      <path class="cls-2" d="M31.32,106.55h4.17v1.36h-4.17v-1.36ZM32.69,107.25h1.42v7.62h-1.42v-7.62Z"/>
      <path class="cls-2" d="M37.08,114.72c-.31-.16-.55-.4-.72-.7-.17-.31-.25-.68-.25-1.11v-.45h1.41s0,.43,0,.43c0,.21.06.37.18.5.12.12.28.18.49.18s.37-.06.48-.18.17-.28.17-.49v-.73c0-.15-.04-.29-.13-.4-.09-.11-.2-.21-.33-.29-.14-.08-.32-.18-.55-.3-.02,0-.03-.02-.04-.02s-.03-.02-.04-.02l-.07-.03c-.31-.16-.57-.32-.79-.49-.22-.17-.4-.39-.54-.67s-.22-.62-.22-1.03v-.43c0-.42.08-.79.24-1.09.16-.3.4-.54.71-.7s.68-.24,1.12-.24.79.08,1.09.24.54.39.7.7c.16.31.24.68.24,1.11v.47l-1.41.02v-.48c0-.21-.05-.38-.16-.5-.11-.12-.26-.18-.46-.18-.21,0-.37.05-.48.16-.11.11-.17.26-.17.45v.56c0,.16.04.29.12.41s.19.21.31.29c.12.08.3.17.52.28.04.02.09.04.13.06s.09.05.13.07c0,0,.01,0,.02.01s.01,0,.02.01c.32.17.57.32.77.47.19.14.36.35.5.6s.21.59.21,1v.69c0,.43-.08.8-.24,1.11-.16.31-.4.54-.71.7-.31.16-.68.24-1.11.24s-.81-.08-1.12-.24Z"/>
      <path class="cls-2" d="M43.65,106.55h4.17v1.36h-4.17v-1.36ZM45.03,107.25h1.42v7.62h-1.42v-7.62Z"/>
      <path class="cls-2" d="M49.54,114.73c-.32-.16-.56-.38-.73-.67-.17-.29-.25-.64-.25-1.06v-4.58c0-.41.08-.77.25-1.06s.41-.52.73-.67.7-.23,1.15-.23.83.08,1.15.23.56.38.73.67.25.65.25,1.06v4.58c0,.41-.08.76-.25,1.06-.17.29-.41.52-.73.67-.32.15-.7.23-1.15.23s-.83-.08-1.15-.23ZM51.06,113.45c.11-.06.18-.14.24-.25s.08-.24.08-.39v-4.22c0-.15-.03-.28-.08-.38s-.13-.19-.24-.25-.23-.09-.37-.09-.27.03-.37.09-.18.14-.23.25-.08.23-.08.38v4.22c0,.15.03.28.08.39s.13.19.23.25.23.09.37.09.27-.03.37-.09Z"/>
      <path class="cls-2" d="M54.73,114.71c-.3-.17-.53-.41-.68-.72-.16-.31-.23-.69-.23-1.13v-6.31h1.43v6.35c0,.2.05.36.15.47.1.11.24.17.41.17s.32-.06.42-.17c.1-.11.15-.27.15-.47v-6.35h1.43v6.31c0,.44-.08.82-.24,1.13-.16.32-.39.56-.69.72-.3.17-.66.25-1.07.25s-.77-.08-1.07-.25Z"/>
      <path class="cls-2" d="M58.9,106.55h1.39v8.33h-1.39v-8.33ZM59.53,109.99h1.5c.12,0,.23-.02.32-.07.09-.04.16-.11.2-.19.05-.08.07-.18.07-.3v-.93c0-.13-.02-.23-.07-.33s-.11-.16-.2-.21c-.09-.05-.2-.07-.32-.07h-1.5v-1.36h1.41c.45,0,.84.07,1.15.22.32.15.56.36.73.65.17.28.25.62.25,1.02v.97c0,.41-.09.76-.25,1.05-.17.29-.41.51-.73.67s-.7.23-1.15.23h-1.41v-1.36ZM60.69,111.1l1.3-.26,1.33,4.04h-1.52l-1.1-3.78Z"/>
      <path class="cls-2" d="M65.11,114.72c-.31-.16-.55-.4-.72-.7-.17-.31-.25-.68-.25-1.11v-.45h1.41s0,.43,0,.43c0,.21.06.37.18.5.12.12.28.18.49.18s.37-.06.48-.18c.11-.12.17-.28.17-.49v-.73c0-.15-.04-.29-.13-.4-.09-.11-.2-.21-.33-.29-.13-.08-.32-.18-.55-.3-.02,0-.03-.02-.04-.02-.01,0-.03-.02-.04-.02l-.07-.03c-.31-.16-.57-.32-.79-.49-.22-.17-.4-.39-.54-.67s-.22-.62-.22-1.03v-.43c0-.42.08-.79.24-1.09.16-.3.4-.54.71-.7s.68-.24,1.12-.24.79.08,1.09.24.54.39.7.7c.16.31.24.68.24,1.11v.47l-1.41.02v-.48c0-.21-.05-.38-.16-.5-.11-.12-.26-.18-.46-.18-.21,0-.37.05-.48.16-.11.11-.17.26-.17.45v.56c0,.16.04.29.12.41.08.11.19.21.31.29.12.08.3.17.52.28.04.02.09.04.13.06.04.02.09.05.13.07,0,0,.01,0,.02.01,0,0,.01,0,.02.01.32.17.57.32.77.47.19.14.36.35.5.6s.21.59.21,1v.69c0,.43-.08.8-.24,1.11-.16.31-.4.54-.71.7-.31.16-.68.24-1.11.24s-.81-.08-1.12-.24Z"/>
      <path class="cls-2" d="M72.25,106.55h1.42v8.32h-1.42v-8.32ZM72.93,110.11h2.79v1.33h-2.79v-1.33ZM74.8,106.55h1.42v8.32h-1.42v-8.32Z"/>
      <path class="cls-2" d="M78.51,114.73c-.32-.16-.56-.38-.73-.67-.17-.29-.25-.64-.25-1.06v-4.58c0-.41.08-.77.25-1.06s.41-.52.73-.67c.32-.15.7-.23,1.15-.23s.83.08,1.15.23c.32.15.56.38.73.67s.25.65.25,1.06v4.58c0,.41-.08.76-.25,1.06-.17.29-.41.52-.73.67-.32.15-.7.23-1.15.23s-.83-.08-1.15-.23ZM80.03,113.45c.1-.06.18-.14.24-.25s.08-.24.08-.39v-4.22c0-.15-.03-.28-.08-.38s-.13-.19-.24-.25c-.11-.06-.23-.09-.38-.09s-.27.03-.37.09-.18.14-.23.25-.08.23-.08.38v4.22c0,.15.03.28.08.39s.13.19.23.25.23.09.37.09.27-.03.38-.09Z"/>
      <path class="cls-2" d="M82.98,106.55h1.42v8.32h-1.42v-8.32ZM83.57,113.51h3v1.36h-3v-1.36Z"/>
      <path class="cls-2" d="M88.9,114.87h-1.42v-8.32h1.42v8.32Z"/>
      <path class="cls-2" d="M90.09,106.55h1.42v8.32h-1.42v-8.32ZM91.04,113.51h1.06c.19,0,.34-.06.44-.17.1-.12.15-.28.15-.49v-4.27c0-.21-.05-.37-.15-.49-.1-.12-.25-.17-.44-.17h-1.06v-1.36h1.21c.4,0,.74.07,1.02.22.28.15.5.36.65.64.15.28.22.61.22,1v4.59c0,.39-.07.72-.22,1-.15.28-.37.49-.65.64-.28.15-.63.22-1.02.22h-1.2v-1.36Z"/>
      <path class="cls-2" d="M96.69,106.55h1l1.99,8.32h-1.41l-1.08-5.45-1.08,5.45h-1.41l1.99-8.32ZM96.05,112.25h2.27v1.33h-2.27v-1.33Z"/>
      <path class="cls-2" d="M102.36,111.69v3.19h-1.42v-3.19l-1.56-5.13h1.48l.78,3.45.74-3.45h1.48l-1.5,5.13Z"/>
      <path class="cls-2" d="M105.22,114.72c-.31-.16-.55-.4-.72-.7-.17-.31-.25-.68-.25-1.11v-.45h1.41s0,.43,0,.43c0,.21.06.37.18.5.12.12.28.18.49.18s.37-.06.48-.18c.11-.12.17-.28.17-.49v-.73c0-.15-.04-.29-.13-.4-.09-.11-.2-.21-.33-.29-.13-.08-.32-.18-.55-.3-.02,0-.03-.02-.04-.02-.01,0-.03-.02-.04-.02l-.07-.03c-.31-.16-.57-.32-.79-.49-.22-.17-.4-.39-.54-.67s-.22-.62-.22-1.03v-.43c0-.42.08-.79.24-1.09.16-.3.4-.54.71-.7s.68-.24,1.12-.24.79.08,1.09.24.54.39.7.7c.16.31.24.68.24,1.11v.47l-1.41.02v-.48c0-.21-.05-.38-.16-.5-.11-.12-.26-.18-.46-.18-.21,0-.37.05-.48.16-.11.11-.17.26-.17.45v.56c0,.16.04.29.12.41.08.11.19.21.31.29.12.08.3.17.52.28.04.02.09.04.13.06.04.02.09.05.13.07,0,0,.01,0,.02.01,0,0,.01,0,.02.01.32.17.57.32.77.47.19.14.36.35.5.6s.21.59.21,1v.69c0,.43-.08.8-.24,1.11-.16.31-.4.54-.71.7-.31.16-.68.24-1.11.24s-.81-.08-1.12-.24Z"/>
    </g>
    <g>
      <path class="cls-2" d="M14.13,87.29h1.43v8.32h-1.43v-8.32ZM14.94,94.28h1.25c.18,0,.31-.05.41-.14.1-.09.15-.22.15-.39v-1.12c0-.14-.02-.25-.07-.35-.04-.1-.11-.17-.2-.22-.09-.05-.19-.08-.31-.08h-1.22v-1.32h1.19c.17,0,.3-.05.39-.16s.14-.26.14-.46v-.89c0-.17-.05-.3-.14-.39-.09-.09-.22-.14-.39-.14h-1.2v-1.33h1.34c.37,0,.69.07.96.2s.47.33.61.59c.14.26.21.57.21.93v.89c0,.25-.05.47-.14.67-.1.19-.23.35-.41.47-.18.12-.4.21-.66.25.28.04.52.12.71.25s.35.29.45.5c.11.2.16.44.16.71v1.13c0,.37-.07.68-.21.94s-.34.46-.6.59c-.27.13-.58.2-.95.2h-1.47v-1.33Z"/>
      <path class="cls-2" d="M19.34,87.29h1.42v8.32h-1.42v-8.32ZM19.97,87.29h3.07v1.39h-3.07v-1.39ZM19.97,90.79h2.78v1.38h-2.78v-1.38ZM19.97,94.23h3.07v1.39h-3.07v-1.39Z"/>
      <path class="cls-2" d="M24.91,95.46c-.31-.16-.55-.4-.72-.7-.17-.31-.25-.68-.25-1.11v-.45h1.41s0,.43,0,.43c0,.21.06.37.18.5.12.12.28.18.49.18s.37-.06.48-.18.17-.28.17-.49v-.73c0-.15-.04-.29-.13-.4-.09-.11-.2-.21-.33-.29-.14-.08-.32-.18-.55-.3-.02,0-.03-.02-.04-.02s-.03-.02-.04-.02l-.07-.03c-.31-.16-.57-.32-.79-.49-.22-.17-.4-.39-.54-.67s-.22-.62-.22-1.03v-.43c0-.42.08-.79.24-1.09.16-.3.4-.54.71-.7s.68-.24,1.12-.24.79.08,1.09.24.54.39.7.7c.16.31.24.68.24,1.11v.47l-1.41.02v-.48c0-.21-.05-.38-.16-.5-.11-.12-.26-.18-.46-.18-.21,0-.37.05-.48.16-.11.11-.17.26-.17.45v.56c0,.16.04.29.12.41s.19.21.31.29c.12.08.3.17.52.28.04.02.09.04.13.06s.09.05.13.07c0,0,.01,0,.02.01s.01,0,.02.01c.32.17.57.32.77.47.19.14.36.35.5.6s.21.59.21,1v.69c0,.43-.08.8-.24,1.11-.16.31-.4.54-.71.7-.31.16-.68.24-1.11.24s-.81-.08-1.12-.24Z"/>
      <path class="cls-2" d="M28.83,87.29h4.17v1.36h-4.17v-1.36ZM30.21,87.99h1.42v7.62h-1.42v-7.62Z"/>
      <path class="cls-2" d="M35.82,87.29h4.17v1.36h-4.17v-1.36ZM37.19,87.99h1.42v7.62h-1.42v-7.62Z"/>
      <path class="cls-2" d="M40.95,87.29h1.39v8.33h-1.39v-8.33ZM41.59,90.73h1.5c.12,0,.23-.02.32-.07.09-.04.16-.11.2-.19.05-.08.07-.18.07-.3v-.93c0-.13-.02-.23-.07-.33s-.11-.16-.2-.21c-.09-.05-.2-.07-.32-.07h-1.5v-1.36h1.41c.45,0,.83.07,1.15.22.32.15.56.36.73.65.17.28.25.62.25,1.02v.97c0,.41-.08.76-.25,1.05-.17.29-.41.51-.73.67s-.7.23-1.15.23h-1.41v-1.36ZM42.75,91.84l1.3-.26,1.33,4.04h-1.52l-1.1-3.78Z"/>
      <path class="cls-2" d="M47.84,87.29h1l1.99,8.32h-1.41l-1.08-5.45-1.08,5.45h-1.41l1.99-8.32ZM47.21,93h2.27v1.33h-2.27v-1.33Z"/>
      <path class="cls-2" d="M50.7,87.29h1.51l.8,5.75.8-5.75h1.51l-1.53,8.32h-1.53l-1.53-8.32Z"/>
      <path class="cls-2" d="M56.16,87.29h1.42v8.32h-1.42v-8.32ZM56.79,87.29h3.07v1.39h-3.07v-1.39ZM56.79,90.79h2.78v1.38h-2.78v-1.38ZM56.79,94.23h3.07v1.39h-3.07v-1.39Z"/>
      <path class="cls-2" d="M60.88,87.29h1.42v8.32h-1.42v-8.32ZM61.47,94.25h3v1.36h-3v-1.36Z"/>
      <path class="cls-2" d="M69.06,95.45c-.3-.17-.53-.41-.68-.72-.16-.32-.24-.7-.24-1.14v-4.26c0-.45.08-.83.24-1.14.16-.32.39-.56.68-.72.3-.17.66-.25,1.08-.25s.78.08,1.08.25c.3.17.53.41.68.73.16.32.23.7.23,1.15v.67h-1.44v-.67c0-.14-.02-.26-.06-.37s-.11-.18-.19-.24c-.09-.06-.19-.08-.31-.08s-.21.03-.3.08-.15.13-.19.23c-.04.1-.07.22-.07.37v4.26c0,.14.02.26.07.36.04.1.11.18.19.23s.18.08.3.08c.12,0,.22-.03.31-.08s.15-.13.19-.23c.04-.1.06-.22.06-.37v-.67h1.44v.67c0,.45-.08.83-.23,1.15-.16.32-.38.56-.68.73-.3.17-.66.25-1.08.25s-.78-.08-1.08-.25Z"/>
      <path class="cls-2" d="M74.09,95.47c-.32-.16-.56-.38-.73-.67-.17-.29-.25-.64-.25-1.06v-4.58c0-.41.08-.77.25-1.06s.41-.52.73-.67c.32-.15.7-.23,1.15-.23s.83.08,1.15.23c.32.15.56.38.73.67s.25.65.25,1.06v4.58c0,.41-.08.76-.25,1.06-.17.29-.41.52-.73.67-.32.15-.7.23-1.15.23s-.83-.08-1.15-.23ZM75.61,94.2c.1-.06.18-.14.24-.25s.08-.24.08-.39v-4.22c0-.15-.03-.28-.08-.38s-.13-.19-.24-.25c-.11-.06-.23-.09-.38-.09s-.27.03-.37.09-.18.14-.23.25-.08.23-.08.38v4.22c0,.15.03.28.08.39s.13.19.23.25.23.09.37.09.27-.03.38-.09Z"/>
      <path class="cls-2" d="M82.72,87.29h1.33v8.32h-1.26v-5.81l.09.37-1.21,3.97h-.71l-1.21-3.86.11-.48v5.81h-1.29v-8.32h1.36l1.38,4.52,1.41-4.52Z"/>
      <path class="cls-2" d="M85.36,87.29h1.42v8.32h-1.42v-8.32ZM86.02,91.03h1.47c.11,0,.21-.03.3-.08s.15-.13.19-.23.07-.22.07-.37v-.98c0-.15-.02-.28-.07-.38-.04-.11-.11-.19-.19-.24-.08-.06-.18-.08-.3-.08h-1.47v-1.36h1.51c.41,0,.77.07,1.06.22s.52.36.67.64c.15.28.23.62.23,1.01v1.4c0,.39-.08.71-.23.99-.16.27-.38.48-.67.62-.29.14-.65.21-1.05.21h-1.51v-1.36Z"/>
      <path class="cls-2" d="M91.84,87.29h1l1.99,8.32h-1.41l-1.08-5.45-1.08,5.45h-1.41l1.99-8.32ZM91.21,93h2.27v1.33h-2.27v-1.33Z"/>
      <path class="cls-2" d="M95.74,87.29h1.12l1.96,5.55-.15.22v-5.78h1.29v8.32h-1.13l-1.93-5.23.15-.23v5.46h-1.3v-8.32Z"/>
      <path class="cls-2" d="M103.78,92.43v3.19h-1.42v-3.19l-1.56-5.13h1.48l.78,3.45.74-3.45h1.48l-1.5,5.13Z"/>
    </g>
    <g>
      <g>
        <path class="cls-2" d="M55.26,98.76h.81v4.76h-.81v-4.76ZM55.62,98.76h1.75v.78h-1.75v-.78ZM55.62,100.81h1.59v.78h-1.59v-.78Z"/>
        <path class="cls-2" d="M58.46,103.43c-.18-.09-.32-.22-.42-.38s-.14-.37-.14-.6v-2.62c0-.24.05-.44.14-.61s.24-.3.42-.38.4-.13.66-.13.47.04.66.13.32.22.42.38.14.37.14.61v2.62c0,.24-.05.44-.14.6s-.24.29-.42.38-.4.13-.66.13-.47-.04-.66-.13ZM59.33,102.7c.06-.03.11-.08.14-.14s.05-.13.05-.22v-2.41c0-.09-.02-.16-.05-.22s-.08-.11-.14-.14-.13-.05-.21-.05-.15.02-.21.05-.1.08-.13.14-.05.13-.05.22v2.41c0,.09.02.16.05.22s.08.11.13.14.13.05.21.05.15-.02.21-.05Z"/>
        <path class="cls-2" d="M61.02,98.76h.79v4.76h-.79v-4.76ZM61.38,100.72h.86c.07,0,.13-.01.18-.04s.09-.06.12-.11.04-.1.04-.17v-.53c0-.07-.01-.13-.04-.19s-.06-.09-.12-.12-.11-.04-.18-.04h-.86v-.78h.81c.26,0,.48.04.66.13s.32.21.42.37.14.36.14.58v.56c0,.23-.05.43-.14.6s-.24.29-.42.38-.4.13-.66.13h-.81v-.78ZM62.04,101.36l.74-.15.76,2.31h-.87l-.63-2.16Z"/>
      </g>
      <line class="cls-4" x1="32.03" y1="101.04" x2="46.38" y2="101.04"/>
      <line class="cls-4" x1="72.22" y1="101.04" x2="86.57" y2="101.04"/>
    </g>
    <g>
      <path class="cls-2" d="M36.01,29.45c0-1.54-.01-1.83-.02-2.17-.01-.43-.16-.6-.46-.63-.13-.01-.27-.02-.39-.03-.16-.01-.19-.05-.19-.1,0-.08.08-.1.21-.1.64,0,1.16.03,1.68.03.69,0,1.31-.03,1.72-.03,2.21,0,2.63,1.03,2.63,1.61,0,.85-.59,1.39-1.28,1.75,1.1.34,2.03,1.01,2.03,2.28,0,1.16-1.09,2.32-3.18,2.32-.39,0-1.63-.06-1.94-.06-.46,0-.95.03-1.52.03-.15,0-.22-.03-.22-.1s.05-.1.21-.1c.14-.01.23-.02.31-.04.19-.03.3-.19.34-.58.04-.58.06-1.18.06-2.51v-1.55ZM37.82,31.23c0,.5-.01,1.24.02,1.77.02.34.06.47.27.58.23.14.48.17.69.17.55,0,1.2-.38,1.2-1.43,0-.55-.14-1.16-.62-1.61-.28-.27-.65-.38-.97-.4-.17-.01-.42-.01-.52,0-.04,0-.06.02-.06.07v.85ZM37.82,29.57c0,.08.04.09.09.1.17.03.51.04.66.04.24,0,.48-.04.63-.17.22-.18.35-.55.35-1,0-.85-.42-1.56-1.25-1.56-.17,0-.29.02-.38.05-.06.02-.1.04-.1.19v2.34Z"/>
      <path class="cls-2" d="M43.85,29.45c0-1.63-.02-1.83-.03-2.17-.02-.43-.15-.57-.4-.62-.16-.03-.33-.03-.42-.04-.13-.01-.19-.05-.19-.12s.07-.09.23-.09c.45,0,1.46.03,1.6.03.2,0,1.21-.03,1.69-.03.99,0,1.68.09,2.14.36.5.27.95.81.95,1.6,0,.88-.5,1.55-1.4,2.11.64.92,1.4,2.04,2.04,2.78.56.62.81.8,1.1.84.12.02.18.02.26.03.12,0,.18.04.18.1,0,.09-.1.1-.21.1h-.94c-1.08,0-1.54-.1-1.91-.35-.34-.2-.67-.65-1.08-1.31-.48-.8-.72-1.23-.91-1.51-.02-.03-.07-.06-.13-.06h-.69c-.05,0-.08.02-.08.08v.53c0,.83,0,1.32.05,1.76.02.27.09.5.41.58.15.04.26.04.47.06.17.01.19.05.19.12s-.07.09-.22.09c-.7,0-1.85-.03-1.92-.03-.13,0-1.14.03-1.5.03-.16,0-.21-.03-.21-.1s.07-.1.19-.1c.1-.01.24-.02.36-.04.21-.05.29-.24.33-.6.04-.44.05-1.17.05-2.19v-1.85ZM45.66,30.15c0,.08.03.13.09.16.2.1.51.14.81.14s.49-.04.66-.17c.22-.17.41-.62.41-1.32,0-1.49-.94-1.88-1.49-1.88-.17,0-.35.01-.42.04-.04.02-.06.03-.06.12v2.91Z"/>
      <path class="cls-2" d="M52.31,29.45c0-1.63,0-1.93-.03-2.26-.02-.29-.14-.48-.37-.52-.07-.02-.18-.03-.31-.04-.13,0-.2-.04-.2-.12,0-.06.05-.09.23-.09.42,0,1.45.03,1.53.03.09,0,1.33-.03,1.71-.03.18,0,.23.04.23.1,0,.08-.09.1-.2.1-.1.01-.17.01-.3.03-.27.05-.38.19-.4.57-.03.34-.03.61-.03,2.23v1.85c0,.83.01,1.8.05,2.24.02.27.08.46.4.53.14.03.32.04.46.05.18,0,.22.04.22.1,0,.05-.05.1-.22.1-.71,0-1.83-.03-1.93-.03-.05,0-1.15.03-1.51.03-.17,0-.25-.02-.25-.1,0-.07.08-.1.21-.1.1-.01.21-.02.32-.04.22-.03.29-.26.33-.57.04-.44.06-1.2.06-2.22v-1.85Z"/>
      <path class="cls-2" d="M60.61,31.3c0,.82,0,1.79.05,2.23.02.27.09.49.41.55.14.02.26.03.45.05.17.01.21.04.21.12,0,.06-.05.09-.24.09-.71,0-1.73-.03-1.9-.03-.18,0-1.2.03-1.54.03-.17,0-.24-.02-.24-.1,0-.07.08-.1.21-.1.1-.01.22-.02.34-.04.23-.04.3-.27.34-.58.04-.44.06-1.2.06-2.21v-4.11c-.41,0-1.06-.01-1.58.02-.59.03-.82.17-.95.53-.05.12-.07.18-.09.24-.02.08-.05.17-.13.17-.09,0-.09-.08-.08-.21.04-.43.16-1,.23-1.39.02-.16.05-.26.12-.26.07,0,.12.03.36.08.19.04.77.07,1.16.07h4.56c.32,0,.51-.02.66-.04.17-.03.25-.06.33-.06.09,0,.1.06.1.33,0,.15-.06,1.12-.07,1.38-.01.15-.04.21-.1.21-.08,0-.1-.06-.12-.19-.01-.12-.01-.16-.02-.21-.04-.32-.2-.58-.82-.62-.35-.03-.89-.05-1.69-.05v4.11Z"/>
      <path class="cls-2" d="M65.16,29.45c0-1.63,0-1.93-.03-2.26-.02-.29-.14-.48-.37-.52-.07-.02-.18-.03-.31-.04-.13,0-.2-.04-.2-.12,0-.06.05-.09.23-.09.42,0,1.45.03,1.53.03.09,0,1.33-.03,1.71-.03.18,0,.23.04.23.1,0,.08-.09.1-.2.1-.1.01-.17.01-.3.03-.27.05-.38.19-.4.57-.03.34-.03.61-.03,2.23v1.85c0,.83.01,1.8.05,2.24.02.27.08.46.4.53.14.03.32.04.46.05.18,0,.22.04.22.1,0,.05-.05.1-.22.1-.71,0-1.83-.03-1.93-.03-.05,0-1.15.03-1.51.03-.17,0-.25-.02-.25-.1,0-.07.08-.1.21-.1.1-.01.21-.02.32-.04.22-.03.29-.26.33-.57.04-.44.06-1.2.06-2.22v-1.85Z"/>
      <path class="cls-2" d="M69.32,34.19c-.18-.07-.23-.21-.23-.42,0-.85.03-1.25.06-1.54.02-.19.06-.25.13-.25.07,0,.08.09.09.18.01.1.02.2.05.32.18.86.96,1.35,1.78,1.35,1,0,1.3-.51,1.3-.96s-.08-.81-.97-1.42l-.65-.45c-1.28-.9-1.64-1.64-1.64-2.56,0-1.21,1-2.18,2.67-2.18.45,0,.77.02,1.21.1.17.03.35.07.51.13.1.03.14.06.14.15-.02.34-.04.55-.04,1.48,0,.19-.03.26-.12.26-.05,0-.09-.03-.12-.2-.01-.1-.04-.37-.19-.61-.2-.34-.68-.69-1.44-.69-.86,0-1.17.48-1.17.96,0,.36.13.77.84,1.25l.53.36c1.47.97,1.93,1.63,1.93,2.68,0,.72-.33,1.44-1.11,1.9-.61.37-1.28.45-1.82.45-.79,0-1.34-.1-1.75-.29Z"/>
      <path class="cls-2" d="M81.16,29.64s.06-.02.06-.07v-.22c0-1.63,0-1.8-.02-2.14-.02-.3-.1-.48-.45-.56-.08-.01-.24-.02-.37-.03-.15,0-.2-.06-.2-.1,0-.06.05-.1.21-.1.61,0,1.55.03,1.66.03.09,0,1.3-.03,1.75-.03.16,0,.21.04.21.1,0,.05-.05.1-.16.1-.18.02-.24.02-.37.04-.27.04-.36.22-.39.56-.02.34-.02.61-.02,2.23v1.85c0,1,0,1.77.05,2.21.03.35.12.52.43.58.15.02.36.03.46.04.13,0,.18.05.18.1,0,.07-.08.1-.21.1-.72,0-1.78-.03-1.97-.03-.17,0-.99.03-1.5.03-.19,0-.23-.05-.23-.12,0-.05.06-.09.2-.09.1-.01.23-.02.33-.04.25-.05.31-.25.35-.59.04-.44.06-1.1.06-2.1v-.85s-.03-.06-.06-.06h-3.27s-.06.01-.06.06v1.09c0,1,.01,1.43.05,1.88.03.3.13.5.44.56.22.03.33.04.44.05.12,0,.2.03.2.1,0,.05-.05.1-.21.1-.6,0-1.83-.03-1.94-.03-.09,0-1.2.03-1.53.03-.12,0-.23-.02-.23-.09s.04-.12.18-.12c.13-.01.19-.02.33-.04.25-.03.35-.3.37-.62.03-.44.05-1.17.05-2.17v-1.82c0-1.63-.01-1.87-.03-2.2-.02-.37-.14-.57-.5-.62-.13-.02-.18-.02-.29-.03-.19-.01-.21-.06-.21-.12,0-.07.12-.09.23-.09.61,0,1.42.03,1.66.03.4,0,1.28-.03,1.73-.03.19,0,.22.04.22.1,0,.05-.06.1-.19.1-.13.01-.26.02-.37.04-.28.06-.34.3-.36.61-.03.34-.03.77-.03,2.08v.22c0,.05.03.07.06.07h3.27Z"/>
    </g>
    <g>
      <path class="cls-2" d="M42.02,41.79c0,.82,0,1.79.05,2.23.02.27.09.49.41.55.14.02.26.03.45.05.17.01.21.04.21.12,0,.06-.05.09-.24.09-.71,0-1.73-.03-1.9-.03-.18,0-1.2.03-1.54.03-.17,0-.24-.02-.24-.1,0-.07.08-.1.21-.1.1-.01.22-.02.34-.04.23-.04.3-.27.34-.58.04-.44.06-1.2.06-2.21v-4.11c-.41,0-1.06-.01-1.58.02-.59.03-.82.17-.95.53-.05.12-.07.18-.09.24-.02.08-.05.17-.13.17-.09,0-.09-.08-.08-.21.04-.43.16-1,.23-1.39.02-.16.05-.26.12-.26.07,0,.12.03.36.08.19.04.77.07,1.16.07h4.56c.32,0,.51-.02.66-.04.17-.03.25-.06.33-.06.09,0,.1.06.1.33,0,.15-.06,1.12-.07,1.38-.01.15-.04.21-.1.21-.08,0-.1-.06-.12-.19-.01-.12-.01-.16-.02-.21-.04-.32-.2-.58-.82-.62-.35-.03-.89-.05-1.69-.05v4.11Z"/>
      <path class="cls-2" d="M46.58,39.94c0-1.63-.02-1.83-.03-2.17-.02-.43-.15-.57-.4-.62-.16-.03-.33-.03-.42-.04-.13-.01-.19-.05-.19-.12s.07-.09.23-.09c.45,0,1.46.03,1.6.03.2,0,1.21-.03,1.69-.03.99,0,1.68.09,2.14.36.5.27.95.81.95,1.6,0,.88-.5,1.55-1.41,2.11.64.92,1.41,2.04,2.04,2.78.56.62.81.8,1.1.84.12.02.18.02.26.03.12,0,.18.04.18.1,0,.09-.1.1-.21.1h-.94c-1.08,0-1.54-.1-1.91-.35-.34-.2-.67-.65-1.08-1.31-.48-.8-.72-1.23-.91-1.51-.02-.03-.07-.06-.13-.06h-.69c-.05,0-.08.02-.08.08v.54c0,.83,0,1.32.05,1.76.02.27.09.5.41.58.15.04.26.04.47.06.17.01.19.05.19.12s-.07.09-.22.09c-.7,0-1.85-.03-1.92-.03-.13,0-1.14.03-1.5.03-.16,0-.21-.03-.21-.1s.07-.1.19-.1c.1-.01.24-.02.36-.04.21-.05.29-.24.33-.6.04-.44.05-1.17.05-2.19v-1.84ZM48.38,40.64c0,.08.03.13.09.16.2.1.51.14.81.14s.49-.04.66-.17c.22-.17.41-.62.41-1.32,0-1.49-.94-1.88-1.49-1.88-.17,0-.35.01-.42.04-.04.02-.06.03-.06.12v2.91Z"/>
      <path class="cls-2" d="M55.95,42.66c-.05,0-.07.02-.09.07l-.33.86c-.1.27-.17.54-.17.67,0,.2.09.29.31.31.12.02.28.03.37.04.16,0,.19.05.19.1,0,.08-.08.1-.22.1-.47,0-.83-.03-1.38-.03-.12,0-.81.03-1.33.03-.15,0-.21-.04-.21-.1,0-.08.07-.1.2-.1.13-.01.23-.02.34-.04.37-.07.58-.4.8-.9l2.8-6.33c.2-.45.31-.61.43-.61.1,0,.2.15.38.52.27.59,2.03,4.6,2.75,6.2.36.82.59,1.07.95,1.12.12.03.24.03.34.04.14,0,.2.04.2.1,0,.07-.07.1-.27.1-1.03,0-2.22-.02-2.89-.03-.17,0-.23-.03-.23-.09s.05-.1.15-.13c.12-.02.16-.09.13-.19l-.7-1.67s-.05-.06-.08-.06h-2.4ZM58.05,41.82c.06,0,.06-.03.05-.05l-.92-2.24c-.03-.07-.05-.05-.07,0l-.89,2.24s.01.05.04.05h1.79Z"/>
      <path class="cls-2" d="M60.72,37.96c-.29-.65-.41-.74-.77-.82-.08-.02-.18-.03-.24-.03-.12-.02-.17-.06-.17-.12,0-.07.08-.09.22-.09.57,0,1.17.03,1.59.03.37,0,.93-.03,1.75-.03.16,0,.24.04.24.1s-.06.1-.16.1c-.13.01-.19.01-.28.03-.27.04-.31.16-.31.26,0,.14.06.35.24.8.49,1.28,1.15,2.84,1.62,4.07.43-.96,1.52-3.53,1.87-4.52.05-.12.08-.25.08-.35,0-.14-.06-.21-.25-.24-.13-.03-.3-.04-.42-.05-.14-.01-.19-.04-.19-.1s.05-.1.23-.1c.69,0,1.21.03,1.36.03s.84-.03,1.16-.03c.16,0,.23.03.23.1s-.05.1-.19.1c-.13.01-.29.01-.46.09-.22.1-.37.32-.66.94-.42.9-.8,1.75-1.39,3.08-.67,1.49-1.12,2.44-1.39,2.99-.3.62-.41.75-.55.75-.15,0-.23-.15-.43-.63l-2.75-6.39Z"/>
      <path class="cls-2" d="M69.55,39.94c0-1.71-.01-1.92-.03-2.25-.02-.3-.12-.48-.38-.55-.09-.02-.24-.02-.35-.03-.14-.01-.19-.05-.19-.12s.06-.09.23-.09c.6,0,1.1.03,1.56.03.22,0,2.79-.01,2.96-.01.21,0,.46-.02.57-.04.07-.02.13-.04.17-.04.05,0,.06.04.06.09s-.02.16-.05.46c-.03.21-.05.58-.08,1.12,0,.08-.04.15-.1.15-.05,0-.09-.05-.1-.15,0-.12-.01-.22-.05-.37-.05-.24-.19-.38-.69-.42-.35-.03-1.26-.05-1.57-.05-.06,0-.08.03-.08.1v2.31c0,.07.01.13.08.13.29.01,1.14,0,1.52-.01.51-.02.65-.05.77-.24.06-.09.09-.14.15-.14.06,0,.06.06.06.13,0,.1-.05.48-.08.89-.01.24-.01.75-.01.87,0,.14-.03.2-.09.2-.07,0-.09-.07-.12-.17-.01-.08-.02-.16-.03-.24-.04-.3-.19-.48-.7-.51-.29-.02-1.15-.04-1.48-.04-.05,0-.06.05-.06.14v.72c0,.36-.01.97,0,1.37.01.73.16.9,1.32.9.27,0,.68-.01.97-.13.29-.12.42-.35.51-.83.02-.13.06-.19.13-.19.08,0,.09.1.09.23,0,.41-.12,1.21-.17,1.41-.07.27-.15.28-.53.28-1.45,0-2.23-.06-3.33-.06-.49,0-.93.03-1.51.03-.19,0-.25-.03-.25-.1,0-.05.05-.1.21-.1.13-.01.23-.02.31-.04.29-.04.34-.44.36-1.1.02-.42.03-1.04.03-1.69v-1.84Z"/>
      <path class="cls-2" d="M78.29,41.8c0,1.06-.03,1.81.15,2.03.15.2.35.25,1.22.25.58,0,.91-.01,1.21-.17.25-.12.43-.39.54-.88.03-.12.05-.2.14-.2.07,0,.08.05.08.2,0,.24-.12,1.24-.22,1.54-.08.27-.17.28-.59.28-1.45,0-2.42-.06-3.53-.06-.49,0-1.06.03-1.64.03-.15,0-.23-.02-.23-.12,0-.06.06-.09.21-.09.13-.01.24-.02.36-.04.38-.06.39-.25.42-1.09.02-.42.03-1.05.03-1.7v-1.84c0-1.71-.01-1.9-.03-2.23-.02-.29-.09-.47-.36-.55-.09-.03-.25-.04-.41-.05-.12,0-.22-.02-.22-.1s.1-.1.31-.1c.6,0,1.14.03,1.55.03.09,0,1.39-.03,1.77-.03.19,0,.25.03.25.09,0,.09-.1.12-.25.12-.1.01-.21.01-.36.04-.28.05-.36.25-.38.62-.02.34-.03.55-.03,2.28v1.75Z"/>
    </g>
    <g>
      <path class="cls-2" d="M37.33,53.15c-.05,0-.07.02-.09.07l-.32.86c-.1.27-.17.54-.17.67,0,.2.09.29.31.31.12.02.28.03.37.04.16,0,.19.05.19.1,0,.08-.08.1-.22.1-.47,0-.83-.03-1.38-.03-.12,0-.81.03-1.33.03-.15,0-.21-.04-.21-.1,0-.08.07-.1.2-.1.13-.01.23-.02.34-.04.37-.07.58-.4.8-.9l2.8-6.33c.2-.45.31-.61.43-.61.1,0,.2.15.38.52.27.59,2.03,4.6,2.75,6.2.36.82.59,1.07.95,1.12.12.03.24.03.34.04.14,0,.2.04.2.1,0,.07-.07.1-.27.1-1.03,0-2.22-.02-2.89-.03-.17,0-.23-.03-.23-.09s.05-.1.15-.13c.12-.02.16-.09.13-.19l-.7-1.67s-.05-.06-.08-.06h-2.4ZM39.43,52.31c.06,0,.06-.03.05-.05l-.92-2.24c-.03-.07-.05-.05-.07,0l-.89,2.24s.01.05.04.05h1.79Z"/>
      <path class="cls-2" d="M42.22,48.42c-.17-.45-.28-.68-.52-.75-.14-.04-.23-.04-.34-.06-.13-.01-.17-.05-.17-.12s.07-.09.22-.09c.65,0,1.36.03,1.52.03.25,0,1-.03,1.56-.03.15,0,.22.03.22.1s-.07.1-.17.1c-.1.01-.15.01-.26.04-.13.02-.19.1-.19.23,0,.14.1.46.25.94.12.38.9,2.82,1.25,3.72l1.86-4.75c.1-.27.19-.38.29-.38.14,0,.2.19.36.49l2.1,4.64c.3-.88.85-2.66,1.14-3.7.13-.43.21-.74.21-.89,0-.22-.08-.3-.64-.36-.09,0-.18-.04-.18-.09,0-.06.02-.12.22-.12.67,0,1.21.03,1.3.03.07,0,.82-.02,1.18-.02.13,0,.21.01.21.09,0,.06-.04.1-.17.1-.1.01-.18.01-.34.05-.3.06-.46.37-.73,1.11-.45,1.25-1.45,4.07-2.21,6.06-.13.35-.24.64-.42.64-.14,0-.22-.16-.39-.52l-2.1-4.5c-.43,1.07-1.36,3.3-1.89,4.42-.17.38-.29.6-.46.6-.14,0-.21-.16-.4-.65l-2.33-6.4Z"/>
      <path class="cls-2" d="M54.1,53.15c-.05,0-.07.02-.09.07l-.33.86c-.1.27-.17.54-.17.67,0,.2.09.29.31.31.12.02.28.03.37.04.16,0,.19.05.19.1,0,.08-.08.1-.22.1-.47,0-.83-.03-1.38-.03-.12,0-.81.03-1.33.03-.15,0-.21-.04-.21-.1,0-.08.07-.1.2-.1.13-.01.23-.02.34-.04.37-.07.58-.4.8-.9l2.8-6.33c.2-.45.31-.61.43-.61.1,0,.2.15.38.52.27.59,2.03,4.6,2.75,6.2.36.82.59,1.07.95,1.12.12.03.24.03.34.04.14,0,.2.04.2.1,0,.07-.07.1-.27.1-1.03,0-2.22-.02-2.89-.03-.17,0-.23-.03-.23-.09s.05-.1.15-.13c.12-.02.16-.09.13-.19l-.7-1.67s-.05-.06-.08-.06h-2.4ZM56.2,52.31c.06,0,.06-.03.05-.05l-.92-2.24c-.03-.07-.05-.05-.07,0l-.89,2.24s.01.05.04.05h1.79Z"/>
      <path class="cls-2" d="M61.34,50.43c0-1.63-.02-1.83-.03-2.17-.02-.43-.15-.57-.4-.62-.16-.03-.32-.03-.42-.04-.13-.01-.19-.05-.19-.12s.07-.09.23-.09c.45,0,1.46.03,1.6.03.2,0,1.21-.03,1.69-.03.99,0,1.68.09,2.14.36.5.27.95.81.95,1.6,0,.88-.5,1.55-1.4,2.11.64.92,1.4,2.04,2.04,2.78.56.62.81.8,1.1.84.12.02.18.02.26.03.12,0,.18.04.18.1,0,.09-.1.1-.21.1h-.94c-1.08,0-1.54-.1-1.91-.35-.34-.2-.67-.65-1.08-1.31-.48-.8-.72-1.23-.91-1.51-.02-.03-.07-.06-.13-.06h-.69c-.05,0-.08.02-.08.08v.54c0,.83,0,1.32.05,1.76.02.27.09.5.41.58.15.04.26.04.47.06.17.01.19.05.19.12s-.07.09-.22.09c-.7,0-1.84-.03-1.92-.03-.13,0-1.14.03-1.5.03-.16,0-.21-.03-.21-.1s.07-.1.19-.1c.1-.01.24-.02.36-.04.21-.05.29-.24.32-.6.04-.44.05-1.17.05-2.19v-1.84ZM63.14,51.13c0,.08.03.13.09.16.2.1.51.14.81.14s.49-.04.66-.17c.22-.17.41-.62.41-1.32,0-1.49-.94-1.88-1.49-1.88-.17,0-.35.01-.42.04-.04.02-.06.03-.06.12v2.92Z"/>
      <path class="cls-2" d="M69.79,50.43c0-1.54,0-1.83-.02-2.17-.02-.3-.07-.59-.47-.63-.08-.01-.19-.01-.39-.03-.16-.01-.2-.06-.2-.12,0-.06.06-.09.24-.09.26,0,1.23.03,1.69.03.35,0,.82-.01,1.7-.02,1.79.01,3.2.24,4.15,1.22.53.53,1.01,1.42,1.01,2.66s-.56,2.31-1.15,2.87c-.51.52-1.48,1.25-3.59,1.25-.42,0-.78-.01-1.12-.04-.41-.04-.84-.07-1.04-.07-.25,0-.5,0-.8.01-.29.01-.43.02-.72.02-.18,0-.21-.05-.21-.1,0-.07.08-.1.2-.1.14-.01.21-.02.33-.04.21-.03.31-.23.35-.64.03-.5.05-1.25.05-2.15v-1.84ZM71.64,51.6c0,1.11.01,1.84.02,2.03.02.43.06.64.18.75.19.23.62.38,1.08.38.73,0,1.35-.16,1.91-.73.55-.55.68-1.48.68-2.46s-.35-1.8-.79-2.4c-.72-.94-1.72-1.14-2.41-1.14-.23,0-.47.03-.57.08-.08.04-.09.09-.09.19.01.36-.01,1.11-.01,1.96v1.34Z"/>
      <path class="cls-2" d="M78.67,55.17c-.18-.07-.23-.21-.23-.42,0-.85.03-1.25.06-1.54.02-.19.06-.25.13-.25.07,0,.08.09.09.18.01.1.02.2.05.33.18.86.96,1.35,1.78,1.35,1,0,1.3-.51,1.3-.96s-.08-.81-.97-1.42l-.65-.45c-1.28-.9-1.64-1.64-1.64-2.56,0-1.21,1-2.18,2.67-2.18.45,0,.77.02,1.21.1.17.03.35.07.51.13.1.03.14.06.14.15-.02.34-.04.55-.04,1.48,0,.19-.03.26-.12.26-.05,0-.09-.03-.12-.2-.01-.1-.04-.37-.19-.61-.2-.34-.68-.69-1.44-.69-.86,0-1.17.48-1.17.96,0,.36.13.77.84,1.25l.53.36c1.47.97,1.93,1.62,1.93,2.68,0,.72-.33,1.44-1.11,1.9-.61.37-1.28.45-1.82.45-.79,0-1.34-.1-1.75-.29Z"/>
    </g>
    <path class="cls-2" d="M46.56,65.77c-.12,0-.18-.05-.18-.14,0-.09.13-.18.32-.35.75-.65,3.3-2.4,3.3-4.89,0-1.83-.89-2.03-1.41-2.03-.42,0-.79.13-1.06.42-.21.24-.34.59-.36.9-.02.23-.07.29-.14.29s-.1-.06-.12-.26c-.01-.09-.06-1.05-.06-1.32,0-.14.02-.19.13-.26.43-.2,1.08-.41,2.13-.41,2.01,0,2.83.99,2.83,2.33,0,2.13-2.16,3.48-3.33,4.34-.06.04-.03.07.02.07h.58c.18,0,1.25-.02,1.84-.08.73-.07.94-.36,1.08-.84.03-.14.07-.19.14-.19.07,0,.09.05.09.2,0,.14-.17,1.53-.29,1.9-.1.28-.29.31-1.21.31h-4.32Z"/>
    <path class="cls-2" d="M56.34,65.95c-2.47,0-3.12-2.54-3.12-3.94,0-2.49,1.11-4.28,3.27-4.28s3.11,1.87,3.11,3.86c0,2.82-1.28,4.36-3.26,4.36ZM56.28,58.36c-.59,0-1.18.64-1.18,3.26,0,1.68.39,3.71,1.48,3.71.79,0,1.16-1.34,1.16-3.37,0-1.87-.37-3.61-1.46-3.61Z"/>
    <path class="cls-2" d="M60.02,65.77c-.12,0-.18-.05-.18-.14,0-.09.13-.18.32-.35.76-.65,3.3-2.4,3.3-4.89,0-1.83-.89-2.03-1.41-2.03-.42,0-.79.13-1.06.42-.21.24-.34.59-.36.9-.02.23-.07.29-.14.29s-.1-.06-.12-.26c-.01-.09-.06-1.05-.06-1.32,0-.14.02-.19.13-.26.43-.2,1.08-.41,2.13-.41,2.01,0,2.83.99,2.83,2.33,0,2.13-2.16,3.48-3.33,4.34-.06.04-.03.07.02.07h.58c.18,0,1.25-.02,1.84-.08.73-.07.94-.36,1.08-.84.03-.14.07-.19.14-.19.07,0,.09.05.09.2,0,.14-.17,1.53-.29,1.9-.1.28-.29.31-1.21.31h-4.32Z"/>
    <path class="cls-2" d="M66.9,65.67c-.17-.07-.25-.23-.26-.37-.02-.44.03-1.2.06-1.43.02-.15.06-.21.13-.21s.1.06.12.19c.03.89.82,1.47,1.67,1.47.96,0,1.74-.52,1.74-1.73,0-1.29-.82-1.78-1.66-1.93-.23-.04-.34-.12-.34-.21,0-.07.12-.13.2-.15.84-.18,1.51-.54,1.51-1.59,0-.83-.45-1.33-1.36-1.33-1.01,0-1.39.61-1.46,1.12-.01.15-.05.23-.13.23-.06,0-.09-.08-.1-.22-.04-.34-.07-.88-.07-1.12,0-.16.05-.2.19-.26.36-.16,1.18-.4,2.19-.4,2.1,0,2.6.96,2.6,1.7,0,1.08-1.16,1.59-1.74,1.73-.02.01-.02.03,0,.04.9.18,2.1.72,2.1,2.04,0,1.41-1.37,2.71-3.62,2.71-.94,0-1.5-.14-1.76-.28Z"/>
  </g>
</svg>