<svg width="30" height="30" viewBox="0 0 30 30" fill="none" xmlns="http://www.w3.org/2000/svg">
<g clip-path="url(#clip0_604_2)">
<path d="M10.5985 26.1763L10.1298 25.3906L8.81022 23.1804L8.52256 22.688L8.25301 22.2482L7.71391 21.9309L4.31636 19.896C4.23102 19.844 4.15916 19.7733 4.10515 19.6893C4.05113 19.6052 4.01637 19.5099 4.00457 19.4107C3.99276 19.3115 4.00397 19.2109 4.03675 19.1165C4.06954 19.0221 4.12289 18.9366 4.19365 18.866L4.27009 18.7896L4.73276 18.3262C4.8136 18.2458 4.91264 18.1875 5.02242 18.1567C5.13221 18.1259 5.24948 18.1236 5.36037 18.1502L8.71366 18.9948L13.8231 13.8874L5.20749 9.18458C5.02095 9.07995 4.86136 8.93354 4.7408 8.75687C4.62025 8.5802 4.54091 8.37807 4.51148 8.16622C4.48206 7.95437 4.50197 7.73868 4.56982 7.53584C4.63767 7.33301 4.75277 7.1485 4.90374 6.99699C5.07343 6.82837 5.28415 6.70727 5.51526 6.64547C5.74637 6.58367 5.99011 6.58329 6.22132 6.64472L18.0132 9.69452L23.1286 4.58084C23.3115 4.39677 23.5287 4.2508 23.7683 4.15112C24.0079 4.05144 24.2651 4 24.5246 4C24.7841 4 25.0394 4.05144 25.279 4.15112C25.5186 4.2508 25.7377 4.39677 25.9207 4.58084C26.1047 4.76367 26.2495 4.98102 26.3491 5.22052C26.4488 5.46003 26.5 5.71695 26.5 5.97637C26.5 6.23579 26.4488 6.49271 26.3491 6.73222C26.2495 6.97173 26.1047 7.18907 25.9207 7.3719L20.8072 12.4856L23.8568 24.2782C23.9183 24.5097 23.9166 24.7533 23.8548 24.9847C23.793 25.2162 23.6715 25.4275 23.5028 25.5975C23.3521 25.7492 23.1684 25.8635 22.9657 25.9312C22.7629 25.9989 22.5476 26.018 22.336 25.9873C22.1245 25.9565 21.9238 25.8768 21.7487 25.7542C21.5735 25.6316 21.4295 25.4697 21.3282 25.2815L16.6191 16.6732L11.5057 21.7868L12.3425 25.1351C12.3683 25.245 12.3663 25.3597 12.3345 25.468C12.3027 25.5763 12.2425 25.6746 12.1615 25.7532L11.9684 25.9468L11.6284 26.2928C11.5018 26.419 11.3305 26.49 11.1517 26.4904C11.0404 26.4902 10.9306 26.4612 10.8339 26.4062C10.7371 26.3511 10.6556 26.2719 10.5985 26.1763Z" fill="black"/>
</g>
<defs>
<clipPath id="clip0_604_2">
<rect width="30" height="30" fill="white"/>
</clipPath>
</defs>
</svg>
