<svg width="30" height="30" viewBox="0 0 30 30" fill="none" xmlns="http://www.w3.org/2000/svg">
<path d="M8.55967 26.0054C7.88712 26.0054 7.31116 25.7657 6.83181 25.2865C6.35246 24.8071 6.11321 24.2315 6.11402 23.5598V10.1087C6.11402 9.43614 6.35369 8.86018 6.83304 8.38083C7.31239 7.90148 7.88793 7.66222 8.55967 7.66303H11.0053V3.99455C11.0053 3.58695 11.194 3.28123 11.5715 3.07744C11.9489 2.87362 12.3716 2.77173 12.8396 2.77173H16.5081C16.9768 2.77173 17.3999 2.87362 17.7774 3.07744C18.1548 3.28123 18.3431 3.58695 18.3423 3.99455V7.66303H20.7879C21.4605 7.66303 22.0365 7.90271 22.5158 8.38205C22.9951 8.8614 23.2344 9.43695 23.2336 10.1087V23.5598C23.2336 24.2323 22.994 24.8083 22.5146 25.2876C22.0353 25.767 21.4597 26.0062 20.7879 26.0054C20.7879 26.3519 20.6705 26.6425 20.4358 26.8772C20.201 27.112 19.9108 27.229 19.5651 27.2282C19.2187 27.2282 18.9281 27.1109 18.6933 26.8761C18.4585 26.6413 18.3415 26.3511 18.3423 26.0054H11.0053C11.0053 26.3519 10.8879 26.6425 10.6531 26.8772C10.4184 27.112 10.1281 27.229 9.78249 27.2282C9.43603 27.2282 9.1454 27.1109 8.91062 26.8761C8.67583 26.6413 8.55886 26.3511 8.55967 26.0054ZM12.8396 7.66303H16.5081V4.60597H12.8396V7.66303ZM9.78249 22.3369H11.6167V11.3315H9.78249V22.3369ZM13.7567 22.3369H15.5909V11.3315H13.7567V22.3369ZM17.7309 22.3369H19.5651V11.3315H17.7309V22.3369Z" fill="black"/>
</svg>
