<?xml version="1.0" encoding="UTF-8"?>
<svg id="_2024" data-name="2024" width="120" height="120" xmlns="http://www.w3.org/2000/svg" xmlns:xlink="http://www.w3.org/1999/xlink" viewBox="0 0 118.67 119.41">
  <defs>
    <style>
      .cls-1 {
        fill-rule: evenodd;
      }

      .cls-1, .cls-2, .cls-3 {
        fill: #8c9091;
      }

      .cls-4 {
        fill: #1a236f;
      }

      .cls-5 {
        fill: #fff;
      }

      .cls-2 {
        stroke: #8c9091;
        stroke-miterlimit: 3.86;
      }

      .cls-2, .cls-6 {
        stroke-width: .75px;
      }

      .cls-6 {
        fill: none;
        stroke: #fff;
        stroke-miterlimit: 10;
      }

      .cls-7 {
        clip-path: url(#clippath-1);
      }

      .cls-8 {
        clip-path: url(#clippath);
      }
    </style>
    <clipPath id="clippath">
      <polygon class="cls-3" points="31.92 26.46 32.15 22.51 35.84 21.05 32.17 19.82 32.21 16.1 29.98 19.17 25.85 17.91 28.34 21.45 26.1 24.53 29.63 23.33 31.92 26.46 31.92 26.46"/>
    </clipPath>
    <clipPath id="clippath-1">
      <polygon class="cls-3" points="82.82 21.39 86.52 22.77 86.83 26.73 89.08 23.57 92.62 24.69 90.34 21.66 92.75 18.06 88.65 19.41 86.37 16.37 86.48 20.1 82.82 21.39 82.82 21.39"/>
    </clipPath>
  </defs>
  <g id="a01_sml_sil">
    <path class="cls-4" d="M98.55,78.69h14.16c3.04,0,5.93,2.95,5.93,5.9v28.86c0,2.95-2.99,5.94-5.93,5.94H5.96c-2.99,0-5.93-2.98-5.93-5.94v-28.86c0-2.95,2.94-5.9,5.93-5.9h14.39c2.46,0,4.45-2,4.45-4.45,0-1.1-.22-2.08-.88-2.85h0c-5.64-7.46-8.98-16.75-8.98-26.83C14.94,19.96,34.85.02,59.42.02s44.48,19.94,44.48,44.53c0,10.06-3.33,19.35-8.96,26.8h0c-.66.78-.84,1.78-.84,2.88,0,2.46,1.99,4.45,4.45,4.45"/>
    <g>
      <path class="cls-2" d="M59.39,78.94c-19.03-.1-34.43-15.61-34.43-34.73,0-3.27.45-6.43,1.31-9.43-.85,3-1.53,6.16-1.53,9.43,0,19.12,15.63,35.1,34.66,35.19"/>
      <path class="cls-2" d="M59.28,78.93c19.03-.09,34.43-15.61,34.43-34.73,0-3.27-.45-6.43-1.31-9.43.86,3,1.53,6.16,1.53,9.43,0,19.13-15.63,35.1-34.66,35.19"/>
      <path class="cls-1" d="M24.95,47.28c.25-3.47,2.33-4.2,3.81-4.63.44-.13.82-.31,1.09-.46.11-.06.28-.17.43-.28,0,0,0,.31-.06.76-.07.46-.23,1.08-.55,1.72-.64,1.26-1.96,2.61-4.73,2.89h0Z"/>
      <path class="cls-3" d="M26.98,54.28l.21.11.03.13c-.11.12-.24.24-.38.38-.1.11-.24.08-.32,0-.08-.08-.1-.22,0-.32.23-.23.41-.42.59-.61,0,0,0,0,.09-.09l-.22.41h0ZM27.99,52.88c.09-.12.22-.12.32-.05.1.07.14.2.05.32-.27.38-.5.67-.74.95l-.12-.06-.3-.16c.27-.29.5-.59.79-1h0Z"/>
      <path class="cls-1" d="M36.25,68.5c1.55-.39,2.44-1.12,2.94-1.9l.05.02c-.31,1.07-.92,2.22-1.96,3.42-.43-.54-.77-1.05-1.03-1.54h0ZM37.76,60.1c.36.42,1.24,1.58,1.6,3.21-.13.1-.28.22-.39.29-.22.14-.53.31-.9.44-.85.29-1.97.72-2.55,1.81-.02-1.28.45-2.35.94-3.25.92-.78,1.22-1.73,1.29-2.49h0Z"/>
      <path class="cls-3" d="M36.25,68.5c1.55-.39,2.44-1.12,2.94-1.9l.05.02c-.31,1.07-.92,2.22-1.96,3.42-.43-.54-.77-1.05-1.03-1.54h0Z"/>
      <path class="cls-1" d="M37.51,70.69c-2.71,2.53-5.22,2.69-7.05,2.23-.92-.23-1.68-.62-2.2-.95-.26-.17-.47-.32-.6-.43-.18-.14-.36,0-.36,0l.16-.17c.22-.06.47-.13.66-.2.39-.14.91-.36,1.42-.69,1.37-.89,3.25-1.98,5.8-1.03l.07.14.77.62.27-.23c.35.2.71.44,1.08.72h0Z"/>
      <path class="cls-3" d="M29.1,66.03c-2.43.49-4.25-.27-5.46-1.16-.61-.45-1.06-.92-1.37-1.29-.15-.18-.27-.34-.34-.45-.07-.11-.11-.17-.11-.17.22,0,.49,0,.68,0,.41-.03.98-.1,1.56-.27,1.88-.57,4.56-1.23,7.22,1.92-.47-.11-.93-.16-1.33-.21-.43-.04-.82-.14-1.1-.23-.12-.04-.3-.1-.47-.17l-.45-.17.14.46s.07.22.23.54c.16.32.42.75.8,1.2h0Z"/>
      <path class="cls-1" d="M29.55,57.52c-.41.34-.88.68-1.42,1-.41-1.12-.54-2.07-.49-2.89.37.62.97,1.34,1.92,1.89h0ZM31.84,53.49c-.08.63-.26,1.29-.61,1.96-.82-.59-1.73-.8-2.46-.95-.32-.07-.62-.17-.85-.26.41-1.08,1.16-1.84,1.86-2.45.42.61,1.07,1.24,2.06,1.7h0ZM31.2,50.24"/>
      <path class="cls-3" d="M29.55,57.52c-.41.34-.88.68-1.42,1-.41-1.12-.54-2.07-.49-2.89.37.62.97,1.34,1.92,1.89h0Z"/>
      <path class="cls-3" d="M31.84,53.49c-.08.63-.26,1.29-.61,1.96-.82-.59-1.73-.8-2.46-.95-.32-.07-.62-.17-.85-.26.41-1.08.95-1.82,1.77-2.55.92-.82,1.54-1.93,1.54-1.93,0,0,.75,1.52.61,3.72h0Z"/>
      <path class="cls-3" d="M27.47,58.25c-6.05,2.7-8.76-2.38-8.76-2.38.21.02.44.02.62.02.37,0,.88-.04,1.41-.17,1.81-.44,4.4-.94,6.73,2.53h0Z"/>
      <path class="cls-3" d="M30.05,45.39c.08.35.19.86.2,1.32.02.79-.11,1.84-.66,2.88.03-.06-.31.53-.48.74-.68.79-1.62,1.6-3.11,2.17-.72-3.7,1.25-5.04,2.68-5.91.42-.26.77-.56,1.01-.79.11-.1.24-.26.36-.4h0Z"/>
      <path class="cls-1" d="M25.49,51.92c-2.9.78-4.75-.07-5.89-1.1-.57-.52-.96-1.08-1.21-1.52-.12-.22-.21-.41-.27-.54-.08-.19-.3-.13-.3-.13l.22-.08c.19.05.4.09.54.11.33.05.79.09,1.28.05,1.67-.14,4.04-.21,5.63,3.2h0Z"/>
      <path class="cls-3" d="M24.48,46.59c-2.7-.09-4.07-1.32-4.78-2.5-.36-.6-.54-1.19-.65-1.63-.1-.44-.11-.73-.11-.73.15.09.32.18.44.24.27.13.66.28,1.09.38,1.47.32,3.54.89,4.01,4.24h0Z"/>
      <path class="cls-1" d="M25.37,41.96c.48-3.01,2.34-3.49,3.67-3.76.39-.08.74-.21.99-.32.1-.04.26-.13.4-.21,0,0-.02.27-.11.66-.1.4-.28.93-.61,1.46-.65,1.05-1.9,2.13-4.34,2.17h0Z"/>
      <path class="cls-3" d="M25.07,41.48c-4.81-.42-4.74-4.63-4.74-4.63.14.09.28.18.38.23.24.13.58.29.96.39,1.31.36,3.14.96,3.4,4h0Z"/>
      <path class="cls-3" d="M25.06,37.67c-3.89-2.44-2.03-5.97-2.03-5.97.08.14.17.28.22.36.15.21.36.49.64.75.95.87,2.24,2.17,1.16,4.86h0Z"/>
      <path class="cls-3" d="M25.58,37.32c1.7-2.34,3.48-1.94,4.72-1.59.36.1.71.14.97.15.1,0,.27,0,.43,0,.06.04.09.05.09.06,0,0-.11-.01-.18.09-.06.09-.16.22-.28.37-.25.29-.63.67-1.14.97-1,.61-2.52.98-4.61-.04h0Z"/>
      <path class="cls-3" d="M28.99,30.39c.04.18.07.39.08.54.02.33,0,.78-.13,1.28-.26.98-.99,2.12-2.86,2.73-.34-2.46,1-3.28,1.97-3.8.28-.15.52-.34.69-.49.06-.06.16-.16.25-.25h0Z"/>
      <path class="cls-3" d="M42.48,74.49c-3.33-3.23-2.29-5.99-1.46-7.88.24-.56.38-1.11.46-1.52.04-.19.06-.46.09-.69.15-.18.04.03.21.18.13.12.31.3.51.53.41.47.91,1.16,1.28,2.03.74,1.74.98,4.26-1.09,7.34h0Z"/>
      <path class="cls-3" d="M42.79,75.1c-4.73,5.66-9.9,1.9-9.91,1.9.21-.08.45-.19.63-.28.37-.19.86-.47,1.33-.86,1.59-1.32,3.94-3.09,7.95-.76h0Z"/>
      <path class="cls-3" d="M49.06,77.23c-3.7-2.8-3-5.66-2.41-7.64.18-.58.25-1.15.27-1.56.01-.2,0-.47,0-.69.13-.19.04.02.23.15.14.11.34.26.57.47.46.41,1.04,1.04,1.52,1.86.94,1.64,1.49,4.1-.19,7.41h0Z"/>
      <path class="cls-1" d="M49.44,77.8c-2.02,3.12-4.42,3.87-6.3,3.87-.95,0-1.78-.2-2.37-.39-.29-.1-.53-.19-.69-.27-.21-.09-.35.08-.35.08l.11-.2c.2-.11.42-.24.59-.35.35-.23.8-.57,1.21-1.02,1.41-1.51,3.54-3.55,7.8-1.73h0Z"/>
      <path class="cls-3" d="M43.5,72.96c.12,0,.23.06.25.21.08,1.15.44,2.06,1.48,2.57.13.06.16.2.11.31-.05.11-.17.17-.31.11-1.2-.59-1.64-1.63-1.73-2.95,0-.15.09-.24.21-.25h0Z"/>
      <path class="cls-3" d="M42.16,76.26c-.04-.11-.01-.24.13-.3.74-.3,1.31-.45,2.14-.48.15,0,.23.1.24.22,0,.12-.07.23-.22.24-.77.03-1.3.17-1.99.44-.14.06-.25-.02-.3-.13h0Z"/>
      <path class="cls-3" d="M38.92,69.85c.12,0,.23.06.24.21.08,1.13.19,1.87.87,2.75.09.12.05.25-.04.32-.09.08-.23.08-.32-.04-.75-.96-.87-1.77-.96-3-.01-.15.09-.24.21-.25h0Z"/>
      <path class="cls-3" d="M37.25,73.07c-.06-.1-.04-.24.09-.31.7-.4,1.24-.49,2.06-.49.15,0,.23.11.23.23s-.08.23-.23.23c-.73,0-1.21.08-1.83.43-.13.07-.25.02-.31-.09h0Z"/>
      <path class="cls-3" d="M30.02,59.54c.04-.08.07-.17.12-.25.07-.13.2-.16.31-.11.11.05.17.17.11.31l-.08.18c-.15-.05-.3-.09-.45-.13h0Z"/>
      <path class="cls-3" d="M30.02,59.54c.04-.08.07-.17.12-.25.07-.13.2-.16.31-.11.11.05.17.17.11.31l-.08.18c-.15-.05-.3-.09-.45-.13h0Z"/>
      <path class="cls-3" d="M27.62,60.55c.15.21.33.43.54.64l-.03.05c-.16-.08-.33-.17-.52-.26-.18-.09-.18-.35.02-.43h0Z"/>
      <path class="cls-3" d="M25.73,54.13c-.22-.21-.47-.36-.84-.41-.15-.02-.21-.14-.19-.26.02-.12.11-.22.26-.2.43.06.74.23,1.01.47.13.12.25.25.37.4.12.15.24.31.37.48.09.12.05.25-.04.32-.09.07-.23.08-.32-.04-.11-.15-.21-.28-.31-.41-.1-.13-.2-.25-.31-.35h0Z"/>
      <path class="cls-3" d="M23.38,47.87c-.14-.05-.17-.19-.13-.3.04-.11.16-.19.3-.13.39.15.68.34.95.55.27.22.53.47.84.75.11.1.1.24.02.33-.08.09-.21.12-.32.02-.29-.26-.52-.5-.77-.7-.25-.21-.52-.38-.88-.52h0Z"/>
      <path class="cls-3" d="M26.11,47.81c.1.06.15.19.07.32-.3.47-.5.77-.66,1.32-.04.14-.17.19-.29.15-.11-.03-.2-.14-.15-.29.18-.6.39-.93.72-1.44.08-.13.22-.13.32-.07h0Z"/>
      <path class="cls-3" d="M26.08,42.41c.12-.09.25-.05.32.05.07.09.07.23-.05.32-.28.21-.49.4-.7.59-.2.2-.4.4-.65.65-.11.11-.24.08-.32,0-.08-.08-.11-.22,0-.33.26-.26.47-.48.68-.68.21-.2.43-.39.72-.61h0Z"/>
      <path class="cls-3" d="M23.66,42.84c-.09-.15-.19-.31-.28-.49-.07-.14,0-.26.1-.31.11-.05.24-.03.31.1.09.19.19.35.28.49.1.15.19.28.29.42.19.27.39.54.57.93.06.13,0,.26-.11.31-.11.05-.24.03-.3-.11-.19-.39-.38-.66-.57-.93-.1-.13-.19-.27-.29-.41h0Z"/>
      <path class="cls-3" d="M27,38.02c.04.11.01.24-.13.3-.54.22-.86.43-1.3.87-.11.11-.24.08-.32,0-.09-.09-.11-.22,0-.33.48-.49.85-.73,1.45-.97.14-.05.25.02.3.13h0Z"/>
      <path class="cls-3" d="M24.43,37.28c.07-.09.2-.13.32-.04.44.34.69.69.88,1.26.05.14-.03.25-.15.29-.11.04-.24,0-.29-.15-.16-.47-.36-.76-.73-1.04-.12-.09-.11-.23-.04-.32h0Z"/>
      <path class="cls-3" d="M27.34,35.36c.05.11.03.24-.1.31l-.92.46c-.13.07-.25,0-.31-.1-.05-.11-.03-.24.1-.31l.92-.46c.13-.07.25,0,.31.1h0Z"/>
      <path class="cls-3" d="M25.71,33.97c.12-.03.24.03.27.18.12.53.21.86.23,1.42,0,.15-.1.24-.22.24-.12,0-.23-.07-.24-.22-.03-.53-.11-.84-.22-1.34-.03-.15.06-.25.17-.27h0Z"/>
      <path class="cls-3" d="M33.54,55.44c-1.1,2.75-.39,6.41.56,9.34.81,2.49,1.81,4.5,2.11,5.08l-.06.05-.59-.47c-.16-.33-1.17-2.45-1.92-5.09-.82-2.89-1.38-6.46-.28-9.18,0,0,1.35-2.62.18.28Z"/>
      <path class="cls-3" d="M39.45,63.53s1.1,4.1-4.01,4.9c-.46-2.99,1.38-3.73,2.7-4.18.39-.13.72-.31.95-.46.1-.06.23-.17.36-.26h0Z"/>
      <path class="cls-3" d="M34.82,67.99c-5.25.3-6.53-3.78-6.53-3.78.17.07.36.13.48.17.3.09.7.19,1.15.24,1.5.15,3.64.47,4.9,3.37h0Z"/>
      <path class="cls-3" d="M37.45,58.82s1.05,3.9-3.81,4.66c-.43-2.84,1.31-3.54,2.57-3.97.37-.13.68-.3.9-.44.09-.06.22-.16.34-.25h0Z"/>
      <path class="cls-3" d="M33.35,62.76c-2.51.15-4.05-.76-4.97-1.68-.46-.47-.77-.94-.96-1.3-.1-.18-.16-.33-.21-.44-.04-.1-.06-.16-.06-.16.17.07.34.13.46.16.28.08.67.18,1.09.22,1.43.14,3.46.44,4.65,3.2h0Z"/>
      <path class="cls-3" d="M32.77,58.16c-4.83-.25-5.48-3.96-5.48-3.97.15.08.32.15.42.2.26.11.62.24,1.02.32,1.35.28,3.26.77,4.04,3.45h0Z"/>
      <path class="cls-3" d="M34.94,64.38c.06,0,.11.06.1.13-.09.73-.21,1.16-.4,1.88-.02.07-.08.1-.14.08-.06-.02-.1-.07-.08-.14.19-.71.31-1.13.4-1.85,0-.07.07-.11.13-.1h0Z"/>
      <path class="cls-3" d="M32.96,64.13c-.06-.03-.08-.1-.05-.16.03-.05.09-.08.15-.05.31.16.5.36.67.58.17.22.32.47.54.75.04.06.03.12-.02.16-.05.04-.12.04-.16-.02-.21-.27-.34-.51-.5-.72-.16-.21-.34-.4-.63-.55h0Z"/>
      <path class="cls-3" d="M33.62,60.64c.07-.08.13-.16.2-.27.04-.06.11-.07.16-.03.05.03.07.1.03.16-.06.1-.13.19-.2.26-.07.08-.13.14-.19.21-.13.13-.25.26-.36.47-.03.06-.1.08-.15.05-.06-.03-.08-.09-.05-.16.11-.21.24-.35.36-.48.06-.07.13-.13.19-.21h0Z"/>
      <path class="cls-3" d="M32.02,59.15s.11-.06.16,0c.48.45.66.83.89,1.48.02.07-.01.13-.07.15-.06.02-.12,0-.15-.07-.22-.61-.38-.97-.83-1.39-.05-.05-.05-.12,0-.16h0Z"/>
      <g>
        <polygon class="cls-3" points="31.92 26.46 32.15 22.51 35.84 21.05 32.17 19.82 32.21 16.1 29.98 19.17 25.85 17.91 28.34 21.45 26.1 24.53 29.63 23.33 31.92 26.46 31.92 26.46"/>
        <g class="cls-8">
          <polygon class="cls-3" points="29.95 18.92 30.45 21.27 25.49 17.65 29.95 18.92 29.95 18.92"/>
          <polygon class="cls-3" points="32.41 19.59 30.45 21.27 32.27 15.83 32.41 19.59 32.41 19.59"/>
          <polygon class="cls-3" points="29.95 18.92 30.45 21.27 32.27 15.83 29.95 18.92 29.95 18.92"/>
          <polygon class="cls-3" points="32.41 19.59 30.45 21.27 36.15 21.04 32.41 19.59 32.41 19.59"/>
          <polygon class="cls-3" points="36.15 21.04 30.45 21.27 32.45 22.73 36.15 21.04 36.15 21.04"/>
          <polygon class="cls-3" points="32.45 22.73 30.45 21.27 32.08 27.04 32.45 22.73 32.45 22.73"/>
          <polygon class="cls-3" points="32.08 27.04 30.45 21.27 29.53 23.68 32.08 27.04 32.08 27.04"/>
          <polygon class="cls-3" points="29.53 23.68 30.45 21.27 25.94 24.64 29.53 23.68 29.53 23.68"/>
          <polygon class="cls-3" points="25.94 24.64 30.45 21.27 28.17 21.45 25.94 24.64 25.94 24.64"/>
          <polygon class="cls-3" points="28.17 21.45 30.45 21.27 25.49 17.65 28.17 21.45 28.17 21.45"/>
        </g>
      </g>
      <g>
        <polygon class="cls-3" points="82.82 21.39 86.52 22.77 86.83 26.73 89.08 23.57 92.62 24.69 90.34 21.66 92.75 18.06 88.65 19.41 86.37 16.37 86.48 20.1 82.82 21.39 82.82 21.39"/>
        <g class="cls-7">
          <polygon class="cls-3" points="90.59 21.7 88.2 21.5 93.1 17.79 90.59 21.7 90.59 21.7"/>
          <polygon class="cls-3" points="89.23 23.86 88.2 21.5 92.86 24.83 89.23 23.86 89.23 23.86"/>
          <polygon class="cls-3" points="90.59 21.7 88.2 21.5 92.86 24.83 90.59 21.7 90.59 21.7"/>
          <polygon class="cls-3" points="89.23 23.86 88.2 21.5 86.75 27.04 89.23 23.86 89.23 23.86"/>
          <polygon class="cls-3" points="86.75 27.04 88.2 21.5 86.23 22.99 86.75 27.04 86.75 27.04"/>
          <polygon class="cls-3" points="86.23 22.99 88.2 21.5 82.23 21.37 86.23 22.99 86.23 22.99"/>
          <polygon class="cls-3" points="82.23 21.37 88.2 21.5 86.17 19.9 82.23 21.37 82.23 21.37"/>
          <polygon class="cls-3" points="86.17 19.9 88.2 21.5 86.31 16.18 86.17 19.9 86.17 19.9"/>
          <polygon class="cls-3" points="86.31 16.18 88.2 21.5 88.69 19.25 86.31 16.18 86.31 16.18"/>
          <polygon class="cls-3" points="88.69 19.25 88.2 21.5 93.1 17.79 88.69 19.25 88.69 19.25"/>
        </g>
      </g>
      <path class="cls-3" d="M57.09,78.99c-4.01-2.32-3.67-5.25-3.32-7.3.1-.6.1-1.17.08-1.58-.01-.2-.05-.46-.08-.68.1-.21.04.01.25.12.15.08.37.22.63.39.51.36,1.16.9,1.73,1.66,1.14,1.51,1.98,3.89.71,7.39h0Z"/>
      <path class="cls-3" d="M48.37,83.76c.18-.13.4-.29.55-.42.31-.27.72-.67,1.08-1.16,1.22-1.67,3.08-3.95,7.53-2.67-3.23,6.64-9.15,4.25-9.15,4.25h0Z"/>
      <path class="cls-3" d="M51.49,75.16c.12-.03.24.02.28.17.3,1.29.59,2.2,1.63,2.97.12.09.12.23.05.32-.07.1-.2.14-.32.05-1.14-.84-1.48-1.83-1.81-3.24-.03-.15.06-.25.17-.27h0Z"/>
      <path class="cls-3" d="M49.99,79.06c-.15.03-.25-.06-.27-.17-.03-.12.03-.24.17-.28.45-.1.8-.2,1.15-.29.35-.08.71-.15,1.17-.18.15-.01.24.09.24.21,0,.12-.06.24-.21.25-.45.03-.8.09-1.14.17-.34.08-.68.18-1.12.28h0Z"/>
      <path class="cls-1" d="M93.72,47.28c-.25-3.47-2.33-4.2-3.81-4.63-.44-.13-.82-.31-1.09-.46-.11-.06-.28-.17-.43-.28,0,0,0,.31.06.76.07.46.23,1.08.55,1.72.64,1.26,1.96,2.61,4.73,2.89h0Z"/>
      <path class="cls-3" d="M91.69,54.28l-.22-.4c.09.1.09.09.09.09.17.19.36.38.59.61.1.11.08.24,0,.32-.08.09-.22.11-.32,0-.14-.14-.26-.26-.38-.38l.03-.13.21-.12h0ZM90.68,52.88c.29.41.53.7.79,1l-.3.16-.12.06c-.25-.28-.47-.57-.74-.95-.09-.12-.04-.25.05-.32.1-.07.23-.07.32.05h0Z"/>
      <path class="cls-1" d="M82.42,68.49c-.26.49-.6,1.01-1.03,1.54-1.04-1.2-1.65-2.35-1.96-3.42l.05-.02c.5.78,1.38,1.51,2.94,1.9h0ZM80.91,60.09c.07.76.36,1.71,1.29,2.49.49.9.96,1.97.94,3.25-.58-1.09-1.69-1.52-2.55-1.81-.37-.13-.68-.3-.9-.44-.11-.07-.26-.18-.39-.29.36-1.63,1.24-2.79,1.6-3.21h0Z"/>
      <path class="cls-3" d="M82.42,68.49c-1.56-.39-2.44-1.12-2.94-1.9l-.05.02c.31,1.07.92,2.22,1.96,3.42.43-.53.77-1.05,1.03-1.54h0Z"/>
      <path class="cls-1" d="M81.16,70.68c2.71,2.54,5.22,2.69,7.05,2.23.92-.23,1.68-.62,2.2-.95.26-.17.47-.32.6-.43.18-.14.36,0,.36,0l-.16-.17c-.22-.06-.47-.13-.65-.2-.39-.14-.91-.36-1.42-.69-1.37-.89-3.25-1.98-5.79-1.03l-.07.14-.77.62-.27-.23c-.35.2-.71.44-1.08.72h0Z"/>
      <path class="cls-3" d="M89.56,66.02c2.43.49,4.25-.27,5.46-1.16.61-.45,1.06-.92,1.37-1.29.15-.18.27-.34.34-.44.08-.11.11-.17.11-.17-.22,0-.49,0-.68,0-.41-.03-.98-.1-1.56-.27-1.88-.57-4.56-1.23-7.22,1.92.47-.11.93-.16,1.33-.21.43-.04.82-.14,1.1-.23.12-.04.3-.1.47-.17l.44-.17-.14.46s-.07.22-.23.54c-.16.32-.42.76-.8,1.21h0Z"/>
      <path class="cls-1" d="M89.12,57.52c.95-.55,1.55-1.27,1.92-1.89.05.81-.08,1.76-.49,2.89-.55-.32-1.02-.65-1.42-1h0ZM86.82,53.48c.99-.47,1.64-1.09,2.06-1.7.69.61,1.45,1.37,1.86,2.45-.23.09-.53.19-.85.26-.73.15-1.64.37-2.46.96-.35-.67-.53-1.34-.61-1.96h0ZM87.47,50.24"/>
      <path class="cls-3" d="M89.12,57.52c.41.34.88.68,1.42,1,.41-1.13.54-2.07.49-2.89-.37.62-.97,1.34-1.92,1.89h0Z"/>
      <path class="cls-3" d="M86.82,53.48c.08.63.26,1.29.61,1.96.82-.59,1.73-.8,2.46-.96.32-.07.62-.17.85-.26-.41-1.08-.95-1.82-1.77-2.55-.92-.82-1.54-1.92-1.54-1.92,0,0-.75,1.52-.61,3.72h0Z"/>
      <path class="cls-3" d="M91.2,58.25c6.05,2.7,8.76-2.38,8.76-2.38-.21.02-.44.02-.62.02-.37,0-.88-.04-1.41-.17-1.81-.44-4.4-.94-6.73,2.53h0Z"/>
      <path class="cls-3" d="M88.62,45.38c-.08.35-.18.86-.2,1.32-.02.79.11,1.84.66,2.88-.03-.06.31.53.48.74.68.8,1.62,1.6,3.11,2.17.72-3.7-1.25-5.04-2.68-5.91-.42-.26-.77-.56-1.01-.79-.11-.1-.24-.26-.36-.4h0Z"/>
      <path class="cls-1" d="M93.18,51.92c2.9.78,4.75-.07,5.89-1.1.57-.52.96-1.08,1.21-1.52.12-.22.21-.41.27-.54.08-.19.3-.12.3-.12l-.22-.08c-.19.05-.4.09-.54.11-.33.05-.79.09-1.28.05-1.67-.14-4.04-.21-5.63,3.2h0Z"/>
      <path class="cls-3" d="M94.01,46.59c2.7-.09,4.07-1.32,4.78-2.5.36-.6.54-1.19.65-1.63.1-.44.11-.73.11-.73-.15.09-.32.18-.44.24-.27.13-.65.28-1.09.38-1.47.32-3.53.89-4,4.24h0Z"/>
      <path class="cls-1" d="M93.3,41.96c-.48-3.01-2.34-3.49-3.67-3.76-.39-.08-.74-.21-.99-.32-.1-.05-.26-.13-.4-.21,0,0,.02.27.11.66.1.4.28.93.61,1.46.65,1.05,1.9,2.13,4.34,2.17h0Z"/>
      <path class="cls-3" d="M93.42,41.48c4.81-.42,4.74-4.63,4.74-4.63-.14.09-.28.18-.38.23-.24.13-.58.29-.96.39-1.31.36-3.14.96-3.4,4h0Z"/>
      <path class="cls-3" d="M93.61,37.67c3.89-2.44,2.03-5.97,2.03-5.97-.08.14-.17.28-.22.36-.15.21-.37.49-.64.75-.95.87-2.24,2.17-1.16,4.86h0Z"/>
      <path class="cls-3" d="M93.09,37.32c-1.7-2.34-3.48-1.94-4.72-1.59-.37.1-.71.14-.97.15-.1,0-.27,0-.43,0-.06.04-.09.05-.09.06,0,.01.11-.01.18.09.06.09.16.22.28.37.25.3.64.67,1.14.97,1,.61,2.52.98,4.61-.04h0Z"/>
      <path class="cls-3" d="M89.67,30.39c-.04.18-.07.39-.08.54-.02.33,0,.78.13,1.28.26.98.99,2.12,2.86,2.73.34-2.46-1-3.28-1.97-3.8-.29-.15-.52-.34-.69-.49-.07-.06-.16-.16-.25-.25h0Z"/>
      <path class="cls-3" d="M76.19,74.49c3.33-3.23,2.29-5.99,1.46-7.88-.24-.56-.38-1.11-.46-1.52-.04-.19-.06-.46-.09-.69-.15-.17-.04.03-.21.18-.13.12-.31.3-.51.53-.41.47-.91,1.16-1.28,2.03-.74,1.74-.98,4.26,1.09,7.34h0Z"/>
      <path class="cls-3" d="M75.88,75.1c4.73,5.66,9.91,1.9,9.91,1.9-.21-.08-.45-.19-.63-.28-.37-.19-.86-.47-1.33-.86-1.59-1.32-3.94-3.09-7.95-.76h0Z"/>
      <path class="cls-3" d="M69.6,77.22c3.7-2.8,3-5.66,2.41-7.64-.18-.58-.25-1.15-.27-1.56-.01-.2,0-.47,0-.69-.13-.19-.04.02-.23.15-.14.1-.34.26-.57.47-.46.41-1.04,1.04-1.52,1.86-.94,1.64-1.49,4.1.19,7.41h0Z"/>
      <path class="cls-1" d="M69.22,77.79c2.02,3.12,4.42,3.88,6.3,3.87.95,0,1.78-.2,2.37-.39.29-.1.53-.2.69-.27.21-.09.35.08.35.08l-.11-.2c-.2-.11-.42-.24-.59-.35-.35-.23-.8-.57-1.21-1.02-1.41-1.51-3.54-3.55-7.8-1.73h0Z"/>
      <path class="cls-3" d="M75.16,72.95c-.12,0-.23.06-.24.21-.08,1.15-.44,2.06-1.48,2.57-.13.06-.16.2-.11.31.05.11.17.17.31.11,1.2-.59,1.64-1.63,1.73-2.95,0-.15-.09-.24-.21-.25h0Z"/>
      <path class="cls-3" d="M76.51,76.26c.04-.11.01-.24-.13-.3-.74-.3-1.31-.45-2.14-.48-.15,0-.23.1-.24.22,0,.12.07.23.22.24.77.03,1.3.17,1.99.44.14.06.25-.02.3-.13h0Z"/>
      <path class="cls-3" d="M79.75,69.84c-.12,0-.23.07-.25.22-.08,1.13-.18,1.87-.87,2.75-.09.12-.05.25.04.32.09.07.23.08.32-.04.75-.96.87-1.77.96-3,.01-.15-.09-.24-.21-.25h0Z"/>
      <path class="cls-3" d="M81.42,73.07c.06-.1.04-.24-.08-.31-.7-.4-1.24-.49-2.06-.49-.15,0-.23.11-.23.23s.08.23.23.23c.73,0,1.21.08,1.83.43.13.07.25.02.31-.08h0Z"/>
      <path class="cls-3" d="M88.65,59.53c-.15.04-.3.08-.45.13l-.08-.18c-.06-.13,0-.25.11-.31.11-.05.24-.03.31.11.04.08.08.17.12.25h0Z"/>
      <path class="cls-3" d="M88.65,59.53c-.04-.08-.08-.17-.12-.25-.07-.14-.2-.16-.31-.11-.11.05-.17.17-.11.31l.08.18c.15-.05.3-.09.45-.13h0Z"/>
      <path class="cls-3" d="M91.05,60.54c-.15.21-.33.43-.54.64l.04.05c.16-.08.33-.17.52-.26.18-.09.18-.35-.01-.43h0Z"/>
      <path class="cls-3" d="M92.94,54.12c.22-.21.47-.36.84-.41.15-.02.21-.14.19-.26-.02-.12-.11-.22-.26-.2-.43.06-.74.23-1,.47-.13.12-.25.25-.37.4-.12.15-.24.31-.37.48-.09.12-.05.25.04.32.09.07.23.08.32-.04.11-.15.21-.29.31-.41.1-.13.2-.25.31-.35h0Z"/>
      <path class="cls-3" d="M95.22,48.06c.14-.05.17-.19.13-.3-.04-.11-.16-.19-.3-.13-.39.15-.68.34-.95.56-.27.22-.53.47-.84.76-.11.1-.1.24-.02.33.08.09.21.12.32.01.29-.26.52-.5.77-.7.25-.21.52-.38.88-.52h0Z"/>
      <path class="cls-3" d="M92.56,47.8c-.1.06-.15.19-.07.32.3.47.5.77.66,1.32.04.14.17.19.29.15.11-.03.2-.14.15-.29-.18-.6-.39-.93-.72-1.44-.08-.13-.22-.13-.32-.07h0Z"/>
      <path class="cls-3" d="M92.59,42.4c-.12-.09-.25-.05-.32.05-.07.09-.07.23.05.32.28.21.49.4.7.59.2.2.4.4.65.65.11.11.24.08.32,0,.08-.08.11-.22,0-.33-.26-.26-.47-.47-.68-.68-.21-.2-.43-.39-.72-.61h0Z"/>
      <path class="cls-3" d="M94.83,42.84c.09-.15.19-.31.28-.49.07-.14,0-.26-.1-.31-.11-.05-.24-.03-.31.1-.09.19-.19.35-.28.49s-.19.28-.29.42c-.19.27-.39.54-.57.93-.07.13,0,.26.11.31.11.05.24.03.3-.11.19-.39.38-.66.57-.93.1-.13.19-.27.29-.41h0Z"/>
      <path class="cls-3" d="M91.66,38.02c-.04.11-.01.24.13.3.54.22.86.43,1.3.87.11.11.24.08.32,0,.08-.09.1-.22,0-.33-.48-.49-.85-.73-1.45-.97-.14-.05-.25.02-.3.13h0Z"/>
      <path class="cls-3" d="M94.23,37.27c-.07-.09-.2-.13-.32-.04-.44.34-.69.69-.88,1.26-.05.14.03.25.14.29.11.04.24,0,.29-.15.16-.47.36-.76.73-1.04.12-.09.11-.23.04-.32h0Z"/>
      <path class="cls-3" d="M91.33,35.35c-.06.11-.03.24.1.31l.92.46c.13.07.25,0,.31-.1.05-.11.03-.24-.1-.31l-.92-.46c-.13-.07-.26,0-.31.1h0Z"/>
      <path class="cls-3" d="M92.96,33.97c-.12-.03-.24.03-.27.18-.12.53-.21.86-.23,1.42,0,.15.1.24.22.24.12,0,.23-.07.24-.22.03-.53.11-.84.22-1.34.03-.15-.06-.25-.17-.27h0Z"/>
      <path class="cls-3" d="M85.12,55.43c1.1,2.75.39,6.41-.56,9.34-.81,2.49-1.81,4.5-2.11,5.08l.06.05.59-.47c.16-.33,1.16-2.45,1.92-5.09.82-2.89,1.38-6.46.28-9.18,0,0-1.35-2.62-.18.28Z"/>
      <path class="cls-3" d="M79.22,63.52s-1.1,4.1,4.01,4.9c.46-2.99-1.38-3.73-2.7-4.18-.39-.13-.72-.31-.95-.46-.1-.06-.23-.17-.36-.27h0Z"/>
      <path class="cls-3" d="M83.84,67.99c5.26.3,6.53-3.77,6.53-3.77-.17.07-.36.13-.48.17-.3.09-.7.19-1.15.24-1.5.15-3.65.47-4.9,3.37h0Z"/>
      <path class="cls-3" d="M81.22,58.81s-1.05,3.9,3.81,4.66c.44-2.84-1.31-3.54-2.57-3.97-.37-.13-.68-.3-.9-.44-.09-.06-.22-.16-.34-.25h0Z"/>
      <path class="cls-3" d="M85.32,62.76c2.51.15,4.05-.76,4.97-1.68.46-.47.77-.95.96-1.3.1-.18.16-.33.21-.44.04-.1.06-.16.06-.16-.17.07-.35.13-.46.16-.28.08-.67.18-1.09.23-1.43.14-3.46.44-4.65,3.2h0Z"/>
      <path class="cls-3" d="M85.9,58.16c4.83-.25,5.48-3.96,5.48-3.97-.16.08-.32.15-.42.2-.26.11-.62.24-1.02.32-1.35.28-3.26.77-4.04,3.45h0Z"/>
      <path class="cls-3" d="M83.73,64.38c-.06,0-.11.06-.1.13.09.73.21,1.16.4,1.88.02.07.08.1.14.08.06-.02.1-.07.08-.14-.19-.71-.31-1.13-.4-1.85,0-.07-.07-.11-.13-.1h0Z"/>
      <path class="cls-3" d="M85.7,64.13c.06-.04.08-.1.05-.16-.03-.06-.09-.08-.16-.05-.3.16-.5.36-.67.58-.17.22-.32.47-.54.75-.04.06-.03.12.02.16.05.04.12.04.16-.02.21-.26.35-.51.5-.72.16-.21.34-.4.63-.55h0Z"/>
      <path class="cls-3" d="M85.05,60.63c-.07-.08-.13-.16-.2-.27-.04-.06-.1-.07-.16-.04-.05.04-.07.1-.03.16.07.1.13.19.2.26.07.08.13.14.19.21.13.13.25.26.36.47.03.06.1.08.15.05.06-.03.08-.09.05-.16-.11-.21-.24-.35-.36-.48-.06-.07-.13-.13-.19-.21h0Z"/>
      <path class="cls-3" d="M86.65,59.14s-.11-.06-.16,0c-.48.45-.66.83-.89,1.48-.02.07.01.13.07.15.06.02.12,0,.15-.07.22-.61.38-.97.83-1.39.05-.05.05-.12,0-.16h0Z"/>
      <path class="cls-3" d="M61.58,78.99c4.01-2.32,3.67-5.25,3.32-7.3-.1-.6-.1-1.17-.08-1.58.01-.2.05-.46.08-.68-.1-.21-.04.01-.25.13-.16.09-.37.22-.63.39-.51.36-1.16.9-1.74,1.66-1.14,1.51-1.98,3.89-.71,7.39h0Z"/>
      <path class="cls-3" d="M70.29,83.75c-.18-.13-.4-.29-.55-.42-.31-.27-.72-.67-1.08-1.16-1.22-1.67-3.08-3.95-7.53-2.67,3.23,6.64,9.15,4.25,9.15,4.25h0Z"/>
      <path class="cls-3" d="M67.18,75.15c-.12-.03-.24.03-.27.17-.3,1.29-.59,2.2-1.63,2.97-.12.09-.12.23-.05.32.07.1.2.14.32.05,1.13-.84,1.48-1.83,1.8-3.24.03-.15-.05-.25-.17-.28h0Z"/>
      <path class="cls-3" d="M68.68,79.05c.15.03.25-.06.27-.17.03-.12-.03-.24-.17-.28-.45-.1-.8-.2-1.15-.29-.35-.08-.71-.15-1.18-.17-.15-.01-.24.09-.24.21,0,.12.07.23.22.24.45.03.8.09,1.14.17.34.08.68.18,1.12.28h0Z"/>
    </g>
    <g>
      <path class="cls-5" d="M40.96,14.97c-.15.01-.24-.07-.31-.21-.3-.6-.42-.89-.51-1.11-.05-.14-.05-.2,0-.22.05-.03.09.04.13.09.04.07.09.13.15.21.43.54,1.16.61,1.74.32.7-.36.74-.83.57-1.15-.16-.31-.35-.54-1.2-.65l-.62-.09c-1.23-.18-1.74-.57-2.07-1.22-.43-.85-.07-1.9,1.11-2.5.32-.16.55-.26.89-.36.13-.04.27-.07.41-.09.09-.02.12,0,.15.06.11.24.17.4.5,1.06.07.13.07.2.01.23-.04.02-.08.01-.15-.1-.04-.07-.16-.24-.35-.36-.26-.17-.73-.25-1.26.02-.61.31-.66.76-.49,1.1.13.25.36.5,1.04.58l.51.06c1.39.16,1.94.46,2.32,1.21.26.51.28,1.13-.11,1.74-.3.48-.74.78-1.13.97-.56.28-.99.4-1.34.42Z"/>
      <path class="cls-5" d="M45.91,8.66c-.4-1.22-.48-1.45-.58-1.7-.09-.22-.22-.33-.41-.3-.06,0-.14.02-.25.05-.09.03-.16.02-.18-.04-.02-.05.02-.08.15-.13.32-.1,1.1-.33,1.16-.35.07-.02.99-.35,1.28-.44.13-.04.18-.03.2.02.02.06-.05.1-.12.13-.08.03-.12.05-.22.1-.19.11-.24.24-.16.52.06.26.13.47.53,1.69l.46,1.39c.2.62.45,1.35.59,1.68.08.2.18.33.43.3.11,0,.26-.05.36-.07.13-.04.18-.02.19.02.01.04-.01.09-.14.13-.54.18-1.39.43-1.46.45-.04.01-.86.31-1.13.4-.13.04-.19.05-.22-.02-.02-.06.04-.1.13-.13.08-.03.15-.07.23-.11.16-.08.16-.27.11-.51-.08-.34-.25-.91-.5-1.69l-.46-1.39Z"/>
      <path class="cls-5" d="M53.47,8.3c.13.83.19,1.42.36,1.57.14.14.3.16.98.05.45-.07.71-.12.92-.28.18-.12.29-.36.32-.75.01-.09.02-.16.08-.17.06,0,.07.03.09.15.03.19.06.98.01,1.23-.03.22-.1.24-.43.29-1.13.17-1.9.24-2.77.38-.39.06-.83.15-1.28.22-.11.02-.18.01-.19-.06,0-.05.04-.08.15-.1.1-.02.19-.04.27-.08.29-.09.27-.24.2-.9-.03-.33-.1-.82-.18-1.33l-.22-1.44c-.21-1.34-.24-1.48-.29-1.74-.05-.23-.13-.36-.34-.38-.08-.01-.2,0-.33,0-.09.01-.17.01-.18-.06-.01-.07.07-.09.23-.12.47-.07.9-.11,1.22-.16.07-.01,1.09-.19,1.38-.24.15-.02.2,0,.21.04.01.07-.07.1-.18.12-.08.02-.16.03-.27.08-.22.07-.25.24-.22.53.02.26.04.43.25,1.78l.21,1.37Z"/>
      <path class="cls-5" d="M58.16,4.73c-.22-.52-.31-.6-.59-.66-.07-.02-.14-.03-.19-.03-.09-.02-.13-.05-.13-.09,0-.06.07-.07.18-.07.45.01.93.05,1.26.06.29,0,.74,0,1.39,0,.12,0,.19.04.19.09,0,.05-.05.08-.13.08-.1,0-.15,0-.22.02-.22.03-.25.12-.25.2,0,.11.04.28.17.64.37,1.02.86,2.27,1.21,3.26.36-.76,1.28-2.77,1.57-3.54.04-.09.07-.2.07-.27,0-.11-.05-.17-.19-.2-.1-.03-.24-.04-.33-.05-.11-.01-.15-.04-.15-.09,0-.05.04-.08.18-.08.55.01.96.05,1.08.05s.66,0,.92,0c.13,0,.18.03.18.09s-.04.08-.15.08c-.1,0-.23,0-.37.07-.18.08-.3.25-.54.73-.35.71-.67,1.37-1.17,2.41-.56,1.17-.94,1.91-1.16,2.34-.25.48-.34.59-.45.59-.12,0-.18-.12-.33-.51l-2.05-5.11Z"/>
      <path class="cls-5" d="M67.18,7c.29-1.32.32-1.49.36-1.75.04-.24,0-.39-.2-.49-.07-.03-.18-.06-.26-.08-.1-.03-.14-.07-.13-.12s.06-.06.19-.03c.46.1.85.21,1.2.29.17.04,2.16.47,2.29.49.16.04.36.06.44.06.06,0,.1-.01.14,0,.04,0,.04.04.03.08s-.04.12-.12.35c-.06.16-.14.44-.26.86-.01.06-.06.11-.11.1-.04,0-.06-.06-.06-.13.02-.09.03-.17.02-.29,0-.2-.08-.32-.46-.44-.26-.08-.96-.25-1.21-.31-.05-.01-.07.01-.08.07l-.39,1.78c-.01.06-.01.1.04.11.23.06.88.19,1.18.25.4.07.51.07.63-.06.06-.06.1-.09.14-.08.05.01.04.06.03.11-.02.08-.12.36-.22.68-.05.18-.14.58-.16.67-.02.11-.06.15-.11.14-.06-.01-.06-.07-.06-.15,0-.07.01-.13.02-.19.02-.24-.06-.41-.46-.52-.22-.07-.89-.23-1.14-.28-.04,0-.06.03-.07.09l-.12.56c-.06.28-.17.75-.23,1.06-.12.57-.03.72.87.92.21.05.53.11.78.07s.38-.2.54-.55c.04-.09.08-.14.13-.12.06.01.05.1.03.19-.07.32-.29.91-.37,1.06-.1.2-.16.19-.46.13-1.12-.25-1.72-.43-2.57-.62-.38-.08-.73-.13-1.17-.23-.15-.03-.19-.07-.18-.12,0-.04.06-.07.18-.05.1.01.18.02.25.02.23.02.33-.28.46-.79.09-.32.2-.8.31-1.3l.31-1.43Z"/>
      <path class="cls-5" d="M74.48,9c.51-1.18.57-1.34.66-1.59.12-.32.07-.46-.09-.57-.1-.07-.23-.13-.29-.16-.09-.05-.12-.1-.1-.14.02-.05.08-.05.2,0,.33.14,1.05.48,1.15.53.14.06.89.36,1.24.52.72.31,1.19.6,1.44.94.28.36.44.89.18,1.47-.28.64-.86.97-1.69,1.09.17.87.37,1.93.6,2.66.21.62.33.83.53.96.08.05.12.07.18.11.08.04.12.09.1.13-.03.07-.11.04-.19,0l-.69-.3c-.78-.34-1.09-.56-1.28-.86-.18-.25-.28-.68-.37-1.29-.1-.73-.14-1.12-.18-1.39,0-.03-.03-.07-.07-.09l-.5-.22s-.07-.01-.09.03l-.17.39c-.26.6-.42.96-.52,1.3-.07.2-.09.4.11.55.09.08.18.11.32.2.12.06.12.1.1.14-.02.05-.08.05-.19,0-.51-.22-1.33-.61-1.38-.63-.09-.04-.84-.34-1.1-.45-.11-.05-.14-.09-.12-.14.02-.05.09-.05.17-.02.08.03.18.06.27.08.17.03.29-.08.42-.33.17-.31.41-.84.73-1.57l.58-1.34ZM75.56,10.08c-.03.06-.02.1.02.14.11.14.33.26.54.35.21.09.37.13.53.09.21-.05.49-.32.71-.83.47-1.08-.09-1.66-.49-1.83-.12-.05-.26-.1-.32-.1-.04,0-.06,0-.08.06l-.92,2.12Z"/>
    </g>
    <g>
      <path class="cls-5" d="M44.92,22.1c-.14,0-.22-.08-.27-.2-.25-.57-.34-.82-.41-1.04-.04-.13-.01-.17.03-.18.04-.02.07,0,.11.07.03.06.06.11.1.17.34.53,1.04.61,1.6.37.62-.27.68-.64.56-.91-.12-.27-.3-.44-1.05-.57l-.54-.1c-1.06-.2-1.48-.55-1.74-1.16-.33-.76.05-1.69,1.16-2.18.31-.14.52-.21.86-.29.12-.02.25-.05.38-.07.07-.01.1,0,.13.06.1.25.13.37.4.98.05.11.05.17,0,.19-.04.02-.08.02-.15-.09-.04-.07-.13-.21-.27-.32-.24-.18-.7-.25-1.16-.05-.57.25-.61.65-.49.93.13.29.35.43.83.49l.5.07c1.25.18,1.69.44,1.98,1.1.23.52.2,1.09-.2,1.6-.3.41-.76.65-1.11.81-.53.23-.91.31-1.23.32Z"/>
      <path class="cls-5" d="M55.68,17.97c.15.44.28.6.54.62.14.01.22,0,.34-.02.11,0,.14.01.15.06.01.06-.02.08-.14.11-.71.15-1.14.24-2.12.4-.12.02-.16-.03-.17-.06s.02-.06.06-.09c.13-.08.14-.11.03-.45l-.71-2.33-.94,2.9c-.13.41-.18.46-.23.47-.08.02-.13-.03-.42-.32-.4-.41-.91-.98-1.35-1.44-.18-.19-.57-.64-.71-.79l.19,1.82c.05.35.08.49.1.6.05.22.13.31.34.31.09,0,.17,0,.27-.02.1-.02.15,0,.15.04.01.06-.01.1-.14.12-.32.07-.73.13-.97.17-.25.05-.59.15-.87.21-.07.01-.15.01-.16-.06,0-.04.02-.07.11-.1.07-.02.13-.04.21-.06.2-.08.28-.23.25-.78l-.24-4.38c0-.24.03-.32.1-.34.07-.01.15.04.35.24l2.78,2.78,1.33-3.68c.1-.22.15-.3.22-.32.09-.02.14.07.22.26l1.45,4.1Z"/>
      <path class="cls-5" d="M58.9,17.45s-.08.05-.08.07l-.18.42c-.08.18-.13.35-.13.44,0,.24.31.26.5.28.11.01.13.04.13.08,0,.06-.04.09-.14.09-.37,0-.61-.04-1.04-.05-.08,0-.57.01-.92,0-.12,0-.15-.04-.15-.09,0-.05.04-.08.13-.08.36-.03.55-.13.78-.61l2.09-4.21c.18-.38.27-.48.36-.48.08,0,.15.11.28.4.17.41,1.4,3.14,1.87,4.25.25.54.37.73.65.78.07,0,.12.02.17.02.09,0,.14.04.14.09,0,.06-.07.08-.15.08-.84-.03-1.7-.06-2.14-.07-.1,0-.15-.04-.15-.08,0-.05.05-.06.1-.08.07-.02.14-.03.1-.12l-.43-1.03s-.04-.04-.07-.04l-1.72-.04ZM60.4,16.83c.05,0,.05-.02.04-.03l-.62-1.5s-.02-.03-.04,0l-.65,1.46s0,.03.02.03l1.25.03Z"/>
      <path class="cls-5" d="M66.47,17.5c-.14.67-.27,1.17-.19,1.35.08.17.2.22.81.35.41.09.6.12.82.09.22-.04.41-.18.58-.55.03-.08.07-.14.14-.12.05.01.05.06.03.16-.04.18-.29.86-.41,1.05-.1.17-.15.16-.42.11-1.1-.23-1.76-.42-2.53-.58-.34-.07-.71-.13-1.13-.21-.11-.02-.17-.06-.15-.13,0-.03.06-.06.15-.04.08,0,.09.01.17.02.3.01.36-.09.52-.74.06-.28.15-.66.23-1.05l.26-1.24c.25-1.17.26-1.25.29-1.48.03-.2-.01-.33-.17-.41-.06-.03-.16-.07-.26-.1-.08-.03-.14-.05-.13-.11.01-.06.07-.07.22-.04.44.09.79.19,1.1.26.04,0,.99.18,1.25.24.13.03.16.07.15.11-.01.06-.08.08-.15.06-.08,0-.12-.02-.23-.01-.21-.01-.29.11-.36.36-.06.22-.09.33-.35,1.51l-.24,1.15Z"/>
      <path class="cls-5" d="M72.13,19.24c-.26.63-.48,1.11-.43,1.3.04.18.16.25.74.49.39.16.57.22.79.23.22,0,.43-.1.67-.44.05-.07.09-.12.16-.1.05.02.04.07,0,.16-.07.17-.44.8-.59.96-.13.15-.18.13-.43.03-1.04-.42-1.66-.72-2.4-1.01-.32-.13-.68-.25-1.07-.41-.11-.04-.15-.09-.13-.15.01-.03.07-.05.16-.02.07.02.09.03.17.05.3.07.37-.03.64-.64.11-.26.26-.63.41-1l.47-1.17c.45-1.11.47-1.19.54-1.41.06-.19.04-.32-.1-.43-.05-.04-.14-.09-.24-.14-.07-.04-.13-.08-.11-.13.02-.05.09-.06.22,0,.42.17.75.33,1.04.45.04.02.94.35,1.19.45.12.05.14.09.13.13-.02.06-.1.06-.16.03-.08-.02-.11-.04-.22-.05-.2-.05-.31.05-.42.29-.1.21-.15.31-.61,1.43l-.44,1.09Z"/>
    </g>
    <g>
      <path class="cls-5" d="M6.63,114.96c-.42,0-.78-.08-1.08-.25-.3-.17-.53-.41-.68-.72s-.24-.7-.24-1.14v-4.26c0-.45.08-.83.24-1.15.16-.32.39-.56.68-.72.3-.17.66-.25,1.08-.25s.78.08,1.08.25c.3.17.52.41.68.72s.23.7.23,1.15v.67h-1.44v-.67c0-.14-.02-.26-.06-.36-.04-.1-.11-.18-.19-.24s-.19-.09-.31-.09c-.17,0-.31.06-.41.18-.1.12-.15.29-.15.5v4.26c0,.21.05.38.15.5s.23.18.41.18c.18,0,.32-.06.42-.18.1-.12.14-.29.14-.5v-.67h1.44v.67c0,.45-.08.83-.23,1.15s-.38.56-.68.72c-.3.17-.66.25-1.08.25Z"/>
      <path class="cls-5" d="M9.54,114.87v-8.32h1.42v8.32h-1.42ZM10.17,107.94v-1.39h3.07v1.39h-3.07ZM10.17,111.43v-1.38h2.78v1.38h-2.78ZM10.17,114.87v-1.39h3.07v1.39h-3.07Z"/>
      <path class="cls-5" d="M14.09,114.87v-8.32h1.12l1.96,5.55-.15.22v-5.78h1.29v8.32h-1.13l-1.93-5.23.15-.23v5.46h-1.3Z"/>
      <path class="cls-5" d="M19.32,107.91v-1.36h4.17v1.36h-4.17ZM20.69,114.87v-7.62h1.42v7.62h-1.42Z"/>
      <path class="cls-5" d="M24.28,114.87v-8.33h1.39v8.33h-1.39ZM24.92,111.35v-1.36h1.5c.19,0,.33-.05.43-.15.1-.1.15-.23.15-.4v-.93c0-.19-.05-.34-.15-.45s-.25-.16-.43-.16h-1.5v-1.36h1.41c.45,0,.83.07,1.15.22.32.15.56.36.73.64s.25.62.25,1.02v.97c0,.41-.08.76-.25,1.05s-.41.51-.73.66-.7.23-1.15.23h-1.41ZM27.18,114.87l-1.1-3.78,1.3-.26,1.33,4.04h-1.52Z"/>
      <path class="cls-5" d="M29,114.87l1.99-8.32h1l1.99,8.32h-1.41l-1.08-5.45-1.08,5.45h-1.41ZM30.36,113.58v-1.33h2.27v1.33h-2.27Z"/>
      <path class="cls-5" d="M34.71,114.87v-8.32h1.42v8.32h-1.42ZM35.29,114.87v-1.36h3v1.36h-3Z"/>
      <path class="cls-5" d="M41.75,105.57l-1.76,10.89h-1.33l1.76-10.89h1.33Z"/>
      <path class="cls-5" d="M42.41,114.87v-8.32h1.12l1.96,5.55-.15.22v-5.78h1.29v8.32h-1.13l-1.93-5.23.15-.23v5.46h-1.3Z"/>
      <path class="cls-5" d="M49.88,114.96c-.45,0-.83-.08-1.15-.23-.32-.16-.56-.38-.73-.67-.17-.29-.25-.64-.25-1.06v-4.58c0-.42.08-.77.25-1.06.17-.29.41-.51.73-.67s.7-.23,1.15-.23.83.08,1.15.23.56.38.73.67c.17.29.25.65.25,1.06v4.58c0,.41-.08.76-.25,1.06-.17.29-.41.52-.73.67-.32.15-.7.23-1.15.23ZM49.88,113.54c.22,0,.39-.06.51-.19s.18-.3.18-.53v-4.22c0-.22-.06-.4-.18-.53s-.29-.19-.51-.19-.39.06-.51.19-.18.3-.18.53v4.22c0,.23.06.41.18.53s.29.19.51.19Z"/>
      <path class="cls-5" d="M53.03,114.87v-8.33h1.39v8.33h-1.39ZM53.67,111.35v-1.36h1.5c.19,0,.33-.05.43-.15.1-.1.15-.23.15-.4v-.93c0-.19-.05-.34-.15-.45s-.25-.16-.43-.16h-1.5v-1.36h1.41c.45,0,.83.07,1.15.22.32.15.56.36.73.64s.25.62.25,1.02v.97c0,.41-.08.76-.25,1.05s-.41.51-.73.66-.7.23-1.15.23h-1.41ZM55.93,114.87l-1.1-3.78,1.3-.26,1.33,4.04h-1.52Z"/>
      <path class="cls-5" d="M57.87,107.91v-1.36h4.17v1.36h-4.17ZM59.25,114.87v-7.62h1.42v7.62h-1.42Z"/>
      <path class="cls-5" d="M62.83,114.87v-8.32h1.42v8.32h-1.42ZM63.51,111.44v-1.33h2.79v1.33h-2.79ZM65.38,114.87v-8.32h1.42v8.32h-1.42Z"/>
      <path class="cls-5" d="M67.93,114.87v-8.32h1.42v8.32h-1.42ZM68.56,107.94v-1.39h3.07v1.39h-3.07ZM68.56,111.43v-1.38h2.78v1.38h-2.78ZM68.56,114.87v-1.39h3.07v1.39h-3.07Z"/>
      <path class="cls-5" d="M72.48,114.87v-8.33h1.39v8.33h-1.39ZM73.11,111.35v-1.36h1.5c.19,0,.33-.05.43-.15.1-.1.15-.23.15-.4v-.93c0-.19-.05-.34-.15-.45s-.25-.16-.43-.16h-1.5v-1.36h1.41c.45,0,.83.07,1.15.22.32.15.56.36.73.64s.25.62.25,1.02v.97c0,.41-.08.76-.25,1.05s-.41.51-.73.66c-.32.15-.7.23-1.15.23h-1.41ZM75.37,114.87l-1.1-3.78,1.3-.26,1.33,4.04h-1.52Z"/>
      <path class="cls-5" d="M77.89,114.87v-8.32h1.12l1.96,5.55-.15.22v-5.78h1.29v8.32h-1.13l-1.93-5.23.15-.23v5.46h-1.3Z"/>
      <path class="cls-5" d="M85.71,114.87v-8.32h1.42v8.32h-1.42ZM86.34,107.94v-1.39h3.07v1.39h-3.07ZM86.34,111.43v-1.38h2.78v1.38h-2.78ZM86.34,114.87v-1.39h3.07v1.39h-3.07Z"/>
      <path class="cls-5" d="M92.16,114.96c-.62,0-1.11-.18-1.46-.55-.35-.37-.53-.88-.53-1.55v-6.31h1.43v6.35c0,.2.05.36.15.47.1.11.24.17.41.17s.32-.06.42-.17c.1-.11.15-.27.15-.47v-6.35h1.43v6.31c0,.66-.18,1.18-.53,1.55-.35.37-.84.55-1.47.55Z"/>
      <path class="cls-5" d="M95.08,114.87v-8.33h1.39v8.33h-1.39ZM95.72,111.35v-1.36h1.5c.19,0,.33-.05.43-.15.1-.1.15-.23.15-.4v-.93c0-.19-.05-.34-.15-.45s-.25-.16-.43-.16h-1.5v-1.36h1.41c.45,0,.83.07,1.15.22.32.15.56.36.73.64s.25.62.25,1.02v.97c0,.41-.08.76-.25,1.05s-.41.51-.73.66c-.32.15-.7.23-1.15.23h-1.41ZM97.98,114.87l-1.1-3.78,1.3-.26,1.33,4.04h-1.52Z"/>
      <path class="cls-5" d="M102.39,114.96c-.45,0-.83-.08-1.15-.23-.32-.16-.56-.38-.73-.67-.17-.29-.25-.64-.25-1.06v-4.58c0-.42.08-.77.25-1.06.17-.29.41-.51.73-.67.32-.15.7-.23,1.15-.23s.83.08,1.15.23c.32.15.56.38.73.67.17.29.25.65.25,1.06v4.58c0,.41-.08.76-.25,1.06-.17.29-.41.52-.73.67-.32.15-.7.23-1.15.23ZM102.39,113.54c.22,0,.39-.06.51-.19.12-.13.18-.3.18-.53v-4.22c0-.22-.06-.4-.18-.53-.12-.13-.29-.19-.51-.19s-.39.06-.51.19c-.12.13-.18.3-.18.53v4.22c0,.23.06.41.18.53.12.13.29.19.51.19Z"/>
      <path class="cls-5" d="M105.55,114.87v-8.32h1.42v8.32h-1.42ZM106.21,111.65v-1.36h1.47c.18,0,.31-.06.41-.18.1-.12.15-.29.15-.5v-.98c0-.22-.05-.4-.15-.52-.1-.12-.24-.19-.42-.19h-1.47v-1.36h1.51c.42,0,.77.07,1.06.22s.51.36.67.64c.15.28.23.62.23,1.01v1.4c0,.39-.08.71-.23.99-.16.27-.38.48-.67.62-.29.14-.64.21-1.06.21h-1.51Z"/>
      <path class="cls-5" d="M110.67,114.87v-8.32h1.42v8.32h-1.42ZM111.3,107.94v-1.39h3.07v1.39h-3.07ZM111.3,111.43v-1.38h2.78v1.38h-2.78ZM111.3,114.87v-1.39h3.07v1.39h-3.07Z"/>
    </g>
    <g>
      <path class="cls-5" d="M14.13,95.62v-8.32h1.43v8.32h-1.43ZM14.94,95.62v-1.33h1.25c.18,0,.31-.05.41-.14.1-.09.15-.22.15-.39v-1.12c0-.21-.05-.37-.15-.48s-.24-.17-.43-.17h-1.22v-1.32h1.19c.17,0,.3-.05.39-.16s.14-.26.14-.46v-.89c0-.17-.05-.3-.14-.39-.09-.09-.22-.14-.39-.14h-1.2v-1.33h1.34c.56,0,1,.15,1.31.45.31.3.47.72.47,1.27v.89c0,.38-.11.69-.32.93-.21.24-.51.4-.9.46.42.06.74.21.98.46s.35.58.35.99v1.13c0,.55-.15.98-.46,1.28-.31.3-.74.45-1.3.45h-1.47Z"/>
      <path class="cls-5" d="M19.34,95.62v-8.32h1.42v8.32h-1.42ZM19.97,88.68v-1.39h3.07v1.39h-3.07ZM19.97,92.17v-1.38h2.78v1.38h-2.78ZM19.97,95.62v-1.39h3.07v1.39h-3.07Z"/>
      <path class="cls-5" d="M26.03,95.7c-.44,0-.81-.08-1.12-.24-.31-.16-.55-.4-.72-.7s-.25-.68-.25-1.11v-.45h1.41s0,.43,0,.43c0,.21.06.37.18.5.12.12.28.18.49.18s.37-.06.48-.18.17-.28.17-.49v-.73c0-.17-.05-.32-.15-.43-.1-.12-.24-.22-.4-.31-.17-.09-.35-.19-.54-.28-.19-.1-.38-.2-.57-.32s-.37-.26-.53-.43c-.16-.17-.29-.37-.38-.61s-.15-.53-.15-.87v-.43c0-.64.18-1.14.54-1.49s.87-.53,1.53-.53,1.14.18,1.49.54.54.86.54,1.51v.47l-1.41.02v-.48c0-.21-.05-.38-.16-.5-.11-.12-.26-.18-.46-.18-.21,0-.37.05-.48.16-.11.11-.17.26-.17.45v.56c0,.19.06.35.17.48.12.12.27.23.45.33.19.09.38.2.59.31.18.09.36.19.54.3s.34.24.49.39.27.34.35.57.13.5.13.84v.69c0,.65-.18,1.15-.54,1.51-.36.36-.87.54-1.52.54Z"/>
      <path class="cls-5" d="M28.83,88.66v-1.36h4.17v1.36h-4.17ZM30.21,95.62v-7.62h1.42v7.62h-1.42Z"/>
      <path class="cls-5" d="M35.82,88.66v-1.36h4.17v1.36h-4.17ZM37.19,95.62v-7.62h1.42v7.62h-1.42Z"/>
      <path class="cls-5" d="M40.95,95.62v-8.33h1.39v8.33h-1.39ZM41.59,92.1v-1.36h1.5c.19,0,.33-.05.43-.15.1-.1.15-.23.15-.4v-.93c0-.19-.05-.34-.15-.45s-.25-.16-.43-.16h-1.5v-1.36h1.41c.45,0,.83.07,1.15.22.32.15.56.36.73.64s.25.62.25,1.02v.97c0,.41-.08.76-.25,1.05s-.41.51-.73.66-.7.23-1.15.23h-1.41ZM43.85,95.62l-1.1-3.78,1.3-.26,1.33,4.04h-1.52Z"/>
      <path class="cls-5" d="M45.85,95.62l1.99-8.32h1l1.99,8.32h-1.41l-1.08-5.45-1.08,5.45h-1.41ZM47.21,94.32v-1.33h2.27v1.33h-2.27Z"/>
      <path class="cls-5" d="M52.24,95.62l-1.53-8.32h1.51l.8,5.75.8-5.75h1.51l-1.53,8.32h-1.53Z"/>
      <path class="cls-5" d="M56.16,95.62v-8.32h1.42v8.32h-1.42ZM56.79,88.68v-1.39h3.07v1.39h-3.07ZM56.79,92.17v-1.38h2.78v1.38h-2.78ZM56.79,95.62v-1.39h3.07v1.39h-3.07Z"/>
      <path class="cls-5" d="M60.88,95.62v-8.32h1.42v8.32h-1.42ZM61.47,95.62v-1.36h3v1.36h-3Z"/>
      <path class="cls-5" d="M70.14,95.7c-.42,0-.78-.08-1.08-.25-.3-.17-.53-.41-.68-.72-.16-.32-.24-.7-.24-1.14v-4.26c0-.45.08-.83.24-1.15.16-.32.39-.56.68-.72.3-.17.66-.25,1.08-.25s.78.08,1.08.25c.3.17.52.41.68.72s.23.7.23,1.15v.67h-1.44v-.67c0-.14-.02-.26-.06-.36-.04-.1-.1-.18-.19-.24s-.19-.09-.31-.09c-.17,0-.31.06-.41.18-.1.12-.15.29-.15.5v4.26c0,.21.05.38.15.5s.23.18.41.18c.18,0,.32-.06.42-.18.1-.12.14-.29.14-.5v-.67h1.44v.67c0,.45-.08.83-.23,1.15s-.38.56-.68.72c-.3.17-.66.25-1.08.25Z"/>
      <path class="cls-5" d="M75.24,95.7c-.45,0-.83-.08-1.15-.23-.32-.16-.56-.38-.73-.67-.17-.29-.25-.64-.25-1.06v-4.58c0-.42.08-.77.25-1.06.17-.29.41-.51.73-.67.32-.15.7-.23,1.15-.23s.83.08,1.15.23c.32.15.56.38.73.67.17.29.25.65.25,1.06v4.58c0,.41-.08.76-.25,1.06-.17.29-.41.52-.73.67-.32.15-.7.23-1.15.23ZM75.24,94.28c.22,0,.39-.06.51-.19.12-.13.18-.3.18-.53v-4.22c0-.22-.06-.4-.18-.53-.12-.13-.29-.19-.51-.19s-.39.06-.51.19c-.12.13-.18.3-.18.53v4.22c0,.23.06.41.18.53.12.13.29.19.51.19Z"/>
      <path class="cls-5" d="M81.3,91.82l1.41-4.52h1.33v8.32h-1.26v-5.81l.09.37-1.21,3.97h-.71l-1.21-3.86.11-.48v5.81h-1.29v-8.32h1.36l1.38,4.52Z"/>
      <path class="cls-5" d="M85.36,95.62v-8.32h1.42v8.32h-1.42ZM86.02,92.39v-1.36h1.47c.18,0,.31-.06.41-.18.1-.12.15-.29.15-.5v-.98c0-.22-.05-.4-.15-.52-.1-.12-.24-.19-.42-.19h-1.47v-1.36h1.51c.42,0,.77.07,1.06.22s.51.36.67.64c.15.28.23.62.23,1.01v1.4c0,.39-.08.71-.23.99-.16.27-.38.48-.67.62-.29.14-.64.21-1.06.21h-1.51Z"/>
      <path class="cls-5" d="M89.86,95.62l1.99-8.32h1l1.99,8.32h-1.41l-1.08-5.45-1.08,5.45h-1.41ZM91.21,94.32v-1.33h2.27v1.33h-2.27Z"/>
      <path class="cls-5" d="M95.74,95.61v-8.32h1.12l1.96,5.55-.15.22v-5.78h1.29v8.32h-1.13l-1.93-5.23.15-.23v5.46h-1.3Z"/>
      <path class="cls-5" d="M105.28,87.29l-1.5,5.13v3.19h-1.42v-3.19l-1.56-5.13h1.48l.78,3.45.74-3.45h1.48Z"/>
    </g>
    <g>
      <g>
        <path class="cls-5" d="M56.58,99.54v-.78h2.38v.78h-2.38ZM57.36,103.51v-4.36h.81v4.36h-.81Z"/>
        <path class="cls-5" d="M60.6,103.56c-.26,0-.47-.04-.66-.13s-.32-.22-.42-.38-.14-.37-.14-.6v-2.62c0-.24.05-.44.14-.61s.24-.29.42-.38.4-.13.66-.13.47.04.66.13c.18.09.32.21.42.38.1.17.14.37.14.61v2.62c0,.24-.05.44-.14.6-.09.17-.23.29-.42.38-.18.09-.4.13-.66.13ZM60.6,102.75c.13,0,.22-.04.29-.11s.1-.17.1-.3v-2.41c0-.13-.03-.23-.1-.3s-.17-.11-.29-.11-.22.04-.29.11-.1.17-.1.3v2.41c0,.13.03.23.1.3s.17.11.29.11Z"/>
      </g>
      <line class="cls-6" x1="32.03" y1="101.04" x2="46.38" y2="101.04"/>
      <line class="cls-6" x1="72.22" y1="101.04" x2="86.57" y2="101.04"/>
    </g>
    <g>
      <path class="cls-5" d="M36.18,29.48c0-1.52-.01-1.81-.02-2.14-.01-.42-.16-.59-.46-.62-.12-.01-.27-.02-.38-.03-.16-.01-.19-.05-.19-.1,0-.08.08-.1.21-.1.63,0,1.15.03,1.66.03.68,0,1.3-.03,1.7-.03,2.19,0,2.6,1.02,2.6,1.6,0,.84-.58,1.38-1.26,1.73,1.09.33,2.01.99,2.01,2.25,0,1.15-1.08,2.29-3.14,2.29-.38,0-1.61-.06-1.92-.06-.46,0-.94.03-1.5.03-.15,0-.22-.03-.22-.1s.05-.1.21-.1c.13-.01.23-.02.31-.04.19-.03.3-.19.33-.57.04-.57.06-1.17.06-2.48v-1.53ZM37.97,31.24c0,.5-.01,1.22.02,1.75.02.33.06.47.27.57.23.13.48.17.68.17.54,0,1.18-.37,1.18-1.41,0-.54-.13-1.15-.61-1.6-.28-.27-.64-.37-.96-.39-.17-.01-.41-.01-.52,0-.04,0-.06.02-.06.07v.84ZM37.97,29.59c0,.08.04.09.09.1.17.03.51.04.65.04.24,0,.48-.04.62-.17.22-.18.34-.54.34-.98,0-.84-.41-1.54-1.23-1.54-.17,0-.29.02-.37.05-.06.02-.1.04-.1.19v2.31Z"/>
      <path class="cls-5" d="M43.93,29.48c0-1.61-.02-1.81-.03-2.14-.02-.42-.15-.56-.39-.61-.16-.03-.32-.03-.41-.04-.12-.01-.19-.05-.19-.11s.07-.09.23-.09c.45,0,1.44.03,1.59.03.2,0,1.19-.03,1.67-.03.97,0,1.66.09,2.11.35.5.27.94.8.94,1.59,0,.87-.5,1.53-1.39,2.08.63.91,1.39,2.02,2.02,2.75.55.61.8.79,1.09.83.11.02.18.02.26.03.11,0,.18.04.18.1,0,.09-.1.1-.21.1h-.93c-1.07,0-1.52-.1-1.89-.34-.33-.2-.66-.64-1.07-1.3-.48-.79-.71-1.21-.9-1.49-.02-.03-.07-.06-.12-.06h-.68c-.05,0-.08.02-.08.08v.53c0,.82,0,1.31.05,1.74.02.27.09.5.4.57.15.04.26.04.47.06.17.01.19.05.19.11s-.07.09-.22.09c-.69,0-1.82-.03-1.9-.03-.12,0-1.13.03-1.48.03-.16,0-.21-.03-.21-.1s.07-.1.19-.1c.1-.01.24-.02.35-.04.21-.05.29-.24.32-.59.04-.43.05-1.16.05-2.17v-1.82ZM45.72,30.17c0,.08.03.12.09.16.2.1.51.13.8.13s.49-.04.65-.17c.22-.17.4-.61.4-1.31,0-1.47-.93-1.85-1.47-1.85-.17,0-.34.01-.41.04-.04.02-.06.03-.06.11v2.88Z"/>
      <path class="cls-5" d="M52.29,29.48c0-1.61,0-1.91-.03-2.24-.02-.29-.13-.48-.36-.52-.07-.02-.18-.03-.31-.04-.12,0-.2-.04-.2-.11,0-.06.05-.09.23-.09.41,0,1.43.03,1.51.03.09,0,1.32-.03,1.69-.03.18,0,.23.04.23.1,0,.08-.09.1-.2.1-.1.01-.17.01-.3.03-.27.05-.37.19-.39.56-.03.33-.03.6-.03,2.21v1.82c0,.82.01,1.78.05,2.22.02.27.08.46.39.53.13.03.32.04.46.05.18,0,.22.04.22.1,0,.05-.05.1-.22.1-.7,0-1.81-.03-1.91-.03-.05,0-1.14.03-1.49.03-.17,0-.25-.02-.25-.1,0-.07.08-.1.21-.1.1-.01.21-.02.32-.04.22-.03.29-.26.32-.56.04-.43.06-1.18.06-2.2v-1.82Z"/>
      <path class="cls-5" d="M60.5,31.3c0,.81,0,1.77.05,2.21.02.27.09.49.4.54.13.02.26.03.45.05.17.01.21.04.21.11,0,.06-.05.09-.24.09-.7,0-1.71-.03-1.88-.03-.18,0-1.18.03-1.52.03-.17,0-.24-.02-.24-.1,0-.07.08-.1.21-.1.1-.01.22-.02.33-.04.23-.04.3-.27.33-.57.04-.44.06-1.18.06-2.19v-4.06c-.4,0-1.05-.01-1.56.02-.58.03-.81.17-.94.53-.05.11-.07.18-.09.24-.02.08-.05.17-.12.17-.09,0-.09-.08-.08-.21.04-.42.16-.98.23-1.38.02-.16.05-.26.11-.26.07,0,.11.03.35.08.19.04.76.07,1.15.07h4.51c.32,0,.51-.02.65-.04.17-.03.25-.06.32-.06.09,0,.1.06.1.32,0,.15-.06,1.11-.07,1.37-.01.15-.04.21-.1.21-.08,0-.1-.06-.11-.19-.01-.11-.01-.16-.02-.21-.04-.32-.2-.57-.81-.61-.34-.03-.88-.05-1.67-.05v4.06Z"/>
      <path class="cls-5" d="M65,29.48c0-1.61,0-1.91-.03-2.24-.02-.29-.13-.48-.36-.52-.07-.02-.18-.03-.31-.04-.12,0-.2-.04-.2-.11,0-.06.05-.09.23-.09.41,0,1.43.03,1.51.03.09,0,1.32-.03,1.69-.03.18,0,.23.04.23.1,0,.08-.09.1-.2.1-.1.01-.17.01-.3.03-.27.05-.37.19-.39.56-.03.33-.03.6-.03,2.21v1.82c0,.82,0,1.78.05,2.22.02.27.08.46.39.53.13.03.32.04.46.05.18,0,.22.04.22.1,0,.05-.05.1-.22.1-.7,0-1.81-.03-1.91-.03-.05,0-1.14.03-1.49.03-.17,0-.25-.02-.25-.1,0-.07.08-.1.21-.1.1-.01.21-.02.32-.04.22-.03.29-.26.32-.56.04-.43.06-1.18.06-2.2v-1.82Z"/>
      <path class="cls-5" d="M69.1,34.16c-.18-.07-.23-.21-.23-.41,0-.84.03-1.23.06-1.52.02-.19.06-.25.12-.25.07,0,.08.09.09.18.01.1.02.2.05.32.18.85.95,1.34,1.76,1.34.98,0,1.28-.51,1.28-.95s-.08-.8-.96-1.4l-.64-.45c-1.26-.89-1.62-1.62-1.62-2.53,0-1.19.98-2.16,2.64-2.16.45,0,.76.02,1.19.1.17.03.34.07.51.12.1.03.13.06.13.15-.02.33-.04.54-.04,1.46,0,.19-.03.26-.11.26-.05,0-.09-.03-.11-.2-.01-.1-.04-.36-.19-.6-.2-.33-.67-.68-1.42-.68-.85,0-1.16.48-1.16.95,0,.35.12.76.83,1.23l.53.35c1.45.96,1.91,1.61,1.91,2.65,0,.72-.32,1.42-1.1,1.88-.6.36-1.26.45-1.8.45-.78,0-1.33-.1-1.73-.29Z"/>
      <path class="cls-5" d="M80.81,29.66s.06-.02.06-.07v-.22c0-1.61,0-1.78-.02-2.11-.02-.3-.1-.48-.45-.55-.08-.01-.24-.02-.36-.03-.15,0-.2-.06-.2-.1,0-.06.05-.1.21-.1.6,0,1.53.03,1.64.03.09,0,1.28-.03,1.73-.03.16,0,.21.04.21.1,0,.05-.05.1-.16.1-.18.02-.24.02-.36.04-.27.04-.35.22-.38.55-.02.33-.02.6-.02,2.21v1.82c0,.98,0,1.75.05,2.19.03.34.11.52.42.57.15.02.35.03.46.04.12,0,.18.05.18.1,0,.07-.08.1-.21.1-.72,0-1.76-.03-1.95-.03-.17,0-.97.03-1.48.03-.19,0-.23-.05-.23-.11,0-.05.06-.09.2-.09.1-.01.23-.02.32-.04.25-.05.31-.25.34-.58.04-.44.06-1.09.06-2.07v-.84s-.03-.06-.06-.06h-3.23s-.06.01-.06.06v1.08c0,.98,0,1.41.05,1.85.03.3.12.5.43.55.22.03.32.04.44.05.11,0,.2.03.2.1,0,.05-.05.1-.21.1-.59,0-1.81-.03-1.92-.03-.09,0-1.18.03-1.51.03-.11,0-.23-.02-.23-.09s.04-.11.18-.11c.12-.01.19-.02.32-.04.25-.03.34-.3.36-.61.03-.43.05-1.16.05-2.14v-1.8c0-1.61-.01-1.84-.03-2.18-.02-.36-.13-.56-.5-.61-.13-.02-.18-.02-.29-.03-.19-.01-.21-.06-.21-.11,0-.07.11-.09.23-.09.6,0,1.4.03,1.64.03.39,0,1.26-.03,1.71-.03.19,0,.22.04.22.1,0,.05-.06.1-.19.1-.12.01-.26.02-.36.04-.28.06-.33.3-.35.6-.03.33-.03.76-.03,2.05v.22c0,.05.03.07.06.07h3.23Z"/>
      <path class="cls-5" d="M42.12,41.77c0,.81,0,1.77.05,2.21.02.27.09.49.4.54.13.02.26.03.45.05.17.01.21.04.21.11,0,.06-.05.09-.24.09-.7,0-1.71-.03-1.88-.03-.18,0-1.18.03-1.52.03-.17,0-.24-.02-.24-.1,0-.07.08-.1.21-.1.1-.01.22-.02.33-.04.23-.04.3-.27.33-.57.04-.44.06-1.18.06-2.19v-4.06c-.4,0-1.05-.01-1.56.02-.58.03-.81.17-.94.53-.05.11-.07.18-.09.24-.02.08-.05.17-.12.17-.09,0-.09-.08-.08-.21.04-.42.16-.98.23-1.38.02-.16.05-.26.11-.26.07,0,.11.03.35.08.19.04.76.07,1.15.07h4.51c.32,0,.51-.02.65-.04.17-.03.25-.06.32-.06.09,0,.1.06.1.32,0,.15-.06,1.11-.07,1.37-.01.15-.04.21-.1.21-.08,0-.1-.06-.11-.19-.01-.11-.01-.16-.02-.21-.04-.32-.2-.57-.81-.61-.34-.03-.88-.05-1.67-.05v4.06Z"/>
      <path class="cls-5" d="M46.62,39.94c0-1.61-.02-1.81-.03-2.14-.02-.42-.15-.56-.39-.61-.16-.03-.32-.03-.41-.04-.12-.01-.19-.05-.19-.11s.07-.09.23-.09c.45,0,1.44.03,1.59.03.2,0,1.19-.03,1.67-.03.97,0,1.66.09,2.11.35.5.27.94.8.94,1.59,0,.87-.5,1.53-1.39,2.08.63.91,1.39,2.02,2.02,2.75.55.61.8.79,1.09.83.11.02.18.02.26.03.11,0,.18.04.18.1,0,.09-.1.1-.21.1h-.93c-1.07,0-1.52-.1-1.89-.34-.33-.2-.66-.64-1.07-1.3-.48-.79-.71-1.21-.9-1.49-.02-.03-.07-.06-.12-.06h-.68c-.05,0-.08.02-.08.08v.53c0,.82,0,1.31.05,1.74.02.27.09.5.4.57.15.04.26.04.47.06.17.01.19.05.19.11s-.07.09-.22.09c-.69,0-1.82-.03-1.9-.03-.12,0-1.13.03-1.48.03-.16,0-.21-.03-.21-.1s.07-.1.19-.1c.1-.01.24-.02.35-.04.21-.05.29-.24.32-.59.04-.43.05-1.16.05-2.17v-1.82ZM48.41,40.64c0,.08.03.12.09.16.2.1.51.13.8.13s.49-.04.65-.17c.22-.17.4-.61.4-1.31,0-1.47-.93-1.85-1.47-1.85-.17,0-.34.01-.41.04-.04.02-.06.03-.06.11v2.88Z"/>
      <path class="cls-5" d="M55.89,42.63c-.05,0-.07.02-.09.07l-.32.85c-.1.27-.17.54-.17.66,0,.2.09.29.31.31.11.02.28.03.36.04.16,0,.19.05.19.1,0,.08-.08.1-.22.1-.47,0-.82-.03-1.37-.03-.11,0-.8.03-1.32.03-.15,0-.21-.04-.21-.1,0-.08.07-.1.2-.1.12-.01.23-.02.33-.04.36-.07.57-.39.79-.89l2.77-6.26c.2-.45.31-.6.42-.6.1,0,.2.14.37.52.27.58,2.01,4.55,2.72,6.12.35.81.58,1.06.94,1.11.11.03.24.03.33.04.13,0,.2.04.2.1,0,.07-.07.1-.27.1-1.02,0-2.2-.02-2.86-.03-.17,0-.23-.03-.23-.09s.05-.1.15-.12c.11-.02.16-.09.12-.19l-.69-1.65s-.05-.06-.08-.06h-2.37ZM57.96,41.8c.06,0,.06-.03.05-.05l-.91-2.22c-.03-.07-.05-.05-.07,0l-.88,2.22s.01.05.04.05h1.77Z"/>
      <path class="cls-5" d="M60.61,37.98c-.29-.64-.4-.74-.76-.81-.08-.02-.18-.03-.24-.03-.11-.02-.17-.06-.17-.11,0-.07.08-.09.22-.09.56,0,1.16.03,1.58.03.36,0,.92-.03,1.73-.03.16,0,.24.04.24.1s-.06.1-.16.1c-.12.01-.19.01-.28.03-.27.04-.31.16-.31.26,0,.13.06.34.24.79.49,1.26,1.14,2.81,1.61,4.02.43-.95,1.5-3.49,1.84-4.47.05-.11.08-.25.08-.34,0-.13-.06-.21-.25-.24-.12-.03-.3-.04-.41-.05-.13-.01-.19-.04-.19-.1s.05-.1.23-.1c.68,0,1.19.03,1.35.03s.83-.03,1.15-.03c.16,0,.23.03.23.1s-.05.1-.19.1c-.12.01-.29.01-.46.09-.22.1-.36.32-.65.93-.41.89-.79,1.73-1.38,3.05-.66,1.47-1.11,2.41-1.38,2.95-.3.61-.4.75-.54.75-.14,0-.23-.15-.42-.62l-2.71-6.31Z"/>
      <path class="cls-5" d="M69.34,39.94c0-1.69-.01-1.9-.03-2.23-.02-.3-.11-.48-.37-.54-.09-.02-.24-.02-.34-.03-.13-.01-.19-.05-.19-.11s.06-.09.23-.09c.59,0,1.09.03,1.54.03.22,0,2.76-.01,2.92-.01.21,0,.46-.02.56-.04.07-.02.12-.04.17-.04.05,0,.06.04.06.09s-.02.16-.05.46c-.03.21-.05.57-.08,1.11,0,.08-.04.15-.1.15-.05,0-.09-.05-.1-.15,0-.11-.01-.22-.05-.36-.05-.24-.19-.37-.68-.41-.34-.03-1.24-.05-1.55-.05-.06,0-.08.03-.08.1v2.28c0,.07,0,.12.08.12.29.01,1.13,0,1.5-.01.51-.02.64-.05.76-.24.06-.09.09-.13.14-.13.06,0,.06.06.06.12,0,.1-.05.48-.08.88-.01.24-.01.75-.01.86,0,.13-.03.2-.09.2-.07,0-.09-.07-.11-.17-.01-.08-.02-.16-.03-.24-.04-.3-.19-.48-.7-.51-.29-.02-1.14-.04-1.46-.04-.05,0-.06.05-.06.13v.72c0,.35-.01.96,0,1.36,0,.73.16.89,1.3.89.27,0,.67-.01.96-.12.29-.11.41-.34.51-.82.02-.12.06-.19.12-.19.08,0,.09.1.09.23,0,.4-.11,1.19-.17,1.39-.07.27-.14.28-.53.28-1.43,0-2.21-.06-3.3-.06-.49,0-.92.03-1.49.03-.19,0-.25-.03-.25-.1,0-.05.05-.1.21-.1.12-.01.23-.02.31-.04.29-.04.33-.44.35-1.09.02-.41.03-1.03.03-1.67v-1.82Z"/>
      <path class="cls-5" d="M77.97,41.78c0,1.05-.03,1.79.14,2.01.15.2.34.25,1.2.25.57,0,.9-.01,1.19-.17.25-.11.43-.38.54-.87.03-.11.05-.2.13-.2.07,0,.08.05.08.2,0,.24-.11,1.22-.22,1.52-.08.27-.17.28-.58.28-1.43,0-2.39-.06-3.49-.06-.49,0-1.05.03-1.62.03-.14,0-.23-.02-.23-.11,0-.06.06-.09.21-.09.12-.01.24-.02.35-.04.37-.06.38-.25.41-1.08.02-.41.03-1.04.03-1.68v-1.82c0-1.69-.01-1.88-.03-2.21-.02-.29-.09-.47-.35-.54-.09-.03-.25-.04-.4-.05-.11,0-.22-.02-.22-.1s.1-.1.31-.1c.59,0,1.13.03,1.53.03.09,0,1.38-.03,1.75-.03.19,0,.25.03.25.09,0,.09-.1.11-.25.11-.1.01-.21.01-.35.04-.28.05-.35.25-.37.61-.02.33-.03.54-.03,2.25v1.73Z"/>
      <path class="cls-5" d="M37.49,53.09c-.05,0-.07.02-.09.07l-.32.85c-.1.27-.17.54-.17.66,0,.2.09.29.31.31.11.02.28.03.36.04.16,0,.19.05.19.1,0,.08-.08.1-.22.1-.47,0-.82-.03-1.37-.03-.11,0-.8.03-1.32.03-.15,0-.21-.04-.21-.1,0-.08.07-.1.2-.1.12-.01.23-.02.33-.04.36-.07.57-.39.79-.89l2.77-6.26c.2-.45.31-.6.42-.6.1,0,.2.14.37.52.27.58,2.01,4.55,2.71,6.12.35.81.58,1.06.94,1.11.11.03.24.03.33.04.13,0,.2.04.2.1,0,.07-.07.1-.27.1-1.02,0-2.2-.02-2.86-.03-.17,0-.23-.03-.23-.09s.05-.1.15-.12c.11-.02.16-.09.12-.19l-.69-1.65s-.05-.06-.08-.06h-2.37ZM39.56,52.26c.06,0,.06-.03.05-.05l-.91-2.22c-.03-.07-.05-.05-.07,0l-.88,2.22s.01.05.04.05h1.77Z"/>
      <path class="cls-5" d="M42.32,48.42c-.17-.45-.28-.67-.52-.75-.13-.04-.23-.04-.33-.06-.12-.01-.17-.05-.17-.11s.07-.09.22-.09c.64,0,1.35.03,1.5.03.25,0,.98-.03,1.54-.03.15,0,.22.03.22.1s-.07.1-.17.1c-.1.01-.15.01-.26.04-.12.02-.19.1-.19.23,0,.13.1.46.25.93.11.37.89,2.79,1.23,3.68l1.83-4.69c.1-.27.19-.37.29-.37.13,0,.2.19.35.49l2.07,4.59c.3-.87.84-2.63,1.13-3.66.12-.42.21-.74.21-.88,0-.22-.08-.3-.63-.35-.09,0-.18-.04-.18-.09,0-.06.02-.11.22-.11.66,0,1.19.03,1.28.03.07,0,.81-.02,1.17-.02.12,0,.21.01.21.09,0,.06-.04.1-.17.1-.1.01-.18.01-.33.05-.3.06-.46.36-.73,1.1-.45,1.23-1.43,4.02-2.19,5.99-.12.34-.24.63-.41.63-.13,0-.22-.16-.38-.52l-2.07-4.45c-.42,1.06-1.35,3.26-1.87,4.37-.17.37-.29.59-.46.59-.13,0-.21-.16-.39-.64l-2.3-6.32Z"/>
      <path class="cls-5" d="M54.06,53.09c-.05,0-.07.02-.09.07l-.32.85c-.1.27-.17.54-.17.66,0,.2.09.29.31.31.11.02.28.03.36.04.16,0,.19.05.19.1,0,.08-.08.1-.22.1-.47,0-.82-.03-1.37-.03-.11,0-.8.03-1.32.03-.15,0-.21-.04-.21-.1,0-.08.07-.1.2-.1.12-.01.23-.02.33-.04.36-.07.57-.39.79-.89l2.77-6.26c.2-.45.31-.6.42-.6.1,0,.2.14.37.52.27.58,2.01,4.55,2.71,6.12.35.81.58,1.06.94,1.11.11.03.24.03.33.04.13,0,.2.04.2.1,0,.07-.07.1-.27.1-1.02,0-2.2-.02-2.86-.03-.17,0-.23-.03-.23-.09s.05-.1.15-.12c.11-.02.16-.09.12-.19l-.69-1.65s-.05-.06-.08-.06h-2.37ZM56.13,52.26c.06,0,.06-.03.05-.05l-.91-2.22c-.03-.07-.05-.05-.07,0l-.88,2.22s.01.05.04.05h1.77Z"/>
      <path class="cls-5" d="M61.22,50.41c0-1.61-.02-1.81-.03-2.14-.02-.42-.15-.56-.39-.61-.16-.03-.32-.03-.41-.04-.12-.01-.19-.05-.19-.11s.07-.09.23-.09c.45,0,1.44.03,1.59.03.2,0,1.19-.03,1.67-.03.97,0,1.66.09,2.11.35.5.27.94.8.94,1.59,0,.87-.5,1.53-1.39,2.08.63.91,1.39,2.02,2.02,2.75.55.61.8.79,1.09.83.11.02.18.02.26.03.11,0,.18.04.18.1,0,.09-.1.1-.21.1h-.93c-1.07,0-1.52-.1-1.89-.34-.33-.2-.66-.64-1.07-1.3-.48-.79-.72-1.21-.9-1.49-.02-.03-.07-.06-.12-.06h-.68c-.05,0-.08.02-.08.08v.53c0,.82,0,1.31.05,1.74.02.27.09.5.4.57.14.04.26.04.47.06.17.01.19.05.19.11s-.07.09-.22.09c-.69,0-1.82-.03-1.9-.03-.12,0-1.13.03-1.48.03-.16,0-.21-.03-.21-.1s.07-.1.19-.1c.1-.01.24-.02.35-.04.21-.05.29-.24.32-.59.04-.43.05-1.16.05-2.17v-1.82ZM63,51.1c0,.08.03.12.09.16.2.1.51.13.8.13s.49-.04.65-.17c.22-.17.4-.61.4-1.31,0-1.47-.93-1.85-1.47-1.85-.17,0-.34.01-.41.04-.04.02-.06.03-.06.11v2.88Z"/>
      <path class="cls-5" d="M69.57,50.41c0-1.52,0-1.81-.02-2.14-.02-.3-.07-.58-.47-.62-.08-.01-.19-.01-.38-.03-.16-.01-.2-.06-.2-.11,0-.06.06-.09.24-.09.26,0,1.21.03,1.67.03.34,0,.81-.01,1.68-.02,1.77.01,3.16.24,4.1,1.2.53.53,1,1.4,1,2.63s-.55,2.28-1.14,2.84c-.51.52-1.46,1.23-3.54,1.23-.41,0-.77-.01-1.11-.04-.4-.04-.83-.07-1.03-.07-.25,0-.5,0-.79.01-.29.01-.42.02-.71.02-.18,0-.21-.05-.21-.1,0-.07.08-.1.2-.1.13-.01.21-.02.32-.04.21-.03.31-.23.34-.63.03-.5.05-1.23.05-2.12v-1.82ZM71.4,51.57c0,1.1,0,1.81.02,2.01.02.42.06.63.18.75.19.23.61.37,1.07.37.73,0,1.34-.16,1.89-.73.54-.54.67-1.46.67-2.43s-.34-1.78-.78-2.37c-.71-.93-1.7-1.13-2.38-1.13-.23,0-.47.03-.56.08-.08.04-.09.09-.09.19.01.35,0,1.1,0,1.94v1.33Z"/>
      <path class="cls-5" d="M78.35,55.09c-.18-.07-.23-.21-.23-.41,0-.84.03-1.23.06-1.52.02-.19.06-.25.12-.25.07,0,.08.09.09.18.01.1.02.2.05.32.18.85.95,1.34,1.76,1.34.98,0,1.28-.51,1.28-.95s-.08-.8-.96-1.4l-.64-.45c-1.26-.89-1.62-1.62-1.62-2.53,0-1.19.98-2.16,2.64-2.16.45,0,.76.02,1.19.1.17.03.34.07.51.12.1.03.13.06.13.15-.02.33-.04.54-.04,1.46,0,.19-.03.26-.11.26-.05,0-.09-.03-.11-.2-.01-.1-.04-.36-.19-.6-.2-.33-.67-.68-1.42-.68-.85,0-1.16.48-1.16.95,0,.35.12.76.83,1.23l.53.35c1.45.96,1.91,1.61,1.91,2.65,0,.72-.32,1.42-1.1,1.88-.6.36-1.26.45-1.8.45-.78,0-1.33-.1-1.73-.29Z"/>
      <path class="cls-5" d="M46.42,65.67c-.11,0-.18-.05-.18-.13,0-.09.12-.18.32-.34.75-.64,3.26-2.37,3.26-4.83,0-1.81-.88-2.01-1.39-2.01-.41,0-.78.12-1.05.41-.21.24-.33.58-.35.89-.02.23-.07.29-.13.29s-.1-.06-.11-.26c-.01-.09-.06-1.04-.06-1.31,0-.13.02-.19.12-.26.42-.2,1.07-.4,2.1-.4,1.99,0,2.8.97,2.8,2.3,0,2.1-2.13,3.44-3.29,4.29-.06.04-.03.07.02.07h.57c.18,0,1.23-.02,1.82-.08.73-.07.93-.35,1.07-.83.03-.13.07-.19.13-.19.07,0,.09.05.09.2,0,.13-.17,1.51-.29,1.88-.1.28-.29.31-1.19.31h-4.27Z"/>
      <path class="cls-5" d="M56.09,65.85c-2.45,0-3.09-2.51-3.09-3.9,0-2.46,1.1-4.23,3.23-4.23s3.08,1.84,3.08,3.81c0,2.79-1.26,4.31-3.22,4.31ZM56.03,58.35c-.58,0-1.17.63-1.17,3.22,0,1.66.38,3.67,1.46,3.67.78,0,1.15-1.33,1.15-3.33,0-1.84-.36-3.56-1.44-3.56Z"/>
      <path class="cls-5" d="M59.73,65.67c-.11,0-.18-.05-.18-.13,0-.09.12-.18.32-.34.75-.64,3.26-2.37,3.26-4.83,0-1.81-.88-2.01-1.39-2.01-.41,0-.78.12-1.05.41-.21.24-.33.58-.35.89-.02.23-.07.29-.13.29s-.1-.06-.11-.26c-.01-.09-.06-1.04-.06-1.31,0-.13.02-.19.12-.26.43-.2,1.07-.4,2.1-.4,1.99,0,2.8.97,2.8,2.3,0,2.1-2.13,3.44-3.3,4.29-.06.04-.03.07.02.07h.57c.18,0,1.23-.02,1.82-.08.73-.07.93-.35,1.07-.83.03-.13.07-.19.13-.19.07,0,.09.05.09.2,0,.13-.17,1.51-.29,1.88-.1.28-.29.31-1.19.31h-4.27Z"/>
      <path class="cls-5" d="M66.37,63.76c-.23-.02-.35-.06-.35-.17,0-.12.08-.24.23-.43.36-.5,3.21-4.05,4.14-5,.29-.31.4-.44.54-.44.11,0,.15.08.15.42,0,.16-.01.52-.01,1.31v3.32h.58c.43-.01.65-.03.78-.1.05-.02.13-.03.13.07,0,.11-.13.68-.25.88-.06.11-.12.16-.35.16-.25.02-.6.02-.89.02,0,.32.02.78.03,1.03.03.31.05.56.43.62.15.03.26.04.37.04.08.01.17.03.17.1,0,.08-.05.11-.19.11-.59,0-1.44-.03-1.67-.03-.37,0-1.03.03-1.6.03-.11,0-.2-.03-.2-.1,0-.08.07-.1.17-.11.09,0,.17,0,.33-.02.46-.04.48-.32.5-.64.02-.29.02-.79.02-1.03-.72,0-2.67-.02-3.07-.04ZM69.44,60.28c-.36.46-1.6,2.03-1.93,2.48.39.02,1.32.01,1.93.01v-2.49Z"/>
    </g>
  </g>
</svg>