<?xml version="1.0" encoding="UTF-8"?><svg id="Layer_1" xmlns="http://www.w3.org/2000/svg" viewBox="0 0 467.85 500"><defs><style>.cls-1{fill:#c05a7e;stroke-width:0px;}</style></defs><g id="Knowledge"><path class="cls-1" d="m279.63,473.38c-4.96,8.5-11.8,15.14-19.61,19.65-6.96,4.07-14.73,6.39-22.5,6.88-7.89.49-15.87-1.02-23.15-4.52-4.96-2.44-9.6-5.82-13.71-10.21l78.98-11.8h0Z"/><path class="cls-1" d="m290.57,389.93l-2.56,12-.65,8.54-103.07,15.34c-.37-6.14-1.34-12.78-2.89-19.65l109.17-16.24h0Z"/><path class="cls-1" d="m287.16,429.19l.08,5.17.12,1.79c.28,3.38.33,6.8.12,10.17l-1.55,7.45-95.7,14.24-1.67-3.82-3.74-15.3-.08-4.44,102.42-15.26h0Z"/><path class="cls-1" d="m230.96,15.62c.12-4.44,1.99-8.38,4.96-11.19C238.82,1.67,242.8,0,247.12.04v-.04c.37,0,.73.04,1.1.08,4.03.33,7.65,2.16,10.25,4.88,2.77,2.89,4.44,6.84,4.39,11.19h.04c0,.28,0,.57-.04.81l-.85,34.06h.04c0,.37-.04.73-.08,1.1-.33,4.07-2.16,7.65-4.88,10.25-2.93,2.77-6.88,4.44-11.19,4.39v.04c-.37,0-.73-.04-1.1-.08-4.07-.33-7.65-2.16-10.25-4.88-2.77-2.93-4.44-6.88-4.39-11.19h-.04c0-.28,0-.57.04-.81l.81-34.22h0Z"/><path class="cls-1" d="m58.03,75.28c-3.21-3.01-4.92-7.04-5.09-11.11s1.26-8.22,4.23-11.43c3.01-3.21,7.04-4.92,11.11-5.09,4.07-.16,8.22,1.26,11.43,4.23l25.55,23.8c3.21,3.01,4.92,7.04,5.09,11.11.16,4.11-1.26,8.22-4.23,11.43-3.01,3.21-7.04,4.92-11.11,5.09-4.11.16-8.22-1.26-11.43-4.23l-25.55-23.8h0Z"/><path class="cls-1" d="m16.25,250.89c-4.31.08-8.26-1.59-11.19-4.31-2.97-2.81-4.88-6.71-5.05-11.15-.16-4.39,1.51-8.46,4.31-11.43,2.81-2.97,6.71-4.88,11.15-5l34.87-1.18c4.39-.16,8.46,1.51,11.43,4.31,2.97,2.81,4.88,6.71,5,11.15v.24h.04l-.04.57c-.08,4.11-1.71,7.81-4.31,10.62-2.81,2.97-6.71,4.84-11.15,5h-.24v.04h-.37l-34.46,1.14h0Z"/><path class="cls-1" d="m450.4,201.45l.53-.04c4.15-.24,8.02,1.1,11.03,3.54,3.17,2.56,5.33,6.39,5.82,10.74v.16s.04.45.04.53c.24,4.15-1.1,8.02-3.54,11.03-2.56,3.17-6.39,5.33-10.74,5.82l-34.71,3.66c-4.39.45-8.54-.94-11.68-3.5-3.17-2.56-5.37-6.39-5.82-10.74-.45-4.35.94-8.54,3.5-11.68,2.56-3.17,6.39-5.37,10.74-5.82,11.6-1.26,23.23-2.6,34.83-3.7h0Z"/><path class="cls-1" d="m381.68,62.58c2.48-3.66,6.14-5.94,10.13-6.75,3.99-.77,8.26-.04,11.96,2.4l.04.04c3.66,2.44,5.98,6.14,6.75,10.13.77,3.99.04,8.26-2.4,11.96l-19.41,29.01c-2.44,3.66-6.14,5.98-10.17,6.8-3.99.77-8.26.04-11.96-2.4-3.66-2.44-5.98-6.18-6.8-10.17-.77-3.99-.04-8.26,2.4-11.96l19.45-29.05h0Z"/><path class="cls-1" d="m268.03,218.06c.73,4.48.73,9-.28,13.46-1.02,4.32-2.77,8.27-5.22,11.85-2.48,3.46-5.61,6.51-9.43,8.98-3.75,2.49-7.98,4.03-12.45,4.76-4.48.74-9,.74-13.46-.28-4.32-1.02-8.27-2.77-11.85-5.21-3.46-2.48-6.51-5.61-8.98-9.4-2.49-3.74-4.03-7.98-4.76-12.45-.74-4.46-.74-8.98.28-13.46,1.02-4.31,2.77-8.26,5.21-11.84,2.49-3.46,5.65-6.52,9.45-9,3.82-2.48,7.98-4.11,12.45-4.8,4.46-.73,8.98-.73,13.46.28,4.31,1.02,8.26,2.77,11.84,5.22,3.46,2.48,6.51,5.61,9,9.43,2.48,3.75,4.03,7.98,4.76,12.45Z"/><path class="cls-1" d="m370.13,222.37c-.49-17.34-4.39-33.16-10.17-47.37-10.7-26.2-30.16-46.95-53.79-60.94-18.6-11-39.88-17.83-61.61-19.83-21.8-1.99-44.06.87-64.54,9.25-12.2,4.95-23.79,11.88-34.28,20.86-10.49,9-19.9,20.07-27.72,33.33-.08.15-.17.28-.25.45-11.95,23.03-17.45,45.32-17.66,66.97-.15,21.65,5.05,42.48,14.45,62.66,9.6,20.47,21.73,34.38,33.44,47.77,11.6,13.27,21.77,32.95,28.41,52.68,40.23-5.98,80.47-11.95,120.72-17.94,1.06-.17,2.11-.13,3.13.08,18.68-29.75,47.2-62.13,59.4-92.37,7.98-19.69,10.96-38.33,10.47-55.62Zm-50.25,3.46c-1.3,1.75-3.02,2.9-5.33,3.34l-13.6,2.32c-.45,2.88-1.01,5.61-1.75,8.54-.73,2.94-1.58,5.65-2.76,8.26l10.54,7.25c1.88,1.47,2.88,3.3,3.33,5.5.45,2.2,0,4.35-1.3,6.23l-9.96,14.19c-1.3,1.88-3.01,3.02-5.33,3.47-2.32.41-4.35-.17-6.23-1.47l-11.43-7.98c-2.32,1.75-4.76,3.46-7.25,4.93-2.48,1.54-5.04,2.84-7.81,4.03l2.2,12.44c.45,2.32-.17,4.37-1.47,6.23-1.41,1.83-3.13,2.85-5.33,3.3l-17.04,3.05c-2.32.45-4.31,0-6.23-1.3-1.71-1.3-2.84-3.01-3.29-5.33l-2.32-13.59c-2.94-.45-5.61-1.02-8.55-1.75-2.92-.74-5.61-1.6-8.26-2.77l-7.4,10.54c-1.47,1.83-3.3,2.85-5.5,3.3-2.2.45-4.31,0-6.23-1.3l-14.2-9.98c-1.86-1.3-3.01-3.13-3.46-5.33-.41-2.15.17-4.18,1.47-6.06l7.98-11.39c-1.71-2.32-3.46-4.76-4.93-7.25-1.54-2.48-2.85-5.04-4.03-7.81l-12.45,2.2c-2.31.45-4.31-.17-6.23-1.47-1.82-1.43-2.84-3.13-3.29-5.33l-3.05-17.04c-.45-2.32,0-4.31,1.3-6.23,1.3-1.71,3.01-2.85,5.33-3.3l13.59-2.31c.45-2.94,1.02-5.63,1.75-8.55.73-2.92,1.58-5.65,2.77-8.26l-10.38-7.36c-1.9-1.32-3.05-3.02-3.5-5.33-.41-2.2.17-4.37,1.47-6.23l9.85-14.05c1.3-1.9,3.13-3.05,5.33-3.5,2.15-.45,4.14.17,6.06,1.47l11.56,7.98c2.15-1.71,4.59-3.46,7.08-4.93,2.48-1.54,5.04-2.84,7.81-4.03l-2.2-12.44c-.41-2.32.15-4.32,1.47-6.23,1.41-1.88,3.12-2.9,5.32-3.34l17.06-3.05c2.32-.45,4.31,0,6.23,1.3,1.71,1.3,2.84,3.01,3.29,5.33l2.32,13.59c2.92.45,5.61,1.02,8.55,1.75,2.92.74,5.61,1.6,8.26,2.77l7.36-10.41c1.3-1.88,3.13-3.02,5.33-3.47s4.35.17,6.23,1.47l.41-.04,14.04,9.85c1.88,1.3,3.02,3.13,3.47,5.33.41,2.15-.17,4.18-1.47,6.06l-7.98,11.56c1.71,2.15,3.46,4.44,4.93,7.08,1.54,2.6,2.84,5.16,4.03,7.81l12.44-2.2c2.32-.45,4.32.17,6.23,1.47,1.83,1.43,2.85,3.13,3.3,5.33l3.05,17.04c.41,2.32,0,4.31-1.18,6.1Z"/><path class="cls-1" d="m267.75,231.52c-1.02,4.32-2.77,8.27-5.22,11.85-2.48,3.46-5.61,6.51-9.43,8.98-3.75,2.49-7.98,4.03-12.45,4.76-4.48.74-9,.74-13.46-.28-4.32-1.02-8.27-2.77-11.85-5.21-3.46-2.48-6.51-5.61-8.98-9.4-2.49-3.74-4.03-7.98-4.76-12.45-.74-4.46-.74-8.98.28-13.46,1.02-4.31,2.77-8.26,5.21-11.84,2.49-3.46,5.65-6.52,9.45-9,3.82-2.48,7.98-4.11,12.45-4.8,4.46-.73,8.98-.73,13.46.28,4.31,1.02,8.26,2.77,11.84,5.22,3.46,2.48,6.51,5.61,9,9.43,2.48,3.75,4.03,7.98,4.76,12.45.73,4.48.73,9-.28,13.46Z"/><path class="cls-1" d="m267.75,231.52c-1.02,4.32-2.77,8.27-5.22,11.85-2.48,3.46-5.61,6.51-9.43,8.98-3.75,2.49-7.98,4.03-12.45,4.76-4.48.74-9,.74-13.46-.28-4.32-1.02-8.27-2.77-11.85-5.21-3.46-2.48-6.51-5.61-8.98-9.4-2.49-3.74-4.03-7.98-4.76-12.45-.74-4.46-.74-8.98.28-13.46,1.02-4.31,2.77-8.26,5.21-11.84,2.49-3.46,5.65-6.52,9.45-9,3.82-2.48,7.98-4.11,12.45-4.8,4.46-.73,8.98-.73,13.46.28,4.31,1.02,8.26,2.77,11.84,5.22,3.46,2.48,6.51,5.61,9,9.43,2.48,3.75,4.03,7.98,4.76,12.45.73,4.48.73,9-.28,13.46Z"/></g></svg>