<?xml version="1.0" encoding="UTF-8"?>
<svg id="Layer_1" xmlns="http://www.w3.org/2000/svg" version="1.1" xmlns:xlink="http://www.w3.org/1999/xlink" viewBox="0 0 500 500">
  <!-- Generator: Adobe Illustrator 29.2.1, SVG Export Plug-In . SVG Version: 2.1.0 Build 116)  -->
  <defs>
    <style>
      .st0 {
        font-family: Protipo-Extrabold, Protipo;
        font-size: 227.1px;
        font-weight: 700;
        letter-spacing: 0em;
      }

      .st0, .st1 {
        display: none;
      }

      .st0, .st2 {
        fill: #495f71;
      }
    </style>
  </defs>
  <g>
    <g>
      <g>
        <g>
          <g>
            <path class="st2" d="M274,414.6s-.4.6-1.2,1.4c-.8.8-1.9,1.8-3.5,2.7-1.6.9-3.5,1.7-6,2.1-1.2.2-2.6.4-4,.5-1.5.1-3.1.2-4.9.3-.7,0-.9,0-.8,0s.6-.1,1.3-.2c.8-.2,1.8-.4,3-.8,1.2-.3,2.6-.8,4-1.3s2.9-1,4.3-1.6c1.4-.5,2.7-1.1,3.9-1.5,1.2-.5,2.1-.9,2.8-1.2.7-.3,1.1-.4,1.1-.4Z"/>
            <path class="st2" d="M275.5,425s-.6-.4-1.6-1c-1-.5-2.5-1.2-4.2-1.7-1.8-.5-3.9-.8-6.3-.9h-4.1c-1.5,0-3.1.1-4.9.2-.7,0-.9,0-.8,0s.6.1,1.4.2c.8.1,1.8.3,3.1.5,1.4.3,2.8.5,4.2.8,1.5.3,3.1.6,4.6.8,1.5.2,3,.5,4.3.6,1.3.2,2.4.3,3.2.4.7.1,1.1.1,1.1.1Z"/>
          </g>
          <g>
            <path class="st2" d="M293,406.2s-.2.9-.8,2.2c-.5,1.3-1.4,3-2.7,4.6-1.3,1.6-3,3.1-5.3,4.2s-5.1,1.8-8.7,2.2c-1.5-.7-1.2-1.5.1-2.6.7-.5,1.6-1.2,2.7-1.9,1.1-.7,2.3-1.4,3.6-2.2,1.3-.8,2.6-1.6,3.9-2.3,1.3-.8,2.5-1.5,3.5-2.1,1.1-.6,2-1.1,2.6-1.5.7-.4,1.1-.6,1.1-.6Z"/>
            <path class="st2" d="M298.2,424.3s-.7-.6-1.9-1.4c-1.2-.8-2.9-1.8-4.8-2.6-2-.8-4.2-1.4-6.8-1.5-1.3-.1-2.6,0-4.1.2s-3.1.5-4.9.9c-.6.6-.8,1-.6,1.4.2.4.7.7,1.5,1s2,.6,3.3.9,2.8.5,4.4.7,3.2.3,4.8.4c1.6.1,3.1.1,4.5.1,2.6.1,4.6-.1,4.6-.1Z"/>
          </g>
          <g>
            <path class="st2" d="M310.6,396.4s0,1.1-.2,2.7-.7,3.8-1.6,6c-.9,2.1-2.2,4.3-4.3,5.9-2,1.7-4.7,2.9-8.3,3.4-1.8-1.2-1.8-2.6-.7-4.4.5-.9,1.3-1.8,2.2-2.8.9-1,2-2,3.1-3s2.3-2,3.4-3c1.1-.9,2.2-1.8,3.1-2.5s1.7-1.4,2.3-1.8c.7-.2,1-.5,1-.5Z"/>
            <path class="st2" d="M320.7,419.8s-.9-.7-2.3-1.6-3.4-2.1-5.6-3-4.7-1.6-7.3-1.6-5.5.6-8.9,2c-.4,1-.5,1.8-.2,2.4.3.7,1,1.2,1.9,1.6,1.9.8,4.9,1.3,8.2,1.5,1.7.1,3.4,0,5,0,1.6-.1,3.2-.2,4.5-.4,1.4-.2,2.5-.4,3.3-.5.9-.3,1.4-.4,1.4-.4Z"/>
          </g>
          <g>
            <path class="st2" d="M326.8,385.2s.2,1.2.4,3.1c.1,1.9.1,4.4-.3,6.9s-1.3,5.1-3,7.2-4.1,3.7-7.7,4.6c-2.2-1.5-2.5-3.4-1.9-5.6.3-1.1.9-2.3,1.6-3.5s1.6-2.4,2.5-3.6,1.9-2.4,2.9-3.5,1.9-2.1,2.7-2.9c.8-.9,1.5-1.6,2-2,.5-.4.8-.7.8-.7Z"/>
            <path class="st2" d="M342.5,411.7s-1-.7-2.7-1.7-4-2.2-6.5-3.1-5.2-1.6-7.9-1.5c-2.7.1-5.5,1-8.6,3-.4,2.6.7,4.2,2.8,5.2,1.1.5,2.4.8,3.9,1s3.2.2,4.9.1c1.7-.1,3.4-.3,5.1-.6,1.6-.3,3.2-.6,4.5-1s2.5-.7,3.3-1c.7-.2,1.2-.4,1.2-.4Z"/>
          </g>
          <g>
            <path class="st2" d="M341.4,372.7s.5,1.3,1,3.3,1,4.7,1.1,7.5-.3,5.7-1.6,8.1c-1.3,2.5-3.5,4.5-7,5.7-2.6-1.6-3.4-3.8-3.2-6.3.1-1.3.4-2.6.9-4s1.1-2.8,1.9-4.1c.7-1.4,1.5-2.7,2.3-3.9.8-1.2,1.5-2.3,2.2-3.3.7-.9,1.3-1.7,1.7-2.2.5-.5.7-.8.7-.8Z"/>
            <path class="st2" d="M363,400.3s-1.2-.7-3.2-1.6c-1.9-.9-4.5-2-7.3-2.8s-5.7-1.3-8.5-1-5.5,1.5-8.2,4c.2,3.1,1.7,4.8,4.1,5.8,1.2.5,2.7.7,4.2.8,1.6.1,3.3,0,5-.3,3.4-.5,6.9-1.6,9.5-2.7,2.7-1.2,4.4-2.2,4.4-2.2Z"/>
          </g>
          <g>
            <path class="st2" d="M354.6,358.9s.7,1.3,1.6,3.3,1.9,4.8,2.4,7.7c.6,2.9.7,6-.2,8.7-.9,2.7-2.7,5-6.1,6.6-3-1.6-4.3-3.9-4.6-6.6-.3-2.7.4-5.8,1.4-8.7.5-1.5,1.1-2.9,1.7-4.2.6-1.3,1.2-2.5,1.8-3.5,1.1-2,2-3.3,2-3.3Z"/>
            <path class="st2" d="M381.7,385.8s-1.4-.6-3.5-1.4-5-1.7-8-2.3c-3-.6-6.1-.9-8.9-.3s-5.4,2-7.7,4.9c.4,1.6,1.1,2.9,2,3.9s2.1,1.6,3.4,2c2.7.8,6.1.5,9.6-.4,1.7-.5,3.4-1.1,5-1.8,1.6-.7,3-1.4,4.2-2.1,2.3-1.3,3.9-2.5,3.9-2.5Z"/>
          </g>
          <g>
            <path class="st2" d="M366.1,344s.9,1.2,2.1,3.2,2.7,4.6,3.7,7.5,1.7,6,1.2,8.9c-.4,2.9-2,5.4-5.2,7.4-3.4-1.4-5.1-3.7-5.9-6.5-.8-2.7-.6-6,0-9s1.6-5.9,2.4-8c.4-1.1.8-1.9,1.1-2.5.4-.7.6-1,.6-1Z"/>
            <path class="st2" d="M398.2,368.5s-1.5-.5-3.8-1-5.4-1.2-8.5-1.5c-3.2-.3-6.4-.3-9.2.6-2.8.9-5.2,2.6-7.1,5.8.7,1.7,1.6,3,2.7,3.9s2.4,1.5,3.9,1.8c2.9.6,6.4-.1,9.7-1.4,3.3-1.3,6.4-3.3,8.7-5.1,1.1-.9,2-1.7,2.7-2.2.5-.5.9-.9.9-.9Z"/>
          </g>
          <g>
            <path class="st2" d="M375.9,328.1s1.1,1.1,2.6,2.9,3.3,4.3,4.8,7.1c1.5,2.8,2.6,5.8,2.5,8.8,0,2.9-1.2,5.7-4.2,8-3.7-1.1-5.8-3.2-7-5.9-1.2-2.7-1.5-5.9-1.3-9,.1-1.5.3-3,.5-4.4.3-1.4.6-2.7.9-3.8.3-1.1.6-2,.8-2.6.3-.7.4-1.1.4-1.1Z"/>
            <path class="st2" d="M412,349s-1.6-.3-4-.6c-2.4-.3-5.6-.5-8.9-.5-3.2.1-6.5.4-9.3,1.6-2.7,1.2-4.9,3.2-6.3,6.7,2,3.3,4.6,4.8,7.7,5.1,3,.3,6.5-.8,9.6-2.5,1.6-.9,3.1-1.9,4.4-3s2.5-2.2,3.5-3.2,1.8-1.9,2.3-2.6c.7-.6,1-1,1-1Z"/>
          </g>
          <g>
            <path class="st2" d="M384,311.4s1.3,1,3,2.6,3.9,3.9,5.7,6.4c1.8,2.6,3.3,5.5,3.7,8.4.4,2.9-.4,5.8-3.1,8.4-3.9-.6-6.4-2.6-8-5.1s-2.3-5.7-2.5-8.8c-.1-1.5-.1-3,0-4.4s.2-2.7.4-3.8c.4-2.3.8-3.7.8-3.7Z"/>
            <path class="st2" d="M422.9,327.6s-1.6-.1-4,0c-2.4,0-5.7.2-8.9.7-3.2.5-6.5,1.3-9.1,2.8s-4.5,3.7-5.4,7.4c2.5,3,5.4,4.3,8.5,4.2,3.1-.1,6.4-1.6,9.3-3.7s5.4-4.9,7-7.2c1.6-2.4,2.6-4.2,2.6-4.2Z"/>
          </g>
          <g>
            <path class="st2" d="M390.3,293.8s1.3.8,3.2,2.2c1.9,1.4,4.3,3.3,6.4,5.6,2.1,2.3,4,5,4.7,7.8s.4,5.8-2,8.8c-4-.1-6.7-1.8-8.7-4.1-1.9-2.3-3-5.4-3.6-8.4-.3-1.5-.5-3-.5-4.4-.1-1.4-.1-2.7,0-3.8.2-2.1.5-3.7.5-3.7Z"/>
            <path class="st2" d="M430.5,304.9s-1.6.1-4,.5-5.5.9-8.6,1.8-6.2,2.1-8.6,3.9-4,4.3-4.4,8.1c2.9,2.7,6,3.6,9.1,3.1s6.1-2.4,8.7-4.9c1.3-1.3,2.4-2.7,3.4-4.1s1.8-2.8,2.5-4.1c.7-1.2,1.1-2.3,1.5-3.1.2-.8.4-1.2.4-1.2Z"/>
          </g>
          <g>
            <path class="st2" d="M394.7,275.7s1.4.6,3.3,1.7c2,1.1,4.5,2.7,6.8,4.7s4.4,4.4,5.5,7.1,1.1,5.7-.9,8.9c-3.9.4-6.8-.9-9-2.9-2.2-2.1-3.6-4.9-4.5-7.8-.4-1.4-.8-2.9-1-4.3s-.3-2.7-.4-3.8c0-2.1.2-3.6.2-3.6Z"/>
            <path class="st2" d="M434.7,281.3s-1.5.3-3.7,1-5.2,1.7-8.1,3-5.8,2.9-7.8,5c-2.1,2.1-3.4,4.8-3.3,8.6,3.2,2.3,6.3,2.8,9.3,1.9,2.9-.9,5.7-3.2,7.8-6,1.1-1.4,2-3,2.8-4.5s1.4-3,1.8-4.3c.9-2.7,1.2-4.7,1.2-4.7Z"/>
          </g>
          <g>
            <path class="st2" d="M397.1,257s1.4.4,3.3,1.3c2,.9,4.5,2.1,7,3.8,2.4,1.7,4.7,3.8,6,6.4,1.3,2.5,1.7,5.5.2,9-3.7.9-6.7,0-9-1.7s-4-4.4-5.1-7.1c-.6-1.4-1-2.8-1.3-4.1-.3-1.3-.6-2.6-.7-3.7-.3-2.3-.4-3.9-.4-3.9Z"/>
            <path class="st2" d="M435.4,257.5s-1.4.5-3.4,1.5c-2,.9-4.6,2.3-7.2,3.9-2.6,1.7-5.1,3.6-6.8,6-1.7,2.4-2.6,5.2-2.1,8.9,3.3,1.9,6.4,2,9.2.7,2.7-1.3,5-3.9,6.6-7,.8-1.5,1.5-3.2,2-4.8.5-1.6.9-3.2,1.1-4.5.6-2.7.6-4.7.6-4.7Z"/>
          </g>
          <g>
            <path class="st2" d="M397.7,238s1.3.3,3.1.9c1.9.6,4.4,1.6,6.8,3s4.8,3.2,6.3,5.6c.8,1.2,1.3,2.5,1.6,4,.2,1.5.2,3.1-.3,4.9-3.4,1.4-6.3.9-8.7-.5-2.4-1.4-4.2-3.9-5.5-6.5-.7-1.3-1.2-2.7-1.6-4s-.8-2.5-1-3.6c-.3-1.1-.4-2-.5-2.7s-.2-1.1-.2-1.1Z"/>
            <path class="st2" d="M432.6,234s-1.2.7-2.8,1.8c-1.7,1.2-3.9,2.8-6,4.7s-4.2,4.2-5.5,6.7c-1.3,2.6-1.8,5.5-.9,9.1,3.4,1.4,6.3,1.1,8.7-.5,2.4-1.6,4.2-4.5,5.2-7.7,1.1-3.2,1.5-6.8,1.6-9.5,0-1.4,0-2.5-.1-3.4-.1-.7-.2-1.2-.2-1.2Z"/>
          </g>
          <g>
            <path class="st2" d="M396.4,218.8s1.1.2,2.8.6c1.7.4,4,1.2,6.3,2.3s4.6,2.7,6.3,4.9c1.7,2.2,2.7,5,2.3,8.7-2.9,1.7-5.6,1.6-7.9.5-1.2-.6-2.2-1.4-3.2-2.4-.9-1-1.8-2.2-2.5-3.4s-1.3-2.5-1.9-3.8c-.5-1.3-.9-2.5-1.3-3.6-.6-2.3-.9-3.8-.9-3.8Z"/>
            <path class="st2" d="M426.4,211.3s-.9.8-2.2,2.1c-1.3,1.3-3,3.1-4.6,5.3-1.6,2.1-3.1,4.6-3.9,7.2-.8,2.7-.9,5.6.4,9.1,3.2,1,5.9.4,7.8-1.5,1-.9,1.7-2.1,2.4-3.6.6-1.4,1-3,1.3-4.6.5-3.3.3-6.8-.1-9.5-.2-1.3-.4-2.5-.6-3.3-.4-.7-.5-1.2-.5-1.2Z"/>
          </g>
          <g>
            <path class="st2" d="M393,199.4s1,.1,2.4.4c1.5.3,3.5.9,5.6,1.9s4.3,2.3,6.1,4.3c1.8,2,3.1,4.7,3.2,8.4-2.3,2-4.7,2.2-6.9,1.2-2.1-.9-4.1-3-5.6-5.4-.8-1.2-1.5-2.5-2-3.7-.6-1.2-1.1-2.4-1.5-3.5-.8-2-1.3-3.6-1.3-3.6Z"/>
            <path class="st2" d="M416.8,190.1s-.6.8-1.4,2.1-1.9,3.2-2.9,5.4-1.9,4.7-2.2,7.4c-.3,2.7,0,5.6,1.7,9,3,.7,5.2-.2,6.6-2.2s1.9-5.1,1.8-8.3c-.1-1.6-.3-3.3-.7-4.8-.3-1.6-.8-3-1.2-4.3-.4-1.3-.9-2.3-1.2-3.1-.3-.8-.5-1.2-.5-1.2Z"/>
          </g>
          <g>
            <path class="st2" d="M387.6,180s.7.1,1.9.4c1.2.3,2.8.9,4.7,1.8,1.8.9,3.8,2.1,5.6,4,1.8,1.9,3.4,4.4,4.1,8-.8,1.1-1.7,1.7-2.6,1.9s-1.9.1-2.9-.3c-1.9-.8-3.8-2.8-5.4-5.1-.8-1.2-1.5-2.4-2.2-3.6-.7-1.2-1.2-2.4-1.7-3.5-.2-.5-.5-1-.6-1.5-.2-.4-.3-.8-.5-1.2-.2-.5-.4-.9-.4-.9Z"/>
            <path class="st2" d="M404.2,170.9s-.3.7-.6,2c-.3,1.3-.8,3-1.1,5.1-.3,2.1-.5,4.5-.2,7.1s1.1,5.4,3,8.6c2.6.5,4.3-.6,5.1-2.6.8-2,.6-5-.2-8-.4-1.5-1-3-1.6-4.5-.6-1.4-1.3-2.8-2-3.9-.3-.6-.6-1.1-.9-1.5-.3-.5-.6-.9-.8-1.2-.4-.8-.7-1.1-.7-1.1Z"/>
          </g>
          <g>
            <path class="st2" d="M380.1,160.7s.5.2,1.4.7,2.1,1.2,3.6,2.1c1.5,1,3.3,2.2,5,4,.9.9,1.8,1.9,2.6,3.1.8,1.2,1.6,2.6,2.3,4.4-.4,1-1,1.6-1.6,1.9-.7.2-1.4.1-2.3-.2-.8-.4-1.7-1.1-2.5-1.9s-1.7-1.9-2.5-3.1c-.8-1.1-1.6-2.4-2.3-3.6-.7-1.2-1.4-2.4-1.9-3.5-1.1-2.3-1.8-3.9-1.8-3.9Z"/>
            <path class="st2" d="M388.6,154.4s.1.6.3,1.6c.2,1,.5,2.4.9,4.2s.9,3.9,1.8,6.3c.9,2.4,2.1,5,4.4,7.9,2.1.4,3.3-.6,3.4-2.5.1-.9-.1-2.1-.5-3.3s-1-2.6-1.8-3.9c-.7-1.3-1.6-2.6-2.6-3.9-.9-1.2-1.9-2.3-2.7-3.3-.9-.9-1.6-1.7-2.2-2.3-.6-.5-1-.8-1-.8Z"/>
          </g>
          <g>
            <path class="st2" d="M370.9,141s.1.1.2.3.3.5.5.9.5.9.9,1.4.9,1.1,1.4,1.7c1.1,1.3,2.5,2.7,4.2,4.5s3.6,4,5.6,7.1c0,.8-.2,1.3-.6,1.4-.4.1-.9,0-1.6-.5-1.3-.9-2.9-3-4.4-5.4-.8-1.2-1.5-2.6-2.3-3.8-.7-1.3-1.4-2.6-2-3.7-.6-1.1-1.1-2.1-1.4-2.8-.3-.6-.5-1.1-.5-1.1Z"/>
            <path class="st2" d="M370.9,141s.1.1.3.2.5.3.9.6c.7.6,1.7,1.4,2.8,2.7,1.1,1.3,2.3,2.9,3.7,5,1.4,2,3.1,4.4,5.5,7.2,1.6.6,2.1-.2,1.5-1.8-.5-1.5-2.2-3.7-4.2-5.8-1-1.1-2.2-2.1-3.4-3.1-1.2-1-2.3-1.8-3.4-2.6-1-.7-2-1.3-2.6-1.7-.3-.2-.6-.4-.8-.5-.2,0-.3-.2-.3-.2Z"/>
          </g>
        </g>
        <g>
          <g>
            <path class="st2" d="M224.5,425s.6-.4,1.6-1c1-.5,2.5-1.2,4.2-1.7,1.8-.5,3.9-.8,6.3-.9h4.1c1.5,0,3.1.1,4.9.2.7,0,.9,0,.8,0s-.6.1-1.4.2c-.8.1-1.8.3-3.1.5-1.4.3-2.8.5-4.2.8-1.5.3-3.1.6-4.6.8-1.5.2-3,.5-4.3.6-1.3.2-2.4.3-3.2.4-.7.1-1.1.1-1.1.1Z"/>
            <path class="st2" d="M226,414.6s.4.6,1.2,1.4,1.9,1.8,3.5,2.7c1.6.9,3.5,1.7,6,2.1,1.2.2,2.6.4,4,.5,1.5.1,3.1.2,4.9.3.7,0,.9,0,.8,0s-.6-.1-1.3-.2c-.8-.2-1.8-.4-3-.8-1.2-.3-2.6-.8-4-1.3s-2.9-1-4.3-1.6c-1.4-.5-2.7-1.1-3.9-1.5-1.2-.5-2.1-.9-2.8-1.2-.7-.3-1.1-.4-1.1-.4Z"/>
          </g>
          <g>
            <path class="st2" d="M201.8,424.3s.7-.6,1.9-1.4,2.9-1.8,4.8-2.6c2-.8,4.2-1.4,6.8-1.5,1.3-.1,2.6,0,4.1.2s3.1.5,4.9.9c.6.6.8,1,.6,1.4s-.7.7-1.5,1-2,.6-3.3.9-2.8.5-4.4.7c-1.6.2-3.2.3-4.8.4s-3.1.1-4.5.1c-2.6.1-4.6-.1-4.6-.1Z"/>
            <path class="st2" d="M207,406.2s.2.9.8,2.2c.5,1.3,1.4,3,2.7,4.6s3,3.1,5.3,4.2,5.1,1.8,8.7,2.2c1.5-.7,1.2-1.5-.1-2.6-.7-.5-1.6-1.2-2.7-1.9-1.1-.7-2.3-1.4-3.6-2.2-1.3-.8-2.6-1.6-3.9-2.3-1.3-.8-2.5-1.5-3.5-2.1-1.1-.6-2-1.1-2.6-1.5-.7-.4-1.1-.6-1.1-.6Z"/>
          </g>
          <g>
            <path class="st2" d="M179.3,419.8s.9-.7,2.3-1.6c1.4-.9,3.4-2.1,5.6-3,2.2-.9,4.7-1.6,7.3-1.6s5.5.6,8.9,2c.4,1,.5,1.8.2,2.4-.3.7-1,1.2-1.9,1.6-1.9.8-4.9,1.3-8.2,1.5-1.7.1-3.4,0-5,0-1.6-.1-3.2-.2-4.5-.4-1.4-.2-2.5-.4-3.3-.5-.9-.3-1.4-.4-1.4-.4Z"/>
            <path class="st2" d="M189.4,396.4s0,1.1.2,2.7.7,3.8,1.6,6c.9,2.1,2.2,4.3,4.3,5.9,2,1.7,4.7,2.9,8.3,3.4,1.8-1.2,1.8-2.6.7-4.4-.5-.9-1.3-1.8-2.2-2.8s-2-2-3.1-3-2.3-2-3.4-3c-1.1-.9-2.2-1.8-3.1-2.5-.9-.7-1.7-1.4-2.3-1.8-.7-.2-1-.5-1-.5Z"/>
          </g>
          <g>
            <path class="st2" d="M157.5,411.7s1-.7,2.7-1.7,4-2.2,6.5-3.1,5.2-1.6,7.9-1.5,5.5,1,8.6,3c.4,2.6-.7,4.2-2.8,5.2-1.1.5-2.4.8-3.9,1s-3.2.2-4.9.1-3.4-.3-5.1-.6c-1.6-.3-3.2-.6-4.5-1s-2.5-.7-3.3-1c-.7-.2-1.2-.4-1.2-.4Z"/>
            <path class="st2" d="M173.2,385.2s-.2,1.2-.4,3.1c-.1,1.9-.1,4.4.3,6.9.4,2.5,1.3,5.1,3,7.2s4.1,3.7,7.7,4.6c2.2-1.5,2.5-3.4,1.9-5.6s-.9-2.3-1.6-3.5c-.7-1.2-1.6-2.4-2.5-3.6s-1.9-2.4-2.9-3.5-1.9-2.1-2.7-2.9c-.8-.9-1.5-1.6-2-2-.5-.4-.8-.7-.8-.7Z"/>
          </g>
          <g>
            <path class="st2" d="M137,400.3s1.2-.7,3.2-1.6c1.9-.9,4.5-2,7.3-2.8s5.7-1.3,8.5-1,5.5,1.5,8.2,4c-.2,3.1-1.7,4.8-4.1,5.8-1.2.5-2.7.7-4.2.8-1.6.1-3.3,0-5-.3-3.4-.5-6.9-1.6-9.5-2.7-2.7-1.2-4.4-2.2-4.4-2.2Z"/>
            <path class="st2" d="M158.6,372.7s-.5,1.3-1,3.3-1,4.7-1.1,7.5.3,5.7,1.6,8.1c1.3,2.5,3.5,4.5,7,5.7,2.6-1.6,3.4-3.8,3.2-6.3-.1-1.3-.4-2.6-.9-4s-1.1-2.8-1.9-4.1c-.7-1.4-1.5-2.7-2.3-3.9-.8-1.2-1.5-2.3-2.2-3.3-.7-.9-1.3-1.7-1.7-2.2-.5-.5-.7-.8-.7-.8Z"/>
          </g>
          <g>
            <path class="st2" d="M118.3,385.8s1.4-.6,3.5-1.4,5-1.7,8-2.3c3-.6,6.1-.9,8.9-.3,2.8.6,5.4,2,7.7,4.9-.4,1.6-1.1,2.9-2,3.9s-2.1,1.6-3.4,2c-2.7.8-6.2.5-9.6-.4-1.7-.5-3.4-1.1-5-1.8-1.6-.7-3-1.4-4.2-2.1-2.3-1.3-3.9-2.5-3.9-2.5Z"/>
            <path class="st2" d="M145.4,358.9s-.7,1.3-1.6,3.3c-.9,2-1.9,4.8-2.4,7.7-.6,2.9-.7,6,.2,8.7s2.7,5,6.1,6.6c3-1.6,4.3-3.9,4.6-6.6s-.4-5.8-1.4-8.7c-.5-1.5-1.1-2.9-1.7-4.2-.6-1.3-1.2-2.5-1.8-3.5-1.1-2-2-3.3-2-3.3Z"/>
          </g>
          <g>
            <path class="st2" d="M101.8,368.5s1.5-.5,3.8-1,5.4-1.2,8.5-1.5c3.2-.3,6.4-.3,9.2.6,2.8.9,5.2,2.6,7.1,5.8-.7,1.7-1.6,3-2.7,3.9-1.1.9-2.4,1.5-3.9,1.8-2.9.6-6.4-.1-9.7-1.4-3.3-1.3-6.4-3.3-8.7-5.1-1.1-.9-2-1.7-2.7-2.2-.5-.5-.9-.9-.9-.9Z"/>
            <path class="st2" d="M133.9,344s-.9,1.2-2.1,3.2c-1.2,2-2.7,4.6-3.7,7.5s-1.7,6-1.2,8.9c.4,2.9,2,5.4,5.2,7.4,3.4-1.4,5.1-3.7,5.9-6.5.8-2.7.6-6,0-9s-1.6-5.9-2.4-8c-.4-1.1-.8-1.9-1.1-2.5-.4-.7-.6-1-.6-1Z"/>
          </g>
          <g>
            <path class="st2" d="M88,349s1.6-.3,4-.6c2.4-.3,5.6-.5,8.9-.5,3.2.1,6.5.4,9.3,1.6,2.7,1.2,4.9,3.2,6.3,6.7-2,3.3-4.6,4.8-7.7,5.1-3,.3-6.5-.8-9.6-2.5-1.6-.9-3.1-1.9-4.4-3s-2.5-2.2-3.5-3.2-1.8-1.9-2.3-2.6c-.7-.6-1-1-1-1Z"/>
            <path class="st2" d="M124.1,328.1s-1.1,1.1-2.6,2.9-3.3,4.3-4.8,7.1c-1.5,2.8-2.6,5.8-2.5,8.8,0,2.9,1.2,5.7,4.2,8,3.7-1.1,5.8-3.2,7-5.9,1.2-2.7,1.5-5.9,1.3-9,0-1.5-.3-3-.5-4.4-.3-1.4-.6-2.7-.9-3.8-.3-1.1-.6-2-.8-2.6-.3-.7-.4-1.1-.4-1.1Z"/>
          </g>
          <g>
            <path class="st2" d="M77.1,327.6s1.6-.1,4,0c2.4,0,5.7.2,8.9.7,3.2.5,6.5,1.3,9.1,2.8s4.5,3.7,5.4,7.4c-2.5,3-5.4,4.3-8.5,4.2-3.1-.1-6.4-1.6-9.3-3.7s-5.4-4.9-7-7.2c-1.6-2.4-2.6-4.2-2.6-4.2Z"/>
            <path class="st2" d="M116,311.4s-1.3,1-3,2.6-3.9,3.9-5.7,6.4c-1.8,2.6-3.3,5.5-3.7,8.4-.4,2.9.4,5.8,3.1,8.4,3.9-.6,6.4-2.6,8-5.1s2.3-5.7,2.5-8.8c0-1.5,0-3,0-4.4s-.2-2.7-.4-3.8c-.4-2.3-.8-3.7-.8-3.7Z"/>
          </g>
          <g>
            <path class="st2" d="M69.5,304.9s1.6.1,4,.5,5.5.9,8.6,1.8,6.2,2.1,8.6,3.9,4,4.3,4.4,8.1c-2.9,2.7-6,3.6-9.1,3.1s-6.1-2.4-8.7-4.9c-1.3-1.3-2.4-2.7-3.4-4.1s-1.8-2.8-2.5-4.1c-.7-1.2-1.1-2.3-1.5-3.1-.2-.8-.4-1.2-.4-1.2Z"/>
            <path class="st2" d="M109.7,293.8s-1.3.8-3.2,2.2c-1.9,1.4-4.3,3.3-6.4,5.6-2.1,2.3-4,5-4.7,7.8s-.4,5.8,2,8.8c4-.1,6.7-1.8,8.7-4.1,1.9-2.3,3-5.4,3.6-8.4.3-1.5.5-3,.5-4.4,0-1.4,0-2.7,0-3.8-.2-2.1-.5-3.7-.5-3.7Z"/>
          </g>
          <g>
            <path class="st2" d="M65.3,281.3s1.5.3,3.7,1,5.2,1.7,8.1,3,5.8,2.9,7.8,5c2.1,2.1,3.4,4.8,3.3,8.6-3.2,2.3-6.3,2.8-9.3,1.9-2.9-.9-5.7-3.2-7.8-6-1.1-1.4-2-3-2.8-4.5s-1.4-3-1.8-4.3c-.9-2.7-1.2-4.7-1.2-4.7Z"/>
            <path class="st2" d="M105.3,275.7s-1.4.6-3.3,1.7c-2,1.1-4.5,2.7-6.8,4.7s-4.4,4.4-5.5,7.1-1.1,5.7.9,8.9c3.9.4,6.8-.9,9-2.9,2.2-2.1,3.6-4.9,4.5-7.8.4-1.4.8-2.9,1-4.3s.3-2.7.4-3.8c0-2.1-.2-3.6-.2-3.6Z"/>
          </g>
          <g>
            <path class="st2" d="M64.6,257.5s1.4.5,3.4,1.5c2,.9,4.6,2.3,7.2,3.9,2.6,1.7,5.1,3.6,6.8,6,1.7,2.4,2.6,5.2,2.1,8.9-3.3,1.9-6.4,2-9.2.7-2.7-1.3-5-3.9-6.6-7-.8-1.5-1.5-3.2-2-4.8-.5-1.6-.9-3.2-1.1-4.5-.6-2.7-.6-4.7-.6-4.7Z"/>
            <path class="st2" d="M102.9,257s-1.4.4-3.3,1.3c-2,.9-4.5,2.1-7,3.8-2.4,1.7-4.7,3.8-6,6.4-1.3,2.5-1.7,5.5-.2,9,3.7.9,6.7,0,9-1.7s4-4.4,5.1-7.1c.6-1.4,1-2.8,1.3-4.1.3-1.3.6-2.6.7-3.7.3-2.3.4-3.9.4-3.9Z"/>
          </g>
          <g>
            <path class="st2" d="M67.4,234s1.2.7,2.8,1.8c1.7,1.2,3.9,2.8,6,4.7s4.2,4.2,5.5,6.7c1.3,2.6,1.8,5.5.9,9.1-3.4,1.4-6.3,1.1-8.7-.5-2.4-1.6-4.2-4.5-5.2-7.7-1.1-3.2-1.5-6.8-1.6-9.5,0-1.4,0-2.5,0-3.4,0-.7.2-1.2.2-1.2Z"/>
            <path class="st2" d="M102.3,238s-1.3.3-3.1.9c-1.9.6-4.4,1.6-6.8,3s-4.8,3.2-6.3,5.6c-.8,1.2-1.3,2.5-1.6,4-.2,1.5-.2,3.1.3,4.9,3.4,1.4,6.3.9,8.7-.5,2.4-1.4,4.2-3.9,5.5-6.5.7-1.3,1.2-2.7,1.6-4s.8-2.5,1-3.6c.3-1.1.4-2,.5-2.7s.2-1.1.2-1.1Z"/>
          </g>
          <g>
            <path class="st2" d="M73.6,211.3s.9.8,2.2,2.1c1.3,1.3,3,3.1,4.6,5.3,1.6,2.1,3.1,4.6,3.9,7.2.8,2.7.9,5.6-.4,9.1-3.2,1-5.9.4-7.8-1.5-1-.9-1.7-2.1-2.4-3.6-.6-1.4-1-3-1.3-4.6-.5-3.3-.3-6.8,0-9.5.2-1.3.4-2.5.6-3.3.4-.7.5-1.2.5-1.2Z"/>
            <path class="st2" d="M103.6,218.8s-1.1.2-2.8.6c-1.7.4-4,1.2-6.3,2.3s-4.6,2.7-6.3,4.9c-1.7,2.2-2.7,5-2.3,8.7,2.9,1.7,5.6,1.6,7.9.5,1.1-.6,2.2-1.4,3.2-2.4.9-1,1.8-2.2,2.5-3.4s1.3-2.5,1.9-3.8c.5-1.3.9-2.5,1.3-3.6.6-2.3.9-3.8.9-3.8Z"/>
          </g>
          <g>
            <path class="st2" d="M83.2,190.1s.6.8,1.4,2.1,1.9,3.2,2.9,5.4,1.9,4.7,2.2,7.4c.3,2.7,0,5.6-1.7,9-3,.7-5.2-.2-6.6-2.2s-1.9-5.1-1.8-8.3c0-1.6.3-3.3.7-4.8.3-1.6.8-3,1.2-4.3.4-1.3.9-2.3,1.2-3.1.3-.8.5-1.2.5-1.2Z"/>
            <path class="st2" d="M107,199.4s-1,.1-2.4.4c-1.5.3-3.5.9-5.6,1.9s-4.3,2.3-6.1,4.3c-1.8,2-3.1,4.7-3.2,8.4,2.3,2,4.7,2.2,6.9,1.2,2.2-.9,4.1-3,5.6-5.4.8-1.2,1.5-2.5,2-3.7.6-1.2,1.1-2.4,1.5-3.5.8-2,1.3-3.6,1.3-3.6Z"/>
          </g>
          <g>
            <path class="st2" d="M95.8,170.9s.3.7.6,2c.3,1.3.8,3,1.1,5.1.3,2.1.5,4.5.2,7.1s-1.1,5.4-3,8.6c-2.6.5-4.3-.6-5.1-2.6-.8-2-.6-5,.2-8,.4-1.5,1-3,1.6-4.5.6-1.4,1.3-2.8,2-3.9.3-.6.6-1.1.9-1.5.3-.5.6-.9.8-1.2.4-.8.7-1.1.7-1.1Z"/>
            <path class="st2" d="M112.4,180s-.7.1-1.9.4c-1.2.3-2.8.9-4.7,1.8-1.8.9-3.8,2.1-5.6,4-1.8,1.9-3.4,4.4-4.1,8,.8,1.1,1.7,1.7,2.6,1.9s1.9.1,2.9-.3c1.9-.8,3.8-2.8,5.4-5.1.8-1.2,1.5-2.4,2.2-3.6.7-1.2,1.2-2.4,1.7-3.5.2-.5.5-1,.6-1.5.2-.4.3-.8.5-1.2.2-.5.4-.9.4-.9Z"/>
          </g>
          <g>
            <path class="st2" d="M111.4,154.4s0,.6-.3,1.6c-.2,1-.5,2.4-.9,4.2s-.9,3.9-1.8,6.3c-.9,2.4-2.1,5-4.4,7.9-2.1.4-3.3-.6-3.4-2.5,0-.9,0-2.1.5-3.3s1-2.6,1.8-3.9c.7-1.3,1.6-2.6,2.6-3.9.9-1.2,1.9-2.3,2.7-3.3.9-.9,1.6-1.7,2.2-2.3.6-.5,1-.8,1-.8Z"/>
            <path class="st2" d="M119.9,160.7s-.5.2-1.4.7-2.1,1.2-3.6,2.1c-1.5,1-3.3,2.2-5,4-.9.9-1.8,1.9-2.6,3.1-.8,1.2-1.6,2.6-2.3,4.4.4,1,1,1.6,1.6,1.9.7.2,1.4.1,2.3-.2.8-.4,1.7-1.1,2.5-1.9.9-.9,1.7-1.9,2.5-3.1.8-1.1,1.6-2.4,2.3-3.6.7-1.2,1.4-2.4,1.9-3.5,1.1-2.3,1.8-3.9,1.8-3.9Z"/>
          </g>
          <g>
            <path class="st2" d="M129.1,141s-.1.1-.3.2c-.2.1-.5.3-.9.6-.7.6-1.7,1.4-2.8,2.7-1.1,1.3-2.3,2.9-3.7,5-1.4,2-3.1,4.4-5.5,7.2-1.6.6-2.1-.2-1.5-1.8.5-1.5,2.2-3.7,4.2-5.8,1-1.1,2.2-2.1,3.4-3.1,1.2-1,2.3-1.8,3.4-2.6,1-.7,2-1.3,2.6-1.7.3-.2.6-.4.8-.5.2,0,.3-.2.3-.2Z"/>
            <path class="st2" d="M129.1,141s-.1.1-.2.3c-.1.2-.3.5-.5.9s-.5.9-.9,1.4-.9,1.1-1.4,1.7c-1.1,1.3-2.5,2.7-4.2,4.5s-3.6,4-5.6,7.1c0,.8.2,1.3.6,1.4.4.1.9,0,1.6-.5,1.3-.9,2.9-3,4.4-5.4.8-1.2,1.5-2.6,2.3-3.8.7-1.3,1.4-2.6,2-3.7.6-1.1,1.1-2.1,1.4-2.8.3-.6.5-1.1.5-1.1Z"/>
          </g>
        </g>
      </g>
      <g>
        <path class="st2" d="M156.7,113.6l1,.5c.6.3,1.4.7,2.1,1.1,1.5.8,3,1.6,3,1.6l1-.5c.6-.3,1.5-.7,2.3-1,.8-.4,1.7-.7,2.3-1,.3,0,.6-.2.8-.3.2,0,.3,0,.3,0,0,0,0,0-.1.3-.1.2-.1.4-.2.8-.2.6-.5,1.5-.7,2.3-.3.8-.5,1.7-.6,2.3-.2.6-.3,1-.3,1,0,0,1.1,1.3,2.3,2.5,1.1,1.3,2.2,2.6,2.2,2.6,0,0-.4,0-1,0-.3,0-.7,0-1.1,0-.4,0-.8,0-1.2,0-.8,0-1.7,0-2.3.2s-1,0-1,0c0,0-.8,1.5-1.5,3-.2.4-.4.7-.5,1.1-.2.4-.3.7-.4,1-.3.6-.4.9-.4.9l-1.6-3-1.6-3s-.4,0-1.1,0c-.6,0-1.5-.2-2.4-.2-.9,0-1.7,0-2.4-.2-.7,0-1.1,0-1.1,0,0,0,.1,0,.2-.2.1,0,.3-.4.6-.6.5-.5,1.1-1.2,1.7-1.8.6-.6,1.3-1.3,1.8-1.8l.8-.8s-.2-1.7-.4-3.4c-.3-1.7-.5-3.5-.5-3.5Z"/>
        <path class="st2" d="M195.5,90s1.7,1.6,3.4,3.3l3.3,3.3s.6,0,1.5-.2,2.1-.3,3.4-.4c1.2-.2,2.4-.2,3.4-.3.9,0,1.5,0,1.5,0,0,0-1.4,1.9-2.7,3.9s-2.5,3.9-2.5,3.9c0,0,.9,2.1,1.9,4.2.9,2.1,1.8,4.2,1.8,4.2,0,0-.5,0-1.4-.3-.8-.2-1.9-.5-3-.7s-2.2-.5-3-.6c-.8-.2-1.4-.3-1.4-.3,0,0-.4.4-1,1s-1.4,1.4-2.1,2.3c-.4.4-.8.8-1.1,1.2-.4.4-.7.8-1,1.1-.6.6-.9,1-.9,1,0,0-.4-2.2-.8-4.5-.4-2.3-.8-4.5-.8-4.5,0,0-.5-.2-1.3-.6-.8-.3-1.9-.8-3-1.2-2.2-.9-4.4-1.7-4.4-1.7,0,0,.5-.3,1.3-.7.8-.4,1.9-1.1,3-1.6,1.1-.6,2.2-1.1,3-1.6l1.4-.7s.4-2.3.8-4.6c.2-2.5.7-4.8.7-4.8Z"/>
        <path class="st2" d="M250,75s1.7,3,3.3,6,1.6,3,2.2,4.2c.6,1.1,1,1.9,1,1.9,0,0,.9.2,2.2.4,1.3.2,3.1.5,4.9.9s3.5.7,4.8,1,2.2.5,2.2.5c0,0-.7.5-1.7,1.3s-2.4,1.9-3.7,3c-1.3,1.1-2.6,2.2-3.6,3s-1.6,1.4-1.6,1.4c0,0,.4,3.3.8,6.6.4,3.3.8,6.6.8,6.6,0,0-.2,0-.5-.3-.3-.2-.7-.4-1.3-.8-1.1-.6-2.5-1.5-3.9-2.3-2.9-1.6-5.8-3.2-5.8-3.2,0,0-3,1.6-5.8,3.2-1.4.8-2.8,1.7-3.9,2.3-.5.3-1,.6-1.3.8-.3.2-.5.3-.5.3,0,0,.4-3.3.8-6.6.4-3.3.8-6.6.8-6.6,0,0-.6-.6-1.6-1.4s-2.3-1.9-3.6-3-2.7-2.2-3.7-3-1.7-1.3-1.7-1.3c0,0,.9-.2,2.2-.5s3.1-.6,4.8-1c1.8-.4,3.5-.6,4.9-.9,1.3-.2,2.2-.4,2.2-.4,0,0,.4-.8,1-1.9s1.4-2.6,2.2-4.2c1.4-3,3.1-6,3.1-6Z"/>
        <path class="st2" d="M304.5,90s.5,2.3.9,4.6c.4,2.3.8,4.6.8,4.6l1.4.7c.8.4,1.9,1,3,1.6s2.1,1.2,3,1.6c.8.4,1.3.7,1.3.7,0,0-2.2.8-4.4,1.7-1.1.4-2.2.9-3,1.2-.8.3-1.3.6-1.3.6,0,0-.4,2.3-.8,4.5s-.8,4.5-.8,4.5c0,0-.4-.4-.9-1-.3-.3-.6-.7-1-1.1s-.7-.8-1.1-1.2c-.8-.8-1.5-1.7-2.1-2.3-.6-.6-1-1-1-1,0,0-.6,0-1.4.3-.8,0-1.9.4-3,.6s-2.2.5-3,.7-1.4.3-1.4.3l1.8-4.2c.9-2.1,1.9-4.2,1.9-4.2,0,0-1.2-2-2.5-3.9s-2.7-3.9-2.7-3.9c0,0,.6,0,1.5,0,.9,0,2.1.2,3.4.3,1.2,0,2.4.3,3.4.4.9,0,1.5.2,1.5.2,0,0,1.6-1.7,3.3-3.3,1.5-1.4,3.2-3.1,3.2-3.1Z"/>
        <path class="st2" d="M343.3,113.6s-.2,1.7-.4,3.5c-.2,1.7-.4,3.4-.4,3.4,0,0,.3.3.8.8s1.1,1.1,1.8,1.8c.6.6,1.3,1.3,1.7,1.8.2.2.4.5.6.6l.2.2s-.4,0-1.1,0c-.7,0-1.5,0-2.4.2s-1.7.2-2.4.2c-.6,0-1.1,0-1.1,0,0,0-.8,1.5-1.6,3-.8,1.5-1.6,3-1.6,3,0,0-.2-.4-.4-.9-.1-.3-.3-.6-.4-1-.2-.4-.4-.7-.5-1.1-.7-1.5-1.5-3-1.5-3,0,0-.4,0-1,0s-1.5,0-2.3-.2c-.4,0-.8,0-1.2,0s-.8,0-1.1,0c-.6,0-1,0-1,0,0,0,1.1-1.3,2.2-2.6,1.1-1.3,2.3-2.5,2.3-2.5,0,0-.1-.4-.3-1-.2-.6-.4-1.5-.6-2.3s-.5-1.7-.7-2.3-.2-.6-.2-.8c-.1-.2-.1-.3-.1-.3,0,0,.1,0,.3,0,.2,0,.4.2.8.3.6.3,1.5.6,2.3,1s1.7.7,2.3,1l1,.5s1.5-.8,3-1.6c.8-.4,1.5-.8,2.1-1.1.5-.3.9-.5.9-.5Z"/>
      </g>
    </g>
    <g class="st1">
      <path class="st2" d="M207,218.1c8.3,0,13.2-4.4,13.2-14.9v-10.8c0-9.5-4.2-15.7-14-15.7s-15.2,5.1-15.2,20.3v5.6l-29.1-2v-7.8c0-31.3,16.2-47.2,45.3-47.2s46.5,15.7,46.5,41.9v11.5c0,18.4-11.3,26.4-18.6,29.6v1c7.8,2.7,19.8,11.3,19.8,31.1v12.2c0,28.1-13.7,43.8-48,43.8s-45.3-14.9-45.3-46.5v-8.1l29.1-2v5.6c0,14.9,6.1,20.6,15.7,20.6s14.7-6.4,14.7-18.4v-10c0-11.5-5.4-16.2-14.2-16.2h-16.2v-23.7h16.3Z"/>
      <path class="st2" d="M255.7,148.1h84.7v19.6c-16.4,43.8-26.7,91-30.3,146.6h-43.3c6.9-60.7,26.4-114.1,35-132.4h-46v-33.8h-.1Z"/>
    </g>
    <text class="st0" transform="translate(153.7 312.6) scale(.7 1)"><tspan x="0" y="0">38</tspan></text>
    <g>
      <path class="st2" d="M192.8,354.9v20.3h-9.6v-20.1l-11.1-26.3h11.3l5.5,15.9,5.9-15.9h8.6l-10.6,26.1Z"/>
      <path class="st2" d="M207.9,328.8h22.7v9.4h-13v9.6h9.3v7.7h-9.3v10.2h13.1v9.4h-22.8v-46.3Z"/>
      <path class="st2" d="M243.8,328.8h12.5l9,46.3h-11.5l-1.4-8.5h-8.7l-1.6,8.5h-8.6l10.3-46.3ZM244.7,358.9h6.8l-3.3-18.4-3.5,18.4Z"/>
      <path class="st2" d="M297.4,375.1h-7.7c-2.3,0-2.8-1.6-2.9-3.8l-.5-10.8c-.2-3.4-1.8-4.4-4.1-4.4h-2.6v19h-9.6v-46.3h15.1c7.2,0,11.5,3.7,11.5,10.9v4.8c0,4.6-3,6.9-5.8,7.8v.2c2.5.5,4.9,2.6,5.2,7.3l.6,10.4c.1,1.8.3,3,.9,3.8v1.1h-.1ZM287.1,344.6v-2.9c0-2.7-1.4-4-4.2-4h-3.3v11h3.3c2.8,0,4.2-1.2,4.2-4.1Z"/>
      <path class="st2" d="M301.3,362v-2.6l7.4-.7v2.3c0,5.5,1.2,7.2,4.5,7.2s4.6-1.8,4.6-5.8-1.2-4.3-3.1-5.5l-6-4.1c-5.3-3.7-6.9-6.3-6.9-12.3s4-12.3,12.6-12.3,12.8,3.1,12.8,11.6v3.3l-7.4.7v-2.7c0-3.4-1-5.7-4-5.7s-4,2.1-4,5,1,4.2,3.8,5.9l6.3,4.3c4,2.7,6.1,5.7,6.1,11.9s-3.5,13.3-13.3,13.3c-8.2,0-13.4-3.7-13.4-13.8Z"/>
    </g>
  </g>
  <g class="st1">
    <g class="st1">
      <path class="st2" d="M-338.8,112.8c7.4,0,11.8-3.9,11.8-13.3v-9.7c0-8.5-3.8-14-12.5-14s-13.6,4.6-13.6,18.2v5l-26-1.8v-7c0-28,14.5-42.2,40.5-42.2s41.6,14,41.6,37.5v10.3c0,16.5-10.1,23.6-16.6,26.5v.9c7,2.4,17.7,10.1,17.7,27.8v10.9c0,25.1-12.3,39.2-43,39.2s-40.5-13.3-40.5-41.6v-7.2l26-1.8v5c0,13.3,5.5,18.4,14,18.4s13.2-5.7,13.2-16.5v-8.9c0-10.3-4.8-14.5-12.7-14.5h-14.5v-21.2h14.6Z"/>
      <path class="st2" d="M-295.2,50.2h75.8v17.5c-14.7,39.2-23.9,81.4-27.1,131.2h-38.7c6.2-54.3,23.6-102.1,31.3-118.5h-41.2v-30.2h0Z"/>
    </g>
  </g>
  <g class="st1">
    <g>
      <g>
        <g>
          <g>
            <path class="st2" d="M-279,335s-.4.6-1.1,1.3c-.8.8-1.8,1.7-3.3,2.5-1.5.8-3.3,1.6-5.6,2-1.1.2-2.4.4-3.8.5-1.4,0-2.9.2-4.6.3-.7,0-.8,0-.8,0s.6,0,1.2-.2c.8-.2,1.7-.4,2.8-.8,1.1-.3,2.4-.8,3.8-1.2s2.7-.9,4-1.5c1.3-.5,2.5-1,3.7-1.4,1.1-.5,2-.8,2.6-1.1.7-.3,1-.4,1-.4Z"/>
            <path class="st2" d="M-277.6,344.7s-.6-.4-1.5-.9c-.9-.5-2.3-1.1-3.9-1.6-1.7-.5-3.7-.8-5.9-.8h-3.8c-1.4,0-2.9,0-4.6.2-.7,0-.8,0-.8,0s.6,0,1.3.2c.8,0,1.7.3,2.9.5,1.3.3,2.6.5,3.9.8,1.4.3,2.9.6,4.3.8,1.4.2,2.8.5,4,.6,1.2.2,2.3.3,3,.4.7,0,1,0,1,0Z"/>
          </g>
          <g>
            <path class="st2" d="M-261.2,327.1s-.2.8-.8,2.1c-.5,1.2-1.3,2.8-2.5,4.3-1.2,1.5-2.8,2.9-5,3.9s-4.8,1.7-8.2,2.1c-1.4-.7-1.1-1.4,0-2.4.7-.5,1.5-1.1,2.5-1.8,1-.7,2.2-1.3,3.4-2.1,1.2-.8,2.4-1.5,3.7-2.2,1.2-.8,2.3-1.4,3.3-2,1-.6,1.9-1,2.4-1.4.7-.4,1-.6,1-.6Z"/>
            <path class="st2" d="M-256.3,344.1s-.7-.6-1.8-1.3c-1.1-.8-2.7-1.7-4.5-2.4-1.9-.8-3.9-1.3-6.4-1.4-1.2,0-2.4,0-3.8.2s-2.9.5-4.6.8c-.6.6-.8.9-.6,1.3.2.4.7.7,1.4.9s1.9.6,3.1.8,2.6.5,4.1.7,3,.3,4.5.4c1.5,0,2.9,0,4.2,0,2.4,0,4.3,0,4.3,0Z"/>
          </g>
          <g>
            <path class="st2" d="M-244.7,317.9s0,1-.2,2.5-.7,3.6-1.5,5.6c-.8,2-2.1,4-4,5.5-1.9,1.6-4.4,2.7-7.8,3.2-1.7-1.1-1.7-2.4-.7-4.1.5-.8,1.2-1.7,2.1-2.6.8-.9,1.9-1.9,2.9-2.8s2.2-1.9,3.2-2.8c1-.8,2.1-1.7,2.9-2.3s1.6-1.3,2.2-1.7c.7-.2.9-.5.9-.5Z"/>
            <path class="st2" d="M-235.2,339.9s-.8-.7-2.2-1.5-3.2-2-5.3-2.8-4.4-1.5-6.8-1.5-5.2.6-8.3,1.9c-.4.9-.5,1.7-.2,2.3.3.7.9,1.1,1.8,1.5,1.8.8,4.6,1.2,7.7,1.4,1.6,0,3.2,0,4.7,0,1.5,0,3-.2,4.2-.4,1.3-.2,2.3-.4,3.1-.5.8-.3,1.3-.4,1.3-.4Z"/>
          </g>
          <g>
            <path class="st2" d="M-229.5,307.4s.2,1.1.4,2.9c0,1.8,0,4.1-.3,6.5s-1.2,4.8-2.8,6.8-3.8,3.5-7.2,4.3c-2.1-1.4-2.3-3.2-1.8-5.3.3-1,.8-2.2,1.5-3.3s1.5-2.3,2.3-3.4,1.8-2.3,2.7-3.3,1.8-2,2.5-2.7c.8-.8,1.4-1.5,1.9-1.9.5-.4.8-.7.8-.7Z"/>
            <path class="st2" d="M-214.8,332.3s-.9-.7-2.5-1.6-3.8-2.1-6.1-2.9-4.9-1.5-7.4-1.4c-2.5,0-5.2.9-8.1,2.8-.4,2.4.7,3.9,2.6,4.9,1,.5,2.3.8,3.7.9s3,.2,4.6,0c1.6,0,3.2-.3,4.8-.6,1.5-.3,3-.6,4.2-.9s2.3-.7,3.1-.9c.7-.2,1.1-.4,1.1-.4Z"/>
          </g>
          <g>
            <path class="st2" d="M-215.8,295.7s.5,1.2.9,3.1.9,4.4,1,7-.3,5.3-1.5,7.6c-1.2,2.3-3.3,4.2-6.6,5.3-2.4-1.5-3.2-3.6-3-5.9,0-1.2.4-2.4.8-3.8s1-2.6,1.8-3.8c.7-1.3,1.4-2.5,2.2-3.7.8-1.1,1.4-2.2,2.1-3.1.7-.8,1.2-1.6,1.6-2.1.5-.5.7-.8.7-.8Z"/>
            <path class="st2" d="M-195.6,321.6s-1.1-.7-3-1.5c-1.8-.8-4.2-1.9-6.8-2.6s-5.3-1.2-8-.9-5.2,1.4-7.7,3.8c.2,2.9,1.6,4.5,3.8,5.4,1.1.5,2.5.7,3.9.8,1.5,0,3.1,0,4.7-.3,3.2-.5,6.5-1.5,8.9-2.5,2.5-1.1,4.1-2.1,4.1-2.1Z"/>
          </g>
          <g>
            <path class="st2" d="M-203.4,282.8s.7,1.2,1.5,3.1,1.8,4.5,2.3,7.2c.6,2.7.7,5.6-.2,8.2-.8,2.5-2.5,4.7-5.7,6.2-2.8-1.5-4-3.7-4.3-6.2-.3-2.5.4-5.4,1.3-8.2.5-1.4,1-2.7,1.6-3.9.6-1.2,1.1-2.3,1.7-3.3,1-1.9,1.9-3.1,1.9-3.1Z"/>
            <path class="st2" d="M-178,308s-1.3-.6-3.3-1.3-4.7-1.6-7.5-2.2c-2.8-.6-5.7-.8-8.3-.3-2.6.6-5.1,1.9-7.2,4.6.4,1.5,1,2.7,1.9,3.7s2,1.5,3.2,1.9c2.5.8,5.7.5,9-.4,1.6-.5,3.2-1,4.7-1.7,1.5-.7,2.8-1.3,3.9-2,2.2-1.2,3.7-2.3,3.7-2.3Z"/>
          </g>
          <g>
            <path class="st2" d="M-192.6,268.8s.8,1.1,2,3,2.5,4.3,3.5,7,1.6,5.6,1.1,8.3c-.4,2.7-1.9,5.1-4.9,6.9-3.2-1.3-4.8-3.5-5.5-6.1-.8-2.5-.6-5.6,0-8.4s1.5-5.5,2.3-7.5c.4-1,.8-1.8,1-2.3.4-.7.6-.9.6-.9Z"/>
            <path class="st2" d="M-162.5,291.8s-1.4-.5-3.6-.9-5.1-1.1-8-1.4c-3-.3-6-.3-8.6.6-2.6.8-4.9,2.4-6.7,5.4.7,1.6,1.5,2.8,2.5,3.7s2.3,1.4,3.7,1.7c2.7.6,6,0,9.1-1.3,3.1-1.2,6-3.1,8.2-4.8,1-.8,1.9-1.6,2.5-2.1.5-.5.8-.8.8-.8Z"/>
          </g>
          <g>
            <path class="st2" d="M-183.5,253.9s1,1,2.4,2.7,3.1,4,4.5,6.7c1.4,2.6,2.4,5.4,2.3,8.3,0,2.7-1.1,5.3-3.9,7.5-3.5-1-5.4-3-6.6-5.5-1.1-2.5-1.4-5.5-1.2-8.4,0-1.4.3-2.8.5-4.1.3-1.3.6-2.5.8-3.6.3-1,.6-1.9.8-2.4.3-.7.4-1,.4-1Z"/>
            <path class="st2" d="M-149.6,273.5s-1.5-.3-3.8-.6c-2.3-.3-5.3-.5-8.3-.5-3,0-6.1.4-8.7,1.5-2.5,1.1-4.6,3-5.9,6.3,1.9,3.1,4.3,4.5,7.2,4.8,2.8.3,6.1-.8,9-2.3,1.5-.8,2.9-1.8,4.1-2.8s2.3-2.1,3.3-3,1.7-1.8,2.2-2.4c.7-.6.9-.9.9-.9Z"/>
          </g>
          <g>
            <path class="st2" d="M-175.9,238.2s1.2.9,2.8,2.4,3.7,3.7,5.3,6c1.7,2.4,3.1,5.2,3.5,7.9.4,2.7-.4,5.4-2.9,7.9-3.7-.6-6-2.4-7.5-4.8s-2.2-5.3-2.3-8.3c0-1.4,0-2.8,0-4.1s.2-2.5.4-3.6c.4-2.2.8-3.5.8-3.5Z"/>
            <path class="st2" d="M-139.4,253.4s-1.5,0-3.8,0c-2.3,0-5.3.2-8.3.7-3,.5-6.1,1.2-8.5,2.6s-4.2,3.5-5.1,6.9c2.3,2.8,5.1,4,8,3.9,2.9,0,6-1.5,8.7-3.5s5.1-4.6,6.6-6.8c1.5-2.3,2.4-3.9,2.4-3.9Z"/>
          </g>
          <g>
            <path class="st2" d="M-169.9,221.7s1.2.8,3,2.1c1.8,1.3,4,3.1,6,5.3,2,2.2,3.8,4.7,4.4,7.3s.4,5.4-1.9,8.3c-3.8,0-6.3-1.7-8.2-3.8-1.8-2.2-2.8-5.1-3.4-7.9-.3-1.4-.5-2.8-.5-4.1,0-1.3,0-2.5,0-3.6.2-2,.5-3.5.5-3.5Z"/>
            <path class="st2" d="M-132.2,232.1s-1.5,0-3.8.5-5.2.8-8.1,1.7-5.8,2-8.1,3.7-3.8,4-4.1,7.6c2.7,2.5,5.6,3.4,8.5,2.9s5.7-2.3,8.2-4.6c1.2-1.2,2.3-2.5,3.2-3.8s1.7-2.6,2.3-3.8c.7-1.1,1-2.2,1.4-2.9.2-.8.4-1.1.4-1.1Z"/>
          </g>
          <g>
            <path class="st2" d="M-165.8,204.7s1.3.6,3.1,1.6c1.9,1,4.2,2.5,6.4,4.4s4.1,4.1,5.2,6.7,1,5.3-.8,8.3c-3.7.4-6.4-.8-8.4-2.7-2.1-2-3.4-4.6-4.2-7.3-.4-1.3-.8-2.7-.9-4s-.3-2.5-.4-3.6c0-2,.2-3.4.2-3.4Z"/>
            <path class="st2" d="M-128.3,210s-1.4.3-3.5.9-4.9,1.6-7.6,2.8-5.4,2.7-7.3,4.7c-2,2-3.2,4.5-3.1,8.1,3,2.2,5.9,2.6,8.7,1.8,2.7-.8,5.3-3,7.3-5.6,1-1.3,1.9-2.8,2.6-4.2s1.3-2.8,1.7-4c.8-2.5,1.1-4.4,1.1-4.4Z"/>
          </g>
          <g>
            <path class="st2" d="M-163.6,187.2s1.3.4,3.1,1.2c1.9.8,4.2,2,6.6,3.6,2.3,1.6,4.4,3.6,5.6,6,1.2,2.3,1.6,5.2.2,8.4-3.5.8-6.3,0-8.4-1.6s-3.8-4.1-4.8-6.7c-.6-1.3-.9-2.6-1.2-3.8-.3-1.2-.6-2.4-.7-3.5-.3-2.2-.4-3.7-.4-3.7Z"/>
            <path class="st2" d="M-127.6,187.6s-1.3.5-3.2,1.4c-1.9.8-4.3,2.2-6.8,3.7-2.4,1.6-4.8,3.4-6.4,5.6-1.6,2.3-2.4,4.9-2,8.3,3.1,1.8,6,1.9,8.6.7,2.5-1.2,4.7-3.7,6.2-6.6.8-1.4,1.4-3,1.9-4.5.5-1.5.8-3,1-4.2.6-2.5.6-4.4.6-4.4Z"/>
          </g>
          <g>
            <path class="st2" d="M-163,169.4s1.2.3,2.9.8c1.8.6,4.1,1.5,6.4,2.8s4.5,3,5.9,5.3c.8,1.1,1.2,2.3,1.5,3.8.2,1.4.2,2.9-.3,4.6-3.2,1.3-5.9.8-8.2-.5-2.3-1.3-3.9-3.7-5.2-6.1-.7-1.2-1.1-2.5-1.5-3.8s-.8-2.3-.9-3.4c-.3-1-.4-1.9-.5-2.5s-.2-1-.2-1Z"/>
            <path class="st2" d="M-130.3,165.6s-1.1.7-2.6,1.7c-1.6,1.1-3.7,2.6-5.6,4.4s-3.9,3.9-5.2,6.3c-1.2,2.4-1.7,5.2-.8,8.5,3.2,1.3,5.9,1,8.2-.5,2.3-1.5,3.9-4.2,4.9-7.2,1-3,1.4-6.4,1.5-8.9,0-1.3,0-2.3,0-3.2,0-.7-.2-1.1-.2-1.1Z"/>
          </g>
          <g>
            <path class="st2" d="M-164.2,151.3s1,.2,2.6.6c1.6.4,3.8,1.1,5.9,2.2s4.3,2.5,5.9,4.6c1.6,2.1,2.5,4.7,2.2,8.2-2.7,1.6-5.3,1.5-7.4.5-1.1-.6-2.1-1.3-3-2.3-.8-.9-1.7-2.1-2.3-3.2s-1.2-2.3-1.8-3.6c-.5-1.2-.8-2.3-1.2-3.4-.6-2.2-.8-3.6-.8-3.6Z"/>
            <path class="st2" d="M-136.1,144.3s-.8.8-2.1,2c-1.2,1.2-2.8,2.9-4.3,5-1.5,2-2.9,4.3-3.7,6.8-.8,2.5-.8,5.3.4,8.5,3,.9,5.5.4,7.3-1.4.9-.8,1.6-2,2.3-3.4.6-1.3.9-2.8,1.2-4.3.5-3.1.3-6.4,0-8.9-.2-1.2-.4-2.3-.6-3.1-.4-.7-.5-1.1-.5-1.1Z"/>
          </g>
          <g>
            <path class="st2" d="M-167.4,133.1s.9,0,2.3.4c1.4.3,3.3.8,5.3,1.8s4,2.2,5.7,4c1.7,1.9,2.9,4.4,3,7.9-2.2,1.9-4.4,2.1-6.5,1.1-2-.8-3.8-2.8-5.3-5.1-.8-1.1-1.4-2.3-1.9-3.5-.6-1.1-1-2.3-1.4-3.3-.8-1.9-1.2-3.4-1.2-3.4Z"/>
            <path class="st2" d="M-145.1,124.4s-.6.8-1.3,2-1.8,3-2.7,5.1-1.8,4.4-2.1,6.9c-.3,2.5,0,5.3,1.6,8.4,2.8.7,4.9-.2,6.2-2.1s1.8-4.8,1.7-7.8c0-1.5-.3-3.1-.7-4.5-.3-1.5-.8-2.8-1.1-4-.4-1.2-.8-2.2-1.1-2.9-.3-.8-.5-1.1-.5-1.1Z"/>
          </g>
          <g>
            <path class="st2" d="M-172.5,115s.7,0,1.8.4c1.1.3,2.6.8,4.4,1.7,1.7.8,3.6,2,5.3,3.8,1.7,1.8,3.2,4.1,3.8,7.5-.8,1-1.6,1.6-2.4,1.8s-1.8,0-2.7-.3c-1.8-.8-3.6-2.6-5.1-4.8-.8-1.1-1.4-2.3-2.1-3.4-.7-1.1-1.1-2.3-1.6-3.3-.2-.5-.5-.9-.6-1.4-.2-.4-.3-.8-.5-1.1-.2-.5-.4-.8-.4-.8Z"/>
            <path class="st2" d="M-156.9,106.4s-.3.7-.6,1.9c-.3,1.2-.8,2.8-1,4.8-.3,2-.5,4.2-.2,6.7s1,5.1,2.8,8.1c2.4.5,4-.6,4.8-2.4.8-1.9.6-4.7-.2-7.5-.4-1.4-.9-2.8-1.5-4.2-.6-1.3-1.2-2.6-1.9-3.7-.3-.6-.6-1-.8-1.4-.3-.5-.6-.8-.8-1.1-.4-.8-.7-1-.7-1Z"/>
          </g>
          <g>
            <path class="st2" d="M-179.5,96.9s.5.2,1.3.7,2,1.1,3.4,2c1.4.9,3.1,2.1,4.7,3.8.8.8,1.7,1.8,2.4,2.9.8,1.1,1.5,2.4,2.2,4.1-.4.9-.9,1.5-1.5,1.8-.7.2-1.3,0-2.2-.2-.8-.4-1.6-1-2.3-1.8s-1.6-1.8-2.3-2.9c-.8-1-1.5-2.3-2.2-3.4-.7-1.1-1.3-2.3-1.8-3.3-1-2.2-1.7-3.7-1.7-3.7Z"/>
            <path class="st2" d="M-171.5,90.9s0,.6.3,1.5c.2.9.5,2.3.8,3.9s.8,3.7,1.7,5.9c.8,2.3,2,4.7,4.1,7.4,2,.4,3.1-.6,3.2-2.3,0-.8,0-2-.5-3.1s-.9-2.4-1.7-3.7c-.7-1.2-1.5-2.4-2.4-3.7-.8-1.1-1.8-2.2-2.5-3.1-.8-.8-1.5-1.6-2.1-2.2-.6-.5-.9-.8-.9-.8Z"/>
          </g>
          <g>
            <path class="st2" d="M-188.1,78.4s0,0,.2.3.3.5.5.8.5.8.8,1.3.8,1,1.3,1.6c1,1.2,2.3,2.5,3.9,4.2s3.4,3.8,5.3,6.7c0,.8-.2,1.2-.6,1.3-.4,0-.8,0-1.5-.5-1.2-.8-2.7-2.8-4.1-5.1-.8-1.1-1.4-2.4-2.2-3.6-.7-1.2-1.3-2.4-1.9-3.5-.6-1-1-2-1.3-2.6-.3-.6-.5-1-.5-1Z"/>
            <path class="st2" d="M-188.1,78.4s0,0,.3.2.5.3.8.6c.7.6,1.6,1.3,2.6,2.5,1,1.2,2.2,2.7,3.5,4.7,1.3,1.9,2.9,4.1,5.2,6.8,1.5.6,2-.2,1.4-1.7-.5-1.4-2.1-3.5-3.9-5.4-.9-1-2.1-2-3.2-2.9-1.1-.9-2.2-1.7-3.2-2.4-.9-.7-1.9-1.2-2.4-1.6-.3-.2-.6-.4-.8-.5-.2,0-.3-.2-.3-.2Z"/>
          </g>
        </g>
        <g>
          <g>
            <path class="st2" d="M-325.5,344.7s.6-.4,1.5-.9c.9-.5,2.3-1.1,3.9-1.6,1.7-.5,3.7-.8,5.9-.8h3.8c1.4,0,2.9,0,4.6.2.7,0,.8,0,.8,0s-.6,0-1.3.2c-.8,0-1.7.3-2.9.5-1.3.3-2.6.5-3.9.8-1.4.3-2.9.6-4.3.8-1.4.2-2.8.5-4,.6-1.2.2-2.3.3-3,.4-.7,0-1,0-1,0Z"/>
            <path class="st2" d="M-324.1,335s.4.6,1.1,1.3,1.8,1.7,3.3,2.5c1.5.8,3.3,1.6,5.6,2,1.1.2,2.4.4,3.8.5,1.4,0,2.9.2,4.6.3.7,0,.8,0,.8,0s-.6,0-1.2-.2c-.8-.2-1.7-.4-2.8-.8-1.1-.3-2.4-.8-3.8-1.2s-2.7-.9-4-1.5c-1.3-.5-2.5-1-3.7-1.4-1.1-.5-2-.8-2.6-1.1-.7-.3-1-.4-1-.4Z"/>
          </g>
          <g>
            <path class="st2" d="M-346.7,344.1s.7-.6,1.8-1.3,2.7-1.7,4.5-2.4c1.9-.8,3.9-1.3,6.4-1.4,1.2,0,2.4,0,3.8.2s2.9.5,4.6.8c.6.6.8.9.6,1.3s-.7.7-1.4.9-1.9.6-3.1.8-2.6.5-4.1.7c-1.5.2-3,.3-4.5.4s-2.9,0-4.2,0c-2.4,0-4.3,0-4.3,0Z"/>
            <path class="st2" d="M-341.9,327.1s.2.8.8,2.1c.5,1.2,1.3,2.8,2.5,4.3s2.8,2.9,5,3.9,4.8,1.7,8.2,2.1c1.4-.7,1.1-1.4,0-2.4-.7-.5-1.5-1.1-2.5-1.8-1-.7-2.2-1.3-3.4-2.1-1.2-.8-2.4-1.5-3.7-2.2-1.2-.8-2.3-1.4-3.3-2-1-.6-1.9-1-2.4-1.4-.7-.4-1-.6-1-.6Z"/>
          </g>
          <g>
            <path class="st2" d="M-367.9,339.9s.8-.7,2.2-1.5c1.3-.8,3.2-2,5.3-2.8,2.1-.8,4.4-1.5,6.8-1.5s5.2.6,8.3,1.9c.4.9.5,1.7.2,2.3-.3.7-.9,1.1-1.8,1.5-1.8.8-4.6,1.2-7.7,1.4-1.6,0-3.2,0-4.7,0-1.5,0-3-.2-4.2-.4-1.3-.2-2.3-.4-3.1-.5-.8-.3-1.3-.4-1.3-.4Z"/>
            <path class="st2" d="M-358.4,317.9s0,1,.2,2.5.7,3.6,1.5,5.6c.8,2,2.1,4,4,5.5,1.9,1.6,4.4,2.7,7.8,3.2,1.7-1.1,1.7-2.4.7-4.1-.5-.8-1.2-1.7-2.1-2.6s-1.9-1.9-2.9-2.8-2.2-1.9-3.2-2.8c-1-.8-2.1-1.7-2.9-2.3-.8-.7-1.6-1.3-2.2-1.7-.7-.2-.9-.5-.9-.5Z"/>
          </g>
          <g>
            <path class="st2" d="M-388.3,332.3s.9-.7,2.5-1.6,3.8-2.1,6.1-2.9,4.9-1.5,7.4-1.4,5.2.9,8.1,2.8c.4,2.4-.7,3.9-2.6,4.9-1,.5-2.3.8-3.7.9s-3,.2-4.6,0-3.2-.3-4.8-.6c-1.5-.3-3-.6-4.2-.9s-2.3-.7-3.1-.9c-.7-.2-1.1-.4-1.1-.4Z"/>
            <path class="st2" d="M-373.6,307.4s-.2,1.1-.4,2.9c0,1.8,0,4.1.3,6.5.4,2.3,1.2,4.8,2.8,6.8s3.8,3.5,7.2,4.3c2.1-1.4,2.3-3.2,1.8-5.3s-.8-2.2-1.5-3.3c-.7-1.1-1.5-2.3-2.3-3.4s-1.8-2.3-2.7-3.3-1.8-2-2.5-2.7c-.8-.8-1.4-1.5-1.9-1.9-.5-.4-.8-.7-.8-.7Z"/>
          </g>
          <g>
            <path class="st2" d="M-407.5,321.6s1.1-.7,3-1.5c1.8-.8,4.2-1.9,6.8-2.6s5.3-1.2,8-.9,5.2,1.4,7.7,3.8c-.2,2.9-1.6,4.5-3.8,5.4-1.1.5-2.5.7-3.9.8-1.5,0-3.1,0-4.7-.3-3.2-.5-6.5-1.5-8.9-2.5-2.5-1.1-4.1-2.1-4.1-2.1Z"/>
            <path class="st2" d="M-387.3,295.7s-.5,1.2-.9,3.1-.9,4.4-1,7,.3,5.3,1.5,7.6c1.2,2.3,3.3,4.2,6.6,5.3,2.4-1.5,3.2-3.6,3-5.9,0-1.2-.4-2.4-.8-3.8s-1-2.6-1.8-3.8c-.7-1.3-1.4-2.5-2.2-3.7-.8-1.1-1.4-2.2-2.1-3.1-.7-.8-1.2-1.6-1.6-2.1-.5-.5-.7-.8-.7-.8Z"/>
          </g>
          <g>
            <path class="st2" d="M-425.1,308s1.3-.6,3.3-1.3,4.7-1.6,7.5-2.2c2.8-.6,5.7-.8,8.3-.3,2.6.6,5.1,1.9,7.2,4.6-.4,1.5-1,2.7-1.9,3.7s-2,1.5-3.2,1.9c-2.5.8-5.8.5-9-.4-1.6-.5-3.2-1-4.7-1.7-1.5-.7-2.8-1.3-3.9-2-2.2-1.2-3.7-2.3-3.7-2.3Z"/>
            <path class="st2" d="M-399.6,282.8s-.7,1.2-1.5,3.1c-.8,1.9-1.8,4.5-2.3,7.2-.6,2.7-.7,5.6.2,8.2s2.5,4.7,5.7,6.2c2.8-1.5,4-3.7,4.3-6.2s-.4-5.4-1.3-8.2c-.5-1.4-1-2.7-1.6-3.9-.6-1.2-1.1-2.3-1.7-3.3-1-1.9-1.9-3.1-1.9-3.1Z"/>
          </g>
          <g>
            <path class="st2" d="M-440.5,291.8s1.4-.5,3.6-.9,5.1-1.1,8-1.4c3-.3,6-.3,8.6.6,2.6.8,4.9,2.4,6.7,5.4-.7,1.6-1.5,2.8-2.5,3.7-1,.8-2.3,1.4-3.7,1.7-2.7.6-6,0-9.1-1.3-3.1-1.2-6-3.1-8.2-4.8-1-.8-1.9-1.6-2.5-2.1-.5-.5-.8-.8-.8-.8Z"/>
            <path class="st2" d="M-410.4,268.8s-.8,1.1-2,3c-1.1,1.9-2.5,4.3-3.5,7s-1.6,5.6-1.1,8.3c.4,2.7,1.9,5.1,4.9,6.9,3.2-1.3,4.8-3.5,5.5-6.1.8-2.5.6-5.6,0-8.4s-1.5-5.5-2.3-7.5c-.4-1-.8-1.8-1-2.3-.4-.7-.6-.9-.6-.9Z"/>
          </g>
          <g>
            <path class="st2" d="M-453.5,273.5s1.5-.3,3.8-.6c2.3-.3,5.3-.5,8.3-.5,3,0,6.1.4,8.7,1.5,2.5,1.1,4.6,3,5.9,6.3-1.9,3.1-4.3,4.5-7.2,4.8-2.8.3-6.1-.8-9-2.3-1.5-.8-2.9-1.8-4.1-2.8s-2.3-2.1-3.3-3-1.7-1.8-2.2-2.4c-.7-.6-.9-.9-.9-.9Z"/>
            <path class="st2" d="M-419.6,253.9s-1,1-2.4,2.7-3.1,4-4.5,6.7c-1.4,2.6-2.4,5.4-2.3,8.3,0,2.7,1.1,5.3,3.9,7.5,3.5-1,5.4-3,6.6-5.5,1.1-2.5,1.4-5.5,1.2-8.4,0-1.4-.3-2.8-.5-4.1-.3-1.3-.6-2.5-.8-3.6-.3-1-.6-1.9-.8-2.4-.3-.7-.4-1-.4-1Z"/>
          </g>
          <g>
            <path class="st2" d="M-463.7,253.4s1.5,0,3.8,0c2.3,0,5.3.2,8.3.7,3,.5,6.1,1.2,8.5,2.6s4.2,3.5,5.1,6.9c-2.3,2.8-5.1,4-8,3.9-2.9,0-6-1.5-8.7-3.5s-5.1-4.6-6.6-6.8c-1.5-2.3-2.4-3.9-2.4-3.9Z"/>
            <path class="st2" d="M-427.2,238.2s-1.2.9-2.8,2.4-3.7,3.7-5.3,6c-1.7,2.4-3.1,5.2-3.5,7.9-.4,2.7.4,5.4,2.9,7.9,3.7-.6,6-2.4,7.5-4.8s2.2-5.3,2.3-8.3c0-1.4,0-2.8,0-4.1s-.2-2.5-.4-3.6c-.4-2.2-.8-3.5-.8-3.5Z"/>
          </g>
          <g>
            <path class="st2" d="M-470.8,232.1s1.5,0,3.8.5,5.2.8,8.1,1.7,5.8,2,8.1,3.7,3.8,4,4.1,7.6c-2.7,2.5-5.6,3.4-8.5,2.9s-5.7-2.3-8.2-4.6c-1.2-1.2-2.3-2.5-3.2-3.8s-1.7-2.6-2.3-3.8c-.7-1.1-1-2.2-1.4-2.9-.2-.8-.4-1.1-.4-1.1Z"/>
            <path class="st2" d="M-433.1,221.7s-1.2.8-3,2.1c-1.8,1.3-4,3.1-6,5.3-2,2.2-3.8,4.7-4.4,7.3s-.4,5.4,1.9,8.3c3.8,0,6.3-1.7,8.2-3.8,1.8-2.2,2.8-5.1,3.4-7.9.3-1.4.5-2.8.5-4.1,0-1.3,0-2.5,0-3.6-.2-2-.5-3.5-.5-3.5Z"/>
          </g>
          <g>
            <path class="st2" d="M-474.8,210s1.4.3,3.5.9,4.9,1.6,7.6,2.8,5.4,2.7,7.3,4.7c2,2,3.2,4.5,3.1,8.1-3,2.2-5.9,2.6-8.7,1.8-2.7-.8-5.3-3-7.3-5.6-1-1.3-1.9-2.8-2.6-4.2s-1.3-2.8-1.7-4c-.8-2.5-1.1-4.4-1.1-4.4Z"/>
            <path class="st2" d="M-437.3,204.7s-1.3.6-3.1,1.6c-1.9,1-4.2,2.5-6.4,4.4s-4.1,4.1-5.2,6.7-1,5.3.8,8.3c3.7.4,6.4-.8,8.4-2.7,2.1-2,3.4-4.6,4.2-7.3.4-1.3.8-2.7.9-4s.3-2.5.4-3.6c0-2-.2-3.4-.2-3.4Z"/>
          </g>
          <g>
            <path class="st2" d="M-475.4,187.6s1.3.5,3.2,1.4c1.9.8,4.3,2.2,6.8,3.7,2.4,1.6,4.8,3.4,6.4,5.6,1.6,2.3,2.4,4.9,2,8.3-3.1,1.8-6,1.9-8.6.7-2.5-1.2-4.7-3.7-6.2-6.6-.8-1.4-1.4-3-1.9-4.5-.5-1.5-.8-3-1-4.2-.6-2.5-.6-4.4-.6-4.4Z"/>
            <path class="st2" d="M-439.5,187.2s-1.3.4-3.1,1.2c-1.9.8-4.2,2-6.6,3.6-2.3,1.6-4.4,3.6-5.6,6-1.2,2.3-1.6,5.2-.2,8.4,3.5.8,6.3,0,8.4-1.6s3.8-4.1,4.8-6.7c.6-1.3.9-2.6,1.2-3.8.3-1.2.6-2.4.7-3.5.3-2.2.4-3.7.4-3.7Z"/>
          </g>
          <g>
            <path class="st2" d="M-472.8,165.6s1.1.7,2.6,1.7c1.6,1.1,3.7,2.6,5.6,4.4s3.9,3.9,5.2,6.3c1.2,2.4,1.7,5.2.8,8.5-3.2,1.3-5.9,1-8.2-.5-2.3-1.5-3.9-4.2-4.9-7.2-1-3-1.4-6.4-1.5-8.9,0-1.3,0-2.3,0-3.2,0-.7.2-1.1.2-1.1Z"/>
            <path class="st2" d="M-440.1,169.4s-1.2.3-2.9.8c-1.8.6-4.1,1.5-6.4,2.8s-4.5,3-5.9,5.3c-.8,1.1-1.2,2.3-1.5,3.8-.2,1.4-.2,2.9.3,4.6,3.2,1.3,5.9.8,8.2-.5,2.3-1.3,3.9-3.7,5.2-6.1.7-1.2,1.1-2.5,1.5-3.8s.8-2.3.9-3.4c.3-1,.4-1.9.5-2.5s.2-1,.2-1Z"/>
          </g>
          <g>
            <path class="st2" d="M-467,144.3s.8.8,2.1,2c1.2,1.2,2.8,2.9,4.3,5,1.5,2,2.9,4.3,3.7,6.8.8,2.5.8,5.3-.4,8.5-3,.9-5.5.4-7.3-1.4-.9-.8-1.6-2-2.3-3.4-.6-1.3-.9-2.8-1.2-4.3-.5-3.1-.3-6.4,0-8.9.2-1.2.4-2.3.6-3.1.4-.7.5-1.1.5-1.1Z"/>
            <path class="st2" d="M-438.9,151.3s-1,.2-2.6.6c-1.6.4-3.8,1.1-5.9,2.2s-4.3,2.5-5.9,4.6c-1.6,2.1-2.5,4.7-2.2,8.2,2.7,1.6,5.3,1.5,7.4.5,1-.6,2.1-1.3,3-2.3.8-.9,1.7-2.1,2.3-3.2s1.2-2.3,1.8-3.6c.5-1.2.8-2.3,1.2-3.4.6-2.2.8-3.6.8-3.6Z"/>
          </g>
          <g>
            <path class="st2" d="M-458,124.4s.6.8,1.3,2,1.8,3,2.7,5.1,1.8,4.4,2.1,6.9c.3,2.5,0,5.3-1.6,8.4-2.8.7-4.9-.2-6.2-2.1s-1.8-4.8-1.7-7.8c0-1.5.3-3.1.7-4.5.3-1.5.8-2.8,1.1-4,.4-1.2.8-2.2,1.1-2.9.3-.8.5-1.1.5-1.1Z"/>
            <path class="st2" d="M-435.7,133.1s-.9,0-2.3.4c-1.4.3-3.3.8-5.3,1.8s-4,2.2-5.7,4c-1.7,1.9-2.9,4.4-3,7.9,2.2,1.9,4.4,2.1,6.5,1.1,2.1-.8,3.8-2.8,5.3-5.1.8-1.1,1.4-2.3,1.9-3.5.6-1.1,1-2.3,1.4-3.3.8-1.9,1.2-3.4,1.2-3.4Z"/>
          </g>
          <g>
            <path class="st2" d="M-446.2,106.4s.3.7.6,1.9c.3,1.2.8,2.8,1,4.8.3,2,.5,4.2.2,6.7s-1,5.1-2.8,8.1c-2.4.5-4-.6-4.8-2.4-.8-1.9-.6-4.7.2-7.5.4-1.4.9-2.8,1.5-4.2.6-1.3,1.2-2.6,1.9-3.7.3-.6.6-1,.8-1.4.3-.5.6-.8.8-1.1.4-.8.7-1,.7-1Z"/>
            <path class="st2" d="M-430.6,115s-.7,0-1.8.4c-1.1.3-2.6.8-4.4,1.7-1.7.8-3.6,2-5.3,3.8-1.7,1.8-3.2,4.1-3.8,7.5.8,1,1.6,1.6,2.4,1.8s1.8,0,2.7-.3c1.8-.8,3.6-2.6,5.1-4.8.8-1.1,1.4-2.3,2.1-3.4.7-1.1,1.1-2.3,1.6-3.3.2-.5.5-.9.6-1.4.2-.4.3-.8.5-1.1.2-.5.4-.8.4-.8Z"/>
          </g>
          <g>
            <path class="st2" d="M-431.5,90.9s0,.6-.3,1.5c-.2.9-.5,2.3-.8,3.9s-.8,3.7-1.7,5.9c-.8,2.3-2,4.7-4.1,7.4-2,.4-3.1-.6-3.2-2.3,0-.8,0-2,.5-3.1s.9-2.4,1.7-3.7c.7-1.2,1.5-2.4,2.4-3.7.8-1.1,1.8-2.2,2.5-3.1.8-.8,1.5-1.6,2.1-2.2.6-.5.9-.8.9-.8Z"/>
            <path class="st2" d="M-423.6,96.9s-.5.2-1.3.7-2,1.1-3.4,2c-1.4.9-3.1,2.1-4.7,3.8-.8.8-1.7,1.8-2.4,2.9-.8,1.1-1.5,2.4-2.2,4.1.4.9.9,1.5,1.5,1.8.7.2,1.3,0,2.2-.2.8-.4,1.6-1,2.3-1.8.8-.8,1.6-1.8,2.3-2.9.8-1,1.5-2.3,2.2-3.4.7-1.1,1.3-2.3,1.8-3.3,1-2.2,1.7-3.7,1.7-3.7Z"/>
          </g>
          <g>
            <path class="st2" d="M-414.9,78.4s0,0-.3.2c-.2,0-.5.3-.8.6-.7.6-1.6,1.3-2.6,2.5-1,1.2-2.2,2.7-3.5,4.7-1.3,1.9-2.9,4.1-5.2,6.8-1.5.6-2-.2-1.4-1.7.5-1.4,2.1-3.5,3.9-5.4.9-1,2.1-2,3.2-2.9,1.1-.9,2.2-1.7,3.2-2.4.9-.7,1.9-1.2,2.4-1.6.3-.2.6-.4.8-.5.2,0,.3-.2.3-.2Z"/>
            <path class="st2" d="M-414.9,78.4s0,0-.2.3c0,.2-.3.5-.5.8s-.5.8-.8,1.3-.8,1-1.3,1.6c-1,1.2-2.3,2.5-3.9,4.2s-3.4,3.8-5.3,6.7c0,.8.2,1.2.6,1.3.4,0,.8,0,1.5-.5,1.2-.8,2.7-2.8,4.1-5.1.8-1.1,1.4-2.4,2.2-3.6.7-1.2,1.3-2.4,1.9-3.5.6-1,1-2,1.3-2.6.3-.6.5-1,.5-1Z"/>
          </g>
        </g>
      </g>
      <g>
        <path class="st2" d="M-389.1,52.7l.9.5c.6.3,1.3.7,2,1,1.4.8,2.8,1.5,2.8,1.5l.9-.5c.6-.3,1.4-.7,2.2-.9.8-.4,1.6-.7,2.2-.9.3,0,.6-.2.8-.3.2,0,.3,0,.3,0,0,0,0,0,0,.3,0,.2,0,.4-.2.8-.2.6-.5,1.4-.7,2.2-.3.8-.5,1.6-.6,2.2-.2.6-.3.9-.3.9,0,0,1,1.2,2.2,2.3,1,1.2,2.1,2.4,2.1,2.4,0,0-.4,0-.9,0-.3,0-.7,0-1,0-.4,0-.8,0-1.1,0-.8,0-1.6,0-2.2.2s-.9,0-.9,0c0,0-.8,1.4-1.4,2.8-.2.4-.4.7-.5,1-.2.4-.3.7-.4.9-.3.6-.4.8-.4.8l-1.5-2.8-1.5-2.8s-.4,0-1,0c-.6,0-1.4-.2-2.3-.2-.8,0-1.6,0-2.3-.2-.7,0-1,0-1,0,0,0,0,0,.2-.2,0,0,.3-.4.6-.6.5-.5,1-1.1,1.6-1.7.6-.6,1.2-1.2,1.7-1.7l.8-.8s-.2-1.6-.4-3.2c-.3-1.6-.5-3.3-.5-3.3Z"/>
        <path class="st2" d="M-352.7,30.5s1.6,1.5,3.2,3.1l3.1,3.1s.6,0,1.4-.2,2-.3,3.2-.4c1.1-.2,2.3-.2,3.2-.3.8,0,1.4,0,1.4,0,0,0-1.3,1.8-2.5,3.7s-2.3,3.7-2.3,3.7c0,0,.8,2,1.8,3.9.8,2,1.7,3.9,1.7,3.9,0,0-.5,0-1.3-.3-.8-.2-1.8-.5-2.8-.7s-2.1-.5-2.8-.6c-.8-.2-1.3-.3-1.3-.3,0,0-.4.4-.9.9s-1.3,1.3-2,2.2c-.4.4-.8.8-1,1.1-.4.4-.7.8-.9,1-.6.6-.8.9-.8.9,0,0-.4-2.1-.8-4.2-.4-2.2-.8-4.2-.8-4.2,0,0-.5-.2-1.2-.6-.8-.3-1.8-.8-2.8-1.1-2.1-.8-4.1-1.6-4.1-1.6,0,0,.5-.3,1.2-.7.8-.4,1.8-1,2.8-1.5,1-.6,2.1-1,2.8-1.5l1.3-.7s.4-2.2.8-4.3c.2-2.3.7-4.5.7-4.5Z"/>
        <path class="st2" d="M-301.5,16.5s1.6,2.8,3.1,5.6,1.5,2.8,2.1,3.9c.6,1,.9,1.8.9,1.8,0,0,.8.2,2.1.4,1.2.2,2.9.5,4.6.8s3.3.7,4.5.9,2.1.5,2.1.5c0,0-.7.5-1.6,1.2s-2.3,1.8-3.5,2.8c-1.2,1-2.4,2.1-3.4,2.8s-1.5,1.3-1.5,1.3c0,0,.4,3.1.8,6.2.4,3.1.8,6.2.8,6.2,0,0-.2,0-.5-.3-.3-.2-.7-.4-1.2-.8-1-.6-2.3-1.4-3.7-2.2-2.7-1.5-5.4-3-5.4-3,0,0-2.8,1.5-5.4,3-1.3.8-2.6,1.6-3.7,2.2-.5.3-.9.6-1.2.8-.3.2-.5.3-.5.3,0,0,.4-3.1.8-6.2.4-3.1.8-6.2.8-6.2,0,0-.6-.6-1.5-1.3s-2.2-1.8-3.4-2.8-2.5-2.1-3.5-2.8-1.6-1.2-1.6-1.2c0,0,.8-.2,2.1-.5s2.9-.6,4.5-.9c1.7-.4,3.3-.6,4.6-.8,1.2-.2,2.1-.4,2.1-.4,0,0,.4-.8.9-1.8s1.3-2.4,2.1-3.9c1.3-2.8,2.9-5.6,2.9-5.6Z"/>
        <path class="st2" d="M-250.4,30.5s.5,2.2.8,4.3c.4,2.2.8,4.3.8,4.3l1.3.7c.8.4,1.8.9,2.8,1.5s2,1.1,2.8,1.5c.8.4,1.2.7,1.2.7,0,0-2.1.8-4.1,1.6-1,.4-2.1.8-2.8,1.1-.8.3-1.2.6-1.2.6,0,0-.4,2.2-.8,4.2s-.8,4.2-.8,4.2c0,0-.4-.4-.8-.9-.3-.3-.6-.7-.9-1s-.7-.8-1-1.1c-.8-.8-1.4-1.6-2-2.2-.6-.6-.9-.9-.9-.9,0,0-.6,0-1.3.3-.8,0-1.8.4-2.8.6s-2.1.5-2.8.7-1.3.3-1.3.3l1.7-3.9c.8-2,1.8-3.9,1.8-3.9,0,0-1.1-1.9-2.3-3.7s-2.5-3.7-2.5-3.7c0,0,.6,0,1.4,0,.8,0,2,.2,3.2.3,1.1,0,2.3.3,3.2.4.8,0,1.4.2,1.4.2,0,0,1.5-1.6,3.1-3.1,1.4-1.3,3-2.9,3-2.9Z"/>
        <path class="st2" d="M-214,52.7s-.2,1.6-.4,3.3c-.2,1.6-.4,3.2-.4,3.2,0,0,.3.3.8.8s1,1,1.7,1.7c.6.6,1.2,1.2,1.6,1.7.2.2.4.5.6.6l.2.2s-.4,0-1,0c-.7,0-1.4,0-2.3.2s-1.6.2-2.3.2c-.6,0-1,0-1,0,0,0-.8,1.4-1.5,2.8-.8,1.4-1.5,2.8-1.5,2.8,0,0-.2-.4-.4-.8,0-.3-.3-.6-.4-.9-.2-.4-.4-.7-.5-1-.7-1.4-1.4-2.8-1.4-2.8,0,0-.4,0-.9,0s-1.4,0-2.2-.2c-.4,0-.8,0-1.1,0s-.8,0-1,0c-.6,0-.9,0-.9,0,0,0,1-1.2,2.1-2.4,1-1.2,2.2-2.3,2.2-2.3,0,0,0-.4-.3-.9-.2-.6-.4-1.4-.6-2.2s-.5-1.6-.7-2.2-.2-.6-.2-.8c0-.2,0-.3,0-.3,0,0,0,0,.3,0,.2,0,.4.2.8.3.6.3,1.4.6,2.2.9s1.6.7,2.2.9l.9.5s1.4-.8,2.8-1.5c.8-.4,1.4-.8,2-1,.5-.3.8-.5.8-.5Z"/>
      </g>
    </g>
    <g>
      <path class="st2" d="M-355.8,279v19h-9v-18.9l-10.4-24.7h10.6l5.2,14.9,5.5-14.9h8.1l-9.9,24.5Z"/>
      <path class="st2" d="M-341.7,254.5h21.3v8.8h-12.2v9h8.7v7.2h-8.7v9.6h12.3v8.8h-21.4v-43.4Z"/>
      <path class="st2" d="M-308,254.5h11.7l8.4,43.4h-10.8l-1.3-8h-8.2l-1.5,8h-8.1l9.7-43.4ZM-307.2,282.8h6.4l-3.1-17.3-3.3,17.3Z"/>
      <path class="st2" d="M-257.6,297.9h-7.2c-2.2,0-2.6-1.5-2.7-3.6l-.5-10.1c-.2-3.2-1.7-4.1-3.8-4.1h-2.4v17.8h-9v-43.4h14.2c6.8,0,10.8,3.5,10.8,10.2v4.5c0,4.3-2.8,6.5-5.4,7.3v.2c2.3.5,4.6,2.4,4.9,6.8l.6,9.8c0,1.7.3,2.8.8,3.6v1h0ZM-267.4,269.3v-2.7c0-2.5-1.3-3.8-3.9-3.8h-3.1v10.3h3.1c2.6,0,3.9-1.1,3.9-3.8Z"/>
      <path class="st2" d="M-254.1,285.7v-2.4l6.9-.7v2.2c0,5.2,1.1,6.8,4.2,6.8s4.3-1.7,4.3-5.4-1.1-4-2.9-5.2l-5.6-3.8c-5-3.5-6.5-5.9-6.5-11.5s3.8-11.5,11.8-11.5,12,2.9,12,10.9v3.1l-6.9.7v-2.5c0-3.2-.9-5.3-3.8-5.3s-3.8,2-3.8,4.7.9,3.9,3.6,5.5l5.9,4c3.8,2.5,5.7,5.3,5.7,11.2s-3.3,12.5-12.5,12.5c-7.7,0-12.6-3.5-12.6-12.9Z"/>
    </g>
  </g>
  <g id="_x33_8">
    <path class="st2" d="M201.1,315.3c-30.2,0-41.9-17.4-41.9-40.3v-12.4l29.6-1.4v9.7c0,8.2,3.2,14.7,12,14.7s12.7-6.3,12.7-17.9v-6.3c0-11.5-4.5-17.2-19.6-17.2h-11.9l1.4-31.2h11.6c12.2,0,17.2-5.7,17.2-16.5v-5.2c0-9.3-3.1-14.5-10.9-14.5s-10.9,5.7-10.9,14.2v10.2l-29.2-1.6v-10.6c0-23.1,12.7-41.8,40-41.8s41.9,20.1,41.9,38.7v9c0,16.1-8.5,26.9-19.3,31.2v.7c13.3,3.6,21.4,14.7,21.4,33.9v10.9c0,20.4-9.6,43.7-44,43.7h0Z"/>
    <path class="st2" d="M296.1,315.3c-32,0-44.2-16.3-44.2-38.7v-12.2c0-17.9,8.5-31.2,20.7-35.3v-.4c-11.1-4.3-19.1-15.6-19.1-29.8v-9.5c0-26.7,15.6-42.1,43.7-42.1s41.9,14,41.9,40.3v9.5c0,14.2-6.6,25.1-18.3,31.2v.9c12,2.9,20.1,16.3,20.1,32.8v13.1c0,24.2-14,40.3-44.8,40.3h0ZM296.6,286.8c10,0,12.9-8.6,12.9-18.3v-5.9c0-11.5-3.7-18.1-12.7-18.1s-13.2,7.2-13.2,18.3v7.7c0,8.4,3.2,16.3,13,16.3ZM296.6,216.5c7.7,0,10.9-7,10.9-16.5v-6.8c0-7.2-1.8-14.9-11.1-14.9s-11.2,7.5-11.2,16.1v5.7c0,8.8,3.1,16.5,11.4,16.5h0Z"/>
  </g>
  <metadata>
    <sfw xmlns="http://ns.adobe.com/SaveForWeb/1.0/">
      <slices/>
      <sliceSourceBounds x="-475.43" y="75" width="910.83" height="408.53" bottomLeftOrigin="true"/>
    </sfw>
  </metadata>
</svg>