<?xml version="1.0" encoding="UTF-8"?><svg id="Layer_1" xmlns="http://www.w3.org/2000/svg" viewBox="0 0 500 500"><defs><style>.cls-1{fill:#495f71;stroke-width:0px;}</style></defs><path class="cls-1" d="m288.02,156.33c-.1.05-61.48,31.71-31.94,90.6,21.41,42.64,64.49,43.2,64.49,43.2l22.04-124.08-54.36-9.67-.23-.04Z"/><polygon class="cls-1" points="186.07 304.45 195.28 306.11 192.04 298.1 186.07 304.45"/><path class="cls-1" d="m260.89,308.8c-3-.54-5.5-.41-7.48.39-1.99.8-3.16,2.23-3.53,4.29-.37,2.06.25,3.82,1.83,5.24,1.59,1.44,3.88,2.43,6.88,2.97,3,.54,5.48.39,7.44-.4,1.97-.81,3.13-2.25,3.49-4.31.36-2.06-.24-3.81-1.8-5.24-1.56-1.43-3.85-2.41-6.85-2.94Z"/><path class="cls-1" d="m233.84,267.6c-35.97-37.58-36.24-82.24-13.68-123.09l-29.94-5.32-33.43,189.89,152.11,26.8,10.07-56.74s-49.17,6.02-85.13-31.55Zm-35.33,46.22l-1.67-4.17-13.41-2.39-3.12,3.32-7.92-1.4,16.19-16.02,8.56,1.52,9.59,20.61-8.22-1.47Zm41.82-8.11l-10.84-1.93-2.68,15.07-7.62-1.36,2.67-15.08-10.89-1.94.58-3.24,29.37,5.22-.58,3.25Zm36.78,12.62c-.58,3.28-2.85,5.48-6.82,6.58-3,.94-7.07.95-12.26.03-5.18-.93-9.01-2.34-11.49-4.25-3.36-2.4-4.75-5.25-4.18-8.54.61-3.35,2.89-5.55,6.86-6.57,2.99-.95,7.08-.95,12.26-.03,5.17.92,9.01,2.34,11.5,4.25,3.36,2.34,4.74,5.17,4.14,8.53Zm29.7,14.75l-25.54-4.55,3.25-18.32,7.58,1.35-2.67,15.03,17.96,3.19-.57,3.3Z"/><path class="cls-1" d="m434.64,282.58h0m-215.09,140.28c-95.24-16.81-159.05-108.03-142.27-203.35,16.8-95.32,107.94-159.2,203.17-142.39,95.24,16.81,159.05,108.03,142.26,203.35-16.79,95.31-107.93,159.19-203.17,142.38ZM65.36,217.41c-17.94,101.89,50.28,199.41,152.08,217.38,101.81,17.96,199.23-50.32,217.19-152.21,1.93-10.98,2.86-21.9,2.86-32.68,0-89.3-64.1-168.66-154.94-184.69-101.81-17.97-199.24,50.31-217.19,152.2Z"/><path class="cls-1" d="m108.96,285.05c.39,1.21.79,2.47,1.39,3.56,1.99,3.34,5.51,3.81,8.89,2.89,4.45-1.22,6.77-4.29,5.98-7.19l-.95-3.45-15.32,4.19m-19.76,5.4c-.27-1.43-.48-2.86-.86-4.25-.38-1.39-.92-2.73-1.42-4.09l38.08-10.39,3.73,13.67c2.11,7.72.14,12.73-6.14,14.45-9.88,2.7-13.96-3.95-16.69-13.95l-16.71,4.57Z"/><path class="cls-1" d="m122.75,319.3c2.57,5.5,6.56,6.62,11.67,3.62.7-.41,1.42-.89,2.34-1.71,3.65-3.21,1.07-6.7-.71-9.74l-13.3,7.82m11.61-16.84l6.2,10.58c1.37,2.34,3.6,5.9,3.73,8.63.17,3.71-1.19,6.51-4.56,8.49-4.86,2.85-9.77,1.54-13.48-2.5-3.16,5.53-5.91,11.3-8.79,16.99l-1.94,3.74c-.77-1.55-1.49-3.12-2.4-4.67-.88-1.49-1.9-2.89-2.87-4.32l6.95-12.03c.91-1.53,2.37-4.26,3.62-6.47l-.21-.35-15.93,9.36c-.62-1.3-1.2-2.63-1.93-3.87-.73-1.24-1.61-2.4-2.43-3.58l34.04-20Z"/><path class="cls-1" d="m143.54,353.1c-4.92,5.63-7.6,13.85-1.1,19.55,6.67,5.84,15.49,1.78,21.78-5.41,4.89-5.59,7.89-14.28,1.4-19.97-6.02-5.28-13.59-3.87-22.08,5.84m-3.6,21.95c-9.56-8.38-11.09-19.66-2.48-29.51,7.54-8.62,19.93-10.1,30.7-.65,12.34,10.81,8.36,22.71,2.53,29.46-7.35,8.49-20.14,9.99-30.75.69Z"/><path class="cls-1" d="m188.17,404.01c-1.28-.68-2.53-1.41-3.84-1.98-1.32-.58-2.71-.99-4.08-1.46l14.05-32.51c-3.75-1.62-7.24-2.69-10.14-3.51.42-.7.9-1.36,1.25-2.16.32-.74.48-1.55.7-2.34l27.2,11.77c-.43.69-.91,1.37-1.23,2.11-.35.79-.5,1.6-.72,2.38-2.95-1.72-5.92-3.43-9.13-4.83l-14.05,32.51"/><path class="cls-1" d="m240.76,376.6c-.25.77-.56,1.6-.69,2.4-.14.79-.11,1.68-.13,2.49-3.39-1.04-7.17-2.16-12.97-3.02l-2.07,12.21,5.9.99c2.55.43,4.92.6,7.07.67-.25.77-.56,1.6-.7,2.4-.13.79-.11,1.67-.13,2.49-2.05-.64-4.33-1.26-6.88-1.69l-5.9-1-2.44,14.42c5.8.93,9.7,1.3,13.24,1.43-.24.77-.56,1.6-.69,2.4-.14.79-.11,1.67-.14,2.49l-21.61-3.68,6.56-38.66,21.61,3.67"/><path class="cls-1" d="m281.97,406.88l-.78,5.04c-3.27,2.11-7.26,3.2-11.11,3.57-12.26,1.19-22.27-5.47-23.4-17.23-1.45-14.97,8.21-22.79,20.68-24,3.78-.36,8.46.17,11.96,1.68-.33,2-.48,3.98-.75,6.04l-.8.07c-2.42-2.88-6.29-4.71-10.02-4.35-9.51.92-12.47,10.4-11.65,18.84.95,9.8,6.43,16.22,15.25,15.36,3.56-.35,7.5-2.58,9.84-5.3l.78.28"/><path class="cls-1" d="m314.59,402.85c-1.38.42-2.79.78-4.12,1.3-1.34.53-2.61,1.22-3.91,1.86l-12.93-32.98c-3.8,1.5-7.03,3.19-9.67,4.67-.19-.79-.32-1.61-.64-2.41-.29-.75-.75-1.44-1.15-2.14l27.59-10.84c.18.79.32,1.6.61,2.36.31.8.77,1.49,1.17,2.2-3.31.87-6.62,1.73-9.88,3.01l12.93,32.98"/><path class="cls-1" d="m332.61,346.32c.37.72.72,1.53,1.19,2.19.46.66,1.1,1.27,1.66,1.86-3.13,1.65-6.6,3.53-11.32,7.01l7.12,10.12,4.9-3.46c2.11-1.49,3.91-3.04,5.49-4.51.36.73.73,1.53,1.19,2.19.46.66,1.1,1.26,1.66,1.86-1.9.99-3.97,2.17-6.08,3.66l-4.89,3.46,8.42,11.95c4.76-3.43,7.79-5.92,10.4-8.32.37.73.72,1.53,1.19,2.19.46.66,1.11,1.26,1.66,1.86l-17.92,12.65-22.58-32.05,17.92-12.65"/><path class="cls-1" d="m371.78,357.48l3.04-3.84c4.92-6.24,5.56-13.44-5.01-21.8-8.49-6.72-15-5.34-20.03,1.03l-3.5,4.43,25.5,20.17m-21.26-30.92c8-9.38,17.86-8.03,25.26-2.18,10.2,8.07,10.58,20.04,3.26,29.3l-10,12.65-30.73-24.33,12.21-15.45Z"/><path class="cls-1" d="m203.91,105.32l5.11.89c2.91.51,4.99.25,6.24-.77,1.25-1.02,1.99-2.22,2.23-3.6.27-1.54-.07-3-1-4.4-.94-1.4-2.44-2.27-4.5-2.63-3.93-.69-6.76.95-8.5,4.92l-9.77-3.35c1.48-3.59,4.02-6.34,7.63-8.23,3.61-1.89,7.75-2.43,12.41-1.62,4.87.85,8.77,2.73,11.69,5.63,2.92,2.9,4.03,6.37,3.32,10.39-.92,5.28-4.32,8.41-10.2,9.38,6.2,2.86,8.79,7.26,7.75,13.2-.74,4.26-3.02,7.46-6.82,9.63-3.8,2.16-8.63,2.73-14.47,1.71-5.61-.98-9.8-3.16-12.59-6.56-2.79-3.39-4.14-7.24-4.08-11.53l10.55.31c.12,5.17,2.57,8.17,7.35,9,2.23.39,4.13.11,5.72-.82,1.59-.94,2.56-2.4,2.9-4.38.37-2.1,0-3.78-1.08-5.04-1.09-1.26-3.42-2.2-6.99-2.82l-4.44-.77,1.49-8.52Z"/><path class="cls-1" d="m270.55,107.45l-21.16-3.69-2.66,10.66c3.09-2.31,6.77-3.1,11.05-2.35,4.38.77,7.84,2.85,10.39,6.26,2.55,3.41,3.43,7.38,2.64,11.93-.88,5.04-3.25,8.88-7.11,11.51-3.86,2.63-8.76,3.43-14.7,2.39-10.32-1.8-15.9-7.51-16.73-17.11l10.93.26c.35,4.45,2.67,7.05,6.98,7.8,2.37.41,4.38,0,6.03-1.22,1.65-1.22,2.65-2.83,3-4.82.36-2.08-.06-4-1.27-5.74-1.21-1.75-2.89-2.81-5.04-3.18-3-.53-5.54.32-7.61,2.55l-8.98-3.14,6.7-27.15,30.53,5.33-2.98,9.72Z"/><path class="cls-1" d="m278.75,118.32l1.74-9.97c8.81-1,14.85-3.33,18.12-7l8.24,1.44-7.04,40.32,13.41,2.34-1.55,8.87-39.26-6.85,1.55-8.88,14.69,2.57,4.84-27.72c-6.39,2.49-11.3,4.12-14.75,4.89Z"/><path class="cls-1" d="m355.53,112.04l-1.51,8.63c-2.61,1.94-5.65,5.12-9.11,9.55-3.47,4.43-6.04,8.9-7.72,13.41-1.68,4.51-2.76,8.14-3.24,10.88-.14.83-.3,2.03-.48,3.61l-12.99-2.27c.74-3.8,1.7-7.21,2.88-10.23,1.19-3.02,3.04-6.39,5.57-10.11,2.53-3.72,4.94-6.72,7.24-9.01,2.3-2.29,4.77-4.37,7.41-6.22l-24.56-4.29,2.6-9.86,33.9,5.92Z"/></svg>