<?xml version="1.0" encoding="UTF-8"?><svg id="Layer_1" xmlns="http://www.w3.org/2000/svg" viewBox="0 0 500 500"><defs><style>.cls-1{fill:#495f71;stroke-width:0px;}</style></defs><path class="cls-1" d="m33.43,317.43h-9.12v28.28h-6.18v-28.28h-9.68v-5.12h26.45l-1.47,5.12Z"/><path class="cls-1" d="m47.87,327.36c-1.01-.61-2.08-.76-2.84-.76-1.42,0-2.99.66-4.61,2.13v16.98h-6.08v-23.97h5.12l.71,2.53c2.43-2.18,4.31-3.09,6.64-3.09,1.12,0,2.43.36,3.35,1.01l-2.28,5.17Z"/><path class="cls-1" d="m66.41,345.71l-1.01-2.13c-1.57,1.42-3.75,2.64-6.94,2.64-4.41,0-7.85-2.99-7.85-7.7,0-4.97,3.9-7.65,10.08-7.85l4.26-.15v-.61c0-2.89-2.08-4.05-4.61-4.05s-4.66.86-6.18,1.77l-1.93-3.8c3.19-2.13,6.18-2.64,9.38-2.64,5.93,0,9.48,2.43,9.48,8.72v9.48c0,3.45.1,5.22.46,6.33h-5.12Zm-1.52-11l-3.45.1c-3.29.1-4.76,1.22-4.76,3.24s1.37,3.34,3.9,3.34c2.13,0,3.55-.81,4.31-1.52v-5.17Z"/><path class="cls-1" d="m87.59,345.86h-4.41l-9.88-24.12h6.23l5.98,16.32h.1l6.08-16.32h5.88l-9.98,24.12Z"/><path class="cls-1" d="m104.91,335.32c.1,3.55,3.04,6.03,6.74,6.03,2.28,0,4.16-.56,6.23-1.67l1.47,3.9c-2.69,1.87-5.88,2.64-8.72,2.64-8.36,0-11.91-6.08-11.91-12.52,0-6.84,4.05-12.52,10.9-12.52,6.49,0,10.74,4.92,10.74,12.37v1.77h-15.46Zm4.56-9.58c-2.94,0-4.71,2.64-4.71,5.27h9.32c-.1-2.58-1.52-5.27-4.61-5.27Z"/><path class="cls-1" d="m130.45,346.21c-4,0-5.52-2.28-5.52-5.27v-31.12h6.08v28.43c0,1.77.35,2.48,1.62,2.48.41,0,.91-.05,1.77-.25l.76,4.51c-1.77.96-3.34,1.22-4.71,1.22Z"/><path class="cls-1" d="m176.87,345.86h-4.61l-5.37-16.32h-.15l-5.37,16.32h-4.61l-8.72-24.12h6.18l5.12,16.22h.15l5.27-16.22h4.61l5.37,16.27h.1l5.07-16.27h5.83l-8.87,24.12Z"/><path class="cls-1" d="m192.48,318.04c-2.13,0-3.75-1.62-3.75-3.7s1.62-3.65,3.75-3.65,3.75,1.62,3.75,3.65-1.62,3.7-3.75,3.7Zm-3.04,27.67v-23.97h6.08v23.97h-6.08Z"/><path class="cls-1" d="m210.01,346.21c-4.26,0-5.93-2.38-5.93-5.62v-14.29h-4.26v-4.56h4.26v-5.52l6.08-1.82v7.35h7.45l-1.77,4.56h-5.68v12.06c0,1.87.71,2.74,2.28,2.74s3.09-.71,4-1.32l1.62,3.85c-2.48,1.77-5.73,2.58-8.06,2.58Z"/><path class="cls-1" d="m236.97,345.71v-13.99c0-2.69-.41-5.22-3.65-5.22-2.08,0-4.21,1.16-5.83,2.53v16.67h-6.08v-35.88h6.08v14.49c2.23-1.82,4.87-3.14,7.96-3.14,3.7,0,7.65,1.77,7.65,8.82v15.71h-6.13Z"/><path class="cls-1" d="m271.38,346.21c-7.8,0-11.81-5.62-11.81-12.37,0-7.3,5.27-12.67,12.42-12.67,3.24,0,5.47.81,6.84,1.67l-.1,4.97c-1.67-1.27-3.55-1.98-6.03-1.98-4.11,0-7.04,3.24-7.04,7.7,0,4.11,2.23,7.75,6.99,7.75,2.28,0,4-.71,5.68-1.67l1.52,4c-1.92,1.32-5.17,2.58-8.46,2.58Z"/><path class="cls-1" d="m302.8,342.77c-2.13,2.18-5.07,3.45-8.67,3.45-3.34,0-6.18-1.06-8.26-2.99-2.38-2.23-3.7-5.52-3.7-9.38s1.27-6.99,3.5-9.27c2.13-2.13,5.02-3.4,8.51-3.4,3.7,0,6.69,1.27,8.82,3.45,2.08,2.23,3.19,5.37,3.19,9.02s-1.16,6.89-3.39,9.12Zm-8.72-16.77c-3.85,0-5.73,3.24-5.73,7.7s2.18,7.8,5.88,7.8,5.73-3.29,5.73-7.8-2.13-7.7-5.88-7.7Z"/><path class="cls-1" d="m326.51,345.71v-14.09c0-2.48-.46-5.22-3.55-5.22-2.13,0-4.21,1.11-6.08,2.53v16.77h-6.08v-23.97h5.17l.66,2.58c2.58-1.92,5.17-3.14,8.41-3.14,3.65,0,7.55,2.18,7.55,8.62v15.91h-6.08Z"/><path class="cls-1" d="m352,315.35c-.96-.41-2.03-.66-3.04-.66-1.92,0-2.84,1.17-2.84,3.24v3.8h6.34l-1.57,4.66h-4.76v19.31h-6.08v-19.31h-3.5v-4.66h3.5v-3.34c0-7.09,5.12-8.56,8.46-8.56,1.27,0,3.14.3,4.71,1.06l-1.22,4.46Z"/><path class="cls-1" d="m359.65,318.04c-2.13,0-3.75-1.62-3.75-3.7s1.62-3.65,3.75-3.65,3.75,1.62,3.75,3.65-1.62,3.7-3.75,3.7Zm-3.04,27.67v-23.97h6.08v23.97h-6.08Z"/><path class="cls-1" d="m381.03,346.21c-7.15,0-13.02-4.21-13.02-12.31,0-7.45,5.52-12.72,13.28-12.72,1.22,0,2.18.05,3.04.2v-11.55h6.08v34.46c-2.28,1.16-5.27,1.92-9.37,1.92Zm3.29-19.86c-.81-.2-1.52-.36-2.84-.36-4.31,0-7.4,2.89-7.4,7.6,0,4.36,2.84,7.6,7.5,7.6.96,0,2.03-.15,2.74-.36v-14.49Z"/><path class="cls-1" d="m401.05,335.32c.1,3.55,3.04,6.03,6.74,6.03,2.28,0,4.16-.56,6.23-1.67l1.47,3.9c-2.69,1.87-5.88,2.64-8.72,2.64-8.36,0-11.91-6.08-11.91-12.52,0-6.84,4.05-12.52,10.9-12.52,6.49,0,10.74,4.92,10.74,12.37v1.77h-15.46Zm4.56-9.58c-2.94,0-4.71,2.64-4.71,5.27h9.32c-.1-2.58-1.52-5.27-4.61-5.27Z"/><path class="cls-1" d="m436.77,345.71v-14.09c0-2.48-.46-5.22-3.55-5.22-2.13,0-4.21,1.11-6.08,2.53v16.77h-6.08v-23.97h5.17l.66,2.58c2.58-1.92,5.17-3.14,8.41-3.14,3.65,0,7.55,2.18,7.55,8.62v15.91h-6.08Z"/><path class="cls-1" d="m459.12,346.21c-7.8,0-11.81-5.62-11.81-12.37,0-7.3,5.27-12.67,12.42-12.67,3.24,0,5.47.81,6.84,1.67l-.1,4.97c-1.67-1.27-3.55-1.98-6.03-1.98-4.11,0-7.04,3.24-7.04,7.7,0,4.11,2.23,7.75,6.99,7.75,2.28,0,4-.71,5.68-1.67l1.52,4c-1.92,1.32-5.17,2.58-8.46,2.58Z"/><path class="cls-1" d="m476.1,335.32c.1,3.55,3.04,6.03,6.74,6.03,2.28,0,4.16-.56,6.23-1.67l1.47,3.9c-2.69,1.87-5.88,2.64-8.72,2.64-8.36,0-11.91-6.08-11.91-12.52,0-6.84,4.05-12.52,10.9-12.52,6.49,0,10.74,4.92,10.74,12.37v1.77h-15.46Zm4.56-9.58c-2.94,0-4.71,2.64-4.71,5.27h9.32c-.1-2.58-1.52-5.27-4.61-5.27Z"/><path class="cls-1" d="m287.41,281.74h-35.75v-112.65h35.21c22.75,0,33.17,15.56,33.17,29.23,0,10.78-4.46,17.96-13.5,23.42v.34c13,2.9,20.84,11.97,20.84,25.64,0,16.08-11.63,34.01-39.98,34.01Zm-3.43-95.19h-11.63v29.39h10.92c9.26,0,16.09-5.97,16.09-15.39,0-8.02-5.47-14-15.38-14Zm3.92,46.65h-15.55v31.12h13.17c13.84,0,20.67-6.17,20.67-16.41,0-8.73-6.67-14.71-18.29-14.71Z"/><path class="cls-1" d="m410.36,186.36h-30v95.38h-20.86v-95.38h-32.64v-17.27h90.23l-6.72,17.27Z"/><path class="cls-1" d="m220.2,281.74l-11.13-28.24h-40.21l-10.44,28.24h-20.71l43.59-112.67h15.5l45.14,112.67h-21.74Zm-26.69-71.02c-2.07-5.64-3.43-10.27-4.28-14.01h-.18c-.67,3.93-2.2,8.37-4.09,13.68l-9.77,26.24h27.42l-9.1-25.92Z"/><path class="cls-1" d="m478.25,281.74l-11.12-28.24h-40.22l-10.43,28.24h-20.71l43.58-112.67h15.51l45.13,112.67h-21.75Zm-26.68-71.02c-2.07-5.64-3.43-10.27-4.28-14.01h-.18c-.67,3.93-2.21,8.37-4.1,13.68l-9.77,26.24h27.42l-9.09-25.92Z"/><path class="cls-1" d="m68.09,153.79c-2.15,0-4.27.11-6.37.3v10.96h0v120.29h0v4.29c2.1.2,4.22.31,6.37.31,37.6,0,68.07-30.49,68.07-68.09s-30.47-68.07-68.07-68.07Zm24.89,74.28c-.28,4.34-.84,8.59-1.69,12.71h-15.95v-12.71h17.63Zm-17.63-12.71v-12.71h15.87c.86,4.11,1.45,8.37,1.74,12.71h-17.61Zm31.02,12.71h15.97c-.5,4.41-1.5,8.67-2.99,12.71h-14.68c.85-4.11,1.42-8.36,1.71-12.71Zm-.01-12.71c-.31-4.35-.91-8.59-1.78-12.71h14.66c1.52,4.03,2.54,8.28,3.06,12.71h-15.94Zm6.03-25.42h-11.5c-2.29-6.14-5.2-11.87-8.66-17.07,8.03,3.96,14.95,9.85,20.16,17.07Zm-24.82,0h-12.21v-22.18c5.05,6.49,9.19,13.97,12.21,22.18Zm-12.21,86.04v-22.49h12.34c-3.03,8.32-7.2,15.92-12.32,22.49h-.02Zm17-5.2c3.49-5.26,6.41-11.07,8.69-17.29h11.55c-5.21,7.3-12.15,13.27-20.24,17.29Z"/><path class="cls-1" d="m13.94,180.73c-6.22,8.17-10.62,17.8-12.59,28.3h40.89l-28.3-28.3Z"/><path class="cls-1" d="m55.28,195.96v-40.86c-10.48,1.98-20.09,6.37-28.28,12.58l28.28,28.28Z"/><path class="cls-1" d="m27,275.67c8.18,6.21,17.8,10.6,28.28,12.59v-40.86l-28.28,28.27Z"/><path class="cls-1" d="m42.24,234.33H1.35c1.98,10.49,6.38,20.11,12.6,28.3l28.3-28.3Z"/><path class="cls-1" d="m55.28,209.02v-5.17l-32.59-32.6c-1.82,1.63-3.54,3.34-5.17,5.14l32.62,32.62h5.14Z"/><path class="cls-1" d="m55.28,234.33v5.16l-32.59,32.6c-1.82-1.63-3.54-3.34-5.17-5.15l32.62-32.61h5.14Z"/><path class="cls-1" d="m55.28,215.52H.31c-.2,2.08-.31,4.2-.31,6.33s.11,4.25.31,6.34h54.97v-12.67Z"/></svg>