<?xml version="1.0" encoding="UTF-8"?><svg id="Layer_1" xmlns="http://www.w3.org/2000/svg" viewBox="0 0 500 500"><defs><style>.cls-1{fill:#495f71;stroke-width:0px;}</style></defs><path class="cls-1" d="m250,425c-1.02,0-2.04-.09-3.05-.26-1.18-.2-12.02-2.16-27.71-8.86-9.12-3.89-18.14-8.64-26.8-14.11-10.78-6.81-21.04-14.76-30.51-23.65-23.89-22.43-42.87-50.81-56.41-84.35-7.91-19.6-14.03-41.2-18.17-64.2-4.5-25.01-6.79-52.3-6.79-81.11,0-7.19,4.24-13.71,10.82-16.61l125.16-55.3c9.17-4.05,19.9.1,23.95,9.27,4.05,9.17-.1,19.9-9.27,23.95l-114.2,50.46c1.06,45.14,8.31,84.93,21.57,118.42,11.3,28.52,26.98,52.57,46.62,71.48,17.44,16.79,34.91,26.43,46.5,31.56,7.83,3.47,14.13,5.41,17.82,6.39,3.72-1.18,10.08-3.45,18-7.3,11.7-5.69,29.35-16.13,46.95-33.52,19.77-19.53,35.54-43.77,46.89-72.05,13.23-32.98,20.48-71.61,21.58-114.99l-40.91-18.08-90.13,159.58c-2.79,4.94-7.73,8.3-13.36,9.06-5.62.77-11.28-1.14-15.3-5.15l-47.35-47.35c-7.09-7.09-7.09-18.59,0-25.69,7.09-7.09,18.59-7.09,25.69,0l30.45,30.45,86.47-153.1c4.59-8.13,14.61-11.46,23.15-7.68l66.94,29.58c6.58,2.91,10.82,9.42,10.82,16.61,0,53.54-8.41,101.27-24.98,141.88-13.51,33.08-32.41,61.51-56.19,84.49-41.01,39.63-82.52,49.32-84.27,49.72-1.31.29-2.65.44-3.99.44Z"/></svg>