<?xml version="1.0" encoding="UTF-8"?><svg id="Layer_1" xmlns="http://www.w3.org/2000/svg" viewBox="0 0 500 448.24"><defs><style>.cls-1{fill:#c05a7e;stroke-width:0px;}</style></defs><g id="_7"><path class="cls-1" d="m462.72,129.57c-3.43,0-6.74,1.35-9.83,3.85-6.29-14.69-14.18-28.63-23.6-41.71-16.66-23.13-37.4-42.58-61.64-57.82-24.24-15.24-50.76-25.5-78.82-30.49-29.06-5.17-58.51-4.44-87.52,2.18-29.01,6.61-55.87,18.72-79.82,35.97-23.13,16.66-42.58,37.4-57.82,61.64-6.19,9.85-11.56,20.07-16.09,30.62-3.22-2.74-6.69-4.23-10.3-4.23C20.11,129.57,0,163.3,0,204.9s20.11,75.33,37.28,75.33c3.45,0,6.78-1.37,9.88-3.89,4.6-1.42,7.41-6.17,6.32-10.94-11.99-52.57-2.78-106.67,25.92-152.32,28.7-45.65,73.46-77.39,126.04-89.38,52.57-11.99,106.67-2.78,152.32,25.92,45.65,28.7,77.39,73.46,89.38,126.04,11.99,52.57,2.78,106.67-25.92,152.32-28.12,44.73-71.66,76.1-122.86,88.62-7.09-7.55-22.43-12.77-40.2-12.77-24.52,0-44.4,9.94-44.4,22.2s19.88,22.2,44.4,22.2c17.62,0,32.85-5.13,40.02-12.57.38-.04.75-.1,1.13-.18,29.01-6.61,55.87-18.72,79.82-35.97,23.13-16.66,42.58-37.4,57.82-61.64,11.35-18.05,19.93-37.37,25.64-57.65.04,0,.08,0,.13,0,17.17,0,37.28-33.73,37.28-75.33s-20.11-75.33-37.28-75.33Z"/><polygon class="cls-1" points="214.1 222.04 232.33 222.04 232.33 192.88 231.14 194.95 214.1 222.04"/><path class="cls-1" d="m413.47,148.9c-8.91-21.07-21.67-39.98-37.91-56.23-16.24-16.24-35.16-29-56.23-37.91-21.81-9.23-44.98-13.91-68.86-13.91s-47.05,4.68-68.86,13.91c-21.07,8.91-39.98,21.66-56.23,37.91-16.24,16.24-29,35.16-37.91,56.23-9.23,21.82-13.91,44.98-13.91,68.86,0,30.93,8.06,61.21,23.34,87.87l-31.3,93.99,108.53-22.24c11.18,5.36,22.93,9.53,34.97,12.41,13.47,3.23,27.39,4.87,41.37,4.87,23.88,0,47.05-4.68,68.86-13.91,21.07-8.91,39.98-21.66,56.23-37.91,16.24-16.24,29-35.16,37.91-56.23,9.23-21.82,13.9-44.98,13.9-68.86s-4.68-47.05-13.9-68.86Zm-225.03,106.16h-59.51v-12.3l27.97-29.58c3.96-4.4,6.78-8.11,8.46-11.14,1.68-3.03,2.53-5.77,2.53-8.23,0-3.8-.94-6.76-2.82-8.88-1.88-2.12-4.55-3.18-7.99-3.18-2.46,0-4.58.61-6.38,1.84-1.8,1.23-3.18,2.92-4.13,5.08-.95,2.16-1.43,4.6-1.43,7.33h-17.94c0-5.26,1.25-10.09,3.74-14.46,2.49-4.37,6.04-7.84,10.63-10.39,4.59-2.55,9.88-3.83,15.86-3.83s11.26.98,15.5,2.94c4.24,1.96,7.44,4.79,9.62,8.49,2.18,3.7,3.27,8.15,3.27,13.33,0,3.76-.76,7.4-2.29,10.93-1.53,3.52-3.66,7.04-6.42,10.54-2.75,3.5-6.34,7.55-10.78,12.15l-14.25,14.91h36.35v14.43Zm71.33-18.59h-9.5v18.59h-17.94v-18.59h-34.92l-.89-11.34,35.7-56.54h18.06v53.45h9.5v14.43Zm15.44,26.01h-13.13l31.24-93.9h13.18l-31.3,93.9Zm97.58-83.92l-33.14,76.5h-18.89l33.14-72.04h-42.53v-14.43h61.41v9.98Z"/></g></svg>