<?xml version="1.0" encoding="UTF-8"?><svg id="Layer_1" xmlns="http://www.w3.org/2000/svg" viewBox="0 0 500 286.07"><defs><style>.cls-1{fill:#c05a7e;stroke-width:0px;}</style></defs><path class="cls-1" d="m294.1,72.53l-14.19-2.1c-2.47-.36-4.98.16-7.09,1.48l-47.48,29.72c-2.09,1.31-3.66,3.32-4.41,5.66l-16.51,51.25c-.68,2.13-.34,4.4.95,6.22,1.27,1.8,3.26,2.88,5.46,2.94,13.2.4,22.98-4.67,29.07-15.04,15.9-27.1,35.28-31.76,36.1-31.94l2.25-.51,90.91,93.31s0,0,0,0h0c7.62-2.81,31.47-12.76,38.85-29.62,3.45-7.88,7.89-14.67,13.2-20.26l-53.44-99.33c-23.42,9.04-48.8,11.89-73.68,8.21Z"/><path class="cls-1" d="m499.51,151.95L423.36,10.44c-.75-1.39-2.18-2.18-3.66-2.18-.66,0-1.34.16-1.96.49l-51.02,27.45c-2.01,1.08-2.77,3.6-1.69,5.62l76.14,141.51c1.08,2.01,3.61,2.77,5.62,1.69l51.02-27.45c2.01-1.08,2.77-3.6,1.69-5.62Z"/><path class="cls-1" d="m145.66,163.67c-2.36-1.89-5.21-2.89-8.17-2.89-.6,0-1.2.04-1.81.12-3.6.49-6.75,2.38-8.88,5.33l-19.82,27.5c-4.09,5.67-3.02,13.55,2.44,17.92,2.84,2.27,6.38,3.25,9.98,2.76,3.6-.49,6.75-2.38,8.88-5.33l19.82-27.5c4.09-5.67,3.02-13.55-2.44-17.92Z"/><path class="cls-1" d="m222.81,221.01c-2.36-1.89-5.21-2.89-8.17-2.89-.6,0-1.2.04-1.81.12-3.6.49-6.75,2.38-8.88,5.33l-18.99,26.36c-4.09,5.67-3.02,13.54,2.44,17.92,2.83,2.27,6.38,3.25,9.98,2.76,3.6-.49,6.76-2.38,8.88-5.33l18.99-26.35c4.09-5.67,3.02-13.55-2.44-17.92Z"/><path class="cls-1" d="m200.25,197.52c-2.36-1.89-5.21-2.89-8.17-2.89-.6,0-1.2.04-1.81.12-3.6.49-6.75,2.38-8.88,5.33l-22.42,31.12c-4.09,5.67-3.02,13.55,2.44,17.92,2.84,2.27,6.38,3.25,9.98,2.76,3.6-.49,6.75-2.39,8.88-5.33l22.42-31.12c4.09-5.67,3.02-13.55-2.44-17.92Z"/><path class="cls-1" d="m178.53,172.86c-2.83-2.27-6.38-3.25-9.98-2.76-3.6.49-6.75,2.38-8.88,5.33l-26.69,37.04c-4.09,5.67-3.02,13.55,2.44,17.92,2.84,2.27,6.38,3.25,9.98,2.76,3.6-.49,6.75-2.38,8.88-5.33l26.69-37.04c4.09-5.67,3.02-13.55-2.44-17.92Z"/><path class="cls-1" d="m111.32,177.82c-8.2-5.29-17.32-10.67-24.11-14.49l50.6-94.04c28.5,9.56,60.9,4.1,73.86,1.21,2.02-.45,4.08-.48,6.13-.09l32.04,6.16,10.28-6.43-40.76-7.83c-3.16-.61-6.35-.56-9.48.14-9.43,2.11-41.02,7.97-68.08-.54l8.69-16.16c1.57-2.91,1.9-6.26.95-9.44s-3.08-5.79-5.99-7.36L94.43,1.48c-6.02-3.24-13.56-.98-16.8,5.05L1.48,148.04c-1.57,2.91-1.9,6.26-.95,9.44.95,3.18,3.08,5.79,5.99,7.36l51.02,27.45c1.82.98,3.82,1.48,5.84,1.48,1.2,0,2.41-.18,3.6-.53,3.18-.95,5.79-3.08,7.36-5.99l8.96-16.64c6.56,3.7,15.29,8.84,23.19,13.93l4.83-6.71Zm-33.31-14.82l-10.94,20.33c-.52.97-1.39,1.68-2.46,2-1.07.32-2.19.21-3.16-.31l-51.02-27.45c-.97-.52-1.68-1.39-2-2.46-.32-1.07-.21-2.19.31-3.16L84.9,10.44c1.08-2.01,3.6-2.77,5.62-1.69l51.02,27.45c2.01,1.08,2.77,3.6,1.69,5.62l-10.99,20.43-54.21,100.75Z"/><path class="cls-1" d="m366.6,223.08c2.97,4.65,2.37,10.91-1.73,14.91-4.69,4.57-12.24,4.48-16.81-.22l-51.62-52.98c-.8-.82-1.85-1.23-2.9-1.24-.53,0-1.06.09-1.56.28-.5.19-.97.49-1.38.89-1.22,1.19-1.55,2.96-.96,4.46.19.5.49.97.89,1.38l45.97,47.18c4.58,4.7,4.48,12.24-.22,16.81-4.7,4.57-12.24,4.48-16.81-.22l-4.57-4.69s0,0,0,0l-41.4-42.49c-1.59-1.63-4.21-1.66-5.84-.08-1.63,1.59-1.67,4.21-.08,5.84l41.41,42.49c4.57,4.69,4.47,12.23-.22,16.8-2.24,2.18-5.18,3.37-8.3,3.37h-.16c-3.18-.04-6.15-1.32-8.36-3.59l-41.4-42.49c-1.59-1.63-4.21-1.66-5.84-.08-1.63,1.59-1.67,4.21-.08,5.84l36.97,37.95c-15.34,11.17-30.79.94-57.69-22.54l-4.85,6.73c17.02,14.91,33.43,28.66,49.63,28.66,6.28,0,12.54-2.09,18.79-6.96,3.55,3,8,4.67,12.71,4.73.09,0,.18,0,.27,0,5.28,0,10.27-2.02,14.06-5.72,3.66-3.57,5.77-8.3,6.04-13.38,2.38.94,4.9,1.42,7.43,1.42,5.07,0,10.15-1.9,14.06-5.71,3.62-3.53,5.61-8.09,5.99-12.77,2.7,1.26,5.62,1.92,8.55,1.92,5.07,0,10.15-1.9,14.06-5.71,6.46-6.3,7.79-15.91,3.9-23.57l-7.93,2.75Z"/></svg>