<?xml version="1.0" encoding="UTF-8"?><svg id="Layer_1" xmlns="http://www.w3.org/2000/svg" viewBox="0 0 500 500"><defs><style>.cls-1{fill:#c05a7e;stroke-width:0px;}</style></defs><path class="cls-1" d="m235.75,374.19c-1.7,8.17-2.5,16.69-2.5,25.32,0,3.86.23,7.72.57,11.58H89.52c-29.4,0-53.13-23.84-53.13-53.13V93.44c0-27.59,22.36-49.95,49.95-49.95h10.79v21.23c0,22.59,18.28,40.98,40.98,40.98h25.09c22.59,0,40.98-18.39,40.98-41.1v-21.12h56.54v21.12c0,22.71,18.39,41.1,41.1,41.1h24.98c22.71,0,41.1-18.39,41.1-41.1v-21.12h10.79c27.47,0,49.95,22.48,49.95,49.95v193.9c-11.35-6.58-23.73-11.58-36.78-14.53v-124.2H73.06v209.34c0,8.97,7.38,16.23,16.35,16.23h146.34Zm-66.24-189.22c0-3.48-2.83-6.31-6.31-6.31h-50.79c-3.49,0-6.32,2.83-6.32,6.31v27.95c0,3.49,2.83,6.31,6.32,6.31h50.79c3.49,0,6.31-2.82,6.31-6.31v-27.95Zm-6.31,118.67h-50.79c-3.49,0-6.32,2.83-6.32,6.31v27.95c0,3.49,2.83,6.31,6.32,6.31h50.79c3.49,0,6.31-2.83,6.31-6.31v-27.95c0-3.49-2.83-6.31-6.31-6.31Zm189.38-84.41c3.49,0,6.31-2.82,6.31-6.31v-27.95c0-3.48-2.83-6.31-6.31-6.31h-50.79c-3.49,0-6.31,2.83-6.31,6.31v27.95c0,3.49,2.83,6.31,6.31,6.31h50.79Zm-88.38-34.26c0-3.48-2.82-6.31-6.31-6.31h-50.79c-3.49,0-6.31,2.83-6.31,6.31v27.95c0,3.49,2.83,6.31,6.31,6.31h50.79c3.49,0,6.31-2.82,6.31-6.31v-27.95Zm.05,124.97c0-3.52-2.84-6.24-6.36-6.24h-50.75c-3.52,0-6.36,2.72-6.36,6.24v27.93c0,3.52,2.84,6.36,6.36,6.36h38.48c4.88-10.56,11.24-20.21,18.62-28.95v-5.34Zm-94.74-62.47c0-3.49-2.83-6.31-6.31-6.31h-50.79c-3.49,0-6.32,2.83-6.32,6.31v27.95c0,3.49,2.83,6.31,6.32,6.31h50.79c3.49,0,6.31-2.82,6.31-6.31v-27.95Zm125.95,27.96c0,3.52,2.84,6.36,6.36,6.36h6.47c15.44-7.27,32.58-11.47,50.63-12.03v-22.25c0-3.52-2.84-6.36-6.36-6.36h-50.75c-3.52,0-6.36,2.84-6.36,6.36v27.93Zm-37.58-34.27h-50.79c-3.49,0-6.31,2.83-6.31,6.31v27.95c0,3.49,2.83,6.31,6.31,6.31h50.79c3.49,0,6.31-2.82,6.31-6.31v-27.95c0-3.49-2.82-6.31-6.31-6.31Zm-119.83-163.31h25.15c7.32,0,13.25-5.93,13.25-13.25V13.25c0-7.32-5.93-13.25-13.25-13.25h-25.15c-7.32,0-13.25,5.93-13.25,13.25v51.33c0,7.32,5.93,13.25,13.25,13.25Zm163.72,0h25.15c7.32,0,13.25-5.93,13.25-13.25V13.25c0-7.32-5.93-13.25-13.25-13.25h-25.15c-7.32,0-13.25,5.93-13.25,13.25v51.33c0,7.32,5.93,13.25,13.25,13.25Zm161.84,321.72c0,55.47-44.97,100.44-100.44,100.44s-100.44-44.97-100.44-100.44,44.97-100.44,100.44-100.44,100.44,44.97,100.44,100.44Zm-103.33-21.5c0-4.04.74-7.02,2.21-8.95,1.47-1.93,3.42-2.89,5.85-2.89,6.46,0,9.7,3.73,9.7,11.19h23.53c0-9.36-2.98-16.78-8.95-22.24-5.97-5.47-14.27-8.2-24.92-8.2-9.93,0-17.81,2.74-23.63,8.23-5.82,5.49-8.73,13.11-8.73,22.85l.43,15.47h-10.98v18.54h11.55l.36,9.66-.07,3.79c-.14,4.2-1.57,6.65-4.28,7.37h-7.34v19.25h76.22v-19.25h-43.35c2.8-3.1,4.21-7.37,4.21-12.81l-.36-8.01h21.1v-18.54h-21.89l-.64-15.47Z"/></svg>